solid SIM_ICUB3_R_FOOT_FRONT
  facet normal -1.000000e+00 -4.409422e-15 4.553664e-15
    outer loop
      vertex -9.215000e+01 1.212212e+01 -5.993066e+02
      vertex -9.215000e+01 1.182123e+01 -6.058395e+02
      vertex -9.215000e+01 8.931240e+00 -6.055172e+02
    endloop
  endfacet
  facet normal 3.937764e-16 -1.108382e-01 -9.938385e-01
    outer loop
      vertex -9.165000e+01 8.931240e+00 -6.055172e+02
      vertex -9.215000e+01 8.931240e+00 -6.055172e+02
      vertex -9.215000e+01 1.182123e+01 -6.058395e+02
    endloop
  endfacet
  facet normal -1.000000e+00 -2.314256e-16 2.407080e-15
    outer loop
      vertex -9.215000e+01 8.744402e+00 -5.996314e+02
      vertex -9.215000e+01 1.212212e+01 -5.993066e+02
      vertex -9.215000e+01 8.931240e+00 -6.055172e+02
    endloop
  endfacet
  facet normal -1.000000e+00 -5.577557e-15 2.237373e-15
    outer loop
      vertex -9.215000e+01 7.306105e+00 -6.032169e+02
      vertex -9.215000e+01 8.744402e+00 -5.996314e+02
      vertex -9.215000e+01 8.931240e+00 -6.055172e+02
    endloop
  endfacet
  facet normal 2.901613e-15 -8.167315e-01 -5.770179e-01
    outer loop
      vertex -9.165000e+01 7.306105e+00 -6.032169e+02
      vertex -9.215000e+01 7.306105e+00 -6.032169e+02
      vertex -9.215000e+01 8.931240e+00 -6.055172e+02
    endloop
  endfacet
  facet normal 2.838197e-15 -8.167315e-01 -5.770179e-01
    outer loop
      vertex -9.165000e+01 7.306105e+00 -6.032169e+02
      vertex -9.215000e+01 8.931240e+00 -6.055172e+02
      vertex -9.165000e+01 8.931240e+00 -6.055172e+02
    endloop
  endfacet
  facet normal -1.000000e+00 -4.557950e-15 4.560505e-15
    outer loop
      vertex -9.215000e+01 1.212212e+01 -5.993066e+02
      vertex -9.215000e+01 1.403970e+01 -6.036223e+02
      vertex -9.215000e+01 1.182123e+01 -6.058395e+02
    endloop
  endfacet
  facet normal -2.511444e-15 7.069086e-01 -7.073049e-01
    outer loop
      vertex -9.165000e+01 1.182123e+01 -6.058395e+02
      vertex -9.215000e+01 1.182123e+01 -6.058395e+02
      vertex -9.215000e+01 1.403970e+01 -6.036223e+02
    endloop
  endfacet
  facet normal 3.937764e-16 -1.108382e-01 -9.938385e-01
    outer loop
      vertex -9.165000e+01 1.182123e+01 -6.058395e+02
      vertex -9.165000e+01 8.931240e+00 -6.055172e+02
      vertex -9.215000e+01 1.182123e+01 -6.058395e+02
    endloop
  endfacet
  facet normal 3.246643e-15 9.138488e-01 4.060546e-01
    outer loop
      vertex -9.165000e+01 1.403970e+01 -6.036223e+02
      vertex -9.215000e+01 1.403970e+01 -6.036223e+02
      vertex -9.215000e+01 1.212212e+01 -5.993066e+02
    endloop
  endfacet
  facet normal 2.265387e-15 7.069086e-01 -7.073049e-01
    outer loop
      vertex -9.165000e+01 1.182123e+01 -6.058395e+02
      vertex -9.215000e+01 1.403970e+01 -6.036223e+02
      vertex -9.165000e+01 1.403970e+01 -6.036223e+02
    endloop
  endfacet
  facet normal -5.329008e-13 -9.570240e-02 9.954100e-01
    outer loop
      vertex -9.165000e+01 1.212212e+01 -5.993066e+02
      vertex -9.215000e+01 1.212212e+01 -5.993066e+02
      vertex -9.215000e+01 8.744402e+00 -5.996314e+02
    endloop
  endfacet
  facet normal 5.815268e-13 9.138488e-01 4.060546e-01
    outer loop
      vertex -9.165000e+01 1.403970e+01 -6.036223e+02
      vertex -9.215000e+01 1.212212e+01 -5.993066e+02
      vertex -9.165000e+01 1.212212e+01 -5.993066e+02
    endloop
  endfacet
  facet normal 3.297316e-15 -9.281119e-01 3.723014e-01
    outer loop
      vertex -9.165000e+01 8.744402e+00 -5.996314e+02
      vertex -9.215000e+01 8.744402e+00 -5.996314e+02
      vertex -9.215000e+01 7.306105e+00 -6.032169e+02
    endloop
  endfacet
  facet normal 3.926180e-16 -9.570240e-02 9.954100e-01
    outer loop
      vertex -9.165000e+01 1.212212e+01 -5.993066e+02
      vertex -9.215000e+01 8.744402e+00 -5.996314e+02
      vertex -9.165000e+01 8.744402e+00 -5.996314e+02
    endloop
  endfacet
  facet normal 3.218655e-15 -9.281119e-01 3.723014e-01
    outer loop
      vertex -9.165000e+01 8.744402e+00 -5.996314e+02
      vertex -9.215000e+01 7.306105e+00 -6.032169e+02
      vertex -9.165000e+01 7.306105e+00 -6.032169e+02
    endloop
  endfacet
  facet normal 1.000000e+00 1.999317e-15 -4.765387e-15
    outer loop
      vertex -9.165000e+01 8.744402e+00 -5.996314e+02
      vertex -9.165000e+01 7.306105e+00 -6.032169e+02
      vertex -9.165000e+01 8.931240e+00 -6.055172e+02
    endloop
  endfacet
  facet normal 1.000000e+00 4.394289e-15 -4.689361e-15
    outer loop
      vertex -9.165000e+01 1.182123e+01 -6.058395e+02
      vertex -9.165000e+01 8.744402e+00 -5.996314e+02
      vertex -9.165000e+01 8.931240e+00 -6.055172e+02
    endloop
  endfacet
  facet normal 1.000000e+00 4.646090e-15 -4.564564e-15
    outer loop
      vertex -9.165000e+01 1.182123e+01 -6.058395e+02
      vertex -9.165000e+01 1.212212e+01 -5.993066e+02
      vertex -9.165000e+01 8.744402e+00 -5.996314e+02
    endloop
  endfacet
  facet normal 1.000000e+00 4.557950e-15 -4.560505e-15
    outer loop
      vertex -9.165000e+01 1.182123e+01 -6.058395e+02
      vertex -9.165000e+01 1.403970e+01 -6.036223e+02
      vertex -9.165000e+01 1.212212e+01 -5.993066e+02
    endloop
  endfacet
  facet normal -1.000000e+00 -4.657869e-15 5.199454e-15
    outer loop
      vertex -9.215000e+01 1.925179e+01 -5.710544e+02
      vertex -9.215000e+01 4.212734e+01 -5.942920e+02
      vertex -9.215000e+01 1.212212e+01 -5.993066e+02
    endloop
  endfacet
  facet normal 5.867353e-13 1.648403e-01 -9.863203e-01
    outer loop
      vertex -9.165000e+01 1.212212e+01 -5.993066e+02
      vertex -9.215000e+01 1.212212e+01 -5.993066e+02
      vertex -9.215000e+01 4.212734e+01 -5.942920e+02
    endloop
  endfacet
  facet normal 6.889437e-15 -9.696021e-01 2.446871e-01
    outer loop
      vertex -9.165000e+01 1.925179e+01 -5.710544e+02
      vertex -9.215000e+01 1.925179e+01 -5.710544e+02
      vertex -9.215000e+01 1.212212e+01 -5.993066e+02
    endloop
  endfacet
  facet normal -9.246986e-13 -9.696021e-01 2.446871e-01
    outer loop
      vertex -9.165000e+01 1.925179e+01 -5.710544e+02
      vertex -9.215000e+01 1.212212e+01 -5.993066e+02
      vertex -9.165000e+01 1.212212e+01 -5.993066e+02
    endloop
  endfacet
  facet normal -1.000000e+00 -4.710212e-15 5.147926e-15
    outer loop
      vertex -9.215000e+01 1.925179e+01 -5.710544e+02
      vertex -9.215000e+01 2.605547e+01 -5.703503e+02
      vertex -9.215000e+01 4.212734e+01 -5.942920e+02
    endloop
  endfacet
  facet normal 0.000000e+00 8.302735e-01 5.573561e-01
    outer loop
      vertex -9.165000e+01 4.212734e+01 -5.942920e+02
      vertex -9.215000e+01 4.212734e+01 -5.942920e+02
      vertex -9.215000e+01 2.605547e+01 -5.703503e+02
    endloop
  endfacet
  facet normal 0.000000e+00 1.648403e-01 -9.863203e-01
    outer loop
      vertex -9.165000e+01 4.212734e+01 -5.942920e+02
      vertex -9.165000e+01 1.212212e+01 -5.993066e+02
      vertex -9.215000e+01 4.212734e+01 -5.942920e+02
    endloop
  endfacet
  facet normal -1.000000e+00 -2.832309e-15 7.995123e-15
    outer loop
      vertex -9.215000e+01 2.148492e+01 -5.666371e+02
      vertex -9.215000e+01 2.478397e+01 -5.672458e+02
      vertex -9.215000e+01 2.605547e+01 -5.703503e+02
    endloop
  endfacet
  facet normal 0.000000e+00 9.253902e-01 3.790157e-01
    outer loop
      vertex -9.165000e+01 2.605547e+01 -5.703503e+02
      vertex -9.215000e+01 2.605547e+01 -5.703503e+02
      vertex -9.215000e+01 2.478397e+01 -5.672458e+02
    endloop
  endfacet
  facet normal -1.000000e+00 -4.759391e-15 5.623080e-15
    outer loop
      vertex -9.215000e+01 1.925179e+01 -5.710544e+02
      vertex -9.215000e+01 2.148492e+01 -5.666371e+02
      vertex -9.215000e+01 2.605547e+01 -5.703503e+02
    endloop
  endfacet
  facet normal 0.000000e+00 8.302735e-01 5.573561e-01
    outer loop
      vertex -9.165000e+01 4.212734e+01 -5.942920e+02
      vertex -9.215000e+01 2.605547e+01 -5.703503e+02
      vertex -9.165000e+01 2.605547e+01 -5.703503e+02
    endloop
  endfacet
  facet normal 0.000000e+00 1.814554e-01 9.833992e-01
    outer loop
      vertex -9.165000e+01 2.478397e+01 -5.672458e+02
      vertex -9.215000e+01 2.478397e+01 -5.672458e+02
      vertex -9.215000e+01 2.148492e+01 -5.666371e+02
    endloop
  endfacet
  facet normal 0.000000e+00 9.253902e-01 3.790157e-01
    outer loop
      vertex -9.165000e+01 2.605547e+01 -5.703503e+02
      vertex -9.215000e+01 2.478397e+01 -5.672458e+02
      vertex -9.165000e+01 2.478397e+01 -5.672458e+02
    endloop
  endfacet
  facet normal 6.341187e-15 -8.924427e-01 4.511608e-01
    outer loop
      vertex -9.165000e+01 2.148492e+01 -5.666371e+02
      vertex -9.215000e+01 2.148492e+01 -5.666371e+02
      vertex -9.215000e+01 1.925179e+01 -5.710544e+02
    endloop
  endfacet
  facet normal -1.323765e-15 1.814554e-01 9.833992e-01
    outer loop
      vertex -9.165000e+01 2.478397e+01 -5.672458e+02
      vertex -9.215000e+01 2.148492e+01 -5.666371e+02
      vertex -9.165000e+01 2.148492e+01 -5.666371e+02
    endloop
  endfacet
  facet normal 6.459809e-15 -8.924427e-01 4.511608e-01
    outer loop
      vertex -9.165000e+01 2.148492e+01 -5.666371e+02
      vertex -9.215000e+01 1.925179e+01 -5.710544e+02
      vertex -9.165000e+01 1.925179e+01 -5.710544e+02
    endloop
  endfacet
  facet normal 1.000000e+00 4.163402e-15 -5.074671e-15
    outer loop
      vertex -9.165000e+01 4.212734e+01 -5.942920e+02
      vertex -9.165000e+01 1.925179e+01 -5.710544e+02
      vertex -9.165000e+01 1.212212e+01 -5.993066e+02
    endloop
  endfacet
  facet normal 1.000000e+00 7.337102e-15 -6.926203e-15
    outer loop
      vertex -9.165000e+01 2.478397e+01 -5.672458e+02
      vertex -9.165000e+01 2.148492e+01 -5.666371e+02
      vertex -9.165000e+01 1.925179e+01 -5.710544e+02
    endloop
  endfacet
  facet normal 1.000000e+00 4.462031e-15 -2.750050e-15
    outer loop
      vertex -9.165000e+01 2.605547e+01 -5.703503e+02
      vertex -9.165000e+01 2.478397e+01 -5.672458e+02
      vertex -9.165000e+01 1.925179e+01 -5.710544e+02
    endloop
  endfacet
  facet normal 1.000000e+00 4.652770e-15 -4.592926e-15
    outer loop
      vertex -9.165000e+01 4.212734e+01 -5.942920e+02
      vertex -9.165000e+01 2.605547e+01 -5.703503e+02
      vertex -9.165000e+01 1.925179e+01 -5.710544e+02
    endloop
  endfacet
  facet normal -1.000000e+00 -2.673398e-15 3.106822e-15
    outer loop
      vertex -9.215000e+01 4.212734e+01 -5.942920e+02
      vertex -9.215000e+01 4.704094e+01 -5.992120e+02
      vertex -9.215000e+01 4.220989e+01 -5.987950e+02
    endloop
  endfacet
  facet normal 1.222088e-15 -8.599680e-02 -9.962954e-01
    outer loop
      vertex -9.165000e+01 4.220989e+01 -5.987950e+02
      vertex -9.215000e+01 4.220989e+01 -5.987950e+02
      vertex -9.215000e+01 4.704094e+01 -5.992120e+02
    endloop
  endfacet
  facet normal 0.000000e+00 -9.998320e-01 -1.832996e-02
    outer loop
      vertex -9.165000e+01 4.212734e+01 -5.942920e+02
      vertex -9.215000e+01 4.212734e+01 -5.942920e+02
      vertex -9.215000e+01 4.220989e+01 -5.987950e+02
    endloop
  endfacet
  facet normal 1.422352e-14 -9.998320e-01 -1.832996e-02
    outer loop
      vertex -9.165000e+01 4.212734e+01 -5.942920e+02
      vertex -9.215000e+01 4.220989e+01 -5.987950e+02
      vertex -9.165000e+01 4.220989e+01 -5.987950e+02
    endloop
  endfacet
  facet normal -1.000000e+00 -3.157845e-15 2.623010e-15
    outer loop
      vertex -9.215000e+01 4.212734e+01 -5.942920e+02
      vertex -9.215000e+01 4.705079e+01 -5.937824e+02
      vertex -9.215000e+01 4.704094e+01 -5.992120e+02
    endloop
  endfacet
  facet normal 8.372021e-13 9.999984e-01 -1.813394e-03
    outer loop
      vertex -9.165000e+01 4.704094e+01 -5.992120e+02
      vertex -9.215000e+01 4.704094e+01 -5.992120e+02
      vertex -9.215000e+01 4.705079e+01 -5.937824e+02
    endloop
  endfacet
  facet normal -7.516972e-13 -8.599680e-02 -9.962954e-01
    outer loop
      vertex -9.165000e+01 4.704094e+01 -5.992120e+02
      vertex -9.165000e+01 4.220989e+01 -5.987950e+02
      vertex -9.215000e+01 4.704094e+01 -5.992120e+02
    endloop
  endfacet
  facet normal 1.463012e-15 -1.029503e-01 9.946865e-01
    outer loop
      vertex -9.165000e+01 4.705079e+01 -5.937824e+02
      vertex -9.215000e+01 4.705079e+01 -5.937824e+02
      vertex -9.215000e+01 4.212734e+01 -5.942920e+02
    endloop
  endfacet
  facet normal -1.421101e-14 9.999984e-01 -1.813394e-03
    outer loop
      vertex -9.165000e+01 4.704094e+01 -5.992120e+02
      vertex -9.215000e+01 4.705079e+01 -5.937824e+02
      vertex -9.165000e+01 4.705079e+01 -5.937824e+02
    endloop
  endfacet
  facet normal 0.000000e+00 -1.029503e-01 9.946865e-01
    outer loop
      vertex -9.165000e+01 4.705079e+01 -5.937824e+02
      vertex -9.215000e+01 4.212734e+01 -5.942920e+02
      vertex -9.165000e+01 4.212734e+01 -5.942920e+02
    endloop
  endfacet
  facet normal 1.000000e+00 6.413815e-15 -6.194083e-15
    outer loop
      vertex -9.165000e+01 4.705079e+01 -5.937824e+02
      vertex -9.165000e+01 4.212734e+01 -5.942920e+02
      vertex -9.165000e+01 4.220989e+01 -5.987950e+02
    endloop
  endfacet
  facet normal 1.000000e+00 5.430458e-15 -5.244414e-15
    outer loop
      vertex -9.165000e+01 4.704094e+01 -5.992120e+02
      vertex -9.165000e+01 4.705079e+01 -5.937824e+02
      vertex -9.165000e+01 4.220989e+01 -5.987950e+02
    endloop
  endfacet
  facet normal -1.000000e+00 -3.206989e-15 3.970794e-15
    outer loop
      vertex -3.555000e+01 -6.345296e+00 -6.265502e+02
      vertex -3.555000e+01 -2.576013e+00 -6.306637e+02
      vertex -3.555000e+01 -6.052851e+00 -6.298929e+02
    endloop
  endfacet
  facet normal 0.000000e+00 -2.164396e-01 -9.762960e-01
    outer loop
      vertex -3.525000e+01 -6.052851e+00 -6.298929e+02
      vertex -3.555000e+01 -6.052851e+00 -6.298929e+02
      vertex -3.555000e+01 -2.576013e+00 -6.306637e+02
    endloop
  endfacet
  facet normal 2.949329e-15 -9.961947e-01 -8.715572e-02
    outer loop
      vertex -3.525000e+01 -6.345296e+00 -6.265502e+02
      vertex -3.555000e+01 -6.345296e+00 -6.265502e+02
      vertex -3.555000e+01 -6.052851e+00 -6.298929e+02
    endloop
  endfacet
  facet normal 0.000000e+00 -9.961947e-01 -8.715572e-02
    outer loop
      vertex -3.525000e+01 -6.345296e+00 -6.265502e+02
      vertex -3.555000e+01 -6.052851e+00 -6.298929e+02
      vertex -3.525000e+01 -6.052851e+00 -6.298929e+02
    endloop
  endfacet
  facet normal -1.000000e+00 -2.675657e-15 4.457670e-15
    outer loop
      vertex -3.555000e+01 -6.345296e+00 -6.265502e+02
      vertex -3.555000e+01 -2.134460e+00 -6.256167e+02
      vertex -3.555000e+01 -2.576013e+00 -6.306637e+02
    endloop
  endfacet
  facet normal -1.474664e-15 9.961947e-01 -8.715576e-02
    outer loop
      vertex -3.525000e+01 -2.576013e+00 -6.306637e+02
      vertex -3.555000e+01 -2.576013e+00 -6.306637e+02
      vertex -3.555000e+01 -2.134460e+00 -6.256167e+02
    endloop
  endfacet
  facet normal 3.203949e-16 -2.164396e-01 -9.762960e-01
    outer loop
      vertex -3.525000e+01 -2.576013e+00 -6.306637e+02
      vertex -3.525000e+01 -6.052851e+00 -6.298929e+02
      vertex -3.555000e+01 -2.576013e+00 -6.306637e+02
    endloop
  endfacet
  facet normal 3.203950e-16 -2.164396e-01 9.762960e-01
    outer loop
      vertex -3.525000e+01 -2.134460e+00 -6.256167e+02
      vertex -3.555000e+01 -2.134460e+00 -6.256167e+02
      vertex -3.555000e+01 -6.345296e+00 -6.265502e+02
    endloop
  endfacet
  facet normal -1.460940e-15 9.961947e-01 -8.715576e-02
    outer loop
      vertex -3.525000e+01 -2.576013e+00 -6.306637e+02
      vertex -3.555000e+01 -2.134460e+00 -6.256167e+02
      vertex -3.525000e+01 -2.134460e+00 -6.256167e+02
    endloop
  endfacet
  facet normal 1.372847e-15 -2.164396e-01 9.762960e-01
    outer loop
      vertex -3.525000e+01 -2.134460e+00 -6.256167e+02
      vertex -3.555000e+01 -6.345296e+00 -6.265502e+02
      vertex -3.525000e+01 -6.345296e+00 -6.265502e+02
    endloop
  endfacet
  facet normal 1.000000e+00 2.579882e-15 -4.025659e-15
    outer loop
      vertex -3.525000e+01 -2.134460e+00 -6.256167e+02
      vertex -3.525000e+01 -6.345296e+00 -6.265502e+02
      vertex -3.525000e+01 -6.052851e+00 -6.298929e+02
    endloop
  endfacet
  facet normal 1.000000e+00 3.090995e-15 -4.494007e-15
    outer loop
      vertex -3.525000e+01 -2.576013e+00 -6.306637e+02
      vertex -3.525000e+01 -2.134460e+00 -6.256167e+02
      vertex -3.525000e+01 -6.052851e+00 -6.298929e+02
    endloop
  endfacet
  facet normal -8.433729e-01 -4.741885e-01 2.527202e-01
    outer loop
      vertex -3.245000e+01 2.108067e+01 -6.383343e+02
      vertex -3.610000e+01 3.096909e+01 -6.319610e+02
      vertex -3.610000e+01 2.071263e+01 -6.512056e+02
    endloop
  endfacet
  facet normal -1.000000e+00 -4.013235e-15 4.723384e-15
    outer loop
      vertex -3.610000e+01 2.537310e+01 -6.502544e+02
      vertex -3.610000e+01 2.071263e+01 -6.512056e+02
      vertex -3.610000e+01 3.096909e+01 -6.319610e+02
    endloop
  endfacet
  facet normal 0.000000e+00 -9.995914e-01 2.858258e-02
    outer loop
      vertex -3.215000e+01 2.108067e+01 -6.383343e+02
      vertex -3.245000e+01 2.108067e+01 -6.383343e+02
      vertex -3.610000e+01 2.071263e+01 -6.512056e+02
    endloop
  endfacet
  facet normal -3.597139e-16 1.999696e-01 -9.798021e-01
    outer loop
      vertex -3.215000e+01 2.071263e+01 -6.512056e+02
      vertex -3.610000e+01 2.071263e+01 -6.512056e+02
      vertex -3.610000e+01 2.537310e+01 -6.502544e+02
    endloop
  endfacet
  facet normal 1.798626e-15 -9.995914e-01 2.858258e-02
    outer loop
      vertex -3.215000e+01 2.108067e+01 -6.383343e+02
      vertex -3.610000e+01 2.071263e+01 -6.512056e+02
      vertex -3.215000e+01 2.071263e+01 -6.512056e+02
    endloop
  endfacet
  facet normal -9.361139e-01 -3.515722e-01 9.363475e-03
    outer loop
      vertex -3.610000e+01 3.110045e+01 -6.270289e+02
      vertex -3.610000e+01 3.096909e+01 -6.319610e+02
      vertex -3.245000e+01 2.108067e+01 -6.383343e+02
    endloop
  endfacet
  facet normal -4.300398e-15 9.562590e-01 -2.925212e-01
    outer loop
      vertex -3.215000e+01 2.537310e+01 -6.502544e+02
      vertex -3.610000e+01 2.537310e+01 -6.502544e+02
      vertex -3.610000e+01 3.096909e+01 -6.319610e+02
    endloop
  endfacet
  facet normal -3.385137e-15 9.562590e-01 -2.925212e-01
    outer loop
      vertex -3.215000e+01 2.537310e+01 -6.502544e+02
      vertex -3.610000e+01 3.096909e+01 -6.319610e+02
      vertex -3.215000e+01 3.096909e+01 -6.319610e+02
    endloop
  endfacet
  facet normal -3.594657e-15 9.996455e-01 -2.662371e-02
    outer loop
      vertex -3.610000e+01 3.110045e+01 -6.270289e+02
      vertex -3.215000e+01 3.096909e+01 -6.319610e+02
      vertex -3.610000e+01 3.096909e+01 -6.319610e+02
    endloop
  endfacet
  facet normal 0.000000e+00 -8.700684e-01 4.929310e-01
    outer loop
      vertex -3.215000e+01 2.703952e+01 -6.278164e+02
      vertex -3.245000e+01 2.108067e+01 -6.383343e+02
      vertex -3.215000e+01 2.108067e+01 -6.383343e+02
    endloop
  endfacet
  facet normal 2.347674e-15 -8.700684e-01 4.929310e-01
    outer loop
      vertex -3.610000e+01 2.703952e+01 -6.278164e+02
      vertex -3.245000e+01 2.108067e+01 -6.383343e+02
      vertex -3.215000e+01 2.703952e+01 -6.278164e+02
    endloop
  endfacet
  facet normal -9.293968e-01 7.026227e-02 -3.623325e-01
    outer loop
      vertex -3.610000e+01 2.703952e+01 -6.278164e+02
      vertex -3.610000e+01 3.110045e+01 -6.270289e+02
      vertex -3.245000e+01 2.108067e+01 -6.383343e+02
    endloop
  endfacet
  facet normal -8.992847e-16 1.999696e-01 -9.798021e-01
    outer loop
      vertex -3.215000e+01 2.537310e+01 -6.502544e+02
      vertex -3.215000e+01 2.071263e+01 -6.512056e+02
      vertex -3.610000e+01 2.537310e+01 -6.502544e+02
    endloop
  endfacet
  facet normal 1.000000e+00 4.087079e-15 -5.085201e-15
    outer loop
      vertex -3.215000e+01 2.537310e+01 -6.502544e+02
      vertex -3.215000e+01 2.108067e+01 -6.383343e+02
      vertex -3.215000e+01 2.071263e+01 -6.512056e+02
    endloop
  endfacet
  facet normal 1.000000e+00 3.875243e-15 -4.897711e-15
    outer loop
      vertex -3.215000e+01 3.096909e+01 -6.319610e+02
      vertex -3.215000e+01 2.703952e+01 -6.278164e+02
      vertex -3.215000e+01 2.108067e+01 -6.383343e+02
    endloop
  endfacet
  facet normal 1.000000e+00 4.013225e-15 -5.111796e-15
    outer loop
      vertex -3.215000e+01 2.537310e+01 -6.502544e+02
      vertex -3.215000e+01 3.096909e+01 -6.319610e+02
      vertex -3.215000e+01 2.108067e+01 -6.383343e+02
    endloop
  endfacet
  facet normal 1.000000e+00 4.360029e-15 -4.438078e-15
    outer loop
      vertex -3.215000e+01 3.096909e+01 -6.319610e+02
      vertex -3.215000e+01 3.110045e+01 -6.270289e+02
      vertex -3.215000e+01 2.703952e+01 -6.278164e+02
    endloop
  endfacet
  facet normal 5.136692e-16 -1.903703e-01 9.817124e-01
    outer loop
      vertex -3.610000e+01 2.703952e+01 -6.278164e+02
      vertex -3.215000e+01 2.703952e+01 -6.278164e+02
      vertex -3.215000e+01 3.110045e+01 -6.270289e+02
    endloop
  endfacet
  facet normal -3.596409e-15 9.996455e-01 -2.662371e-02
    outer loop
      vertex -3.610000e+01 3.110045e+01 -6.270289e+02
      vertex -3.215000e+01 3.110045e+01 -6.270289e+02
      vertex -3.215000e+01 3.096909e+01 -6.319610e+02
    endloop
  endfacet
  facet normal 6.794731e-16 -1.903703e-01 9.817124e-01
    outer loop
      vertex -3.610000e+01 2.703952e+01 -6.278164e+02
      vertex -3.215000e+01 3.110045e+01 -6.270289e+02
      vertex -3.610000e+01 3.110045e+01 -6.270289e+02
    endloop
  endfacet
  facet normal -7.775473e-01 -6.278893e-01 3.428230e-02
    outer loop
      vertex 1.768058e+01 5.049516e+01 -9.404466e+02
      vertex 1.500143e+01 5.381288e+01 -9.404466e+02
      vertex 1.700021e+01 5.107759e+01 -9.452105e+02
    endloop
  endfacet
  facet normal -8.715758e-01 -4.821419e-01 -8.885240e-02
    outer loop
      vertex 1.565130e+01 5.363577e+01 -9.458603e+02
      vertex 1.700021e+01 5.107759e+01 -9.452105e+02
      vertex 1.500143e+01 5.381288e+01 -9.404466e+02
    endloop
  endfacet
  facet normal -6.257196e-02 -9.917013e-01 -1.123088e-01
    outer loop
      vertex 2.552829e+01 5.000000e+01 -9.404466e+02
      vertex 1.768058e+01 5.049516e+01 -9.404466e+02
      vertex 1.700021e+01 5.107759e+01 -9.452105e+02
    endloop
  endfacet
  facet normal -1.054800e-01 -2.966858e-01 -9.491320e-01
    outer loop
      vertex 2.552829e+01 5.200000e+01 -9.464466e+02
      vertex 1.700021e+01 5.107759e+01 -9.452105e+02
      vertex 1.565130e+01 5.363577e+01 -9.458603e+02
    endloop
  endfacet
  facet normal -1.062879e-01 -9.937363e-01 -3.451144e-02
    outer loop
      vertex 2.552829e+01 5.016495e+01 -9.451963e+02
      vertex 2.552829e+01 5.000000e+01 -9.404466e+02
      vertex 1.700021e+01 5.107759e+01 -9.452105e+02
    endloop
  endfacet
  facet normal -5.877533e-02 -5.621092e-01 -8.249720e-01
    outer loop
      vertex 2.552829e+01 5.200000e+01 -9.464466e+02
      vertex 2.552829e+01 5.016495e+01 -9.451963e+02
      vertex 1.700021e+01 5.107759e+01 -9.452105e+02
    endloop
  endfacet
  facet normal 2.131417e-16 -3.409438e-14 1.000000e+00
    outer loop
      vertex 1.129675e+02 5.109084e+01 -9.404466e+02
      vertex 1.500143e+01 5.381288e+01 -9.404466e+02
      vertex 1.768058e+01 5.049516e+01 -9.404466e+02
    endloop
  endfacet
  facet normal -9.928593e-01 -1.025140e-02 -1.188502e-01
    outer loop
      vertex 1.485000e+01 6.847933e+01 -9.404466e+02
      vertex 1.565130e+01 5.363577e+01 -9.458603e+02
      vertex 1.500143e+01 5.381288e+01 -9.404466e+02
    endloop
  endfacet
  facet normal 7.710869e-30 7.751488e-15 1.000000e+00
    outer loop
      vertex 1.148500e+02 6.847933e+01 -9.404466e+02
      vertex 1.485000e+01 6.847933e+01 -9.404466e+02
      vertex 1.500143e+01 5.381288e+01 -9.404466e+02
    endloop
  endfacet
  facet normal 1.140031e-15 -9.793950e-18 1.000000e+00
    outer loop
      vertex 1.147246e+02 5.388740e+01 -9.404466e+02
      vertex 1.148500e+02 6.847933e+01 -9.404466e+02
      vertex 1.500143e+01 5.381288e+01 -9.404466e+02
    endloop
  endfacet
  facet normal 1.140559e-15 -7.166606e-16 1.000000e+00
    outer loop
      vertex 1.129675e+02 5.109084e+01 -9.404466e+02
      vertex 1.147246e+02 5.388740e+01 -9.404466e+02
      vertex 1.500143e+01 5.381288e+01 -9.404466e+02
    endloop
  endfacet
  facet normal 0.000000e+00 0.000000e+00 1.000000e+00
    outer loop
      vertex 1.129675e+02 5.109084e+01 -9.404466e+02
      vertex 1.768058e+01 5.049516e+01 -9.404466e+02
      vertex 2.552829e+01 5.000000e+01 -9.404466e+02
    endloop
  endfacet
  facet normal -5.926016e-02 2.752096e-14 -9.982426e-01
    outer loop
      vertex 2.552829e+01 6.847933e+01 -9.464466e+02
      vertex 2.552829e+01 5.200000e+01 -9.464466e+02
      vertex 1.565130e+01 5.363577e+01 -9.458603e+02
    endloop
  endfacet
  facet normal -9.902811e-01 -2.743949e-03 -1.390531e-01
    outer loop
      vertex 1.563306e+01 6.847933e+01 -9.460233e+02
      vertex 1.565130e+01 5.363577e+01 -9.458603e+02
      vertex 1.485000e+01 6.847933e+01 -9.404466e+02
    endloop
  endfacet
  facet normal -4.273965e-02 -1.102375e-02 -9.990254e-01
    outer loop
      vertex 2.552829e+01 6.847933e+01 -9.464466e+02
      vertex 1.565130e+01 5.363577e+01 -9.458603e+02
      vertex 1.563306e+01 6.847933e+01 -9.460233e+02
    endloop
  endfacet
  facet normal 5.388475e-15 -9.993975e-01 -3.470805e-02
    outer loop
      vertex 9.347038e+01 5.016495e+01 -9.451963e+02
      vertex 2.552829e+01 5.000000e+01 -9.404466e+02
      vertex 2.552829e+01 5.016495e+01 -9.451963e+02
    endloop
  endfacet
  facet normal 0.000000e+00 0.000000e+00 1.000000e+00
    outer loop
      vertex 1.098500e+02 5.000000e+01 -9.404466e+02
      vertex 1.129675e+02 5.109084e+01 -9.404466e+02
      vertex 2.552829e+01 5.000000e+01 -9.404466e+02
    endloop
  endfacet
  facet normal 4.547657e-15 -9.993975e-01 -3.470805e-02
    outer loop
      vertex 1.098500e+02 5.016495e+01 -9.451963e+02
      vertex 1.098500e+02 5.000000e+01 -9.404466e+02
      vertex 2.552829e+01 5.000000e+01 -9.404466e+02
    endloop
  endfacet
  facet normal 5.443326e-15 -9.993975e-01 -3.470805e-02
    outer loop
      vertex 9.347038e+01 5.016495e+01 -9.451963e+02
      vertex 1.098500e+02 5.016495e+01 -9.451963e+02
      vertex 2.552829e+01 5.000000e+01 -9.404466e+02
    endloop
  endfacet
  facet normal 7.446126e-15 -5.630826e-01 -8.264006e-01
    outer loop
      vertex 9.347038e+01 5.200000e+01 -9.464466e+02
      vertex 2.552829e+01 5.016495e+01 -9.451963e+02
      vertex 2.552829e+01 5.200000e+01 -9.464466e+02
    endloop
  endfacet
  facet normal 4.385918e-15 -5.630826e-01 -8.264006e-01
    outer loop
      vertex 9.347038e+01 5.200000e+01 -9.464466e+02
      vertex 9.347038e+01 5.016495e+01 -9.451963e+02
      vertex 2.552829e+01 5.016495e+01 -9.451963e+02
    endloop
  endfacet
  facet normal 5.019870e-15 2.759501e-14 -1.000000e+00
    outer loop
      vertex 9.347038e+01 5.200000e+01 -9.464466e+02
      vertex 2.552829e+01 5.200000e+01 -9.464466e+02
      vertex 2.552829e+01 6.847933e+01 -9.464466e+02
    endloop
  endfacet
  facet normal 0.000000e+00 0.000000e+00 1.000000e+00
    outer loop
      vertex 2.552829e+01 1.023322e+02 -9.404466e+02
      vertex 1.485000e+01 1.531116e+02 -9.404466e+02
      vertex 1.485000e+01 6.847933e+01 -9.404466e+02
    endloop
  endfacet
  facet normal -9.902848e-01 -4.468882e-15 -1.390537e-01
    outer loop
      vertex 1.563306e+01 6.847933e+01 -9.460233e+02
      vertex 1.485000e+01 6.847933e+01 -9.404466e+02
      vertex 1.485000e+01 1.531116e+02 -9.404466e+02
    endloop
  endfacet
  facet normal 0.000000e+00 0.000000e+00 1.000000e+00
    outer loop
      vertex 9.347038e+01 8.540578e+01 -9.404466e+02
      vertex 1.485000e+01 6.847933e+01 -9.404466e+02
      vertex 1.148500e+02 6.847933e+01 -9.404466e+02
    endloop
  endfacet
  facet normal 0.000000e+00 0.000000e+00 1.000000e+00
    outer loop
      vertex 2.552829e+01 8.540578e+01 -9.404466e+02
      vertex 2.552829e+01 1.023322e+02 -9.404466e+02
      vertex 1.485000e+01 6.847933e+01 -9.404466e+02
    endloop
  endfacet
  facet normal 0.000000e+00 0.000000e+00 1.000000e+00
    outer loop
      vertex 5.949933e+01 8.540578e+01 -9.404466e+02
      vertex 2.552829e+01 8.540578e+01 -9.404466e+02
      vertex 1.485000e+01 6.847933e+01 -9.404466e+02
    endloop
  endfacet
  facet normal 0.000000e+00 0.000000e+00 1.000000e+00
    outer loop
      vertex 7.648486e+01 8.540578e+01 -9.404466e+02
      vertex 5.949933e+01 8.540578e+01 -9.404466e+02
      vertex 1.485000e+01 6.847933e+01 -9.404466e+02
    endloop
  endfacet
  facet normal 0.000000e+00 0.000000e+00 1.000000e+00
    outer loop
      vertex 9.347038e+01 8.540578e+01 -9.404466e+02
      vertex 7.648486e+01 8.540578e+01 -9.404466e+02
      vertex 1.485000e+01 6.847933e+01 -9.404466e+02
    endloop
  endfacet
  facet normal 0.000000e+00 0.000000e+00 1.000000e+00
    outer loop
      vertex 1.143548e+02 1.641694e+02 -9.404466e+02
      vertex 1.594084e+01 1.651174e+02 -9.404466e+02
      vertex 1.485000e+01 1.531116e+02 -9.404466e+02
    endloop
  endfacet
  facet normal -9.863005e-01 8.961426e-02 -1.384942e-01
    outer loop
      vertex 1.563306e+01 1.531116e+02 -9.460233e+02
      vertex 1.485000e+01 1.531116e+02 -9.404466e+02
      vertex 1.594084e+01 1.651174e+02 -9.404466e+02
    endloop
  endfacet
  facet normal 0.000000e+00 0.000000e+00 1.000000e+00
    outer loop
      vertex 1.148500e+02 1.531116e+02 -9.404466e+02
      vertex 1.143548e+02 1.641694e+02 -9.404466e+02
      vertex 1.485000e+01 1.531116e+02 -9.404466e+02
    endloop
  endfacet
  facet normal 0.000000e+00 0.000000e+00 1.000000e+00
    outer loop
      vertex 5.949933e+01 1.361851e+02 -9.404466e+02
      vertex 1.148500e+02 1.531116e+02 -9.404466e+02
      vertex 1.485000e+01 1.531116e+02 -9.404466e+02
    endloop
  endfacet
  facet normal 0.000000e+00 0.000000e+00 1.000000e+00
    outer loop
      vertex 1.485000e+01 1.531116e+02 -9.404466e+02
      vertex 2.552829e+01 1.023322e+02 -9.404466e+02
      vertex 4.251381e+01 1.192587e+02 -9.404466e+02
    endloop
  endfacet
  facet normal -9.902848e-01 1.222310e-16 -1.390537e-01
    outer loop
      vertex 1.563306e+01 1.531116e+02 -9.460233e+02
      vertex 1.563306e+01 6.847933e+01 -9.460233e+02
      vertex 1.485000e+01 1.531116e+02 -9.404466e+02
    endloop
  endfacet
  facet normal 0.000000e+00 0.000000e+00 1.000000e+00
    outer loop
      vertex 9.347038e+01 1.670000e+02 -9.404466e+02
      vertex 2.552829e+01 1.670000e+02 -9.404466e+02
      vertex 1.594084e+01 1.651174e+02 -9.404466e+02
    endloop
  endfacet
  facet normal -1.915887e-01 9.757215e-01 -1.061194e-01
    outer loop
      vertex 1.627838e+01 1.645949e+02 -9.458603e+02
      vertex 1.594084e+01 1.651174e+02 -9.404466e+02
      vertex 2.552829e+01 1.670000e+02 -9.404466e+02
    endloop
  endfacet
  facet normal 0.000000e+00 0.000000e+00 1.000000e+00
    outer loop
      vertex 1.101103e+02 1.669707e+02 -9.404466e+02
      vertex 9.347038e+01 1.670000e+02 -9.404466e+02
      vertex 1.594084e+01 1.651174e+02 -9.404466e+02
    endloop
  endfacet
  facet normal 0.000000e+00 0.000000e+00 1.000000e+00
    outer loop
      vertex 1.143548e+02 1.641694e+02 -9.404466e+02
      vertex 1.101103e+02 1.669707e+02 -9.404466e+02
      vertex 1.594084e+01 1.651174e+02 -9.404466e+02
    endloop
  endfacet
  facet normal -9.960867e-01 5.693494e-02 -6.759947e-02
    outer loop
      vertex 1.627838e+01 1.645949e+02 -9.458603e+02
      vertex 1.563306e+01 1.531116e+02 -9.460233e+02
      vertex 1.594084e+01 1.651174e+02 -9.404466e+02
    endloop
  endfacet
  facet normal -4.137123e-15 9.894035e-01 -1.451918e-01
    outer loop
      vertex 2.552829e+01 1.661756e+02 -9.460646e+02
      vertex 2.552829e+01 1.670000e+02 -9.404466e+02
      vertex 9.347038e+01 1.670000e+02 -9.404466e+02
    endloop
  endfacet
  facet normal -1.697773e-01 9.750398e-01 -1.430840e-01
    outer loop
      vertex 2.552829e+01 1.661756e+02 -9.460646e+02
      vertex 1.627838e+01 1.645949e+02 -9.458603e+02
      vertex 2.552829e+01 1.670000e+02 -9.404466e+02
    endloop
  endfacet
  facet normal 1.743866e-03 9.894020e-01 -1.451916e-01
    outer loop
      vertex 9.347038e+01 1.661756e+02 -9.460646e+02
      vertex 9.347038e+01 1.670000e+02 -9.404466e+02
      vertex 1.101103e+02 1.669707e+02 -9.404466e+02
    endloop
  endfacet
  facet normal -4.066892e-15 9.894035e-01 -1.451918e-01
    outer loop
      vertex 9.347038e+01 1.661756e+02 -9.460646e+02
      vertex 2.552829e+01 1.661756e+02 -9.460646e+02
      vertex 9.347038e+01 1.670000e+02 -9.404466e+02
    endloop
  endfacet
  facet normal 5.452259e-01 8.261433e-01 -1.421829e-01
    outer loop
      vertex 1.098500e+02 1.661756e+02 -9.460646e+02
      vertex 1.101103e+02 1.669707e+02 -9.404466e+02
      vertex 1.143548e+02 1.641694e+02 -9.404466e+02
    endloop
  endfacet
  facet normal -2.236379e-15 9.901331e-01 -1.401299e-01
    outer loop
      vertex 1.098500e+02 1.661756e+02 -9.460646e+02
      vertex 9.347038e+01 1.661756e+02 -9.460646e+02
      vertex 1.101103e+02 1.669707e+02 -9.404466e+02
    endloop
  endfacet
  facet normal 9.962948e-01 4.461266e-02 -7.352820e-02
    outer loop
      vertex 1.144680e+02 1.531116e+02 -9.456222e+02
      vertex 1.143548e+02 1.641694e+02 -9.404466e+02
      vertex 1.148500e+02 1.531116e+02 -9.404466e+02
    endloop
  endfacet
  facet normal 5.141115e-01 8.508443e-01 -1.084131e-01
    outer loop
      vertex 1.144611e+02 1.634982e+02 -9.452105e+02
      vertex 1.098500e+02 1.661756e+02 -9.460646e+02
      vertex 1.143548e+02 1.641694e+02 -9.404466e+02
    endloop
  endfacet
  facet normal 9.997508e-01 -2.138323e-04 2.232141e-02
    outer loop
      vertex 1.144611e+02 1.634982e+02 -9.452105e+02
      vertex 1.143548e+02 1.641694e+02 -9.404466e+02
      vertex 1.144680e+02 1.531116e+02 -9.456222e+02
    endloop
  endfacet
  facet normal 0.000000e+00 0.000000e+00 1.000000e+00
    outer loop
      vertex 9.347038e+01 8.540578e+01 -9.404466e+02
      vertex 1.148500e+02 6.847933e+01 -9.404466e+02
      vertex 1.148500e+02 1.531116e+02 -9.404466e+02
    endloop
  endfacet
  facet normal 9.972877e-01 4.353823e-15 -7.360148e-02
    outer loop
      vertex 1.144680e+02 1.531116e+02 -9.456222e+02
      vertex 1.148500e+02 1.531116e+02 -9.404466e+02
      vertex 1.148500e+02 6.847933e+01 -9.404466e+02
    endloop
  endfacet
  facet normal 0.000000e+00 0.000000e+00 1.000000e+00
    outer loop
      vertex 7.648486e+01 1.361851e+02 -9.404466e+02
      vertex 9.347038e+01 1.361851e+02 -9.404466e+02
      vertex 1.148500e+02 1.531116e+02 -9.404466e+02
    endloop
  endfacet
  facet normal 0.000000e+00 0.000000e+00 1.000000e+00
    outer loop
      vertex 9.347038e+01 1.192587e+02 -9.404466e+02
      vertex 1.148500e+02 1.531116e+02 -9.404466e+02
      vertex 9.347038e+01 1.361851e+02 -9.404466e+02
    endloop
  endfacet
  facet normal 0.000000e+00 0.000000e+00 1.000000e+00
    outer loop
      vertex 5.949933e+01 1.361851e+02 -9.404466e+02
      vertex 7.648486e+01 1.361851e+02 -9.404466e+02
      vertex 1.148500e+02 1.531116e+02 -9.404466e+02
    endloop
  endfacet
  facet normal 0.000000e+00 0.000000e+00 1.000000e+00
    outer loop
      vertex 9.347038e+01 1.192587e+02 -9.404466e+02
      vertex 9.347038e+01 8.540578e+01 -9.404466e+02
      vertex 1.148500e+02 1.531116e+02 -9.404466e+02
    endloop
  endfacet
  facet normal 9.985068e-01 -8.578121e-03 -5.394933e-02
    outer loop
      vertex 1.144623e+02 5.376486e+01 -9.452828e+02
      vertex 1.148500e+02 6.847933e+01 -9.404466e+02
      vertex 1.147246e+02 5.388740e+01 -9.404466e+02
    endloop
  endfacet
  facet normal 9.972856e-01 -2.086927e-03 -7.360132e-02
    outer loop
      vertex 1.144680e+02 6.847933e+01 -9.456222e+02
      vertex 1.148500e+02 6.847933e+01 -9.404466e+02
      vertex 1.144623e+02 5.376486e+01 -9.452828e+02
    endloop
  endfacet
  facet normal 9.972877e-01 7.564047e-15 -7.360148e-02
    outer loop
      vertex 1.144680e+02 1.531116e+02 -9.456222e+02
      vertex 1.148500e+02 6.847933e+01 -9.404466e+02
      vertex 1.144680e+02 6.847933e+01 -9.456222e+02
    endloop
  endfacet
  facet normal 8.458263e-01 -5.314676e-01 -4.604390e-02
    outer loop
      vertex 1.126998e+02 5.107759e+01 -9.452105e+02
      vertex 1.147246e+02 5.388740e+01 -9.404466e+02
      vertex 1.129675e+02 5.109084e+01 -9.404466e+02
    endloop
  endfacet
  facet normal 8.353940e-01 -5.487531e-01 -3.141456e-02
    outer loop
      vertex 1.144623e+02 5.376486e+01 -9.452828e+02
      vertex 1.147246e+02 5.388740e+01 -9.404466e+02
      vertex 1.126998e+02 5.107759e+01 -9.452105e+02
    endloop
  endfacet
  facet normal 3.301018e-01 -9.433766e-01 -3.276250e-02
    outer loop
      vertex 1.098500e+02 5.016495e+01 -9.451963e+02
      vertex 1.129675e+02 5.109084e+01 -9.404466e+02
      vertex 1.098500e+02 5.000000e+01 -9.404466e+02
    endloop
  endfacet
  facet normal 3.048922e-01 -9.522768e-01 -1.448118e-02
    outer loop
      vertex 1.126998e+02 5.107759e+01 -9.452105e+02
      vertex 1.129675e+02 5.109084e+01 -9.404466e+02
      vertex 1.098500e+02 5.016495e+01 -9.451963e+02
    endloop
  endfacet
  facet normal -5.890417e-16 -1.173420e-01 9.930916e-01
    outer loop
      vertex 7.648486e+01 1.192587e+02 -9.424466e+02
      vertex 9.347038e+01 1.361851e+02 -9.404466e+02
      vertex 7.648486e+01 1.361851e+02 -9.404466e+02
    endloop
  endfacet
  facet normal -1.169395e-01 -1.570853e-15 9.931390e-01
    outer loop
      vertex 7.648486e+01 1.192587e+02 -9.424466e+02
      vertex 9.347038e+01 1.192587e+02 -9.404466e+02
      vertex 9.347038e+01 1.361851e+02 -9.404466e+02
    endloop
  endfacet
  facet normal -2.517051e-15 5.023912e-01 8.646404e-01
    outer loop
      vertex 6.915475e+01 1.287846e+02 -9.361466e+02
      vertex 7.648486e+01 1.361851e+02 -9.404466e+02
      vertex 5.949933e+01 1.361851e+02 -9.404466e+02
    endloop
  endfacet
  facet normal 5.740329e-01 -9.608342e-02 8.131754e-01
    outer loop
      vertex 6.915475e+01 1.287846e+02 -9.361466e+02
      vertex 7.648486e+01 1.192587e+02 -9.424466e+02
      vertex 7.648486e+01 1.361851e+02 -9.404466e+02
    endloop
  endfacet
  facet normal 0.000000e+00 0.000000e+00 1.000000e+00
    outer loop
      vertex 4.251381e+01 1.192587e+02 -9.404466e+02
      vertex 5.949933e+01 1.361851e+02 -9.404466e+02
      vertex 1.485000e+01 1.531116e+02 -9.404466e+02
    endloop
  endfacet
  facet normal 1.161425e-01 -1.165479e-01 9.863709e-01
    outer loop
      vertex 5.949933e+01 1.192587e+02 -9.424466e+02
      vertex 5.949933e+01 1.361851e+02 -9.404466e+02
      vertex 4.251381e+01 1.192587e+02 -9.404466e+02
    endloop
  endfacet
  facet normal -9.494392e-01 -3.683965e-02 3.117822e-01
    outer loop
      vertex 6.118527e+01 1.291267e+02 -9.361466e+02
      vertex 5.949933e+01 1.361851e+02 -9.404466e+02
      vertex 5.949933e+01 1.192587e+02 -9.424466e+02
    endloop
  endfacet
  facet normal 2.249511e-02 5.240439e-01 8.513941e-01
    outer loop
      vertex 6.915475e+01 1.287846e+02 -9.361466e+02
      vertex 5.949933e+01 1.361851e+02 -9.404466e+02
      vertex 6.118527e+01 1.291267e+02 -9.361466e+02
    endloop
  endfacet
  facet normal -1.894892e-01 1.901506e-01 9.632946e-01
    outer loop
      vertex 4.511207e+01 1.020061e+02 -9.365299e+02
      vertex 4.251381e+01 1.192587e+02 -9.404466e+02
      vertex 2.552829e+01 1.023322e+02 -9.404466e+02
    endloop
  endfacet
  facet normal -9.888490e-01 -1.489220e-01 1.833078e-14
    outer loop
      vertex 4.511207e+01 1.020061e+02 -9.361466e+02
      vertex 4.251381e+01 1.192587e+02 -9.404466e+02
      vertex 4.511207e+01 1.020061e+02 -9.365299e+02
    endloop
  endfacet
  facet normal -2.913201e-01 1.898134e-01 9.376052e-01
    outer loop
      vertex 6.118527e+01 1.266747e+02 -9.361466e+02
      vertex 4.251381e+01 1.192587e+02 -9.404466e+02
      vertex 4.511207e+01 1.020061e+02 -9.361466e+02
    endloop
  endfacet
  facet normal -8.821267e-02 6.564785e-01 -7.491692e-01
    outer loop
      vertex 5.949933e+01 1.192587e+02 -9.424466e+02
      vertex 4.251381e+01 1.192587e+02 -9.404466e+02
      vertex 6.118527e+01 1.266747e+02 -9.361466e+02
    endloop
  endfacet
  facet normal -1.961133e-01 0.000000e+00 9.805812e-01
    outer loop
      vertex 4.511207e+01 1.020061e+02 -9.365299e+02
      vertex 2.552829e+01 1.023322e+02 -9.404466e+02
      vertex 2.552829e+01 8.540578e+01 -9.404466e+02
    endloop
  endfacet
  facet normal 0.000000e+00 0.000000e+00 1.000000e+00
    outer loop
      vertex 5.949933e+01 8.540578e+01 -9.404466e+02
      vertex 4.096824e+01 8.594660e+01 -9.404466e+02
      vertex 2.552829e+01 8.540578e+01 -9.404466e+02
    endloop
  endfacet
  facet normal 8.370521e-03 -2.389720e-01 9.709904e-01
    outer loop
      vertex 4.511207e+01 1.020061e+02 -9.365299e+02
      vertex 2.552829e+01 8.540578e+01 -9.404466e+02
      vertex 4.096824e+01 8.594660e+01 -9.404466e+02
    endloop
  endfacet
  facet normal -1.248161e-02 -4.276814e-01 9.038434e-01
    outer loop
      vertex 4.906446e+01 9.479775e+01 -9.361466e+02
      vertex 4.096824e+01 8.594660e+01 -9.404466e+02
      vertex 5.949933e+01 8.540578e+01 -9.404466e+02
    endloop
  endfacet
  facet normal -9.682852e-01 2.498474e-01 1.794958e-14
    outer loop
      vertex 4.511207e+01 1.020061e+02 -9.361466e+02
      vertex 4.511207e+01 1.020061e+02 -9.365299e+02
      vertex 4.096824e+01 8.594660e+01 -9.404466e+02
    endloop
  endfacet
  facet normal -3.105396e-01 -1.702717e-01 9.351859e-01
    outer loop
      vertex 4.906446e+01 9.479775e+01 -9.361466e+02
      vertex 4.511207e+01 1.020061e+02 -9.361466e+02
      vertex 4.096824e+01 8.594660e+01 -9.404466e+02
    endloop
  endfacet
  facet normal -1.987983e-16 -2.326653e-01 9.725569e-01
    outer loop
      vertex 8.211349e+01 1.017779e+02 -9.365299e+02
      vertex 5.949933e+01 8.540578e+01 -9.404466e+02
      vertex 7.648486e+01 8.540578e+01 -9.404466e+02
    endloop
  endfacet
  facet normal 2.073443e-01 -2.073443e-01 9.560422e-01
    outer loop
      vertex 5.079826e+01 9.653155e+01 -9.361466e+02
      vertex 4.906446e+01 9.479775e+01 -9.361466e+02
      vertex 5.949933e+01 8.540578e+01 -9.404466e+02
    endloop
  endfacet
  facet normal 5.395429e-01 9.879706e-02 8.361415e-01
    outer loop
      vertex 5.949933e+01 1.023322e+02 -9.424466e+02
      vertex 5.079826e+01 9.653155e+01 -9.361466e+02
      vertex 5.949933e+01 8.540578e+01 -9.404466e+02
    endloop
  endfacet
  facet normal -2.488685e-01 1.136501e-01 9.618462e-01
    outer loop
      vertex 8.211349e+01 1.017779e+02 -9.365299e+02
      vertex 5.949933e+01 1.023322e+02 -9.424466e+02
      vertex 5.949933e+01 8.540578e+01 -9.404466e+02
    endloop
  endfacet
  facet normal 3.518544e-15 -4.205540e-01 9.072675e-01
    outer loop
      vertex 7.946272e+01 9.468223e+01 -9.361466e+02
      vertex 7.648486e+01 8.540578e+01 -9.404466e+02
      vertex 9.347038e+01 8.540578e+01 -9.404466e+02
    endloop
  endfacet
  facet normal -9.456736e-01 3.251175e-01 -3.506084e-14
    outer loop
      vertex 8.211349e+01 1.017779e+02 -9.361466e+02
      vertex 8.211349e+01 1.017779e+02 -9.365299e+02
      vertex 7.648486e+01 8.540578e+01 -9.404466e+02
    endloop
  endfacet
  facet normal -9.315254e-01 3.479972e-01 -1.056335e-01
    outer loop
      vertex 7.946272e+01 9.468223e+01 -9.361466e+02
      vertex 8.211349e+01 1.017779e+02 -9.361466e+02
      vertex 7.648486e+01 8.540578e+01 -9.404466e+02
    endloop
  endfacet
  facet normal 4.366847e-01 -2.557851e-15 8.996146e-01
    outer loop
      vertex 8.461194e+01 1.017622e+02 -9.361466e+02
      vertex 9.347038e+01 8.540578e+01 -9.404466e+02
      vertex 9.347038e+01 1.192587e+02 -9.404466e+02
    endloop
  endfacet
  facet normal 2.007036e-01 -1.459707e-01 9.687160e-01
    outer loop
      vertex 8.461194e+01 1.017622e+02 -9.361466e+02
      vertex 7.946272e+01 9.468223e+01 -9.361466e+02
      vertex 9.347038e+01 8.540578e+01 -9.404466e+02
    endloop
  endfacet
  facet normal 8.618965e-02 6.758436e-01 -7.319882e-01
    outer loop
      vertex 6.915475e+01 1.270168e+02 -9.361466e+02
      vertex 9.347038e+01 1.192587e+02 -9.404466e+02
      vertex 7.648486e+01 1.192587e+02 -9.424466e+02
    endloop
  endfacet
  facet normal 1.490264e-03 2.379502e-01 9.712762e-01
    outer loop
      vertex 8.461194e+01 1.017622e+02 -9.361466e+02
      vertex 9.347038e+01 1.192587e+02 -9.404466e+02
      vertex 8.211349e+01 1.017779e+02 -9.361466e+02
    endloop
  endfacet
  facet normal 2.057521e-01 1.056416e-01 9.728854e-01
    outer loop
      vertex 6.915475e+01 1.270168e+02 -9.361466e+02
      vertex 8.211349e+01 1.017779e+02 -9.361466e+02
      vertex 9.347038e+01 1.192587e+02 -9.404466e+02
    endloop
  endfacet
  facet normal -4.274224e-02 1.201141e-14 -9.990861e-01
    outer loop
      vertex 1.563306e+01 1.531116e+02 -9.460233e+02
      vertex 2.552829e+01 6.847933e+01 -9.464466e+02
      vertex 1.563306e+01 6.847933e+01 -9.460233e+02
    endloop
  endfacet
  facet normal -4.274224e-02 1.741470e-14 -9.990861e-01
    outer loop
      vertex 2.552829e+01 1.531116e+02 -9.464466e+02
      vertex 2.552829e+01 6.847933e+01 -9.464466e+02
      vertex 1.563306e+01 1.531116e+02 -9.460233e+02
    endloop
  endfacet
  facet normal 6.693161e-15 1.746296e-14 -1.000000e+00
    outer loop
      vertex 1.104559e+02 6.847933e+01 -9.464466e+02
      vertex 2.552829e+01 6.847933e+01 -9.464466e+02
      vertex 2.552829e+01 1.531116e+02 -9.464466e+02
    endloop
  endfacet
  facet normal 1.318488e-14 6.125825e-14 -1.000000e+00
    outer loop
      vertex 1.103882e+02 5.207043e+01 -9.464466e+02
      vertex 9.347038e+01 5.200000e+01 -9.464466e+02
      vertex 2.552829e+01 6.847933e+01 -9.464466e+02
    endloop
  endfacet
  facet normal 6.693161e-15 2.768583e-14 -1.000000e+00
    outer loop
      vertex 1.104559e+02 6.847933e+01 -9.464466e+02
      vertex 1.103882e+02 5.207043e+01 -9.464466e+02
      vertex 2.552829e+01 6.847933e+01 -9.464466e+02
    endloop
  endfacet
  facet normal -4.272402e-02 2.919885e-02 -9.986601e-01
    outer loop
      vertex 2.552829e+01 1.661756e+02 -9.460646e+02
      vertex 2.552829e+01 1.531116e+02 -9.464466e+02
      vertex 1.563306e+01 1.531116e+02 -9.460233e+02
    endloop
  endfacet
  facet normal -2.474779e-02 1.558003e-02 -9.995723e-01
    outer loop
      vertex 2.552829e+01 1.661756e+02 -9.460646e+02
      vertex 1.563306e+01 1.531116e+02 -9.460233e+02
      vertex 1.627838e+01 1.645949e+02 -9.458603e+02
    endloop
  endfacet
  facet normal 3.210668e-15 2.922554e-02 -9.995728e-01
    outer loop
      vertex 9.347038e+01 1.661756e+02 -9.460646e+02
      vertex 2.552829e+01 1.531116e+02 -9.464466e+02
      vertex 2.552829e+01 1.661756e+02 -9.460646e+02
    endloop
  endfacet
  facet normal 1.740222e-14 2.820939e-14 -1.000000e+00
    outer loop
      vertex 1.104559e+02 1.531116e+02 -9.464466e+02
      vertex 1.104559e+02 6.847933e+01 -9.464466e+02
      vertex 2.552829e+01 1.531116e+02 -9.464466e+02
    endloop
  endfacet
  facet normal 1.739437e-14 2.922554e-02 -9.995728e-01
    outer loop
      vertex 1.098500e+02 1.661756e+02 -9.460646e+02
      vertex 1.104559e+02 1.531116e+02 -9.464466e+02
      vertex 2.552829e+01 1.531116e+02 -9.464466e+02
    endloop
  endfacet
  facet normal 2.066122e-14 2.922554e-02 -9.995728e-01
    outer loop
      vertex 1.098500e+02 1.661756e+02 -9.460646e+02
      vertex 2.552829e+01 1.531116e+02 -9.464466e+02
      vertex 9.347038e+01 1.661756e+02 -9.460646e+02
    endloop
  endfacet
  facet normal -1.000000e+00 -3.525790e-15 -6.685520e-15
    outer loop
      vertex 3.535000e+01 -6.395296e+00 -6.265383e+02
      vertex 3.535000e+01 -2.626013e+00 -6.306518e+02
      vertex 3.535000e+01 -6.102851e+00 -6.298810e+02
    endloop
  endfacet
  facet normal 0.000000e+00 -2.164396e-01 -9.762960e-01
    outer loop
      vertex 3.565000e+01 -6.102851e+00 -6.298810e+02
      vertex 3.535000e+01 -6.102851e+00 -6.298810e+02
      vertex 3.535000e+01 -2.626013e+00 -6.306518e+02
    endloop
  endfacet
  facet normal 0.000000e+00 -9.961947e-01 -8.715572e-02
    outer loop
      vertex 3.565000e+01 -6.395296e+00 -6.265383e+02
      vertex 3.535000e+01 -6.395296e+00 -6.265383e+02
      vertex 3.535000e+01 -6.102851e+00 -6.298810e+02
    endloop
  endfacet
  facet normal 0.000000e+00 -9.961947e-01 -8.715572e-02
    outer loop
      vertex 3.565000e+01 -6.395296e+00 -6.265383e+02
      vertex 3.535000e+01 -6.102851e+00 -6.298810e+02
      vertex 3.565000e+01 -6.102851e+00 -6.298810e+02
    endloop
  endfacet
  facet normal -1.000000e+00 -3.570931e-15 -6.726884e-15
    outer loop
      vertex 3.535000e+01 -6.395296e+00 -6.265383e+02
      vertex 3.535000e+01 -2.184460e+00 -6.256048e+02
      vertex 3.535000e+01 -2.626013e+00 -6.306518e+02
    endloop
  endfacet
  facet normal -1.474664e-15 9.961947e-01 -8.715576e-02
    outer loop
      vertex 3.565000e+01 -2.626013e+00 -6.306518e+02
      vertex 3.535000e+01 -2.626013e+00 -6.306518e+02
      vertex 3.535000e+01 -2.184460e+00 -6.256048e+02
    endloop
  endfacet
  facet normal 3.203949e-16 -2.164396e-01 -9.762960e-01
    outer loop
      vertex 3.565000e+01 -2.626013e+00 -6.306518e+02
      vertex 3.565000e+01 -6.102851e+00 -6.298810e+02
      vertex 3.535000e+01 -2.626013e+00 -6.306518e+02
    endloop
  endfacet
  facet normal 3.203950e-16 -2.164396e-01 9.762960e-01
    outer loop
      vertex 3.565000e+01 -2.184460e+00 -6.256048e+02
      vertex 3.535000e+01 -2.184460e+00 -6.256048e+02
      vertex 3.535000e+01 -6.395296e+00 -6.265383e+02
    endloop
  endfacet
  facet normal -1.460940e-15 9.961947e-01 -8.715576e-02
    outer loop
      vertex 3.565000e+01 -2.626013e+00 -6.306518e+02
      vertex 3.535000e+01 -2.184460e+00 -6.256048e+02
      vertex 3.565000e+01 -2.184460e+00 -6.256048e+02
    endloop
  endfacet
  facet normal 0.000000e+00 -2.164396e-01 9.762960e-01
    outer loop
      vertex 3.565000e+01 -2.184460e+00 -6.256048e+02
      vertex 3.535000e+01 -6.395296e+00 -6.265383e+02
      vertex 3.565000e+01 -6.395296e+00 -6.265383e+02
    endloop
  endfacet
  facet normal 1.000000e+00 4.041354e-15 4.604942e-15
    outer loop
      vertex 3.565000e+01 -2.184460e+00 -6.256048e+02
      vertex 3.565000e+01 -6.395296e+00 -6.265383e+02
      vertex 3.565000e+01 -6.102851e+00 -6.298810e+02
    endloop
  endfacet
  facet normal 1.000000e+00 3.229468e-15 5.348898e-15
    outer loop
      vertex 3.565000e+01 -2.626013e+00 -6.306518e+02
      vertex 3.565000e+01 -2.184460e+00 -6.256048e+02
      vertex 3.565000e+01 -6.102851e+00 -6.298810e+02
    endloop
  endfacet
  facet normal -9.536182e-01 -2.594348e-01 -1.526627e-01
    outer loop
      vertex 4.005000e+01 2.158946e+01 -6.386689e+02
      vertex 3.640000e+01 3.121091e+01 -6.322196e+02
      vertex 4.005000e+01 2.339557e+01 -6.417382e+02
    endloop
  endfacet
  facet normal -9.226010e-01 3.680142e-02 -3.839963e-01
    outer loop
      vertex 4.005000e+01 2.608448e+01 -6.414805e+02
      vertex 4.005000e+01 2.339557e+01 -6.417382e+02
      vertex 3.640000e+01 3.121091e+01 -6.322196e+02
    endloop
  endfacet
  facet normal 0.000000e+00 -8.618559e-01 -5.071533e-01
    outer loop
      vertex 4.035000e+01 2.158946e+01 -6.386689e+02
      vertex 4.005000e+01 2.158946e+01 -6.386689e+02
      vertex 4.005000e+01 2.339557e+01 -6.417382e+02
    endloop
  endfacet
  facet normal 0.000000e+00 9.540085e-02 -9.954389e-01
    outer loop
      vertex 4.035000e+01 2.339557e+01 -6.417382e+02
      vertex 4.005000e+01 2.339557e+01 -6.417382e+02
      vertex 4.005000e+01 2.608448e+01 -6.414805e+02
    endloop
  endfacet
  facet normal 0.000000e+00 -8.618559e-01 -5.071533e-01
    outer loop
      vertex 4.035000e+01 2.158946e+01 -6.386689e+02
      vertex 4.005000e+01 2.339557e+01 -6.417382e+02
      vertex 4.035000e+01 2.339557e+01 -6.417382e+02
    endloop
  endfacet
  facet normal -9.353373e-01 -3.537535e-01 -1.606812e-03
    outer loop
      vertex 3.640000e+01 3.118845e+01 -6.272751e+02
      vertex 3.640000e+01 3.121091e+01 -6.322196e+02
      vertex 4.005000e+01 2.158946e+01 -6.386689e+02
    endloop
  endfacet
  facet normal -1.036088e-14 8.748990e-01 -4.843055e-01
    outer loop
      vertex 4.035000e+01 2.608448e+01 -6.414805e+02
      vertex 4.005000e+01 2.608448e+01 -6.414805e+02
      vertex 3.640000e+01 3.121091e+01 -6.322196e+02
    endloop
  endfacet
  facet normal -1.529467e-15 8.748990e-01 -4.843055e-01
    outer loop
      vertex 4.035000e+01 2.608448e+01 -6.414805e+02
      vertex 3.640000e+01 3.121091e+01 -6.322196e+02
      vertex 4.035000e+01 3.121091e+01 -6.322196e+02
    endloop
  endfacet
  facet normal -1.798411e-15 9.999897e-01 4.542133e-03
    outer loop
      vertex 3.640000e+01 3.118845e+01 -6.272751e+02
      vertex 4.035000e+01 3.121091e+01 -6.322196e+02
      vertex 3.640000e+01 3.121091e+01 -6.322196e+02
    endloop
  endfacet
  facet normal 0.000000e+00 -8.818831e-01 4.714682e-01
    outer loop
      vertex 4.035000e+01 2.727765e+01 -6.280292e+02
      vertex 4.005000e+01 2.158946e+01 -6.386689e+02
      vertex 4.035000e+01 2.158946e+01 -6.386689e+02
    endloop
  endfacet
  facet normal 2.379553e-15 -8.818831e-01 4.714682e-01
    outer loop
      vertex 3.640000e+01 2.727765e+01 -6.280292e+02
      vertex 4.005000e+01 2.158946e+01 -6.386689e+02
      vertex 4.035000e+01 2.727765e+01 -6.280292e+02
    endloop
  endfacet
  facet normal -9.318051e-01 6.871625e-02 -3.563948e-01
    outer loop
      vertex 3.640000e+01 2.727765e+01 -6.280292e+02
      vertex 3.640000e+01 3.118845e+01 -6.272751e+02
      vertex 4.005000e+01 2.158946e+01 -6.386689e+02
    endloop
  endfacet
  facet normal -1.129773e-15 9.540085e-02 -9.954389e-01
    outer loop
      vertex 4.035000e+01 2.608448e+01 -6.414805e+02
      vertex 4.035000e+01 2.339557e+01 -6.417382e+02
      vertex 4.005000e+01 2.608448e+01 -6.414805e+02
    endloop
  endfacet
  facet normal 1.000000e+00 2.081383e-15 5.854793e-15
    outer loop
      vertex 4.035000e+01 2.608448e+01 -6.414805e+02
      vertex 4.035000e+01 2.158946e+01 -6.386689e+02
      vertex 4.035000e+01 2.339557e+01 -6.417382e+02
    endloop
  endfacet
  facet normal 1.000000e+00 2.231095e-15 5.485398e-15
    outer loop
      vertex 4.035000e+01 3.121091e+01 -6.322196e+02
      vertex 4.035000e+01 2.727765e+01 -6.280292e+02
      vertex 4.035000e+01 2.158946e+01 -6.386689e+02
    endloop
  endfacet
  facet normal 1.000000e+00 2.034128e-15 5.779244e-15
    outer loop
      vertex 4.035000e+01 2.608448e+01 -6.414805e+02
      vertex 4.035000e+01 3.121091e+01 -6.322196e+02
      vertex 4.035000e+01 2.158946e+01 -6.386689e+02
    endloop
  endfacet
  facet normal 1.000000e+00 2.523243e-15 5.759615e-15
    outer loop
      vertex 4.035000e+01 3.121091e+01 -6.322196e+02
      vertex 4.035000e+01 3.118845e+01 -6.272751e+02
      vertex 4.035000e+01 2.727765e+01 -6.280292e+02
    endloop
  endfacet
  facet normal 5.108417e-16 -1.893224e-01 9.819150e-01
    outer loop
      vertex 3.640000e+01 2.727765e+01 -6.280292e+02
      vertex 4.035000e+01 2.727765e+01 -6.280292e+02
      vertex 4.035000e+01 3.118845e+01 -6.272751e+02
    endloop
  endfacet
  facet normal -2.698236e-15 9.999897e-01 4.542133e-03
    outer loop
      vertex 3.640000e+01 3.118845e+01 -6.272751e+02
      vertex 4.035000e+01 3.118845e+01 -6.272751e+02
      vertex 4.035000e+01 3.121091e+01 -6.322196e+02
    endloop
  endfacet
  facet normal 5.081061e-16 -1.893224e-01 9.819150e-01
    outer loop
      vertex 3.640000e+01 2.727765e+01 -6.280292e+02
      vertex 4.035000e+01 3.118845e+01 -6.272751e+02
      vertex 3.640000e+01 3.118845e+01 -6.272751e+02
    endloop
  endfacet
  facet normal 8.660388e-15 -5.486164e-01 -8.360742e-01
    outer loop
      vertex 1.103882e+02 5.207043e+01 -9.464466e+02
      vertex 1.098500e+02 5.016495e+01 -9.451963e+02
      vertex 9.347038e+01 5.016495e+01 -9.451963e+02
    endloop
  endfacet
  facet normal 4.369876e-01 -5.764771e-01 -6.904463e-01
    outer loop
      vertex 1.144623e+02 5.376486e+01 -9.452828e+02
      vertex 1.098500e+02 5.016495e+01 -9.451963e+02
      vertex 1.103882e+02 5.207043e+01 -9.464466e+02
    endloop
  endfacet
  facet normal 4.569227e-03 -2.988400e-02 -9.995429e-01
    outer loop
      vertex 1.144623e+02 5.376486e+01 -9.452828e+02
      vertex 1.126998e+02 5.107759e+01 -9.452105e+02
      vertex 1.098500e+02 5.016495e+01 -9.451963e+02
    endloop
  endfacet
  facet normal 2.344294e-03 -5.630810e-01 -8.263984e-01
    outer loop
      vertex 1.103882e+02 5.207043e+01 -9.464466e+02
      vertex 9.347038e+01 5.016495e+01 -9.451963e+02
      vertex 9.347038e+01 5.200000e+01 -9.464466e+02
    endloop
  endfacet
  facet normal 2.012787e-01 -8.308695e-04 -9.795337e-01
    outer loop
      vertex 1.144680e+02 6.847933e+01 -9.456222e+02
      vertex 1.103882e+02 5.207043e+01 -9.464466e+02
      vertex 1.104559e+02 6.847933e+01 -9.464466e+02
    endloop
  endfacet
  facet normal 2.831368e-01 -2.222446e-02 -9.588220e-01
    outer loop
      vertex 1.144680e+02 6.847933e+01 -9.456222e+02
      vertex 1.144623e+02 5.376486e+01 -9.452828e+02
      vertex 1.103882e+02 5.207043e+01 -9.464466e+02
    endloop
  endfacet
  facet normal 2.012788e-01 2.763178e-14 -9.795340e-01
    outer loop
      vertex 1.144680e+02 6.847933e+01 -9.456222e+02
      vertex 1.104559e+02 6.847933e+01 -9.464466e+02
      vertex 1.104559e+02 1.531116e+02 -9.464466e+02
    endloop
  endfacet
  facet normal 2.033113e-01 3.803525e-02 -9.783751e-01
    outer loop
      vertex 1.144611e+02 1.634982e+02 -9.452105e+02
      vertex 1.104559e+02 1.531116e+02 -9.464466e+02
      vertex 1.098500e+02 1.661756e+02 -9.460646e+02
    endloop
  endfacet
  facet normal 2.012788e-01 3.262721e-14 -9.795340e-01
    outer loop
      vertex 1.144680e+02 1.531116e+02 -9.456222e+02
      vertex 1.144680e+02 6.847933e+01 -9.456222e+02
      vertex 1.104559e+02 1.531116e+02 -9.464466e+02
    endloop
  endfacet
  facet normal 2.011262e-01 3.892742e-02 -9.787916e-01
    outer loop
      vertex 1.144611e+02 1.634982e+02 -9.452105e+02
      vertex 1.144680e+02 1.531116e+02 -9.456222e+02
      vertex 1.104559e+02 1.531116e+02 -9.464466e+02
    endloop
  endfacet
  facet normal 2.037269e-14 -2.037269e-14 1.000000e+00
    outer loop
      vertex 5.079826e+01 9.653155e+01 -9.361466e+02
      vertex 4.511207e+01 1.020061e+02 -9.361466e+02
      vertex 4.906446e+01 9.479775e+01 -9.361466e+02
    endloop
  endfacet
  facet normal 1.911931e-14 -2.167454e-14 1.000000e+00
    outer loop
      vertex 6.118527e+01 1.266747e+02 -9.361466e+02
      vertex 4.511207e+01 1.020061e+02 -9.361466e+02
      vertex 5.079826e+01 9.653155e+01 -9.361466e+02
    endloop
  endfacet
  facet normal 6.665915e-01 -2.297000e-01 7.091500e-01
    outer loop
      vertex 6.118527e+01 1.266747e+02 -9.361466e+02
      vertex 5.079826e+01 9.653155e+01 -9.361466e+02
      vertex 5.949933e+01 1.023322e+02 -9.424466e+02
    endloop
  endfacet
  facet normal 9.660080e-01 1.922486e-14 -2.585122e-01
    outer loop
      vertex 5.949933e+01 1.192587e+02 -9.424466e+02
      vertex 6.118527e+01 1.266747e+02 -9.361466e+02
      vertex 5.949933e+01 1.023322e+02 -9.424466e+02
    endloop
  endfacet
  facet normal -6.693161e-15 -3.358261e-14 1.000000e+00
    outer loop
      vertex 7.648486e+01 1.192587e+02 -9.424466e+02
      vertex 5.949933e+01 1.192587e+02 -9.424466e+02
      vertex 5.949933e+01 1.023322e+02 -9.424466e+02
    endloop
  endfacet
  facet normal -2.401258e-01 2.409639e-01 9.403595e-01
    outer loop
      vertex 7.648486e+01 1.192587e+02 -9.424466e+02
      vertex 5.949933e+01 1.023322e+02 -9.424466e+02
      vertex 8.211349e+01 1.017779e+02 -9.365299e+02
    endloop
  endfacet
  facet normal -5.190338e-15 -6.303812e-01 7.762857e-01
    outer loop
      vertex 6.915475e+01 1.270168e+02 -9.361466e+02
      vertex 5.949933e+01 1.192587e+02 -9.424466e+02
      vertex 7.648486e+01 1.192587e+02 -9.424466e+02
    endloop
  endfacet
  facet normal -9.660080e-01 -2.799349e-15 2.585122e-01
    outer loop
      vertex 6.118527e+01 1.266747e+02 -9.361466e+02
      vertex 6.118527e+01 1.291267e+02 -9.361466e+02
      vertex 5.949933e+01 1.192587e+02 -9.424466e+02
    endloop
  endfacet
  facet normal 2.793878e-02 -6.508592e-01 7.586842e-01
    outer loop
      vertex 6.915475e+01 1.270168e+02 -9.361466e+02
      vertex 6.118527e+01 1.266747e+02 -9.361466e+02
      vertex 5.949933e+01 1.192587e+02 -9.424466e+02
    endloop
  endfacet
  facet normal -8.036574e-01 -4.060237e-01 -4.350627e-01
    outer loop
      vertex 6.915475e+01 1.270168e+02 -9.361466e+02
      vertex 7.648486e+01 1.192587e+02 -9.424466e+02
      vertex 8.211349e+01 1.017779e+02 -9.365299e+02
    endloop
  endfacet
  facet normal -8.895931e-01 -4.567538e-01 -3.658969e-14
    outer loop
      vertex 6.915475e+01 1.270168e+02 -9.361466e+02
      vertex 8.211349e+01 1.017779e+02 -9.365299e+02
      vertex 8.211349e+01 1.017779e+02 -9.361466e+02
    endloop
  endfacet
  facet normal 6.518079e-01 5.239801e-15 7.583841e-01
    outer loop
      vertex 6.915475e+01 1.270168e+02 -9.361466e+02
      vertex 7.648486e+01 1.192587e+02 -9.424466e+02
      vertex 6.915475e+01 1.287846e+02 -9.361466e+02
    endloop
  endfacet
  facet normal 0.000000e+00 0.000000e+00 1.000000e+00
    outer loop
      vertex 6.915475e+01 1.270168e+02 -9.361466e+02
      vertex 6.118527e+01 1.291267e+02 -9.361466e+02
      vertex 6.118527e+01 1.266747e+02 -9.361466e+02
    endloop
  endfacet
  facet normal 0.000000e+00 0.000000e+00 1.000000e+00
    outer loop
      vertex 6.915475e+01 1.270168e+02 -9.361466e+02
      vertex 6.915475e+01 1.287846e+02 -9.361466e+02
      vertex 6.118527e+01 1.291267e+02 -9.361466e+02
    endloop
  endfacet
  facet normal -1.000000e+00 -5.130686e-15 -1.913600e-15
    outer loop
      vertex 9.175000e+01 1.211194e+01 -5.993268e+02
      vertex 9.175000e+01 1.177123e+01 -6.058395e+02
      vertex 9.175000e+01 8.881240e+00 -6.055172e+02
    endloop
  endfacet
  facet normal 3.937764e-16 -1.108382e-01 -9.938385e-01
    outer loop
      vertex 9.225000e+01 8.881240e+00 -6.055172e+02
      vertex 9.175000e+01 8.881240e+00 -6.055172e+02
      vertex 9.175000e+01 1.177123e+01 -6.058395e+02
    endloop
  endfacet
  facet normal -1.000000e+00 -3.931882e-15 -2.539240e-15
    outer loop
      vertex 9.175000e+01 8.694402e+00 -5.996314e+02
      vertex 9.175000e+01 1.211194e+01 -5.993268e+02
      vertex 9.175000e+01 8.881240e+00 -6.055172e+02
    endloop
  endfacet
  facet normal -1.000000e+00 -3.565821e-15 -2.527620e-15
    outer loop
      vertex 9.175000e+01 7.259069e+00 -6.032287e+02
      vertex 9.175000e+01 8.694402e+00 -5.996314e+02
      vertex 9.175000e+01 8.881240e+00 -6.055172e+02
    endloop
  endfacet
  facet normal 1.449200e-15 -8.158270e-01 -5.782960e-01
    outer loop
      vertex 9.225000e+01 7.259069e+00 -6.032287e+02
      vertex 9.175000e+01 7.259069e+00 -6.032287e+02
      vertex 9.175000e+01 8.881240e+00 -6.055172e+02
    endloop
  endfacet
  facet normal 2.849680e-15 -8.158270e-01 -5.782960e-01
    outer loop
      vertex 9.225000e+01 7.259069e+00 -6.032287e+02
      vertex 9.175000e+01 8.881240e+00 -6.055172e+02
      vertex 9.225000e+01 8.881240e+00 -6.055172e+02
    endloop
  endfacet
  facet normal -1.000000e+00 -4.433177e-15 -1.950090e-15
    outer loop
      vertex 9.175000e+01 1.211194e+01 -5.993268e+02
      vertex 9.175000e+01 1.399481e+01 -6.036071e+02
      vertex 9.175000e+01 1.177123e+01 -6.058395e+02
    endloop
  endfacet
  facet normal -2.517099e-15 7.085005e-01 -7.057103e-01
    outer loop
      vertex 9.225000e+01 1.177123e+01 -6.058395e+02
      vertex 9.175000e+01 1.177123e+01 -6.058395e+02
      vertex 9.175000e+01 1.399481e+01 -6.036071e+02
    endloop
  endfacet
  facet normal 3.937764e-16 -1.108382e-01 -9.938385e-01
    outer loop
      vertex 9.225000e+01 1.177123e+01 -6.058395e+02
      vertex 9.225000e+01 8.881240e+00 -6.055172e+02
      vertex 9.175000e+01 1.177123e+01 -6.058395e+02
    endloop
  endfacet
  facet normal 6.393758e-13 9.153537e-01 4.026507e-01
    outer loop
      vertex 9.225000e+01 1.399481e+01 -6.036071e+02
      vertex 9.175000e+01 1.399481e+01 -6.036071e+02
      vertex 9.175000e+01 1.211194e+01 -5.993268e+02
    endloop
  endfacet
  facet normal -4.307220e-13 7.085005e-01 -7.057103e-01
    outer loop
      vertex 9.225000e+01 1.177123e+01 -6.058395e+02
      vertex 9.175000e+01 1.399481e+01 -6.036071e+02
      vertex 9.225000e+01 1.399481e+01 -6.036071e+02
    endloop
  endfacet
  facet normal 0.000000e+00 -8.878071e-02 9.960512e-01
    outer loop
      vertex 9.225000e+01 1.211194e+01 -5.993268e+02
      vertex 9.175000e+01 1.211194e+01 -5.993268e+02
      vertex 9.175000e+01 8.694402e+00 -5.996314e+02
    endloop
  endfacet
  facet normal 0.000000e+00 9.153537e-01 4.026507e-01
    outer loop
      vertex 9.225000e+01 1.399481e+01 -6.036071e+02
      vertex 9.175000e+01 1.211194e+01 -5.993268e+02
      vertex 9.225000e+01 1.211194e+01 -5.993268e+02
    endloop
  endfacet
  facet normal 3.299751e-15 -9.287972e-01 3.705883e-01
    outer loop
      vertex 9.225000e+01 8.694402e+00 -5.996314e+02
      vertex 9.175000e+01 8.694402e+00 -5.996314e+02
      vertex 9.175000e+01 7.259069e+00 -6.032287e+02
    endloop
  endfacet
  facet normal 3.882930e-16 -8.878071e-02 9.960512e-01
    outer loop
      vertex 9.225000e+01 1.211194e+01 -5.993268e+02
      vertex 9.175000e+01 8.694402e+00 -5.996314e+02
      vertex 9.225000e+01 8.694402e+00 -5.996314e+02
    endloop
  endfacet
  facet normal 1.834549e-15 -9.287972e-01 3.705883e-01
    outer loop
      vertex 9.225000e+01 8.694402e+00 -5.996314e+02
      vertex 9.175000e+01 7.259069e+00 -6.032287e+02
      vertex 9.225000e+01 7.259069e+00 -6.032287e+02
    endloop
  endfacet
  facet normal 1.000000e+00 -5.130807e-16 1.205584e-14
    outer loop
      vertex 9.225000e+01 8.694402e+00 -5.996314e+02
      vertex 9.225000e+01 7.259069e+00 -6.032287e+02
      vertex 9.225000e+01 8.881240e+00 -6.055172e+02
    endloop
  endfacet
  facet normal 1.000000e+00 1.351132e-15 1.211502e-14
    outer loop
      vertex 9.225000e+01 1.177123e+01 -6.058395e+02
      vertex 9.225000e+01 8.694402e+00 -5.996314e+02
      vertex 9.225000e+01 8.881240e+00 -6.055172e+02
    endloop
  endfacet
  facet normal 1.000000e+00 -9.769983e-16 1.096117e-14
    outer loop
      vertex 9.225000e+01 1.177123e+01 -6.058395e+02
      vertex 9.225000e+01 1.211194e+01 -5.993268e+02
      vertex 9.225000e+01 8.694402e+00 -5.996314e+02
    endloop
  endfacet
  facet normal 1.000000e+00 1.930136e-15 1.080908e-14
    outer loop
      vertex 9.225000e+01 1.177123e+01 -6.058395e+02
      vertex 9.225000e+01 1.399481e+01 -6.036071e+02
      vertex 9.225000e+01 1.211194e+01 -5.993268e+02
    endloop
  endfacet
  facet normal -1.000000e+00 -3.179027e-15 -3.210490e-15
    outer loop
      vertex 9.175000e+01 4.207734e+01 -5.942920e+02
      vertex 9.175000e+01 4.702145e+01 -5.991876e+02
      vertex 9.175000e+01 4.217939e+01 -5.988194e+02
    endloop
  endfacet
  facet normal 0.000000e+00 -7.582879e-02 -9.971209e-01
    outer loop
      vertex 9.225000e+01 4.217939e+01 -5.988194e+02
      vertex 9.175000e+01 4.217939e+01 -5.988194e+02
      vertex 9.175000e+01 4.702145e+01 -5.991876e+02
    endloop
  endfacet
  facet normal 0.000000e+00 -9.997461e-01 -2.253393e-02
    outer loop
      vertex 9.225000e+01 4.207734e+01 -5.942920e+02
      vertex 9.175000e+01 4.207734e+01 -5.942920e+02
      vertex 9.175000e+01 4.217939e+01 -5.988194e+02
    endloop
  endfacet
  facet normal 0.000000e+00 -9.997461e-01 -2.253393e-02
    outer loop
      vertex 9.225000e+01 4.207734e+01 -5.942920e+02
      vertex 9.175000e+01 4.217939e+01 -5.988194e+02
      vertex 9.225000e+01 4.217939e+01 -5.988194e+02
    endloop
  endfacet
  facet normal -1.000000e+00 -2.613217e-15 -2.639080e-15
    outer loop
      vertex 9.175000e+01 4.207734e+01 -5.942920e+02
      vertex 9.175000e+01 4.700079e+01 -5.937824e+02
      vertex 9.175000e+01 4.702145e+01 -5.991876e+02
    endloop
  endfacet
  facet normal 0.000000e+00 9.999927e-01 3.822510e-03
    outer loop
      vertex 9.225000e+01 4.702145e+01 -5.991876e+02
      vertex 9.175000e+01 4.702145e+01 -5.991876e+02
      vertex 9.175000e+01 4.700079e+01 -5.937824e+02
    endloop
  endfacet
  facet normal 0.000000e+00 -7.582879e-02 -9.971209e-01
    outer loop
      vertex 9.225000e+01 4.702145e+01 -5.991876e+02
      vertex 9.225000e+01 4.217939e+01 -5.988194e+02
      vertex 9.175000e+01 4.702145e+01 -5.991876e+02
    endloop
  endfacet
  facet normal 0.000000e+00 -1.029503e-01 9.946865e-01
    outer loop
      vertex 9.225000e+01 4.700079e+01 -5.937824e+02
      vertex 9.175000e+01 4.700079e+01 -5.937824e+02
      vertex 9.175000e+01 4.207734e+01 -5.942920e+02
    endloop
  endfacet
  facet normal 0.000000e+00 9.999927e-01 3.822510e-03
    outer loop
      vertex 9.225000e+01 4.702145e+01 -5.991876e+02
      vertex 9.175000e+01 4.700079e+01 -5.937824e+02
      vertex 9.225000e+01 4.700079e+01 -5.937824e+02
    endloop
  endfacet
  facet normal 0.000000e+00 -1.029503e-01 9.946865e-01
    outer loop
      vertex 9.225000e+01 4.700079e+01 -5.937824e+02
      vertex 9.175000e+01 4.207734e+01 -5.942920e+02
      vertex 9.225000e+01 4.207734e+01 -5.942920e+02
    endloop
  endfacet
  facet normal 1.000000e+00 2.555531e-15 3.196437e-15
    outer loop
      vertex 9.225000e+01 4.700079e+01 -5.937824e+02
      vertex 9.225000e+01 4.207734e+01 -5.942920e+02
      vertex 9.225000e+01 4.217939e+01 -5.988194e+02
    endloop
  endfacet
  facet normal 1.000000e+00 3.135725e-15 2.641078e-15
    outer loop
      vertex 9.225000e+01 4.702145e+01 -5.991876e+02
      vertex 9.225000e+01 4.700079e+01 -5.937824e+02
      vertex 9.225000e+01 4.217939e+01 -5.988194e+02
    endloop
  endfacet
  facet normal -2.002223e-16 -3.196945e-14 1.000000e+00
    outer loop
      vertex 8.461194e+01 1.017622e+02 -9.361466e+02
      vertex 8.211349e+01 1.017779e+02 -9.361466e+02
      vertex 7.946272e+01 9.468223e+01 -9.361466e+02
    endloop
  endfacet
endsolid SIM_ICUB3_R_FOOT_FRONT
