solid SIM_ICUB3_L_SHOULDER_1
  facet normal -9.923117e-01 -1.887151e-02 -1.223163e-01
    outer loop
      vertex -1.781035e+02 -6.345297e+00 1.747208e+01
      vertex -1.780976e+02 4.133041e-01 1.638125e+01
      vertex -1.763888e+02 -4.610742e+00 3.294132e+00
    endloop
  endfacet
  facet normal -9.789002e-01 1.121007e-01 -1.708445e-01
    outer loop
      vertex -1.761482e+02 -7.512503e-01 4.447533e+00
      vertex -1.763888e+02 -4.610742e+00 3.294132e+00
      vertex -1.780976e+02 4.133041e-01 1.638125e+01
    endloop
  endfacet
  facet normal -4.373257e-01 -8.847503e-01 -1.611309e-01
    outer loop
      vertex -1.722700e+02 -9.332936e+00 1.804425e+01
      vertex -1.781035e+02 -6.345297e+00 1.747208e+01
      vertex -1.763888e+02 -4.610742e+00 3.294132e+00
    endloop
  endfacet
  facet normal -8.281923e-01 2.072598e-01 -5.207120e-01
    outer loop
      vertex -1.707185e+02 4.310360e+00 -2.173637e+00
      vertex -1.763888e+02 -4.610742e+00 3.294132e+00
      vertex -1.761482e+02 -7.512503e-01 4.447533e+00
    endloop
  endfacet
  facet normal -6.124234e-01 -7.863951e-01 -8.074868e-02
    outer loop
      vertex -1.702071e+02 -8.774710e+00 -3.038370e+00
      vertex -1.722700e+02 -9.332936e+00 1.804425e+01
      vertex -1.763888e+02 -4.610742e+00 3.294132e+00
    endloop
  endfacet
  facet normal -7.092199e-01 1.885161e-02 -7.047353e-01
    outer loop
      vertex -1.707185e+02 4.310360e+00 -2.173637e+00
      vertex -1.702071e+02 -8.774710e+00 -3.038370e+00
      vertex -1.763888e+02 -4.610742e+00 3.294132e+00
    endloop
  endfacet
  facet normal -9.701588e-01 3.946310e-02 2.392373e-01
    outer loop
      vertex -1.748098e+02 -7.694863e-03 2.978346e+01
      vertex -1.780976e+02 4.133041e-01 1.638125e+01
      vertex -1.781035e+02 -6.345297e+00 1.747208e+01
    endloop
  endfacet
  facet normal -9.428186e-01 2.796819e-01 -1.813039e-01
    outer loop
      vertex -1.723580e+02 2.066062e+01 1.776830e+01
      vertex -1.761482e+02 -7.512503e-01 4.447533e+00
      vertex -1.780976e+02 4.133041e-01 1.638125e+01
    endloop
  endfacet
  facet normal -9.434847e-01 2.299346e-01 2.386769e-01
    outer loop
      vertex -1.700941e+02 2.066984e+01 2.850435e+01
      vertex -1.780976e+02 4.133041e-01 1.638125e+01
      vertex -1.748098e+02 -7.694863e-03 2.978346e+01
    endloop
  endfacet
  facet normal -9.462833e-01 2.545887e-01 1.993300e-01
    outer loop
      vertex -1.700941e+02 2.066984e+01 2.850435e+01
      vertex -1.723580e+02 2.066062e+01 1.776830e+01
      vertex -1.780976e+02 4.133041e-01 1.638125e+01
    endloop
  endfacet
  facet normal -4.549616e-01 -8.904425e-01 -1.104913e-02
    outer loop
      vertex -1.689886e+02 -1.123260e+01 3.602101e+01
      vertex -1.781035e+02 -6.345297e+00 1.747208e+01
      vertex -1.722700e+02 -9.332936e+00 1.804425e+01
    endloop
  endfacet
  facet normal -9.670536e-01 2.022449e-01 1.546105e-01
    outer loop
      vertex -1.759049e+02 -5.863818e+00 3.059397e+01
      vertex -1.748098e+02 -7.694863e-03 2.978346e+01
      vertex -1.781035e+02 -6.345297e+00 1.747208e+01
    endloop
  endfacet
  facet normal -6.731559e-01 -7.262360e-01 1.394360e-01
    outer loop
      vertex -1.689886e+02 -1.123260e+01 3.602101e+01
      vertex -1.759049e+02 -5.863818e+00 3.059397e+01
      vertex -1.781035e+02 -6.345297e+00 1.747208e+01
    endloop
  endfacet
  facet normal -8.339127e-01 2.527846e-01 -4.906012e-01
    outer loop
      vertex -1.661277e+02 2.463560e+01 4.957308e-01
      vertex -1.707185e+02 4.310360e+00 -2.173637e+00
      vertex -1.761482e+02 -7.512503e-01 4.447533e+00
    endloop
  endfacet
  facet normal -9.473584e-01 2.723844e-01 -1.682821e-01
    outer loop
      vertex -1.705501e+02 1.960397e+01 5.879990e+00
      vertex -1.761482e+02 -7.512503e-01 4.447533e+00
      vertex -1.723580e+02 2.066062e+01 1.776830e+01
    endloop
  endfacet
  facet normal -8.519022e-01 2.660346e-01 -4.510967e-01
    outer loop
      vertex -1.661277e+02 2.463560e+01 4.957308e-01
      vertex -1.761482e+02 -7.512503e-01 4.447533e+00
      vertex -1.705501e+02 1.960397e+01 5.879990e+00
    endloop
  endfacet
  facet normal -5.970902e-01 -7.982188e-01 -7.956138e-02
    outer loop
      vertex -1.568577e+02 -1.995998e+01 8.996914e+00
      vertex -1.722700e+02 -9.332936e+00 1.804425e+01
      vertex -1.702071e+02 -8.774710e+00 -3.038370e+00
    endloop
  endfacet
  facet normal -6.291097e-01 -7.766256e-01 3.276659e-02
    outer loop
      vertex -1.596046e+02 -1.962816e+01 1.720210e+01
      vertex -1.689886e+02 -1.123260e+01 3.602101e+01
      vertex -1.722700e+02 -9.332936e+00 1.804425e+01
    endloop
  endfacet
  facet normal -6.276760e-01 -7.574989e-01 -1.794946e-01
    outer loop
      vertex -1.596046e+02 -1.962816e+01 1.720210e+01
      vertex -1.722700e+02 -9.332936e+00 1.804425e+01
      vertex -1.568577e+02 -1.995998e+01 8.996914e+00
    endloop
  endfacet
  facet normal -7.638121e-01 1.279074e-02 -6.453119e-01
    outer loop
      vertex -1.627518e+02 -7.282911e+00 -1.183307e+01
      vertex -1.702071e+02 -8.774710e+00 -3.038370e+00
      vertex -1.707185e+02 4.310360e+00 -2.173637e+00
    endloop
  endfacet
  facet normal -2.766359e-01 -8.373998e-01 -4.714172e-01
    outer loop
      vertex -1.514918e+02 -1.396548e+01 -4.800209e+00
      vertex -1.568577e+02 -1.995998e+01 8.996914e+00
      vertex -1.702071e+02 -8.774710e+00 -3.038370e+00
    endloop
  endfacet
  facet normal -2.801040e-01 -8.787272e-01 -3.864973e-01
    outer loop
      vertex -1.627518e+02 -7.282911e+00 -1.183307e+01
      vertex -1.514918e+02 -1.396548e+01 -4.800209e+00
      vertex -1.702071e+02 -8.774710e+00 -3.038370e+00
    endloop
  endfacet
  facet normal -6.462259e-01 2.410552e-01 -7.240749e-01
    outer loop
      vertex -1.633306e+02 1.413350e+00 -9.731660e+00
      vertex -1.707185e+02 4.310360e+00 -2.173637e+00
      vertex -1.661277e+02 2.463560e+01 4.957308e-01
    endloop
  endfacet
  facet normal -6.842782e-01 1.279342e-01 -7.179110e-01
    outer loop
      vertex -1.633306e+02 1.413350e+00 -9.731660e+00
      vertex -1.627518e+02 -7.282911e+00 -1.183307e+01
      vertex -1.707185e+02 4.310360e+00 -2.173637e+00
    endloop
  endfacet
  facet normal -8.163318e-01 2.262135e-01 5.314413e-01
    outer loop
      vertex -1.694549e+02 4.339660e+00 3.615846e+01
      vertex -1.748098e+02 -7.694863e-03 2.978346e+01
      vertex -1.759049e+02 -5.863818e+00 3.059397e+01
    endloop
  endfacet
  facet normal -8.115463e-01 1.887743e-01 5.529529e-01
    outer loop
      vertex -1.658754e+02 2.547163e+01 3.419759e+01
      vertex -1.748098e+02 -7.694863e-03 2.978346e+01
      vertex -1.694549e+02 4.339660e+00 3.615846e+01
    endloop
  endfacet
  facet normal -8.639768e-01 2.249063e-01 4.505122e-01
    outer loop
      vertex -1.658754e+02 2.547163e+01 3.419759e+01
      vertex -1.700941e+02 2.066984e+01 2.850435e+01
      vertex -1.748098e+02 -7.694863e-03 2.978346e+01
    endloop
  endfacet
  facet normal -6.293839e-01 -2.569922e-02 7.766695e-01
    outer loop
      vertex -1.694549e+02 4.339660e+00 3.615846e+01
      vertex -1.759049e+02 -5.863818e+00 3.059397e+01
      vertex -1.689886e+02 -1.123260e+01 3.602101e+01
    endloop
  endfacet
  facet normal -6.666412e-01 -2.653438e-02 7.449063e-01
    outer loop
      vertex -1.622464e+02 3.144887e+00 4.256701e+01
      vertex -1.694549e+02 4.339660e+00 3.615846e+01
      vertex -1.689886e+02 -1.123260e+01 3.602101e+01
    endloop
  endfacet
  facet normal -4.312432e-01 -8.842139e-01 1.794300e-01
    outer loop
      vertex -1.652705e+02 -1.244345e+01 3.899012e+01
      vertex -1.689886e+02 -1.123260e+01 3.602101e+01
      vertex -1.596046e+02 -1.962816e+01 1.720210e+01
    endloop
  endfacet
  facet normal 2.714473e-01 9.610471e-01 5.200813e-02
    outer loop
      vertex -1.521297e+02 -1.622406e+01 4.026508e+01
      vertex -1.689886e+02 -1.123260e+01 3.602101e+01
      vertex -1.652705e+02 -1.244345e+01 3.899012e+01
    endloop
  endfacet
  facet normal -3.503967e-01 -8.511475e-01 3.908580e-01
    outer loop
      vertex -1.512134e+02 -1.370286e+01 4.657685e+01
      vertex -1.689886e+02 -1.123260e+01 3.602101e+01
      vertex -1.521297e+02 -1.622406e+01 4.026508e+01
    endloop
  endfacet
  facet normal -7.792409e-01 8.256304e-02 6.212624e-01
    outer loop
      vertex -1.628372e+02 -1.025902e+01 4.360731e+01
      vertex -1.622464e+02 3.144887e+00 4.256701e+01
      vertex -1.689886e+02 -1.123260e+01 3.602101e+01
    endloop
  endfacet
  facet normal -3.522365e-01 -8.486899e-01 3.945313e-01
    outer loop
      vertex -1.512134e+02 -1.370286e+01 4.657685e+01
      vertex -1.628372e+02 -1.025902e+01 4.360731e+01
      vertex -1.689886e+02 -1.123260e+01 3.602101e+01
    endloop
  endfacet
  facet normal -7.060763e-01 1.830749e-01 6.840613e-01
    outer loop
      vertex -1.582709e+02 2.408168e+01 4.241880e+01
      vertex -1.658754e+02 2.547163e+01 3.419759e+01
      vertex -1.694549e+02 4.339660e+00 3.615846e+01
    endloop
  endfacet
  facet normal -6.469921e-01 1.281714e-01 7.516470e-01
    outer loop
      vertex -1.582709e+02 2.408168e+01 4.241880e+01
      vertex -1.694549e+02 4.339660e+00 3.615846e+01
      vertex -1.622464e+02 3.144887e+00 4.256701e+01
    endloop
  endfacet
  facet normal -9.513163e-01 2.586253e-01 -1.676611e-01
    outer loop
      vertex -1.707268e+02 2.649238e+01 1.750849e+01
      vertex -1.705501e+02 1.960397e+01 5.879990e+00
      vertex -1.723580e+02 2.066062e+01 1.776830e+01
    endloop
  endfacet
  facet normal -9.200365e-01 2.699962e-01 2.839629e-01
    outer loop
      vertex -1.658754e+02 2.547163e+01 3.419759e+01
      vertex -1.707268e+02 2.649238e+01 1.750849e+01
      vertex -1.723580e+02 2.066062e+01 1.776830e+01
    endloop
  endfacet
  facet normal -8.333035e-01 5.242943e-01 1.752735e-01
    outer loop
      vertex -1.658754e+02 2.547163e+01 3.419759e+01
      vertex -1.723580e+02 2.066062e+01 1.776830e+01
      vertex -1.700941e+02 2.066984e+01 2.850435e+01
    endloop
  endfacet
  facet normal -8.493176e-01 4.484156e-01 -2.785375e-01
    outer loop
      vertex -1.661277e+02 2.463560e+01 4.957308e-01
      vertex -1.705501e+02 1.960397e+01 5.879990e+00
      vertex -1.707268e+02 2.649238e+01 1.750849e+01
    endloop
  endfacet
  facet normal -9.083028e-01 3.112238e-01 -2.795099e-01
    outer loop
      vertex -1.658088e+02 3.829401e+01 1.466745e+01
      vertex -1.661277e+02 2.463560e+01 4.957308e-01
      vertex -1.707268e+02 2.649238e+01 1.750849e+01
    endloop
  endfacet
  facet normal -9.409454e-01 1.831676e-01 2.847304e-01
    outer loop
      vertex -1.647118e+02 3.421407e+01 3.241901e+01
      vertex -1.707268e+02 2.649238e+01 1.750849e+01
      vertex -1.658754e+02 2.547163e+01 3.419759e+01
    endloop
  endfacet
  facet normal -8.992736e-01 4.108595e-01 1.500051e-01
    outer loop
      vertex -1.647118e+02 3.421407e+01 3.241901e+01
      vertex -1.658088e+02 3.829401e+01 1.466745e+01
      vertex -1.707268e+02 2.649238e+01 1.750849e+01
    endloop
  endfacet
  facet normal -7.135596e-01 2.086083e-01 -6.688163e-01
    outer loop
      vertex -1.598829e+02 2.232713e+01 -6.886889e+00
      vertex -1.633306e+02 1.413350e+00 -9.731660e+00
      vertex -1.661277e+02 2.463560e+01 4.957308e-01
    endloop
  endfacet
  facet normal -6.926302e-01 2.679614e-01 -6.696716e-01
    outer loop
      vertex -1.639331e+02 3.560698e+01 2.615976e+00
      vertex -1.598829e+02 2.232713e+01 -6.886889e+00
      vertex -1.661277e+02 2.463560e+01 4.957308e-01
    endloop
  endfacet
  facet normal -9.527653e-01 2.291085e-01 -1.993682e-01
    outer loop
      vertex -1.658088e+02 3.829401e+01 1.466745e+01
      vertex -1.639331e+02 3.560698e+01 2.615976e+00
      vertex -1.661277e+02 2.463560e+01 4.957308e-01
    endloop
  endfacet
  facet normal -7.200380e-01 1.116317e-01 6.848968e-01
    outer loop
      vertex -1.584851e+02 3.199619e+01 4.090365e+01
      vertex -1.658754e+02 2.547163e+01 3.419759e+01
      vertex -1.582709e+02 2.408168e+01 4.241880e+01
    endloop
  endfacet
  facet normal -7.563502e-01 2.255925e-01 6.140378e-01
    outer loop
      vertex -1.584851e+02 3.199619e+01 4.090365e+01
      vertex -1.647118e+02 3.421407e+01 3.241901e+01
      vertex -1.658754e+02 2.547163e+01 3.419759e+01
    endloop
  endfacet
  facet normal -2.714473e-01 -9.610471e-01 -5.200813e-02
    outer loop
      vertex -1.503493e+02 -2.171380e+01 7.435447e+00
      vertex -1.596046e+02 -1.962816e+01 1.720210e+01
      vertex -1.568577e+02 -1.995998e+01 8.996914e+00
    endloop
  endfacet
  facet normal -3.339071e-01 -8.101412e-01 -4.818477e-01
    outer loop
      vertex -1.514918e+02 -1.396548e+01 -4.800209e+00
      vertex -1.503493e+02 -2.171380e+01 7.435447e+00
      vertex -1.568577e+02 -1.995998e+01 8.996914e+00
    endloop
  endfacet
  facet normal -2.714473e-01 -9.610471e-01 -5.200813e-02
    outer loop
      vertex -1.503493e+02 -2.171380e+01 7.435447e+00
      vertex -1.478327e+02 -2.302308e+01 1.849462e+01
      vertex -1.596046e+02 -1.962816e+01 1.720210e+01
    endloop
  endfacet
  facet normal -2.928095e-01 -9.287246e-01 2.274495e-01
    outer loop
      vertex -1.434772e+02 -1.959196e+01 3.811169e+01
      vertex -1.596046e+02 -1.962816e+01 1.720210e+01
      vertex -1.478327e+02 -2.302308e+01 1.849462e+01
    endloop
  endfacet
  facet normal -2.950290e-01 -9.276011e-01 2.291595e-01
    outer loop
      vertex -1.434772e+02 -1.959196e+01 3.811169e+01
      vertex -1.652705e+02 -1.244345e+01 3.899012e+01
      vertex -1.596046e+02 -1.962816e+01 1.720210e+01
    endloop
  endfacet
  facet normal -2.939965e-01 -9.546929e-01 -4.612472e-02
    outer loop
      vertex -1.274278e+02 -2.930711e+01 1.850218e+01
      vertex -1.478327e+02 -2.302308e+01 1.849462e+01
      vertex -1.503493e+02 -2.171380e+01 7.435447e+00
    endloop
  endfacet
  facet normal -2.406553e-01 -9.456218e-01 2.188253e-01
    outer loop
      vertex -1.299953e+02 -2.332849e+01 3.679170e+01
      vertex -1.434772e+02 -1.959196e+01 3.811169e+01
      vertex -1.478327e+02 -2.302308e+01 1.849462e+01
    endloop
  endfacet
  facet normal -2.841623e-01 -9.223899e-01 2.616271e-01
    outer loop
      vertex -1.299953e+02 -2.332849e+01 3.679170e+01
      vertex -1.478327e+02 -2.302308e+01 1.849462e+01
      vertex -1.274278e+02 -2.930711e+01 1.850218e+01
    endloop
  endfacet
  facet normal -6.862598e-01 -6.417664e-01 -3.423207e-01
    outer loop
      vertex -1.469486e+02 -1.484506e+01 -1.225909e+01
      vertex -1.503493e+02 -2.171380e+01 7.435447e+00
      vertex -1.514918e+02 -1.396548e+01 -4.800209e+00
    endloop
  endfacet
  facet normal -3.927214e-01 -8.451683e-01 -3.625748e-01
    outer loop
      vertex -1.298028e+02 -2.757205e+01 -1.163677e+00
      vertex -1.503493e+02 -2.171380e+01 7.435447e+00
      vertex -1.469486e+02 -1.484506e+01 -1.225909e+01
    endloop
  endfacet
  facet normal -2.927398e-01 -9.549410e-01 -4.889799e-02
    outer loop
      vertex -1.274278e+02 -2.930711e+01 1.850218e+01
      vertex -1.503493e+02 -2.171380e+01 7.435447e+00
      vertex -1.298028e+02 -2.757205e+01 -1.163677e+00
    endloop
  endfacet
  facet normal -3.309473e-01 -8.894286e-01 -3.152629e-01
    outer loop
      vertex -1.516155e+02 -1.024848e+01 -1.515684e+01
      vertex -1.514918e+02 -1.396548e+01 -4.800209e+00
      vertex -1.627518e+02 -7.282911e+00 -1.183307e+01
    endloop
  endfacet
  facet normal -5.868265e-01 -7.643188e-01 -2.673041e-01
    outer loop
      vertex -1.469486e+02 -1.484506e+01 -1.225909e+01
      vertex -1.514918e+02 -1.396548e+01 -4.800209e+00
      vertex -1.516155e+02 -1.024848e+01 -1.515684e+01
    endloop
  endfacet
  facet normal -2.903138e-01 -9.181876e-01 2.695357e-01
    outer loop
      vertex -1.521297e+02 -1.622406e+01 4.026508e+01
      vertex -1.652705e+02 -1.244345e+01 3.899012e+01
      vertex -1.434772e+02 -1.959196e+01 3.811169e+01
    endloop
  endfacet
  facet normal -2.480272e-01 -8.866962e-01 3.901952e-01
    outer loop
      vertex -1.512134e+02 -1.370286e+01 4.657685e+01
      vertex -1.521297e+02 -1.622406e+01 4.026508e+01
      vertex -1.434772e+02 -1.959196e+01 3.811169e+01
    endloop
  endfacet
  facet normal -7.886510e-01 -2.005547e-01 -5.812120e-01
    outer loop
      vertex -1.479971e+02 -1.742445e+01 4.349679e+01
      vertex -1.512134e+02 -1.370286e+01 4.657685e+01
      vertex -1.434772e+02 -1.959196e+01 3.811169e+01
    endloop
  endfacet
  facet normal -2.714473e-01 -9.610471e-01 -5.200813e-02
    outer loop
      vertex -1.392883e+02 -2.101784e+01 4.259728e+01
      vertex -1.434772e+02 -1.959196e+01 3.811169e+01
      vertex -1.299953e+02 -2.332849e+01 3.679170e+01
    endloop
  endfacet
  facet normal -3.757817e-01 -9.249600e-01 5.689556e-02
    outer loop
      vertex -1.392883e+02 -2.101784e+01 4.259728e+01
      vertex -1.479971e+02 -1.742445e+01 4.349679e+01
      vertex -1.434772e+02 -1.959196e+01 3.811169e+01
    endloop
  endfacet
  facet normal -3.496987e-01 1.979989e-01 -9.157004e-01
    outer loop
      vertex -1.504978e+02 4.282908e+00 -1.401196e+01
      vertex -1.627518e+02 -7.282911e+00 -1.183307e+01
      vertex -1.633306e+02 1.413350e+00 -9.731660e+00
    endloop
  endfacet
  facet normal -2.611794e-01 9.576721e-02 -9.605280e-01
    outer loop
      vertex -1.504978e+02 4.282908e+00 -1.401196e+01
      vertex -1.516155e+02 -1.024848e+01 -1.515684e+01
      vertex -1.627518e+02 -7.282911e+00 -1.183307e+01
    endloop
  endfacet
  facet normal -3.386148e-01 1.228118e-01 -9.328758e-01
    outer loop
      vertex -1.481836e+02 2.553558e+01 -1.205408e+01
      vertex -1.504978e+02 4.282908e+00 -1.401196e+01
      vertex -1.633306e+02 1.413350e+00 -9.731660e+00
    endloop
  endfacet
  facet normal -4.400606e-01 1.918701e-01 -8.772300e-01
    outer loop
      vertex -1.481836e+02 2.553558e+01 -1.205408e+01
      vertex -1.633306e+02 1.413350e+00 -9.731660e+00
      vertex -1.598829e+02 2.232713e+01 -6.886889e+00
    endloop
  endfacet
  facet normal 4.291145e-02 7.519033e-02 -9.962455e-01
    outer loop
      vertex -1.316632e+02 5.130217e+00 -1.313675e+01
      vertex -1.516155e+02 -1.024848e+01 -1.515684e+01
      vertex -1.504978e+02 4.282908e+00 -1.401196e+01
    endloop
  endfacet
  facet normal -3.423082e-03 -5.357702e-01 -8.443569e-01
    outer loop
      vertex -1.368188e+02 -1.457305e+01 -1.247275e+01
      vertex -1.469486e+02 -1.484506e+01 -1.225909e+01
      vertex -1.516155e+02 -1.024848e+01 -1.515684e+01
    endloop
  endfacet
  facet normal 1.569410e-01 -7.425339e-02 -9.848127e-01
    outer loop
      vertex -1.316632e+02 5.130217e+00 -1.313675e+01
      vertex -1.368188e+02 -1.457305e+01 -1.247275e+01
      vertex -1.516155e+02 -1.024848e+01 -1.515684e+01
    endloop
  endfacet
  facet normal -5.151538e-02 9.717465e-02 -9.939332e-01
    outer loop
      vertex -1.328111e+02 2.745032e+01 -1.266363e+01
      vertex -1.504978e+02 4.282908e+00 -1.401196e+01
      vertex -1.481836e+02 2.553558e+01 -1.205408e+01
    endloop
  endfacet
  facet normal 4.535058e-02 2.350142e-02 -9.986947e-01
    outer loop
      vertex -1.328111e+02 2.745032e+01 -1.266363e+01
      vertex -1.316632e+02 5.130217e+00 -1.313675e+01
      vertex -1.504978e+02 4.282908e+00 -1.401196e+01
    endloop
  endfacet
  facet normal -3.637001e-01 8.800379e-02 9.273498e-01
    outer loop
      vertex -1.499192e+02 5.691621e+00 4.715998e+01
      vertex -1.622464e+02 3.144887e+00 4.256701e+01
      vertex -1.628372e+02 -1.025902e+01 4.360731e+01
    endloop
  endfacet
  facet normal -3.539664e-01 2.734725e-02 9.348582e-01
    outer loop
      vertex -1.476811e+02 2.701598e+01 4.738356e+01
      vertex -1.622464e+02 3.144887e+00 4.256701e+01
      vertex -1.499192e+02 5.691621e+00 4.715998e+01
    endloop
  endfacet
  facet normal -4.431906e-01 9.046626e-02 8.918508e-01
    outer loop
      vertex -1.476811e+02 2.701598e+01 4.738356e+01
      vertex -1.582709e+02 2.408168e+01 4.241880e+01
      vertex -1.622464e+02 3.144887e+00 4.256701e+01
    endloop
  endfacet
  facet normal -2.509374e-01 -1.235682e-02 9.679244e-01
    outer loop
      vertex -1.499192e+02 5.691621e+00 4.715998e+01
      vertex -1.628372e+02 -1.025902e+01 4.360731e+01
      vertex -1.512134e+02 -1.370286e+01 4.657685e+01
    endloop
  endfacet
  facet normal 4.221818e-02 -3.284071e-02 9.985685e-01
    outer loop
      vertex -1.344803e+02 7.563609e+00 4.656881e+01
      vertex -1.499192e+02 5.691621e+00 4.715998e+01
      vertex -1.512134e+02 -1.370286e+01 4.657685e+01
    endloop
  endfacet
  facet normal 1.378922e-01 -5.580482e-01 8.182713e-01
    outer loop
      vertex -1.369602e+02 -1.359650e+01 4.424749e+01
      vertex -1.512134e+02 -1.370286e+01 4.657685e+01
      vertex -1.479971e+02 -1.742445e+01 4.349679e+01
    endloop
  endfacet
  facet normal 1.609146e-01 -1.262420e-01 9.788613e-01
    outer loop
      vertex -1.344803e+02 7.563609e+00 4.656881e+01
      vertex -1.512134e+02 -1.370286e+01 4.657685e+01
      vertex -1.369602e+02 -1.359650e+01 4.424749e+01
    endloop
  endfacet
  facet normal -5.967363e-02 -4.203476e-03 9.982091e-01
    outer loop
      vertex -1.330164e+02 2.440506e+01 4.824924e+01
      vertex -1.476811e+02 2.701598e+01 4.738356e+01
      vertex -1.499192e+02 5.691621e+00 4.715998e+01
    endloop
  endfacet
  facet normal 5.058703e-02 -1.035120e-01 9.933409e-01
    outer loop
      vertex -1.330164e+02 2.440506e+01 4.824924e+01
      vertex -1.499192e+02 5.691621e+00 4.715998e+01
      vertex -1.344803e+02 7.563609e+00 4.656881e+01
    endloop
  endfacet
  facet normal -4.263217e-01 1.081976e-01 -8.980775e-01
    outer loop
      vertex -1.498001e+02 3.232321e+01 -1.046895e+01
      vertex -1.481836e+02 2.553558e+01 -1.205408e+01
      vertex -1.598829e+02 2.232713e+01 -6.886889e+00
    endloop
  endfacet
  facet normal -7.550755e-01 2.133410e-01 -6.199569e-01
    outer loop
      vertex -1.580314e+02 3.435238e+01 -5.003796e+00
      vertex -1.598829e+02 2.232713e+01 -6.886889e+00
      vertex -1.639331e+02 3.560698e+01 2.615976e+00
    endloop
  endfacet
  facet normal -5.046722e-01 2.088778e-01 -8.376610e-01
    outer loop
      vertex -1.498001e+02 3.232321e+01 -1.046895e+01
      vertex -1.598829e+02 2.232713e+01 -6.886889e+00
      vertex -1.580314e+02 3.435238e+01 -5.003796e+00
    endloop
  endfacet
  facet normal -2.003584e-02 2.228401e-01 -9.746491e-01
    outer loop
      vertex -1.335140e+02 3.088077e+01 -1.113353e+01
      vertex -1.481836e+02 2.553558e+01 -1.205408e+01
      vertex -1.498001e+02 3.232321e+01 -1.046895e+01
    endloop
  endfacet
  facet normal -8.507127e-02 3.912821e-01 -9.163303e-01
    outer loop
      vertex -1.335140e+02 3.088077e+01 -1.113353e+01
      vertex -1.328111e+02 2.745032e+01 -1.266363e+01
      vertex -1.481836e+02 2.553558e+01 -1.205408e+01
    endloop
  endfacet
  facet normal -4.664589e-01 2.457034e-01 8.497328e-01
    outer loop
      vertex -1.500030e+02 3.063146e+01 4.506354e+01
      vertex -1.582709e+02 2.408168e+01 4.241880e+01
      vertex -1.476811e+02 2.701598e+01 4.738356e+01
    endloop
  endfacet
  facet normal -4.137113e-01 1.603674e-01 8.961726e-01
    outer loop
      vertex -1.500030e+02 3.063146e+01 4.506354e+01
      vertex -1.584851e+02 3.199619e+01 4.090365e+01
      vertex -1.582709e+02 2.408168e+01 4.241880e+01
    endloop
  endfacet
  facet normal 6.886143e-02 5.697321e-01 8.189405e-01
    outer loop
      vertex -1.358639e+02 3.173064e+01 4.310994e+01
      vertex -1.500030e+02 3.063146e+01 4.506354e+01
      vertex -1.476811e+02 2.701598e+01 4.738356e+01
    endloop
  endfacet
  facet normal 5.709411e-02 5.881573e-01 8.067287e-01
    outer loop
      vertex -1.358639e+02 3.173064e+01 4.310994e+01
      vertex -1.476811e+02 2.701598e+01 4.738356e+01
      vertex -1.330164e+02 2.440506e+01 4.824924e+01
    endloop
  endfacet
  facet normal -3.375935e-01 8.513007e-01 -4.016438e-01
    outer loop
      vertex -1.523396e+02 3.874318e+01 -4.814521e-01
      vertex -1.580314e+02 3.435238e+01 -5.003796e+00
      vertex -1.639331e+02 3.560698e+01 2.615976e+00
    endloop
  endfacet
  facet normal -2.903515e-01 9.485403e-01 -1.263616e-01
    outer loop
      vertex -1.579016e+02 3.936852e+01 1.699302e+01
      vertex -1.523396e+02 3.874318e+01 -4.814521e-01
      vertex -1.639331e+02 3.560698e+01 2.615976e+00
    endloop
  endfacet
  facet normal -6.533729e-02 9.717400e-01 -2.268312e-01
    outer loop
      vertex -1.579016e+02 3.936852e+01 1.699302e+01
      vertex -1.639331e+02 3.560698e+01 2.615976e+00
      vertex -1.658088e+02 3.829401e+01 1.466745e+01
    endloop
  endfacet
  facet normal -1.751002e-01 8.073536e-01 -5.634892e-01
    outer loop
      vertex -1.498001e+02 3.232321e+01 -1.046895e+01
      vertex -1.580314e+02 3.435238e+01 -5.003796e+00
      vertex -1.523396e+02 3.874318e+01 -4.814521e-01
    endloop
  endfacet
  facet normal 6.907661e-02 8.470875e-01 -5.269451e-01
    outer loop
      vertex -1.345112e+02 3.399423e+01 -5.778509e+00
      vertex -1.498001e+02 3.232321e+01 -1.046895e+01
      vertex -1.523396e+02 3.874318e+01 -4.814521e-01
    endloop
  endfacet
  facet normal 3.043706e-01 9.504769e-01 6.286569e-02
    outer loop
      vertex -1.305545e+02 3.085685e+01 1.327899e+01
      vertex -1.523396e+02 3.874318e+01 -4.814521e-01
      vertex -1.579016e+02 3.936852e+01 1.699302e+01
    endloop
  endfacet
  facet normal 2.833010e-01 9.539867e-01 9.823391e-02
    outer loop
      vertex -1.305545e+02 3.085685e+01 1.327899e+01
      vertex -1.345112e+02 3.399423e+01 -5.778509e+00
      vertex -1.523396e+02 3.874318e+01 -4.814521e-01
    endloop
  endfacet
  facet normal 5.669289e-02 8.676631e-01 -4.939095e-01
    outer loop
      vertex -1.335140e+02 3.088077e+01 -1.113353e+01
      vertex -1.498001e+02 3.232321e+01 -1.046895e+01
      vertex -1.345112e+02 3.399423e+01 -5.778509e+00
    endloop
  endfacet
  facet normal -1.810192e-01 9.690702e-01 1.677351e-01
    outer loop
      vertex -1.528827e+02 3.687970e+01 3.678826e+01
      vertex -1.579016e+02 3.936852e+01 1.699302e+01
      vertex -1.658088e+02 3.829401e+01 1.466745e+01
    endloop
  endfacet
  facet normal -2.943952e-01 9.272680e-01 2.313128e-01
    outer loop
      vertex -1.528827e+02 3.687970e+01 3.678826e+01
      vertex -1.658088e+02 3.829401e+01 1.466745e+01
      vertex -1.647118e+02 3.421407e+01 3.241901e+01
    endloop
  endfacet
  facet normal 2.714473e-01 9.610471e-01 5.200813e-02
    outer loop
      vertex -1.350853e+02 3.166696e+01 4.022268e+01
      vertex -1.579016e+02 3.936852e+01 1.699302e+01
      vertex -1.528827e+02 3.687970e+01 3.678826e+01
    endloop
  endfacet
  facet normal 2.998046e-01 9.537530e-01 2.173716e-02
    outer loop
      vertex -1.350853e+02 3.166696e+01 4.022268e+01
      vertex -1.305545e+02 3.085685e+01 1.327899e+01
      vertex -1.579016e+02 3.936852e+01 1.699302e+01
    endloop
  endfacet
  facet normal -3.857819e-01 6.667446e-01 6.376708e-01
    outer loop
      vertex -1.500030e+02 3.063146e+01 4.506354e+01
      vertex -1.528827e+02 3.687970e+01 3.678826e+01
      vertex -1.647118e+02 3.421407e+01 3.241901e+01
    endloop
  endfacet
  facet normal 4.978621e-02 9.746266e-01 2.182298e-01
    outer loop
      vertex -1.500030e+02 3.063146e+01 4.506354e+01
      vertex -1.647118e+02 3.421407e+01 3.241901e+01
      vertex -1.584851e+02 3.199619e+01 4.090365e+01
    endloop
  endfacet
  facet normal 2.032443e-02 8.012854e-01 5.979369e-01
    outer loop
      vertex -1.358639e+02 3.173064e+01 4.310994e+01
      vertex -1.528827e+02 3.687970e+01 3.678826e+01
      vertex -1.500030e+02 3.063146e+01 4.506354e+01
    endloop
  endfacet
  facet normal 2.714473e-01 9.610471e-01 5.200813e-02
    outer loop
      vertex -1.358639e+02 3.173064e+01 4.310994e+01
      vertex -1.350853e+02 3.166696e+01 4.022268e+01
      vertex -1.528827e+02 3.687970e+01 3.678826e+01
    endloop
  endfacet
  facet normal 4.266587e-02 -6.232640e-01 -7.808467e-01
    outer loop
      vertex -1.344107e+02 -1.772422e+01 -9.275900e+00
      vertex -1.298028e+02 -2.757205e+01 -1.163677e+00
      vertex -1.469486e+02 -1.484506e+01 -1.225909e+01
    endloop
  endfacet
  facet normal 4.239407e-03 -7.105732e-01 -7.036105e-01
    outer loop
      vertex -1.368188e+02 -1.457305e+01 -1.247275e+01
      vertex -1.344107e+02 -1.772422e+01 -9.275900e+00
      vertex -1.469486e+02 -1.484506e+01 -1.225909e+01
    endloop
  endfacet
  facet normal -2.617181e-01 -6.836557e-01 -6.812624e-01
    outer loop
      vertex -1.052281e+02 -3.433936e+01 -3.813387e+00
      vertex -1.298028e+02 -2.757205e+01 -1.163677e+00
      vertex -1.344107e+02 -1.772422e+01 -9.275900e+00
    endloop
  endfacet
  facet normal -2.055171e-01 -9.767284e-01 -6.135383e-02
    outer loop
      vertex -1.005692e+02 -3.466968e+01 1.390396e+01
      vertex -1.274278e+02 -2.930711e+01 1.850218e+01
      vertex -1.298028e+02 -2.757205e+01 -1.163677e+00
    endloop
  endfacet
  facet normal -2.600997e-01 -9.642647e-01 5.041609e-02
    outer loop
      vertex -1.005692e+02 -3.466968e+01 1.390396e+01
      vertex -1.298028e+02 -2.757205e+01 -1.163677e+00
      vertex -1.052281e+02 -3.433936e+01 -3.813387e+00
    endloop
  endfacet
  facet normal -1.360709e-01 -7.548805e-01 -6.415919e-01
    outer loop
      vertex -9.701253e+01 -1.490698e+01 -2.052212e+01
      vertex -1.344107e+02 -1.772422e+01 -9.275900e+00
      vertex -1.368188e+02 -1.457305e+01 -1.247275e+01
    endloop
  endfacet
  facet normal -4.145551e-01 -8.417884e-01 -3.457404e-01
    outer loop
      vertex -1.004898e+02 -3.115239e+01 -1.725414e+01
      vertex -1.052281e+02 -3.433936e+01 -3.813387e+00
      vertex -1.344107e+02 -1.772422e+01 -9.275900e+00
    endloop
  endfacet
  facet normal -2.762866e-01 -1.323525e-01 -9.519184e-01
    outer loop
      vertex -9.701253e+01 -1.490698e+01 -2.052212e+01
      vertex -1.004898e+02 -3.115239e+01 -1.725414e+01
      vertex -1.344107e+02 -1.772422e+01 -9.275900e+00
    endloop
  endfacet
  facet normal -1.091702e-01 -4.931873e-03 -9.940108e-01
    outer loop
      vertex -1.128851e+02 6.192477e+00 -1.520438e+01
      vertex -1.368188e+02 -1.457305e+01 -1.247275e+01
      vertex -1.316632e+02 5.130217e+00 -1.313675e+01
    endloop
  endfacet
  facet normal -1.964552e-01 9.809295e-02 -9.755937e-01
    outer loop
      vertex -1.128851e+02 6.192477e+00 -1.520438e+01
      vertex -9.701253e+01 -1.490698e+01 -2.052212e+01
      vertex -1.368188e+02 -1.457305e+01 -1.247275e+01
    endloop
  endfacet
  facet normal 2.155333e-01 -9.188267e-01 3.306099e-01
    outer loop
      vertex -1.061099e+02 -2.041038e+01 2.933013e+01
      vertex -1.299953e+02 -2.332849e+01 3.679170e+01
      vertex -1.274278e+02 -2.930711e+01 1.850218e+01
    endloop
  endfacet
  facet normal -3.263936e-02 -7.397597e-01 6.720791e-01
    outer loop
      vertex -1.061099e+02 -2.041038e+01 2.933013e+01
      vertex -1.274278e+02 -2.930711e+01 1.850218e+01
      vertex -1.005692e+02 -3.466968e+01 1.390396e+01
    endloop
  endfacet
  facet normal 4.686091e-01 -3.009381e-01 8.305671e-01
    outer loop
      vertex -1.297875e+02 -1.419514e+01 3.998373e+01
      vertex -1.369602e+02 -1.359650e+01 4.424749e+01
      vertex -1.299953e+02 -2.332849e+01 3.679170e+01
    endloop
  endfacet
  facet normal 4.417869e-01 -3.245646e-01 8.363505e-01
    outer loop
      vertex -1.392883e+02 -2.101784e+01 4.259728e+01
      vertex -1.299953e+02 -2.332849e+01 3.679170e+01
      vertex -1.369602e+02 -1.359650e+01 4.424749e+01
    endloop
  endfacet
  facet normal 3.179905e-01 -3.192371e-01 8.927316e-01
    outer loop
      vertex -1.068055e+02 -1.638617e+01 3.101407e+01
      vertex -1.297875e+02 -1.419514e+01 3.998373e+01
      vertex -1.299953e+02 -2.332849e+01 3.679170e+01
    endloop
  endfacet
  facet normal 3.178881e-01 -3.187072e-01 8.929574e-01
    outer loop
      vertex -1.068055e+02 -1.638617e+01 3.101407e+01
      vertex -1.299953e+02 -2.332849e+01 3.679170e+01
      vertex -1.061099e+02 -2.041038e+01 2.933013e+01
    endloop
  endfacet
  facet normal 9.964213e-03 -2.200254e-01 9.754433e-01
    outer loop
      vertex -1.392883e+02 -2.101784e+01 4.259728e+01
      vertex -1.369602e+02 -1.359650e+01 4.424749e+01
      vertex -1.479971e+02 -1.742445e+01 4.349679e+01
    endloop
  endfacet
  facet normal 4.955567e-01 -1.525777e-01 8.550694e-01
    outer loop
      vertex -1.243156e+02 -9.990771e+00 3.756273e+01
      vertex -1.369602e+02 -1.359650e+01 4.424749e+01
      vertex -1.297875e+02 -1.419514e+01 3.998373e+01
    endloop
  endfacet
  facet normal 4.349382e-01 -1.484050e-01 8.881468e-01
    outer loop
      vertex -1.223340e+02 1.007198e+01 4.103971e+01
      vertex -1.344803e+02 7.563609e+00 4.656881e+01
      vertex -1.369602e+02 -1.359650e+01 4.424749e+01
    endloop
  endfacet
  facet normal 5.013584e-01 -1.955902e-01 8.428429e-01
    outer loop
      vertex -1.243156e+02 -9.990771e+00 3.756273e+01
      vertex -1.223340e+02 1.007198e+01 4.103971e+01
      vertex -1.369602e+02 -1.359650e+01 4.424749e+01
    endloop
  endfacet
  facet normal 3.676425e-01 5.605315e-02 9.282764e-01
    outer loop
      vertex -1.243156e+02 -9.990771e+00 3.756273e+01
      vertex -1.297875e+02 -1.419514e+01 3.998373e+01
      vertex -1.068055e+02 -1.638617e+01 3.101407e+01
    endloop
  endfacet
  facet normal 5.547465e-02 2.401099e-02 -9.981713e-01
    outer loop
      vertex -1.149588e+02 2.567129e+01 -1.171426e+01
      vertex -1.316632e+02 5.130217e+00 -1.313675e+01
      vertex -1.328111e+02 2.745032e+01 -1.266363e+01
    endloop
  endfacet
  facet normal -1.170914e-01 1.630618e-01 -9.796430e-01
    outer loop
      vertex -1.149588e+02 2.567129e+01 -1.171426e+01
      vertex -1.128851e+02 6.192477e+00 -1.520438e+01
      vertex -1.316632e+02 5.130217e+00 -1.313675e+01
    endloop
  endfacet
  facet normal 3.538386e-01 -1.232663e-01 9.271481e-01
    outer loop
      vertex -1.223921e+02 2.164351e+01 4.382738e+01
      vertex -1.330164e+02 2.440506e+01 4.824924e+01
      vertex -1.344803e+02 7.563609e+00 4.656881e+01
    endloop
  endfacet
  facet normal 4.405119e-01 -2.081680e-01 8.732785e-01
    outer loop
      vertex -1.223921e+02 2.164351e+01 4.382738e+01
      vertex -1.344803e+02 7.563609e+00 4.656881e+01
      vertex -1.223340e+02 1.007198e+01 4.103971e+01
    endloop
  endfacet
  facet normal 1.670921e-01 4.299793e-01 -8.872418e-01
    outer loop
      vertex -1.062740e+02 3.333365e+01 -4.814764e+00
      vertex -1.328111e+02 2.745032e+01 -1.266363e+01
      vertex -1.335140e+02 3.088077e+01 -1.113353e+01
    endloop
  endfacet
  facet normal 1.019502e-01 5.993604e-01 -7.939605e-01
    outer loop
      vertex -1.062740e+02 3.333365e+01 -4.814764e+00
      vertex -1.149588e+02 2.567129e+01 -1.171426e+01
      vertex -1.328111e+02 2.745032e+01 -1.266363e+01
    endloop
  endfacet
  facet normal 3.677376e-01 6.256222e-01 6.880159e-01
    outer loop
      vertex -1.215231e+02 2.462356e+01 4.190748e+01
      vertex -1.358639e+02 3.173064e+01 4.310994e+01
      vertex -1.330164e+02 2.440506e+01 4.824924e+01
    endloop
  endfacet
  facet normal 4.385304e-01 3.928711e-01 8.082966e-01
    outer loop
      vertex -1.215231e+02 2.462356e+01 4.190748e+01
      vertex -1.330164e+02 2.440506e+01 4.824924e+01
      vertex -1.223921e+02 2.164351e+01 4.382738e+01
    endloop
  endfacet
  facet normal 7.985843e-03 8.651202e-01 -5.015010e-01
    outer loop
      vertex -1.110886e+02 3.596670e+01 -2.002900e+00
      vertex -1.335140e+02 3.088077e+01 -1.113353e+01
      vertex -1.345112e+02 3.399423e+01 -5.778509e+00
    endloop
  endfacet
  facet normal -1.720535e-01 9.656561e-01 1.946945e-01
    outer loop
      vertex -1.084755e+02 3.425890e+01 1.591674e+01
      vertex -1.345112e+02 3.399423e+01 -5.778509e+00
      vertex -1.305545e+02 3.085685e+01 1.327899e+01
    endloop
  endfacet
  facet normal -1.008416e-01 9.889188e-01 1.089519e-01
    outer loop
      vertex -1.084755e+02 3.425890e+01 1.591674e+01
      vertex -1.110886e+02 3.596670e+01 -2.002900e+00
      vertex -1.345112e+02 3.399423e+01 -5.778509e+00
    endloop
  endfacet
  facet normal 7.156419e-02 7.862657e-01 -6.137302e-01
    outer loop
      vertex -1.062740e+02 3.333365e+01 -4.814764e+00
      vertex -1.335140e+02 3.088077e+01 -1.113353e+01
      vertex -1.110886e+02 3.596670e+01 -2.002900e+00
    endloop
  endfacet
  facet normal -7.112486e-02 9.965860e-01 -4.192437e-02
    outer loop
      vertex -1.062246e+02 3.310611e+01 2.547032e+01
      vertex -1.305545e+02 3.085685e+01 1.327899e+01
      vertex -1.350853e+02 3.166696e+01 4.022268e+01
    endloop
  endfacet
  facet normal -1.687100e-01 9.730549e-01 1.571656e-01
    outer loop
      vertex -1.062246e+02 3.310611e+01 2.547032e+01
      vertex -1.084755e+02 3.425890e+01 1.591674e+01
      vertex -1.305545e+02 3.085685e+01 1.327899e+01
    endloop
  endfacet
  facet normal 4.485691e-01 8.879789e-01 1.013864e-01
    outer loop
      vertex -1.215231e+02 2.462356e+01 4.190748e+01
      vertex -1.350853e+02 3.166696e+01 4.022268e+01
      vertex -1.358639e+02 3.173064e+01 4.310994e+01
    endloop
  endfacet
  facet normal 2.907959e-01 7.126433e-01 6.384178e-01
    outer loop
      vertex -1.215231e+02 2.462356e+01 4.190748e+01
      vertex -1.062246e+02 3.310611e+01 2.547032e+01
      vertex -1.350853e+02 3.166696e+01 4.022268e+01
    endloop
  endfacet
  facet normal -5.171726e-01 -7.737768e-01 -3.657894e-01
    outer loop
      vertex -9.733679e+01 -3.470317e+01 -1.420089e+01
      vertex -1.052281e+02 -3.433936e+01 -3.813387e+00
      vertex -1.004898e+02 -3.115239e+01 -1.725414e+01
    endloop
  endfacet
  facet normal -6.329751e-01 -7.590454e-01 1.522911e-01
    outer loop
      vertex -1.002013e+02 -3.803041e+01 -1.317143e+00
      vertex -1.005692e+02 -3.466968e+01 1.390396e+01
      vertex -1.052281e+02 -3.433936e+01 -3.813387e+00
    endloop
  endfacet
  facet normal -4.545026e-01 -8.327662e-01 -3.161137e-01
    outer loop
      vertex -1.002013e+02 -3.803041e+01 -1.317143e+00
      vertex -1.052281e+02 -3.433936e+01 -3.813387e+00
      vertex -9.733679e+01 -3.470317e+01 -1.420089e+01
    endloop
  endfacet
  facet normal -3.350553e-01 -1.163668e-01 -9.349849e-01
    outer loop
      vertex -8.506694e+01 -1.608842e+01 -2.465583e+01
      vertex -1.004898e+02 -3.115239e+01 -1.725414e+01
      vertex -9.701253e+01 -1.490698e+01 -2.052212e+01
    endloop
  endfacet
  facet normal -4.248882e-01 -7.768734e-01 -4.646910e-01
    outer loop
      vertex -8.041010e+01 -3.755110e+01 -2.491654e+01
      vertex -9.733679e+01 -3.470317e+01 -1.420089e+01
      vertex -1.004898e+02 -3.115239e+01 -1.725414e+01
    endloop
  endfacet
  facet normal -3.750805e-01 -7.015452e-02 -9.243338e-01
    outer loop
      vertex -8.506694e+01 -1.608842e+01 -2.465583e+01
      vertex -8.041010e+01 -3.755110e+01 -2.491654e+01
      vertex -1.004898e+02 -3.115239e+01 -1.725414e+01
    endloop
  endfacet
  facet normal -2.152039e-01 8.333680e-02 -9.730068e-01
    outer loop
      vertex -8.527143e+01 2.249974e+00 -2.164948e+01
      vertex -9.701253e+01 -1.490698e+01 -2.052212e+01
      vertex -1.128851e+02 6.192477e+00 -1.520438e+01
    endloop
  endfacet
  facet normal -3.099759e-01 1.504424e-01 -9.387662e-01
    outer loop
      vertex -8.527143e+01 2.249974e+00 -2.164948e+01
      vertex -8.506694e+01 -1.608842e+01 -2.465583e+01
      vertex -9.701253e+01 -1.490698e+01 -2.052212e+01
    endloop
  endfacet
  facet normal -2.296383e-01 -7.544378e-01 6.148901e-01
    outer loop
      vertex -8.667383e+01 -2.805585e+01 2.720819e+01
      vertex -1.061099e+02 -2.041038e+01 2.933013e+01
      vertex -1.005692e+02 -3.466968e+01 1.390396e+01
    endloop
  endfacet
  facet normal -5.804732e-01 -7.979704e-01 1.621547e-01
    outer loop
      vertex -9.696406e+01 -3.794715e+01 1.068096e+01
      vertex -1.005692e+02 -3.466968e+01 1.390396e+01
      vertex -1.002013e+02 -3.803041e+01 -1.317143e+00
    endloop
  endfacet
  facet normal -2.403115e-01 -8.020414e-01 5.467907e-01
    outer loop
      vertex -8.598248e+01 -3.704159e+01 1.683560e+01
      vertex -1.005692e+02 -3.466968e+01 1.390396e+01
      vertex -9.696406e+01 -3.794715e+01 1.068096e+01
    endloop
  endfacet
  facet normal -2.460887e-01 -7.406411e-01 6.252129e-01
    outer loop
      vertex -8.667383e+01 -2.805585e+01 2.720819e+01
      vertex -1.005692e+02 -3.466968e+01 1.390396e+01
      vertex -8.598248e+01 -3.704159e+01 1.683560e+01
    endloop
  endfacet
  facet normal -6.194065e-02 -3.943698e-01 9.168619e-01
    outer loop
      vertex -8.303288e+01 -1.602973e+01 3.277340e+01
      vertex -1.068055e+02 -1.638617e+01 3.101407e+01
      vertex -1.061099e+02 -2.041038e+01 2.933013e+01
    endloop
  endfacet
  facet normal -5.941898e-02 -4.043579e-01 9.126687e-01
    outer loop
      vertex -8.303288e+01 -1.602973e+01 3.277340e+01
      vertex -1.061099e+02 -2.041038e+01 2.933013e+01
      vertex -8.667383e+01 -2.805585e+01 2.720819e+01
    endloop
  endfacet
  facet normal 5.928130e-01 4.320092e-02 8.041806e-01
    outer loop
      vertex -1.122486e+02 7.014628e+00 3.376942e+01
      vertex -1.223340e+02 1.007198e+01 4.103971e+01
      vertex -1.068055e+02 -1.638617e+01 3.101407e+01
    endloop
  endfacet
  facet normal 2.819630e-01 -1.908026e-01 9.402613e-01
    outer loop
      vertex -1.243156e+02 -9.990771e+00 3.756273e+01
      vertex -1.068055e+02 -1.638617e+01 3.101407e+01
      vertex -1.223340e+02 1.007198e+01 4.103971e+01
    endloop
  endfacet
  facet normal 1.769422e-01 -7.439931e-02 9.814052e-01
    outer loop
      vertex -8.874057e+01 5.893338e+00 2.944603e+01
      vertex -1.122486e+02 7.014628e+00 3.376942e+01
      vertex -1.068055e+02 -1.638617e+01 3.101407e+01
    endloop
  endfacet
  facet normal -7.511939e-02 1.304871e-01 9.886001e-01
    outer loop
      vertex -8.874057e+01 5.893338e+00 2.944603e+01
      vertex -1.068055e+02 -1.638617e+01 3.101407e+01
      vertex -8.303288e+01 -1.602973e+01 3.277340e+01
    endloop
  endfacet
  facet normal -6.892408e-02 1.688327e-01 -9.832319e-01
    outer loop
      vertex -8.460749e+01 1.983883e+01 -1.484338e+01
      vertex -1.128851e+02 6.192477e+00 -1.520438e+01
      vertex -1.149588e+02 2.567129e+01 -1.171426e+01
    endloop
  endfacet
  facet normal -1.626888e-01 3.614067e-01 -9.181054e-01
    outer loop
      vertex -8.460749e+01 1.983883e+01 -1.484338e+01
      vertex -8.527143e+01 2.249974e+00 -2.164948e+01
      vertex -1.128851e+02 6.192477e+00 -1.520438e+01
    endloop
  endfacet
  facet normal 5.337967e-01 -1.955148e-01 8.226999e-01
    outer loop
      vertex -1.223921e+02 2.164351e+01 4.382738e+01
      vertex -1.223340e+02 1.007198e+01 4.103971e+01
      vertex -1.122486e+02 7.014628e+00 3.376942e+01
    endloop
  endfacet
  facet normal 5.530908e-01 -1.763255e-01 8.142480e-01
    outer loop
      vertex -1.090277e+02 2.148349e+01 3.471478e+01
      vertex -1.223921e+02 2.164351e+01 4.382738e+01
      vertex -1.122486e+02 7.014628e+00 3.376942e+01
    endloop
  endfacet
  facet normal 7.589453e-01 -2.092386e-01 6.166208e-01
    outer loop
      vertex -9.878205e+01 2.932395e+01 2.476479e+01
      vertex -1.090277e+02 2.148349e+01 3.471478e+01
      vertex -1.122486e+02 7.014628e+00 3.376942e+01
    endloop
  endfacet
  facet normal 1.866072e-01 2.687671e-01 9.449561e-01
    outer loop
      vertex -9.878205e+01 2.932395e+01 2.476479e+01
      vertex -1.122486e+02 7.014628e+00 3.376942e+01
      vertex -8.874057e+01 5.893338e+00 2.944603e+01
    endloop
  endfacet
  facet normal 6.280238e-02 6.275761e-01 -7.760181e-01
    outer loop
      vertex -8.548793e+01 2.082763e+01 -1.324635e+01
      vertex -1.149588e+02 2.567129e+01 -1.171426e+01
      vertex -1.062740e+02 3.333365e+01 -4.814764e+00
    endloop
  endfacet
  facet normal 1.186740e-01 8.721756e-01 -4.745801e-01
    outer loop
      vertex -8.548793e+01 2.082763e+01 -1.324635e+01
      vertex -8.460749e+01 1.983883e+01 -1.484338e+01
      vertex -1.149588e+02 2.567129e+01 -1.171426e+01
    endloop
  endfacet
  facet normal 5.318735e-01 3.435576e-01 7.740017e-01
    outer loop
      vertex -1.215231e+02 2.462356e+01 4.190748e+01
      vertex -1.223921e+02 2.164351e+01 4.382738e+01
      vertex -1.090277e+02 2.148349e+01 3.471478e+01
    endloop
  endfacet
  facet normal 5.279885e-01 4.470016e-01 7.220926e-01
    outer loop
      vertex -1.215231e+02 2.462356e+01 4.190748e+01
      vertex -1.090277e+02 2.148349e+01 3.471478e+01
      vertex -1.062246e+02 3.310611e+01 2.547032e+01
    endloop
  endfacet
  facet normal 3.381914e-01 5.345033e-01 7.745533e-01
    outer loop
      vertex -9.858078e+01 2.980884e+01 2.440821e+01
      vertex -1.062246e+02 3.310611e+01 2.547032e+01
      vertex -1.090277e+02 2.148349e+01 3.471478e+01
    endloop
  endfacet
  facet normal 4.738414e-01 3.855444e-01 7.917259e-01
    outer loop
      vertex -9.858078e+01 2.980884e+01 2.440821e+01
      vertex -1.090277e+02 2.148349e+01 3.471478e+01
      vertex -9.878205e+01 2.932395e+01 2.476479e+01
    endloop
  endfacet
  facet normal 4.072406e-01 9.014422e-01 -1.468229e-01
    outer loop
      vertex -1.022792e+02 3.236451e+01 3.154920e-01
      vertex -1.062740e+02 3.333365e+01 -4.814764e+00
      vertex -1.110886e+02 3.596670e+01 -2.002900e+00
    endloop
  endfacet
  facet normal 3.541349e-01 9.344456e-01 3.741535e-02
    outer loop
      vertex -9.800465e+01 3.022739e+01 1.749676e+01
      vertex -1.110886e+02 3.596670e+01 -2.002900e+00
      vertex -1.084755e+02 3.425890e+01 1.591674e+01
    endloop
  endfacet
  facet normal 3.733116e-01 9.274335e-01 2.248421e-02
    outer loop
      vertex -9.800465e+01 3.022739e+01 1.749676e+01
      vertex -1.022792e+02 3.236451e+01 3.154920e-01
      vertex -1.110886e+02 3.596670e+01 -2.002900e+00
    endloop
  endfacet
  facet normal 4.502178e-01 8.734205e-01 -1.855819e-01
    outer loop
      vertex -8.548793e+01 2.082763e+01 -1.324635e+01
      vertex -1.062740e+02 3.333365e+01 -4.814764e+00
      vertex -1.022792e+02 3.236451e+01 3.154920e-01
    endloop
  endfacet
  facet normal 3.980083e-01 9.172261e-01 1.690052e-02
    outer loop
      vertex -9.858078e+01 2.980884e+01 2.440821e+01
      vertex -1.084755e+02 3.425890e+01 1.591674e+01
      vertex -1.062246e+02 3.310611e+01 2.547032e+01
    endloop
  endfacet
  facet normal 3.467356e-01 9.340607e-01 8.546900e-02
    outer loop
      vertex -9.858078e+01 2.980884e+01 2.440821e+01
      vertex -9.800465e+01 3.022739e+01 1.749676e+01
      vertex -1.084755e+02 3.425890e+01 1.591674e+01
    endloop
  endfacet
  facet normal -4.855437e-01 -8.142343e-01 -3.182292e-01
    outer loop
      vertex -7.932269e+01 -4.956762e+01 -3.653416e+00
      vertex -1.002013e+02 -3.803041e+01 -1.317143e+00
      vertex -9.733679e+01 -3.470317e+01 -1.420089e+01
    endloop
  endfacet
  facet normal -5.875570e-01 -7.997001e-01 -1.235172e-01
    outer loop
      vertex -7.858321e+01 -4.886746e+01 -1.170416e+01
      vertex -7.932269e+01 -4.956762e+01 -3.653416e+00
      vertex -9.733679e+01 -3.470317e+01 -1.420089e+01
    endloop
  endfacet
  facet normal -4.603561e-01 -7.046817e-01 -5.399036e-01
    outer loop
      vertex -8.041010e+01 -3.755110e+01 -2.491654e+01
      vertex -7.858321e+01 -4.886746e+01 -1.170416e+01
      vertex -9.733679e+01 -3.470317e+01 -1.420089e+01
    endloop
  endfacet
  facet normal -4.557040e-01 -8.661950e-01 2.050368e-01
    outer loop
      vertex -7.917259e+01 -4.722361e+01 6.582656e+00
      vertex -1.002013e+02 -3.803041e+01 -1.317143e+00
      vertex -7.932269e+01 -4.956762e+01 -3.653416e+00
    endloop
  endfacet
  facet normal -4.361841e-01 -8.912907e-01 1.238719e-01
    outer loop
      vertex -7.917259e+01 -4.722361e+01 6.582656e+00
      vertex -9.696406e+01 -3.794715e+01 1.068096e+01
      vertex -1.002013e+02 -3.803041e+01 -1.317143e+00
    endloop
  endfacet
  facet normal -9.476433e-02 -9.909673e-01 -9.488697e-02
    outer loop
      vertex -6.151138e+01 -5.108976e+01 -5.544964e+00
      vertex -7.932269e+01 -4.956762e+01 -3.653416e+00
      vertex -7.858321e+01 -4.886746e+01 -1.170416e+01
    endloop
  endfacet
  facet normal -2.101917e-01 -9.523174e-01 2.211582e-01
    outer loop
      vertex -6.855525e+01 -4.843589e+01 1.145339e+01
      vertex -7.917259e+01 -4.722361e+01 6.582656e+00
      vertex -7.932269e+01 -4.956762e+01 -3.653416e+00
    endloop
  endfacet
  facet normal -7.130013e-02 -9.895971e-01 1.249555e-01
    outer loop
      vertex -6.855525e+01 -4.843589e+01 1.145339e+01
      vertex -7.932269e+01 -4.956762e+01 -3.653416e+00
      vertex -6.151138e+01 -5.108976e+01 -5.544964e+00
    endloop
  endfacet
  facet normal -3.720696e-01 -7.297635e-01 -5.735935e-01
    outer loop
      vertex -7.402993e+01 -3.794985e+01 -2.854781e+01
      vertex -7.858321e+01 -4.886746e+01 -1.170416e+01
      vertex -8.041010e+01 -3.755110e+01 -2.491654e+01
    endloop
  endfacet
  facet normal -3.240509e-01 -7.514807e-01 -5.746893e-01
    outer loop
      vertex -5.940490e+01 -4.873720e+01 -2.268859e+01
      vertex -7.858321e+01 -4.886746e+01 -1.170416e+01
      vertex -7.402993e+01 -3.794985e+01 -2.854781e+01
    endloop
  endfacet
  facet normal -7.620046e-02 -9.865311e-01 -1.447409e-01
    outer loop
      vertex -6.151138e+01 -5.108976e+01 -5.544964e+00
      vertex -7.858321e+01 -4.886746e+01 -1.170416e+01
      vertex -5.940490e+01 -4.873720e+01 -2.268859e+01
    endloop
  endfacet
  facet normal -8.562214e-01 -1.798950e-01 -4.842755e-01
    outer loop
      vertex -7.732868e+01 -2.900063e+01 -3.354091e+01
      vertex -8.041010e+01 -3.755110e+01 -2.491654e+01
      vertex -8.506694e+01 -1.608842e+01 -2.465583e+01
    endloop
  endfacet
  facet normal -4.372018e-01 -5.556978e-01 -7.071453e-01
    outer loop
      vertex -7.732868e+01 -2.900063e+01 -3.354091e+01
      vertex -7.402993e+01 -3.794985e+01 -2.854781e+01
      vertex -8.041010e+01 -3.755110e+01 -2.491654e+01
    endloop
  endfacet
  facet normal -2.647955e-01 -7.664100e-01 5.852342e-01
    outer loop
      vertex -8.598248e+01 -3.704159e+01 1.683560e+01
      vertex -9.696406e+01 -3.794715e+01 1.068096e+01
      vertex -7.917259e+01 -4.722361e+01 6.582656e+00
    endloop
  endfacet
  facet normal -1.594311e-01 -7.513939e-01 6.403038e-01
    outer loop
      vertex -8.667383e+01 -2.805585e+01 2.720819e+01
      vertex -8.598248e+01 -3.704159e+01 1.683560e+01
      vertex -7.917259e+01 -4.722361e+01 6.582656e+00
    endloop
  endfacet
  facet normal -3.123845e-01 -7.498383e-01 5.832310e-01
    outer loop
      vertex -7.123289e+01 -3.875980e+01 2.171685e+01
      vertex -8.667383e+01 -2.805585e+01 2.720819e+01
      vertex -7.917259e+01 -4.722361e+01 6.582656e+00
    endloop
  endfacet
  facet normal -3.980903e-01 -5.565166e-01 7.292554e-01
    outer loop
      vertex -6.396303e+01 -4.059919e+01 1.994063e+01
      vertex -7.917259e+01 -4.722361e+01 6.582656e+00
      vertex -6.855525e+01 -4.843589e+01 1.145339e+01
    endloop
  endfacet
  facet normal -8.759377e-02 -8.491482e-01 5.208404e-01
    outer loop
      vertex -6.396303e+01 -4.059919e+01 1.994063e+01
      vertex -7.123289e+01 -3.875980e+01 2.171685e+01
      vertex -7.917259e+01 -4.722361e+01 6.582656e+00
    endloop
  endfacet
  facet normal -7.925460e-01 9.003776e-02 -6.031285e-01
    outer loop
      vertex -7.513871e+01 -1.659131e+01 -3.777717e+01
      vertex -8.506694e+01 -1.608842e+01 -2.465583e+01
      vertex -8.527143e+01 2.249974e+00 -2.164948e+01
    endloop
  endfacet
  facet normal -7.969801e-01 -6.437070e-02 -6.005657e-01
    outer loop
      vertex -7.513871e+01 -1.659131e+01 -3.777717e+01
      vertex -7.732868e+01 -2.900063e+01 -3.354091e+01
      vertex -8.506694e+01 -1.608842e+01 -2.465583e+01
    endloop
  endfacet
  facet normal 5.358131e-02 -4.326843e-01 8.999519e-01
    outer loop
      vertex -6.639661e+01 -1.701982e+01 3.130689e+01
      vertex -8.303288e+01 -1.602973e+01 3.277340e+01
      vertex -8.667383e+01 -2.805585e+01 2.720819e+01
    endloop
  endfacet
  facet normal -1.506901e-01 -6.146108e-01 7.743036e-01
    outer loop
      vertex -6.366715e+01 -2.870738e+01 3.116844e+01
      vertex -8.667383e+01 -2.805585e+01 2.720819e+01
      vertex -7.123289e+01 -3.875980e+01 2.171685e+01
    endloop
  endfacet
  facet normal -1.708322e-01 -5.155119e-02 9.839506e-01
    outer loop
      vertex -6.639661e+01 -1.701982e+01 3.130689e+01
      vertex -8.667383e+01 -2.805585e+01 2.720819e+01
      vertex -6.366715e+01 -2.870738e+01 3.116844e+01
    endloop
  endfacet
  facet normal -2.792682e-02 1.428868e-01 9.893450e-01
    outer loop
      vertex -6.670737e+01 4.933144e+00 3.020665e+01
      vertex -8.874057e+01 5.893338e+00 2.944603e+01
      vertex -8.303288e+01 -1.602973e+01 3.277340e+01
    endloop
  endfacet
  facet normal 9.071518e-02 5.112950e-02 9.945635e-01
    outer loop
      vertex -6.670737e+01 4.933144e+00 3.020665e+01
      vertex -8.303288e+01 -1.602973e+01 3.277340e+01
      vertex -6.639661e+01 -1.701982e+01 3.130689e+01
    endloop
  endfacet
  facet normal -7.196859e-01 2.740199e-01 -6.379383e-01
    outer loop
      vertex -7.495551e+01 -5.496214e+00 -3.661461e+01
      vertex -8.527143e+01 2.249974e+00 -2.164948e+01
      vertex -8.460749e+01 1.983883e+01 -1.484338e+01
    endloop
  endfacet
  facet normal -8.023662e-01 7.528603e-02 -5.920646e-01
    outer loop
      vertex -7.495551e+01 -5.496214e+00 -3.661461e+01
      vertex -7.513871e+01 -1.659131e+01 -3.777717e+01
      vertex -8.527143e+01 2.249974e+00 -2.164948e+01
    endloop
  endfacet
  facet normal -3.576914e-02 1.810313e-01 9.828267e-01
    outer loop
      vertex -6.579880e+01 8.837046e+00 2.973877e+01
      vertex -9.878205e+01 2.932395e+01 2.476479e+01
      vertex -8.874057e+01 5.893338e+00 2.944603e+01
    endloop
  endfacet
  facet normal -2.876274e-02 1.255475e-01 9.916706e-01
    outer loop
      vertex -6.579880e+01 8.837046e+00 2.973877e+01
      vertex -8.874057e+01 5.893338e+00 2.944603e+01
      vertex -6.670737e+01 4.933144e+00 3.020665e+01
    endloop
  endfacet
  facet normal -2.955119e-01 -8.765887e-01 3.798222e-01
    outer loop
      vertex -8.548793e+01 2.082763e+01 -1.324635e+01
      vertex -1.022792e+02 3.236451e+01 3.154920e-01
      vertex -8.460749e+01 1.983883e+01 -1.484338e+01
    endloop
  endfacet
  facet normal 3.217061e-01 8.792000e-01 -3.514436e-01
    outer loop
      vertex -8.452512e+01 2.386139e+01 -4.704798e+00
      vertex -8.460749e+01 1.983883e+01 -1.484338e+01
      vertex -1.022792e+02 3.236451e+01 3.154920e-01
    endloop
  endfacet
  facet normal 1.124003e-01 9.233085e-01 -3.672433e-01
    outer loop
      vertex -5.731139e+01 1.972852e+01 -6.766335e+00
      vertex -8.460749e+01 1.983883e+01 -1.484338e+01
      vertex -8.452512e+01 2.386139e+01 -4.704798e+00
    endloop
  endfacet
  facet normal -3.992143e-01 5.053264e-01 -7.650315e-01
    outer loop
      vertex -6.757421e+01 6.442877e+00 -3.258025e+01
      vertex -7.495551e+01 -5.496214e+00 -3.661461e+01
      vertex -8.460749e+01 1.983883e+01 -1.484338e+01
    endloop
  endfacet
  facet normal -7.193646e-02 7.614726e-01 -6.441930e-01
    outer loop
      vertex -6.204722e+01 1.617874e+01 -2.168910e+01
      vertex -6.757421e+01 6.442877e+00 -3.258025e+01
      vertex -8.460749e+01 1.983883e+01 -1.484338e+01
    endloop
  endfacet
  facet normal 7.917457e-02 9.638516e-01 -2.544043e-01
    outer loop
      vertex -5.731139e+01 1.972852e+01 -6.766335e+00
      vertex -6.204722e+01 1.617874e+01 -2.168910e+01
      vertex -8.460749e+01 1.983883e+01 -1.484338e+01
    endloop
  endfacet
  facet normal 6.626859e-01 2.452861e-01 7.075889e-01
    outer loop
      vertex -9.858078e+01 2.980884e+01 2.440821e+01
      vertex -9.878205e+01 2.932395e+01 2.476479e+01
      vertex -8.532427e+01 2.112653e+01 1.500267e+01
    endloop
  endfacet
  facet normal 5.263287e-01 8.502013e-01 1.165324e-02
    outer loop
      vertex -6.579880e+01 8.837046e+00 2.973877e+01
      vertex -8.532427e+01 2.112653e+01 1.500267e+01
      vertex -9.878205e+01 2.932395e+01 2.476479e+01
    endloop
  endfacet
  facet normal 4.329622e-01 9.014013e-01 4.405690e-03
    outer loop
      vertex -9.800465e+01 3.022739e+01 1.749676e+01
      vertex -8.452512e+01 2.386139e+01 -4.704798e+00
      vertex -1.022792e+02 3.236451e+01 3.154920e-01
    endloop
  endfacet
  facet normal 5.950864e-01 7.923957e-01 1.340942e-01
    outer loop
      vertex -8.532427e+01 2.112653e+01 1.500267e+01
      vertex -8.452512e+01 2.386139e+01 -4.704798e+00
      vertex -9.800465e+01 3.022739e+01 1.749676e+01
    endloop
  endfacet
  facet normal 2.238017e-01 9.641067e-01 1.428672e-01
    outer loop
      vertex -6.924347e+01 1.775975e+01 1.253205e+01
      vertex -8.452512e+01 2.386139e+01 -4.704798e+00
      vertex -8.532427e+01 2.112653e+01 1.500267e+01
    endloop
  endfacet
  facet normal 1.618469e-01 9.666084e-01 1.986800e-01
    outer loop
      vertex -6.924347e+01 1.775975e+01 1.253205e+01
      vertex -5.731139e+01 1.972852e+01 -6.766335e+00
      vertex -8.452512e+01 2.386139e+01 -4.704798e+00
    endloop
  endfacet
  facet normal 5.929111e-01 7.993034e-01 9.782903e-02
    outer loop
      vertex -9.858078e+01 2.980884e+01 2.440821e+01
      vertex -8.532427e+01 2.112653e+01 1.500267e+01
      vertex -9.800465e+01 3.022739e+01 1.749676e+01
    endloop
  endfacet
  facet normal 2.466537e-01 8.796106e-01 4.067519e-01
    outer loop
      vertex -6.579880e+01 8.837046e+00 2.973877e+01
      vertex -6.924347e+01 1.775975e+01 1.253205e+01
      vertex -8.532427e+01 2.112653e+01 1.500267e+01
    endloop
  endfacet
  facet normal -3.395375e-01 -5.506260e-01 -7.625781e-01
    outer loop
      vertex -5.928871e+01 -3.259709e+01 -3.897634e+01
      vertex -7.402993e+01 -3.794985e+01 -2.854781e+01
      vertex -7.732868e+01 -2.900063e+01 -3.354091e+01
    endloop
  endfacet
  facet normal -3.544565e-01 -7.692821e-01 -5.315690e-01
    outer loop
      vertex -5.478355e+01 -4.367209e+01 -3.310035e+01
      vertex -5.940490e+01 -4.873720e+01 -2.268859e+01
      vertex -7.402993e+01 -3.794985e+01 -2.854781e+01
    endloop
  endfacet
  facet normal -3.430429e-01 -5.453274e-01 -7.648134e-01
    outer loop
      vertex -5.928871e+01 -3.259709e+01 -3.897634e+01
      vertex -5.478355e+01 -4.367209e+01 -3.310035e+01
      vertex -7.402993e+01 -3.794985e+01 -2.854781e+01
    endloop
  endfacet
  facet normal -3.184674e-01 -1.956524e-01 -9.275229e-01
    outer loop
      vertex -6.158206e+01 -1.669427e+01 -4.154347e+01
      vertex -5.928871e+01 -3.259709e+01 -3.897634e+01
      vertex -7.732868e+01 -2.900063e+01 -3.354091e+01
    endloop
  endfacet
  facet normal -2.595979e-01 -2.706492e-01 -9.270156e-01
    outer loop
      vertex -6.158206e+01 -1.669427e+01 -4.154347e+01
      vertex -7.732868e+01 -2.900063e+01 -3.354091e+01
      vertex -7.513871e+01 -1.659131e+01 -3.777717e+01
    endloop
  endfacet
  facet normal -9.016005e-02 -8.792477e-01 -4.677549e-01
    outer loop
      vertex -4.544604e+01 -5.288417e+01 -1.758403e+01
      vertex -5.940490e+01 -4.873720e+01 -2.268859e+01
      vertex -5.478355e+01 -4.367209e+01 -3.310035e+01
    endloop
  endfacet
  facet normal -1.704555e-01 -9.731792e-01 -1.544901e-01
    outer loop
      vertex -4.723947e+01 -5.380276e+01 -4.201748e+00
      vertex -6.151138e+01 -5.108976e+01 -5.544964e+00
      vertex -5.940490e+01 -4.873720e+01 -2.268859e+01
    endloop
  endfacet
  facet normal -2.497306e-01 -9.631811e-01 -9.958278e-02
    outer loop
      vertex -4.723947e+01 -5.380276e+01 -4.201748e+00
      vertex -5.940490e+01 -4.873720e+01 -2.268859e+01
      vertex -4.544604e+01 -5.288417e+01 -1.758403e+01
    endloop
  endfacet
  facet normal -2.089721e-01 -5.233154e-01 -8.261184e-01
    outer loop
      vertex -4.362898e+01 -3.293869e+01 -4.272118e+01
      vertex -5.478355e+01 -4.367209e+01 -3.310035e+01
      vertex -5.928871e+01 -3.259709e+01 -3.897634e+01
    endloop
  endfacet
  facet normal -1.506506e-01 -5.684245e-01 -8.088250e-01
    outer loop
      vertex -4.362898e+01 -3.293869e+01 -4.272118e+01
      vertex -4.464822e+01 -4.637550e+01 -3.308825e+01
      vertex -5.478355e+01 -4.367209e+01 -3.310035e+01
    endloop
  endfacet
  facet normal -2.372755e-01 -8.912984e-01 -3.863773e-01
    outer loop
      vertex -4.544604e+01 -5.288417e+01 -1.758403e+01
      vertex -5.478355e+01 -4.367209e+01 -3.310035e+01
      vertex -4.464822e+01 -4.637550e+01 -3.308825e+01
    endloop
  endfacet
  facet normal -1.424638e-01 -1.777271e-01 -9.737131e-01
    outer loop
      vertex -4.025433e+01 -1.619767e+01 -4.475456e+01
      vertex -5.928871e+01 -3.259709e+01 -3.897634e+01
      vertex -6.158206e+01 -1.669427e+01 -4.154347e+01
    endloop
  endfacet
  facet normal -2.334571e-01 -7.073172e-02 -9.697911e-01
    outer loop
      vertex -4.025433e+01 -1.619767e+01 -4.475456e+01
      vertex -4.362898e+01 -3.293869e+01 -4.272118e+01
      vertex -5.928871e+01 -3.259709e+01 -3.897634e+01
    endloop
  endfacet
  facet normal 8.690388e-03 -9.874384e-01 1.577654e-01
    outer loop
      vertex -4.235199e+01 -4.840033e+01 1.023256e+01
      vertex -6.855525e+01 -4.843589e+01 1.145339e+01
      vertex -6.151138e+01 -5.108976e+01 -5.544964e+00
    endloop
  endfacet
  facet normal -2.073832e-01 -8.910654e-01 4.037260e-01
    outer loop
      vertex -4.235199e+01 -4.840033e+01 1.023256e+01
      vertex -6.151138e+01 -5.108976e+01 -5.544964e+00
      vertex -4.723947e+01 -5.380276e+01 -4.201748e+00
    endloop
  endfacet
  facet normal 5.467095e-02 -7.481746e-01 6.612457e-01
    outer loop
      vertex -4.262902e+01 -4.108817e+01 1.762350e+01
      vertex -6.396303e+01 -4.059919e+01 1.994063e+01
      vertex -6.855525e+01 -4.843589e+01 1.145339e+01
    endloop
  endfacet
  facet normal 3.374190e-02 -7.098481e-01 7.035462e-01
    outer loop
      vertex -4.262902e+01 -4.108817e+01 1.762350e+01
      vertex -6.855525e+01 -4.843589e+01 1.145339e+01
      vertex -4.235199e+01 -4.840033e+01 1.023256e+01
    endloop
  endfacet
  facet normal 3.928248e-03 -6.865619e-01 7.270608e-01
    outer loop
      vertex -6.366715e+01 -2.870738e+01 3.116844e+01
      vertex -7.123289e+01 -3.875980e+01 2.171685e+01
      vertex -6.396303e+01 -4.059919e+01 1.994063e+01
    endloop
  endfacet
  facet normal 1.833882e-01 -6.772811e-01 7.125020e-01
    outer loop
      vertex -4.448252e+01 -3.179620e+01 2.329446e+01
      vertex -6.366715e+01 -2.870738e+01 3.116844e+01
      vertex -6.396303e+01 -4.059919e+01 1.994063e+01
    endloop
  endfacet
  facet normal 8.155007e-02 -5.073122e-01 8.578951e-01
    outer loop
      vertex -4.448252e+01 -3.179620e+01 2.329446e+01
      vertex -6.396303e+01 -4.059919e+01 1.994063e+01
      vertex -4.262902e+01 -4.108817e+01 1.762350e+01
    endloop
  endfacet
  facet normal 2.198559e-01 3.979774e-02 9.747202e-01
    outer loop
      vertex -4.535636e+01 -1.639027e+01 2.653539e+01
      vertex -6.639661e+01 -1.701982e+01 3.130689e+01
      vertex -6.366715e+01 -2.870738e+01 3.116844e+01
    endloop
  endfacet
  facet normal 3.498368e-01 -1.738114e-01 9.205454e-01
    outer loop
      vertex -4.535636e+01 -1.639027e+01 2.653539e+01
      vertex -6.366715e+01 -2.870738e+01 3.116844e+01
      vertex -4.448252e+01 -3.179620e+01 2.329446e+01
    endloop
  endfacet
  facet normal -2.591914e-01 2.255621e-01 -9.391174e-01
    outer loop
      vertex -6.226794e+01 -8.611783e-01 -3.755129e+01
      vertex -6.158206e+01 -1.669427e+01 -4.154347e+01
      vertex -7.513871e+01 -1.659131e+01 -3.777717e+01
    endloop
  endfacet
  facet normal -1.114514e-01 1.053820e-01 -9.881666e-01
    outer loop
      vertex -6.226794e+01 -8.611783e-01 -3.755129e+01
      vertex -7.513871e+01 -1.659131e+01 -3.777717e+01
      vertex -7.495551e+01 -5.496214e+00 -3.661461e+01
    endloop
  endfacet
  facet normal -1.034887e-01 2.389589e-01 -9.654992e-01
    outer loop
      vertex -4.294281e+01 -7.720969e-01 -3.960064e+01
      vertex -6.158206e+01 -1.669427e+01 -4.154347e+01
      vertex -6.226794e+01 -8.611783e-01 -3.755129e+01
    endloop
  endfacet
  facet normal -1.490856e-01 2.898818e-01 -9.453793e-01
    outer loop
      vertex -4.294281e+01 -7.720969e-01 -3.960064e+01
      vertex -4.025433e+01 -1.619767e+01 -4.475456e+01
      vertex -6.158206e+01 -1.669427e+01 -4.154347e+01
    endloop
  endfacet
  facet normal 2.714473e-01 5.200813e-02 9.610471e-01
    outer loop
      vertex -5.312629e+01 5.111534e+00 2.636103e+01
      vertex -6.670737e+01 4.933144e+00 3.020665e+01
      vertex -6.639661e+01 -1.701982e+01 3.130689e+01
    endloop
  endfacet
  facet normal 2.178673e-01 8.661186e-02 9.721277e-01
    outer loop
      vertex -5.312629e+01 5.111534e+00 2.636103e+01
      vertex -6.639661e+01 -1.701982e+01 3.130689e+01
      vertex -4.535636e+01 -1.639027e+01 2.653539e+01
    endloop
  endfacet
  facet normal -2.523292e-01 5.266581e-01 -8.117643e-01
    outer loop
      vertex -6.357309e+01 8.899799e+00 -3.081285e+01
      vertex -6.226794e+01 -8.611783e-01 -3.755129e+01
      vertex -7.495551e+01 -5.496214e+00 -3.661461e+01
    endloop
  endfacet
  facet normal 3.515519e-01 9.728429e-02 -9.310999e-01
    outer loop
      vertex -6.357309e+01 8.899799e+00 -3.081285e+01
      vertex -7.495551e+01 -5.496214e+00 -3.661461e+01
      vertex -6.757421e+01 6.442877e+00 -3.258025e+01
    endloop
  endfacet
  facet normal -1.305974e-02 5.668859e-01 -8.236928e-01
    outer loop
      vertex -4.247415e+01 7.144025e+00 -3.235575e+01
      vertex -6.226794e+01 -8.611783e-01 -3.755129e+01
      vertex -6.357309e+01 8.899799e+00 -3.081285e+01
    endloop
  endfacet
  facet normal -8.083365e-02 6.755304e-01 -7.328878e-01
    outer loop
      vertex -4.247415e+01 7.144025e+00 -3.235575e+01
      vertex -4.294281e+01 -7.720969e-01 -3.960064e+01
      vertex -6.226794e+01 -8.611783e-01 -3.755129e+01
    endloop
  endfacet
  facet normal 2.714473e-01 5.200813e-02 9.610471e-01
    outer loop
      vertex -5.349227e+01 5.564671e+00 2.643988e+01
      vertex -6.579880e+01 8.837046e+00 2.973877e+01
      vertex -6.670737e+01 4.933144e+00 3.020665e+01
    endloop
  endfacet
  facet normal 2.714473e-01 5.200813e-02 9.610471e-01
    outer loop
      vertex -5.349227e+01 5.564671e+00 2.643988e+01
      vertex -6.670737e+01 4.933144e+00 3.020665e+01
      vertex -5.312629e+01 5.111534e+00 2.636103e+01
    endloop
  endfacet
  facet normal -2.204009e-01 7.801208e-01 -5.855211e-01
    outer loop
      vertex -6.357309e+01 8.899799e+00 -3.081285e+01
      vertex -6.757421e+01 6.442877e+00 -3.258025e+01
      vertex -6.204722e+01 1.617874e+01 -2.168910e+01
    endloop
  endfacet
  facet normal 9.624058e-02 7.701691e-01 -6.305374e-01
    outer loop
      vertex -4.405362e+01 1.360652e+01 -2.208452e+01
      vertex -6.357309e+01 8.899799e+00 -3.081285e+01
      vertex -6.204722e+01 1.617874e+01 -2.168910e+01
    endloop
  endfacet
  facet normal 2.507569e-01 9.208387e-01 -2.986252e-01
    outer loop
      vertex -4.491158e+01 1.667767e+01 -5.761726e+00
      vertex -6.204722e+01 1.617874e+01 -2.168910e+01
      vertex -5.731139e+01 1.972852e+01 -6.766335e+00
    endloop
  endfacet
  facet normal 1.354982e-01 9.749626e-01 -1.763183e-01
    outer loop
      vertex -4.491158e+01 1.667767e+01 -5.761726e+00
      vertex -4.405362e+01 1.360652e+01 -2.208452e+01
      vertex -6.204722e+01 1.617874e+01 -2.168910e+01
    endloop
  endfacet
  facet normal 3.191622e-02 8.481763e-01 -5.287517e-01
    outer loop
      vertex -4.247415e+01 7.144025e+00 -3.235575e+01
      vertex -6.357309e+01 8.899799e+00 -3.081285e+01
      vertex -4.405362e+01 1.360652e+01 -2.208452e+01
    endloop
  endfacet
  facet normal 1.921400e-01 9.571998e-01 2.164502e-01
    outer loop
      vertex -5.034809e+01 1.382729e+01 1.314924e+01
      vertex -5.731139e+01 1.972852e+01 -6.766335e+00
      vertex -6.924347e+01 1.775975e+01 1.253205e+01
    endloop
  endfacet
  facet normal 2.179659e-01 9.538739e-01 2.064349e-01
    outer loop
      vertex -5.034809e+01 1.382729e+01 1.314924e+01
      vertex -4.491158e+01 1.667767e+01 -5.761726e+00
      vertex -5.731139e+01 1.972852e+01 -6.766335e+00
    endloop
  endfacet
  facet normal 3.316389e-01 8.629955e-01 3.811225e-01
    outer loop
      vertex -5.349227e+01 5.564671e+00 2.643988e+01
      vertex -6.924347e+01 1.775975e+01 1.253205e+01
      vertex -6.579880e+01 8.837046e+00 2.973877e+01
    endloop
  endfacet
  facet normal 1.533000e-01 8.225528e-01 5.476367e-01
    outer loop
      vertex -5.034809e+01 1.382729e+01 1.314924e+01
      vertex -6.924347e+01 1.775975e+01 1.253205e+01
      vertex -5.349227e+01 5.564671e+00 2.643988e+01
    endloop
  endfacet
  facet normal 9.656313e-01 9.903220e-02 2.403099e-01
    outer loop
      vertex -4.362898e+01 -3.293869e+01 -4.272118e+01
      vertex -4.700526e+01 -3.807470e+01 -2.703777e+01
      vertex -4.464822e+01 -4.637550e+01 -3.308825e+01
    endloop
  endfacet
  facet normal 9.746545e-01 1.839209e-01 1.273642e-01
    outer loop
      vertex -4.544604e+01 -5.288417e+01 -1.758403e+01
      vertex -4.464822e+01 -4.637550e+01 -3.308825e+01
      vertex -4.700526e+01 -3.807470e+01 -2.703777e+01
    endloop
  endfacet
  facet normal -9.228699e-01 -2.602243e-01 -2.838916e-01
    outer loop
      vertex -4.377076e+01 -4.481458e+01 -3.137444e+01
      vertex -4.700526e+01 -3.807470e+01 -2.703777e+01
      vertex -4.362898e+01 -3.293869e+01 -4.272118e+01
    endloop
  endfacet
  facet normal 9.783466e-01 -2.791014e-02 -2.050826e-01
    outer loop
      vertex -4.219155e+01 -4.372566e+01 -3.304888e+00
      vertex -4.544604e+01 -5.288417e+01 -1.758403e+01
      vertex -4.700526e+01 -3.807470e+01 -2.703777e+01
    endloop
  endfacet
  facet normal 9.810843e-01 4.533910e-02 -1.881967e-01
    outer loop
      vertex -4.313056e+01 -1.632638e+01 -1.599156e+00
      vertex -4.219155e+01 -4.372566e+01 -3.304888e+00
      vertex -4.700526e+01 -3.807470e+01 -2.703777e+01
    endloop
  endfacet
  facet normal 9.841306e-01 -1.774364e-01 1.797544e-03
    outer loop
      vertex -4.271797e+01 -1.437074e+01 -3.444321e+01
      vertex -4.313056e+01 -1.632638e+01 -1.599156e+00
      vertex -4.700526e+01 -3.807470e+01 -2.703777e+01
    endloop
  endfacet
  facet normal -9.329471e-01 2.497487e-01 2.592978e-01
    outer loop
      vertex -3.869628e+01 -4.650005e+00 -2.933603e+01
      vertex -4.271797e+01 -1.437074e+01 -3.444321e+01
      vertex -4.700526e+01 -3.807470e+01 -2.703777e+01
    endloop
  endfacet
  facet normal 6.936968e-01 -1.236550e-01 7.095732e-01
    outer loop
      vertex -4.377076e+01 -4.481458e+01 -3.137444e+01
      vertex -3.869628e+01 -4.650005e+00 -2.933603e+01
      vertex -4.700526e+01 -3.807470e+01 -2.703777e+01
    endloop
  endfacet
  facet normal 6.647990e-01 -2.206940e-01 -7.136782e-01
    outer loop
      vertex -3.923267e+01 -1.511496e+01 -4.413769e+01
      vertex -4.362898e+01 -3.293869e+01 -4.272118e+01
      vertex -4.025433e+01 -1.619767e+01 -4.475456e+01
    endloop
  endfacet
  facet normal -9.351131e-01 2.505628e-01 2.505628e-01
    outer loop
      vertex -3.923267e+01 -1.511496e+01 -4.413769e+01
      vertex -4.348841e+01 -3.218188e+01 -4.295339e+01
      vertex -4.362898e+01 -3.293869e+01 -4.272118e+01
    endloop
  endfacet
  facet normal 9.351131e-01 -2.505628e-01 -2.505628e-01
    outer loop
      vertex -4.377076e+01 -4.481458e+01 -3.137444e+01
      vertex -4.362898e+01 -3.293869e+01 -4.272118e+01
      vertex -4.348841e+01 -3.218188e+01 -4.295339e+01
    endloop
  endfacet
  facet normal 8.874809e-01 -4.523873e-01 8.788309e-02
    outer loop
      vertex -4.723947e+01 -5.380276e+01 -4.201748e+00
      vertex -4.544604e+01 -5.288417e+01 -1.758403e+01
      vertex -4.219155e+01 -4.372566e+01 -3.304888e+00
    endloop
  endfacet
  facet normal 7.676839e-01 -3.359900e-01 -5.456850e-01
    outer loop
      vertex -3.200840e+01 -4.265006e+01 1.035876e+01
      vertex -4.723947e+01 -5.380276e+01 -4.201748e+00
      vertex -4.219155e+01 -4.372566e+01 -3.304888e+00
    endloop
  endfacet
  facet normal 4.669984e-01 7.087667e-02 -8.814131e-01
    outer loop
      vertex -2.980816e+01 -7.022683e+00 6.207573e+00
      vertex -4.219155e+01 -4.372566e+01 -3.304888e+00
      vertex -4.313056e+01 -1.632638e+01 -1.599156e+00
    endloop
  endfacet
  facet normal 8.006485e-01 -1.178902e-01 -5.874214e-01
    outer loop
      vertex -2.980816e+01 -7.022683e+00 6.207573e+00
      vertex -3.200840e+01 -4.265006e+01 1.035876e+01
      vertex -4.219155e+01 -4.372566e+01 -3.304888e+00
    endloop
  endfacet
  facet normal 3.146801e-01 -9.190258e-01 2.374194e-01
    outer loop
      vertex -3.200462e+01 -4.437537e+01 1.209817e+01
      vertex -4.235199e+01 -4.840033e+01 1.023256e+01
      vertex -4.723947e+01 -5.380276e+01 -4.201748e+00
    endloop
  endfacet
  facet normal 3.694901e-01 5.097398e-01 -7.769443e-01
    outer loop
      vertex -3.200840e+01 -4.265006e+01 1.035876e+01
      vertex -4.070066e+01 -5.251257e+01 -2.456253e-01
      vertex -4.723947e+01 -5.380276e+01 -4.201748e+00
    endloop
  endfacet
  facet normal -2.518208e-01 -7.169641e-01 6.500375e-01
    outer loop
      vertex -3.200462e+01 -4.437537e+01 1.209817e+01
      vertex -4.723947e+01 -5.380276e+01 -4.201748e+00
      vertex -4.070066e+01 -5.251257e+01 -2.456253e-01
    endloop
  endfacet
  facet normal 1.486486e-01 -7.001963e-01 6.983042e-01
    outer loop
      vertex -3.177621e+01 -4.390928e+01 1.248451e+01
      vertex -4.262902e+01 -4.108817e+01 1.762350e+01
      vertex -4.235199e+01 -4.840033e+01 1.023256e+01
    endloop
  endfacet
  facet normal 1.284819e-01 -6.694385e-01 7.316724e-01
    outer loop
      vertex -3.177621e+01 -4.390928e+01 1.248451e+01
      vertex -4.235199e+01 -4.840033e+01 1.023256e+01
      vertex -3.200462e+01 -4.437537e+01 1.209817e+01
    endloop
  endfacet
  facet normal 2.654646e-01 -4.631241e-01 8.456031e-01
    outer loop
      vertex -2.626060e+01 -2.961099e+01 1.877076e+01
      vertex -4.448252e+01 -3.179620e+01 2.329446e+01
      vertex -4.262902e+01 -4.108817e+01 1.762350e+01
    endloop
  endfacet
  facet normal 2.733636e-01 -4.735561e-01 8.372676e-01
    outer loop
      vertex -2.626060e+01 -2.961099e+01 1.877076e+01
      vertex -4.262902e+01 -4.108817e+01 1.762350e+01
      vertex -3.177621e+01 -4.390928e+01 1.248451e+01
    endloop
  endfacet
  facet normal 2.713323e-01 -1.833782e-01 9.448551e-01
    outer loop
      vertex -3.054488e+01 -1.638588e+01 2.228285e+01
      vertex -4.535636e+01 -1.639027e+01 2.653539e+01
      vertex -4.448252e+01 -3.179620e+01 2.329446e+01
    endloop
  endfacet
  facet normal 2.565604e-01 -1.695795e-01 9.515354e-01
    outer loop
      vertex -3.054488e+01 -1.638588e+01 2.228285e+01
      vertex -4.448252e+01 -3.179620e+01 2.329446e+01
      vertex -2.626060e+01 -2.961099e+01 1.877076e+01
    endloop
  endfacet
  facet normal 5.500210e-01 3.493171e-01 -7.585872e-01
    outer loop
      vertex -4.038644e+01 3.398144e+00 -3.582679e+01
      vertex -4.025433e+01 -1.619767e+01 -4.475456e+01
      vertex -4.294281e+01 -7.720969e-01 -3.960064e+01
    endloop
  endfacet
  facet normal 1.086239e-01 4.127479e-01 -9.043451e-01
    outer loop
      vertex -4.038644e+01 3.398144e+00 -3.582679e+01
      vertex -3.923267e+01 -1.511496e+01 -4.413769e+01
      vertex -4.025433e+01 -1.619767e+01 -4.475456e+01
    endloop
  endfacet
  facet normal 5.880068e-01 -8.078307e-01 -4.071438e-02
    outer loop
      vertex -2.980816e+01 -7.022683e+00 6.207573e+00
      vertex -4.313056e+01 -1.632638e+01 -1.599156e+00
      vertex -4.271797e+01 -1.437074e+01 -3.444321e+01
    endloop
  endfacet
  facet normal 9.339776e-01 -2.547661e-01 -2.505594e-01
    outer loop
      vertex -2.980816e+01 -7.022683e+00 6.207573e+00
      vertex -4.271797e+01 -1.437074e+01 -3.444321e+01
      vertex -3.869628e+01 -4.650005e+00 -2.933603e+01
    endloop
  endfacet
  facet normal 3.596675e-01 1.374539e-01 9.229007e-01
    outer loop
      vertex -2.878754e+01 -6.088525e+00 1.854398e+01
      vertex -5.312629e+01 5.111534e+00 2.636103e+01
      vertex -4.535636e+01 -1.639027e+01 2.653539e+01
    endloop
  endfacet
  facet normal 2.641044e-01 2.890328e-01 9.201679e-01
    outer loop
      vertex -2.878754e+01 -6.088525e+00 1.854398e+01
      vertex -4.535636e+01 -1.639027e+01 2.653539e+01
      vertex -3.054488e+01 -1.638588e+01 2.228285e+01
    endloop
  endfacet
  facet normal 3.181001e-01 6.297539e-01 -7.086765e-01
    outer loop
      vertex -2.816244e+01 7.593930e+00 -2.553192e+01
      vertex -4.294281e+01 -7.720969e-01 -3.960064e+01
      vertex -4.247415e+01 7.144025e+00 -3.235575e+01
    endloop
  endfacet
  facet normal -5.170146e-01 -3.780422e-01 7.679713e-01
    outer loop
      vertex -2.816244e+01 7.593930e+00 -2.553192e+01
      vertex -4.038644e+01 3.398144e+00 -3.582679e+01
      vertex -4.294281e+01 -7.720969e-01 -3.960064e+01
    endloop
  endfacet
  facet normal 6.014870e-01 3.618634e-01 7.122277e-01
    outer loop
      vertex -4.207519e+01 4.941134e+00 1.711478e+01
      vertex -5.349227e+01 5.564671e+00 2.643988e+01
      vertex -5.312629e+01 5.111534e+00 2.636103e+01
    endloop
  endfacet
  facet normal 4.874244e-01 6.611189e-01 5.703852e-01
    outer loop
      vertex -2.878754e+01 -6.088525e+00 1.854398e+01
      vertex -4.207519e+01 4.941134e+00 1.711478e+01
      vertex -5.312629e+01 5.111534e+00 2.636103e+01
    endloop
  endfacet
  facet normal 4.804988e-01 6.893023e-01 5.422023e-01
    outer loop
      vertex -4.207519e+01 4.941134e+00 1.711478e+01
      vertex -5.034809e+01 1.382729e+01 1.314924e+01
      vertex -5.349227e+01 5.564671e+00 2.643988e+01
    endloop
  endfacet
  facet normal 2.103832e-01 8.417171e-01 -4.972437e-01
    outer loop
      vertex -2.783912e+01 7.993825e+00 -2.472517e+01
      vertex -4.247415e+01 7.144025e+00 -3.235575e+01
      vertex -4.405362e+01 1.360652e+01 -2.208452e+01
    endloop
  endfacet
  facet normal 2.661024e-01 9.497679e-01 -1.647131e-01
    outer loop
      vertex -3.042460e+01 1.254322e+01 -6.197368e+00
      vertex -4.405362e+01 1.360652e+01 -2.208452e+01
      vertex -4.491158e+01 1.667767e+01 -5.761726e+00
    endloop
  endfacet
  facet normal 2.935615e-01 9.370459e-01 -1.891208e-01
    outer loop
      vertex -3.042460e+01 1.254322e+01 -6.197368e+00
      vertex -2.783912e+01 7.993825e+00 -2.472517e+01
      vertex -4.405362e+01 1.360652e+01 -2.208452e+01
    endloop
  endfacet
  facet normal 2.125136e-01 8.389378e-01 -5.010203e-01
    outer loop
      vertex -2.816244e+01 7.593930e+00 -2.553192e+01
      vertex -4.247415e+01 7.144025e+00 -3.235575e+01
      vertex -2.783912e+01 7.993825e+00 -2.472517e+01
    endloop
  endfacet
  facet normal 3.489349e-01 9.066905e-01 2.369740e-01
    outer loop
      vertex -2.845044e+01 7.111211e+00 6.602314e+00
      vertex -4.491158e+01 1.667767e+01 -5.761726e+00
      vertex -5.034809e+01 1.382729e+01 1.314924e+01
    endloop
  endfacet
  facet normal 2.674398e-01 9.011482e-01 3.411861e-01
    outer loop
      vertex -2.845044e+01 7.111211e+00 6.602314e+00
      vertex -3.042460e+01 1.254322e+01 -6.197368e+00
      vertex -4.491158e+01 1.667767e+01 -5.761726e+00
    endloop
  endfacet
  facet normal 3.937158e-01 6.545605e-01 6.453979e-01
    outer loop
      vertex -2.845044e+01 7.111211e+00 6.602314e+00
      vertex -5.034809e+01 1.382729e+01 1.314924e+01
      vertex -4.207519e+01 4.941134e+00 1.711478e+01
    endloop
  endfacet
  facet normal 3.499771e-01 5.223813e-01 7.775820e-01
    outer loop
      vertex -2.878754e+01 -6.088525e+00 1.854398e+01
      vertex -2.821287e+01 1.234360e+00 1.336579e+01
      vertex -4.207519e+01 4.941134e+00 1.711478e+01
    endloop
  endfacet
  facet normal 3.543367e-01 7.120010e-01 6.062179e-01
    outer loop
      vertex -2.845044e+01 7.111211e+00 6.602314e+00
      vertex -4.207519e+01 4.941134e+00 1.711478e+01
      vertex -2.821287e+01 1.234360e+00 1.336579e+01
    endloop
  endfacet
  facet normal -7.057129e-01 -1.274000e-01 6.969494e-01
    outer loop
      vertex -3.200840e+01 -4.265006e+01 1.035876e+01
      vertex -2.659929e+01 -3.021348e+01 1.810925e+01
      vertex -4.070066e+01 -5.251257e+01 -2.456253e-01
    endloop
  endfacet
  facet normal 8.425717e-01 -9.670452e-02 -5.298313e-01
    outer loop
      vertex -3.200462e+01 -4.437537e+01 1.209817e+01
      vertex -4.070066e+01 -5.251257e+01 -2.456253e-01
      vertex -2.659929e+01 -3.021348e+01 1.810925e+01
    endloop
  endfacet
  facet normal 9.351131e-01 -2.505628e-01 -2.505628e-01
    outer loop
      vertex -2.260059e+01 -1.385872e+01 1.667784e+01
      vertex -2.659929e+01 -3.021348e+01 1.810925e+01
      vertex -3.200840e+01 -4.265006e+01 1.035876e+01
    endloop
  endfacet
  facet normal 9.351131e-01 -2.505628e-01 -2.505628e-01
    outer loop
      vertex -3.177621e+01 -4.390928e+01 1.248451e+01
      vertex -3.200462e+01 -4.437537e+01 1.209817e+01
      vertex -2.659929e+01 -3.021348e+01 1.810925e+01
    endloop
  endfacet
  facet normal 9.351131e-01 -2.505628e-01 -2.505628e-01
    outer loop
      vertex -2.626060e+01 -2.961099e+01 1.877076e+01
      vertex -3.177621e+01 -4.390928e+01 1.248451e+01
      vertex -2.659929e+01 -3.021348e+01 1.810925e+01
    endloop
  endfacet
  facet normal 6.323018e-01 3.835835e-01 -6.730960e-01
    outer loop
      vertex -3.054488e+01 -1.638588e+01 2.228285e+01
      vertex -2.626060e+01 -2.961099e+01 1.877076e+01
      vertex -2.659929e+01 -3.021348e+01 1.810925e+01
    endloop
  endfacet
  facet normal 5.905341e-01 -7.405007e-02 8.036082e-01
    outer loop
      vertex -3.054488e+01 -1.638588e+01 2.228285e+01
      vertex -2.659929e+01 -3.021348e+01 1.810925e+01
      vertex -2.260059e+01 -1.385872e+01 1.667784e+01
    endloop
  endfacet
  facet normal 7.795234e-01 -1.197773e-01 -6.148143e-01
    outer loop
      vertex -2.980816e+01 -7.022683e+00 6.207573e+00
      vertex -2.260059e+01 -1.385872e+01 1.667784e+01
      vertex -3.200840e+01 -4.265006e+01 1.035876e+01
    endloop
  endfacet
  facet normal 9.642755e-01 -2.315143e-01 1.287394e-01
    outer loop
      vertex -3.923267e+01 -1.511496e+01 -4.413769e+01
      vertex -3.869628e+01 -4.650005e+00 -2.933603e+01
      vertex -4.348841e+01 -3.218188e+01 -4.295339e+01
    endloop
  endfacet
  facet normal 9.871662e-01 -1.193348e-01 -1.061230e-01
    outer loop
      vertex -4.377076e+01 -4.481458e+01 -3.137444e+01
      vertex -4.348841e+01 -3.218188e+01 -4.295339e+01
      vertex -3.869628e+01 -4.650005e+00 -2.933603e+01
    endloop
  endfacet
  facet normal 6.010014e-01 -6.627173e-01 4.467697e-01
    outer loop
      vertex -2.806458e+01 7.718429e+00 -2.529120e+01
      vertex -3.869628e+01 -4.650005e+00 -2.933603e+01
      vertex -3.923267e+01 -1.511496e+01 -4.413769e+01
    endloop
  endfacet
  facet normal 7.853406e-01 -5.728793e-01 -2.346262e-01
    outer loop
      vertex -2.337341e+01 7.396975e+00 -7.462061e+00
      vertex -2.980816e+01 -7.022683e+00 6.207573e+00
      vertex -3.869628e+01 -4.650005e+00 -2.933603e+01
    endloop
  endfacet
  facet normal 7.742676e-01 -5.954133e-01 -2.144590e-01
    outer loop
      vertex -2.337341e+01 7.396975e+00 -7.462061e+00
      vertex -3.869628e+01 -4.650005e+00 -2.933603e+01
      vertex -2.806458e+01 7.718429e+00 -2.529120e+01
    endloop
  endfacet
  facet normal 5.224459e-01 3.760942e-01 -7.652473e-01
    outer loop
      vertex -4.038644e+01 3.398144e+00 -3.582679e+01
      vertex -2.806458e+01 7.718429e+00 -2.529120e+01
      vertex -3.923267e+01 -1.511496e+01 -4.413769e+01
    endloop
  endfacet
  facet normal 8.648547e-01 2.228789e-01 -4.498348e-01
    outer loop
      vertex -2.821287e+01 1.234360e+00 1.336579e+01
      vertex -2.260059e+01 -1.385872e+01 1.667784e+01
      vertex -2.980816e+01 -7.022683e+00 6.207573e+00
    endloop
  endfacet
  facet normal 5.172164e-01 2.127327e-01 8.289946e-01
    outer loop
      vertex -2.878754e+01 -6.088525e+00 1.854398e+01
      vertex -3.054488e+01 -1.638588e+01 2.228285e+01
      vertex -2.260059e+01 -1.385872e+01 1.667784e+01
    endloop
  endfacet
  facet normal 6.768711e-01 3.888450e-01 6.250160e-01
    outer loop
      vertex -2.878754e+01 -6.088525e+00 1.854398e+01
      vertex -2.260059e+01 -1.385872e+01 1.667784e+01
      vertex -2.821287e+01 1.234360e+00 1.336579e+01
    endloop
  endfacet
  facet normal 9.457211e-01 -2.970273e-01 1.318575e-01
    outer loop
      vertex -2.821287e+01 1.234360e+00 1.336579e+01
      vertex -2.980816e+01 -7.022683e+00 6.207573e+00
      vertex -2.337341e+01 7.396975e+00 -7.462061e+00
    endloop
  endfacet
  facet normal 8.742675e-02 8.816288e-01 -4.637750e-01
    outer loop
      vertex -2.783912e+01 7.993825e+00 -2.472517e+01
      vertex -2.806458e+01 7.718429e+00 -2.529120e+01
      vertex -4.038644e+01 3.398144e+00 -3.582679e+01
    endloop
  endfacet
  facet normal 5.682425e-01 8.117314e-01 -1.348797e-01
    outer loop
      vertex -3.042460e+01 1.254322e+01 -6.197368e+00
      vertex -2.337341e+01 7.396975e+00 -7.462061e+00
      vertex -2.806458e+01 7.718429e+00 -2.529120e+01
    endloop
  endfacet
  facet normal 3.936380e-01 -8.785214e-01 2.706462e-01
    outer loop
      vertex -3.042460e+01 1.254322e+01 -6.197368e+00
      vertex -2.806458e+01 7.718429e+00 -2.529120e+01
      vertex -2.783912e+01 7.993825e+00 -2.472517e+01
    endloop
  endfacet
  facet normal -9.807943e-02 -8.754479e-01 4.732562e-01
    outer loop
      vertex -2.816244e+01 7.593930e+00 -2.553192e+01
      vertex -2.783912e+01 7.993825e+00 -2.472517e+01
      vertex -4.038644e+01 3.398144e+00 -3.582679e+01
    endloop
  endfacet
  facet normal 8.590302e-01 4.009834e-01 3.182442e-01
    outer loop
      vertex -2.845044e+01 7.111211e+00 6.602314e+00
      vertex -2.821287e+01 1.234360e+00 1.336579e+01
      vertex -2.337341e+01 7.396975e+00 -7.462061e+00
    endloop
  endfacet
  facet normal 6.002436e-01 7.653607e-01 2.322297e-01
    outer loop
      vertex -2.845044e+01 7.111211e+00 6.602314e+00
      vertex -2.337341e+01 7.396975e+00 -7.462061e+00
      vertex -3.042460e+01 1.254322e+01 -6.197368e+00
    endloop
  endfacet
endsolid SIM_ICUB3_L_SHOULDER_1
