solid SIM_ICUB3_L_SHOULDER_3
  facet normal -9.688243e-01 -1.954044e-01 1.523046e-01
    outer loop
      vertex -1.791375e+02 6.474525e+00 -3.315247e+01
      vertex -1.803489e+02 1.058013e+01 -3.559140e+01
      vertex -1.792932e+02 2.750002e+00 -3.892183e+01
    endloop
  endfacet
  facet normal -9.850542e-01 -1.599714e-01 6.385384e-02
    outer loop
      vertex -1.805536e+02 1.077191e+01 -3.826836e+01
      vertex -1.792932e+02 2.750002e+00 -3.892183e+01
      vertex -1.803489e+02 1.058013e+01 -3.559140e+01
    endloop
  endfacet
  facet normal -6.492622e-01 -6.308738e-01 4.248022e-01
    outer loop
      vertex -1.772371e+02 4.529138e+00 -3.313713e+01
      vertex -1.791375e+02 6.474525e+00 -3.315247e+01
      vertex -1.792932e+02 2.750002e+00 -3.892183e+01
    endloop
  endfacet
  facet normal -6.832059e-01 -4.798762e-02 -7.286473e-01
    outer loop
      vertex -1.802345e+02 1.111063e+01 -3.858987e+01
      vertex -1.792932e+02 2.750002e+00 -3.892183e+01
      vertex -1.805536e+02 1.077191e+01 -3.826836e+01
    endloop
  endfacet
  facet normal -8.722429e-01 -2.847753e-01 3.976121e-01
    outer loop
      vertex -1.785688e+02 5.663257e-01 -3.889658e+01
      vertex -1.772371e+02 4.529138e+00 -3.313713e+01
      vertex -1.792932e+02 2.750002e+00 -3.892183e+01
    endloop
  endfacet
  facet normal 2.273015e-01 6.417205e-02 -9.717078e-01
    outer loop
      vertex -1.802345e+02 1.111063e+01 -3.858987e+01
      vertex -1.785688e+02 5.663257e-01 -3.889658e+01
      vertex -1.792932e+02 2.750002e+00 -3.892183e+01
    endloop
  endfacet
  facet normal -7.613186e-01 1.500609e-01 6.307739e-01
    outer loop
      vertex -1.782223e+02 9.664336e+00 -3.280674e+01
      vertex -1.803489e+02 1.058013e+01 -3.559140e+01
      vertex -1.791375e+02 6.474525e+00 -3.315247e+01
    endloop
  endfacet
  facet normal -9.913967e-01 1.011717e-01 8.304742e-02
    outer loop
      vertex -1.793937e+02 1.949516e+01 -3.504918e+01
      vertex -1.805536e+02 1.077191e+01 -3.826836e+01
      vertex -1.803489e+02 1.058013e+01 -3.559140e+01
    endloop
  endfacet
  facet normal -7.768529e-01 9.070073e-02 6.231156e-01
    outer loop
      vertex -1.782567e+02 2.190315e+01 -3.463112e+01
      vertex -1.803489e+02 1.058013e+01 -3.559140e+01
      vertex -1.782223e+02 9.664336e+00 -3.280674e+01
    endloop
  endfacet
  facet normal -2.951047e-01 -2.647092e-02 9.550982e-01
    outer loop
      vertex -1.782567e+02 2.190315e+01 -3.463112e+01
      vertex -1.793937e+02 1.949516e+01 -3.504918e+01
      vertex -1.803489e+02 1.058013e+01 -3.559140e+01
    endloop
  endfacet
  facet normal -9.131436e-02 -8.137312e-02 9.924919e-01
    outer loop
      vertex -1.782223e+02 9.664336e+00 -3.280674e+01
      vertex -1.791375e+02 6.474525e+00 -3.315247e+01
      vertex -1.772371e+02 4.529138e+00 -3.313713e+01
    endloop
  endfacet
  facet normal -7.769688e-01 1.521360e-01 -6.108798e-01
    outer loop
      vertex -1.789350e+02 2.181201e+01 -3.757762e+01
      vertex -1.802345e+02 1.111063e+01 -3.858987e+01
      vertex -1.805536e+02 1.077191e+01 -3.826836e+01
    endloop
  endfacet
  facet normal -9.916053e-01 1.030014e-01 7.816453e-02
    outer loop
      vertex -1.795815e+02 1.969087e+01 -3.768946e+01
      vertex -1.805536e+02 1.077191e+01 -3.826836e+01
      vertex -1.793937e+02 1.949516e+01 -3.504918e+01
    endloop
  endfacet
  facet normal -6.193030e-02 7.136617e-02 -9.955257e-01
    outer loop
      vertex -1.789350e+02 2.181201e+01 -3.757762e+01
      vertex -1.805536e+02 1.077191e+01 -3.826836e+01
      vertex -1.795815e+02 1.969087e+01 -3.768946e+01
    endloop
  endfacet
  facet normal -7.900061e-01 -4.043420e-01 4.608665e-01
    outer loop
      vertex -1.746228e+02 -7.126739e+00 -3.888198e+01
      vertex -1.772371e+02 4.529138e+00 -3.313713e+01
      vertex -1.785688e+02 5.663257e-01 -3.889658e+01
    endloop
  endfacet
  facet normal 3.864903e-02 -5.677181e-02 9.976388e-01
    outer loop
      vertex -1.723713e+02 9.510841e+00 -3.304214e+01
      vertex -1.782223e+02 9.664336e+00 -3.280674e+01
      vertex -1.772371e+02 4.529138e+00 -3.313713e+01
    endloop
  endfacet
  facet normal -9.783942e-01 -1.486006e-01 -1.437452e-01
    outer loop
      vertex -1.750266e+02 -6.316852e+00 -3.697071e+01
      vertex -1.772371e+02 4.529138e+00 -3.313713e+01
      vertex -1.746228e+02 -7.126739e+00 -3.888198e+01
    endloop
  endfacet
  facet normal 1.066128e-01 -3.119665e-01 9.440925e-01
    outer loop
      vertex -1.725737e+02 4.560470e+00 -3.365339e+01
      vertex -1.772371e+02 4.529138e+00 -3.313713e+01
      vertex -1.750266e+02 -6.316852e+00 -3.697071e+01
    endloop
  endfacet
  facet normal 1.099914e-01 -1.262305e-01 9.858842e-01
    outer loop
      vertex -1.723713e+02 9.510841e+00 -3.304214e+01
      vertex -1.772371e+02 4.529138e+00 -3.313713e+01
      vertex -1.725737e+02 4.560470e+00 -3.365339e+01
    endloop
  endfacet
  facet normal -9.603443e-01 -1.447787e-01 -2.382813e-01
    outer loop
      vertex -1.767875e+02 8.459296e-01 -4.624567e+01
      vertex -1.785688e+02 5.663257e-01 -3.889658e+01
      vertex -1.802345e+02 1.111063e+01 -3.858987e+01
    endloop
  endfacet
  facet normal -8.815223e-01 -4.524144e-01 -1.350539e-01
    outer loop
      vertex -1.737237e+02 -6.760626e+00 -4.597706e+01
      vertex -1.746228e+02 -7.126739e+00 -3.888198e+01
      vertex -1.785688e+02 5.663257e-01 -3.889658e+01
    endloop
  endfacet
  facet normal -8.993871e-01 -3.704538e-01 -2.320922e-01
    outer loop
      vertex -1.767875e+02 8.459296e-01 -4.624567e+01
      vertex -1.737237e+02 -6.760626e+00 -4.597706e+01
      vertex -1.785688e+02 5.663257e-01 -3.889658e+01
    endloop
  endfacet
  facet normal -9.720809e-01 1.361248e-01 -1.911251e-01
    outer loop
      vertex -1.789264e+02 1.090176e+01 -4.539174e+01
      vertex -1.802345e+02 1.111063e+01 -3.858987e+01
      vertex -1.789350e+02 2.181201e+01 -3.757762e+01
    endloop
  endfacet
  facet normal -9.651767e-01 -1.900325e-01 -1.797819e-01
    outer loop
      vertex -1.789264e+02 1.090176e+01 -4.539174e+01
      vertex -1.767875e+02 8.459296e-01 -4.624567e+01
      vertex -1.802345e+02 1.111063e+01 -3.858987e+01
    endloop
  endfacet
  facet normal 2.985367e-02 1.474525e-01 9.886185e-01
    outer loop
      vertex -1.697349e+02 2.299660e+01 -3.505154e+01
      vertex -1.782567e+02 2.190315e+01 -3.463112e+01
      vertex -1.782223e+02 9.664336e+00 -3.280674e+01
    endloop
  endfacet
  facet normal 4.344937e-02 1.389205e-01 9.893499e-01
    outer loop
      vertex -1.697349e+02 2.299660e+01 -3.505154e+01
      vertex -1.782223e+02 9.664336e+00 -3.280674e+01
      vertex -1.723713e+02 9.510841e+00 -3.304214e+01
    endloop
  endfacet
  facet normal -9.064339e-01 4.115303e-01 9.497548e-02
    outer loop
      vertex -1.782567e+02 2.190315e+01 -3.463112e+01
      vertex -1.795815e+02 1.969087e+01 -3.768946e+01
      vertex -1.793937e+02 1.949516e+01 -3.504918e+01
    endloop
  endfacet
  facet normal -9.387113e-01 2.751962e-01 2.075768e-01
    outer loop
      vertex -1.789350e+02 2.181201e+01 -3.757762e+01
      vertex -1.795815e+02 1.969087e+01 -3.768946e+01
      vertex -1.782567e+02 2.190315e+01 -3.463112e+01
    endloop
  endfacet
  facet normal -8.984684e-01 3.935286e-01 1.946528e-01
    outer loop
      vertex -1.749698e+02 2.930348e+01 -3.442073e+01
      vertex -1.789350e+02 2.181201e+01 -3.757762e+01
      vertex -1.782567e+02 2.190315e+01 -3.463112e+01
    endloop
  endfacet
  facet normal 8.698091e-02 -3.144265e-01 9.452885e-01
    outer loop
      vertex -1.679012e+02 3.398482e+01 -3.156532e+01
      vertex -1.782567e+02 2.190315e+01 -3.463112e+01
      vertex -1.697349e+02 2.299660e+01 -3.505154e+01
    endloop
  endfacet
  facet normal -4.707415e-01 1.845566e-01 8.627522e-01
    outer loop
      vertex -1.679012e+02 3.398482e+01 -3.156532e+01
      vertex -1.749698e+02 2.930348e+01 -3.442073e+01
      vertex -1.782567e+02 2.190315e+01 -3.463112e+01
    endloop
  endfacet
  facet normal -9.725507e-01 1.349863e-01 -1.895359e-01
    outer loop
      vertex -1.776257e+02 2.119559e+01 -4.473472e+01
      vertex -1.789264e+02 1.090176e+01 -4.539174e+01
      vertex -1.789350e+02 2.181201e+01 -3.757762e+01
    endloop
  endfacet
  facet normal -8.818071e-01 4.279549e-01 -1.981689e-01
    outer loop
      vertex -1.751181e+02 2.983299e+01 -3.724006e+01
      vertex -1.776257e+02 2.119559e+01 -4.473472e+01
      vertex -1.789350e+02 2.181201e+01 -3.757762e+01
    endloop
  endfacet
  facet normal -8.977803e-01 4.218933e-01 1.264776e-01
    outer loop
      vertex -1.749698e+02 2.930348e+01 -3.442073e+01
      vertex -1.751181e+02 2.983299e+01 -3.724006e+01
      vertex -1.789350e+02 2.181201e+01 -3.757762e+01
    endloop
  endfacet
  facet normal -7.498476e-01 -6.474634e-01 -1.360872e-01
    outer loop
      vertex -1.699856e+02 -1.252573e+01 -3.874602e+01
      vertex -1.746228e+02 -7.126739e+00 -3.888198e+01
      vertex -1.692235e+02 -1.175446e+01 -4.661500e+01
    endloop
  endfacet
  facet normal -7.448298e-01 -6.548277e-01 -1.281766e-01
    outer loop
      vertex -1.737237e+02 -6.760626e+00 -4.597706e+01
      vertex -1.692235e+02 -1.175446e+01 -4.661500e+01
      vertex -1.746228e+02 -7.126739e+00 -3.888198e+01
    endloop
  endfacet
  facet normal -6.129575e-01 -7.783825e-01 -1.356604e-01
    outer loop
      vertex -1.654010e+02 -1.615621e+01 -3.863014e+01
      vertex -1.699856e+02 -1.252573e+01 -3.874602e+01
      vertex -1.692235e+02 -1.175446e+01 -4.661500e+01
    endloop
  endfacet
  facet normal -5.759683e-01 -4.302370e-01 -6.950947e-01
    outer loop
      vertex -1.685103e+02 -1.109144e+01 -4.761633e+01
      vertex -1.692235e+02 -1.175446e+01 -4.661500e+01
      vertex -1.737237e+02 -6.760626e+00 -4.597706e+01
    endloop
  endfacet
  facet normal -6.061759e-01 -7.826823e-01 -1.412772e-01
    outer loop
      vertex -1.647849e+02 -1.509896e+01 -4.713088e+01
      vertex -1.654010e+02 -1.615621e+01 -3.863014e+01
      vertex -1.692235e+02 -1.175446e+01 -4.661500e+01
    endloop
  endfacet
  facet normal -4.820380e-01 -5.323963e-01 -6.958402e-01
    outer loop
      vertex -1.685103e+02 -1.109144e+01 -4.761633e+01
      vertex -1.647849e+02 -1.509896e+01 -4.713088e+01
      vertex -1.692235e+02 -1.175446e+01 -4.661500e+01
    endloop
  endfacet
  facet normal -7.550685e-01 -6.456484e-01 1.140598e-01
    outer loop
      vertex -1.750266e+02 -6.316852e+00 -3.697071e+01
      vertex -1.746228e+02 -7.126739e+00 -3.888198e+01
      vertex -1.699856e+02 -1.252573e+01 -3.874602e+01
    endloop
  endfacet
  facet normal -4.850443e-01 -5.919765e-01 6.436582e-01
    outer loop
      vertex -1.612967e+02 -1.638434e+01 -3.574704e+01
      vertex -1.699856e+02 -1.252573e+01 -3.874602e+01
      vertex -1.654010e+02 -1.615621e+01 -3.863014e+01
    endloop
  endfacet
  facet normal -7.330847e-01 -6.512559e-01 1.960934e-01
    outer loop
      vertex -1.698149e+02 -1.241254e+01 -3.773190e+01
      vertex -1.750266e+02 -6.316852e+00 -3.697071e+01
      vertex -1.699856e+02 -1.252573e+01 -3.874602e+01
    endloop
  endfacet
  facet normal -4.490931e-01 -8.764921e-01 1.734270e-01
    outer loop
      vertex -1.612967e+02 -1.638434e+01 -3.574704e+01
      vertex -1.698149e+02 -1.241254e+01 -3.773190e+01
      vertex -1.699856e+02 -1.252573e+01 -3.874602e+01
    endloop
  endfacet
  facet normal -6.616843e-01 -7.268106e-01 -1.841745e-01
    outer loop
      vertex -1.713284e+02 -7.365303e+00 -5.219638e+01
      vertex -1.685103e+02 -1.109144e+01 -4.761633e+01
      vertex -1.737237e+02 -6.760626e+00 -4.597706e+01
    endloop
  endfacet
  facet normal -8.800851e-01 -3.651991e-01 -3.034467e-01
    outer loop
      vertex -1.767875e+02 8.459296e-01 -4.624567e+01
      vertex -1.713284e+02 -7.365303e+00 -5.219638e+01
      vertex -1.737237e+02 -6.760626e+00 -4.597706e+01
    endloop
  endfacet
  facet normal -4.340698e-01 -8.896014e-01 -1.421012e-01
    outer loop
      vertex -1.573426e+02 -1.996454e+01 -3.940445e+01
      vertex -1.654010e+02 -1.615621e+01 -3.863014e+01
      vertex -1.647849e+02 -1.509896e+01 -4.713088e+01
    endloop
  endfacet
  facet normal -4.256429e-01 -7.193085e-01 5.490204e-01
    outer loop
      vertex -1.580892e+02 -1.842407e+01 -3.593274e+01
      vertex -1.612967e+02 -1.638434e+01 -3.574704e+01
      vertex -1.654010e+02 -1.615621e+01 -3.863014e+01
    endloop
  endfacet
  facet normal -3.828840e-01 -8.721226e-01 3.046342e-01
    outer loop
      vertex -1.580892e+02 -1.842407e+01 -3.593274e+01
      vertex -1.654010e+02 -1.615621e+01 -3.863014e+01
      vertex -1.573426e+02 -1.996454e+01 -3.940445e+01
    endloop
  endfacet
  facet normal -2.572439e-01 -3.483255e-01 -9.013850e-01
    outer loop
      vertex -1.577990e+02 -1.078412e+01 -5.079196e+01
      vertex -1.647849e+02 -1.509896e+01 -4.713088e+01
      vertex -1.685103e+02 -1.109144e+01 -4.761633e+01
    endloop
  endfacet
  facet normal -4.162824e-01 -8.946159e-01 -1.623923e-01
    outer loop
      vertex -1.569213e+02 -1.862338e+01 -4.787271e+01
      vertex -1.573426e+02 -1.996454e+01 -3.940445e+01
      vertex -1.647849e+02 -1.509896e+01 -4.713088e+01
    endloop
  endfacet
  facet normal -2.471747e-01 -3.623307e-01 -8.986774e-01
    outer loop
      vertex -1.577990e+02 -1.078412e+01 -5.079196e+01
      vertex -1.569213e+02 -1.862338e+01 -4.787271e+01
      vertex -1.647849e+02 -1.509896e+01 -4.713088e+01
    endloop
  endfacet
  facet normal -1.959497e-01 -8.162288e-01 -5.434835e-01
    outer loop
      vertex -1.646825e+02 -6.403809e+00 -5.603652e+01
      vertex -1.685103e+02 -1.109144e+01 -4.761633e+01
      vertex -1.713284e+02 -7.365303e+00 -5.219638e+01
    endloop
  endfacet
  facet normal -1.322711e-01 -8.392783e-01 -5.273673e-01
    outer loop
      vertex -1.577990e+02 -1.078412e+01 -5.079196e+01
      vertex -1.685103e+02 -1.109144e+01 -4.761633e+01
      vertex -1.646825e+02 -6.403809e+00 -5.603652e+01
    endloop
  endfacet
  facet normal -4.882031e-02 -1.647564e-01 9.851253e-01
    outer loop
      vertex -1.698850e+02 -1.079257e+01 -3.746444e+01
      vertex -1.750266e+02 -6.316852e+00 -3.697071e+01
      vertex -1.698149e+02 -1.241254e+01 -3.773190e+01
    endloop
  endfacet
  facet normal -1.353873e-01 -2.609676e-01 9.558066e-01
    outer loop
      vertex -1.725737e+02 4.560470e+00 -3.365339e+01
      vertex -1.750266e+02 -6.316852e+00 -3.697071e+01
      vertex -1.698850e+02 -1.079257e+01 -3.746444e+01
    endloop
  endfacet
  facet normal -2.973516e-01 -1.680377e-01 9.398646e-01
    outer loop
      vertex -1.698850e+02 -1.079257e+01 -3.746444e+01
      vertex -1.698149e+02 -1.241254e+01 -3.773190e+01
      vertex -1.612967e+02 -1.638434e+01 -3.574704e+01
    endloop
  endfacet
  facet normal -1.733159e-01 3.608534e-02 9.842050e-01
    outer loop
      vertex -1.584156e+02 -1.152483e+01 -3.541785e+01
      vertex -1.698850e+02 -1.079257e+01 -3.746444e+01
      vertex -1.612967e+02 -1.638434e+01 -3.574704e+01
    endloop
  endfacet
  facet normal 1.072887e-02 -7.391357e-02 9.972069e-01
    outer loop
      vertex -1.584156e+02 -1.152483e+01 -3.541785e+01
      vertex -1.612967e+02 -1.638434e+01 -3.574704e+01
      vertex -1.580892e+02 -1.842407e+01 -3.593274e+01
    endloop
  endfacet
  facet normal -9.624262e-02 -2.556420e-01 9.619691e-01
    outer loop
      vertex -1.593997e+02 4.250937e+00 -3.241762e+01
      vertex -1.725737e+02 4.560470e+00 -3.365339e+01
      vertex -1.698850e+02 -1.079257e+01 -3.746444e+01
    endloop
  endfacet
  facet normal -1.843357e-01 -1.947156e-01 9.633827e-01
    outer loop
      vertex -1.593997e+02 4.250937e+00 -3.241762e+01
      vertex -1.698850e+02 -1.079257e+01 -3.746444e+01
      vertex -1.584156e+02 -1.152483e+01 -3.541785e+01
    endloop
  endfacet
  facet normal -8.277245e-01 -1.606662e-01 -5.376416e-01
    outer loop
      vertex -1.714699e+02 2.633511e+00 -5.496643e+01
      vertex -1.713284e+02 -7.365303e+00 -5.219638e+01
      vertex -1.767875e+02 8.459296e-01 -4.624567e+01
    endloop
  endfacet
  facet normal -6.136963e-01 -2.188510e-01 -7.586047e-01
    outer loop
      vertex -1.665612e+02 1.168644e+00 -5.851494e+01
      vertex -1.713284e+02 -7.365303e+00 -5.219638e+01
      vertex -1.714699e+02 2.633511e+00 -5.496643e+01
    endloop
  endfacet
  facet normal -4.225592e-01 -3.749026e-01 -8.251616e-01
    outer loop
      vertex -1.665612e+02 1.168644e+00 -5.851494e+01
      vertex -1.646825e+02 -6.403809e+00 -5.603652e+01
      vertex -1.713284e+02 -7.365303e+00 -5.219638e+01
    endloop
  endfacet
  facet normal -8.340840e-01 -1.319300e-01 -5.356289e-01
    outer loop
      vertex -1.789264e+02 1.090176e+01 -4.539174e+01
      vertex -1.714699e+02 2.633511e+00 -5.496643e+01
      vertex -1.767875e+02 8.459296e-01 -4.624567e+01
    endloop
  endfacet
  facet normal -6.046861e-01 -1.183760e-01 -7.876178e-01
    outer loop
      vertex -1.690580e+02 1.089578e+01 -5.806000e+01
      vertex -1.665612e+02 1.168644e+00 -5.851494e+01
      vertex -1.714699e+02 2.633511e+00 -5.496643e+01
    endloop
  endfacet
  facet normal -8.405283e-01 -1.578539e-01 -5.182609e-01
    outer loop
      vertex -1.735377e+02 1.120419e+01 -5.422339e+01
      vertex -1.714699e+02 2.633511e+00 -5.496643e+01
      vertex -1.789264e+02 1.090176e+01 -4.539174e+01
    endloop
  endfacet
  facet normal -6.513720e-01 -9.185213e-02 -7.531784e-01
    outer loop
      vertex -1.690580e+02 1.089578e+01 -5.806000e+01
      vertex -1.714699e+02 2.633511e+00 -5.496643e+01
      vertex -1.735377e+02 1.120419e+01 -5.422339e+01
    endloop
  endfacet
  facet normal -1.704683e-01 -3.444483e-01 -9.231987e-01
    outer loop
      vertex -1.579140e+02 -3.176162e-01 -5.955710e+01
      vertex -1.646825e+02 -6.403809e+00 -5.603652e+01
      vertex -1.665612e+02 1.168644e+00 -5.851494e+01
    endloop
  endfacet
  facet normal -5.071063e-01 -8.602575e-01 -5.291750e-02
    outer loop
      vertex -1.572889e+02 -1.071491e+01 -5.680552e+01
      vertex -1.577990e+02 -1.078412e+01 -5.079196e+01
      vertex -1.646825e+02 -6.403809e+00 -5.603652e+01
    endloop
  endfacet
  facet normal -2.495820e-01 -2.617361e-01 -9.323106e-01
    outer loop
      vertex -1.579140e+02 -3.176162e-01 -5.955710e+01
      vertex -1.572889e+02 -1.071491e+01 -5.680552e+01
      vertex -1.646825e+02 -6.403809e+00 -5.603652e+01
    endloop
  endfacet
  facet normal -5.978624e-01 -1.163677e-01 -7.931072e-01
    outer loop
      vertex -1.626253e+02 6.623126e+00 -6.228219e+01
      vertex -1.665612e+02 1.168644e+00 -5.851494e+01
      vertex -1.690580e+02 1.089578e+01 -5.806000e+01
    endloop
  endfacet
  facet normal -1.842913e-01 -4.650597e-01 -8.658846e-01
    outer loop
      vertex -1.626253e+02 6.623126e+00 -6.228219e+01
      vertex -1.579140e+02 -3.176162e-01 -5.955710e+01
      vertex -1.665612e+02 1.168644e+00 -5.851494e+01
    endloop
  endfacet
  facet normal -8.693900e-02 -1.185789e-01 9.891313e-01
    outer loop
      vertex -1.594040e+02 6.649323e+00 -3.224543e+01
      vertex -1.723713e+02 9.510841e+00 -3.304214e+01
      vertex -1.725737e+02 4.560470e+00 -3.365339e+01
    endloop
  endfacet
  facet normal -9.481896e-02 -7.145569e-02 9.929267e-01
    outer loop
      vertex -1.594040e+02 6.649323e+00 -3.224543e+01
      vertex -1.725737e+02 4.560470e+00 -3.365339e+01
      vertex -1.593997e+02 4.250937e+00 -3.241762e+01
    endloop
  endfacet
  facet normal -8.473852e-01 1.397685e-01 -5.122529e-01
    outer loop
      vertex -1.776257e+02 2.119559e+01 -4.473472e+01
      vertex -1.735377e+02 1.120419e+01 -5.422339e+01
      vertex -1.789264e+02 1.090176e+01 -4.539174e+01
    endloop
  endfacet
  facet normal -6.411119e-01 1.190712e-01 -7.581540e-01
    outer loop
      vertex -1.678804e+02 2.170213e+01 -5.735858e+01
      vertex -1.690580e+02 1.089578e+01 -5.806000e+01
      vertex -1.735377e+02 1.120419e+01 -5.422339e+01
    endloop
  endfacet
  facet normal -8.611197e-01 1.174350e-01 -4.946533e-01
    outer loop
      vertex -1.727207e+02 1.948001e+01 -5.368095e+01
      vertex -1.735377e+02 1.120419e+01 -5.422339e+01
      vertex -1.776257e+02 2.119559e+01 -4.473472e+01
    endloop
  endfacet
  facet normal -6.334153e-01 1.127119e-01 -7.655593e-01
    outer loop
      vertex -1.678804e+02 2.170213e+01 -5.735858e+01
      vertex -1.735377e+02 1.120419e+01 -5.422339e+01
      vertex -1.727207e+02 1.948001e+01 -5.368095e+01
    endloop
  endfacet
  facet normal -5.342386e-01 1.125951e-01 -8.378015e-01
    outer loop
      vertex -1.631677e+02 8.884133e+00 -6.208636e+01
      vertex -1.690580e+02 1.089578e+01 -5.806000e+01
      vertex -1.678804e+02 2.170213e+01 -5.735858e+01
    endloop
  endfacet
  facet normal -5.788321e-01 -6.848827e-02 -8.125655e-01
    outer loop
      vertex -1.631677e+02 8.884133e+00 -6.208636e+01
      vertex -1.626253e+02 6.623126e+00 -6.228219e+01
      vertex -1.690580e+02 1.089578e+01 -5.806000e+01
    endloop
  endfacet
  facet normal -2.586745e-01 1.916387e-01 9.467640e-01
    outer loop
      vertex -1.560704e+02 2.286081e+01 -3.129065e+01
      vertex -1.697349e+02 2.299660e+01 -3.505154e+01
      vertex -1.723713e+02 9.510841e+00 -3.304214e+01
    endloop
  endfacet
  facet normal -7.095640e-02 -4.409876e-02 9.965041e-01
    outer loop
      vertex -1.560704e+02 2.286081e+01 -3.129065e+01
      vertex -1.723713e+02 9.510841e+00 -3.304214e+01
      vertex -1.594040e+02 6.649323e+00 -3.224543e+01
    endloop
  endfacet
  facet normal -7.841437e-01 3.671325e-01 -5.003324e-01
    outer loop
      vertex -1.743971e+02 2.948679e+01 -4.371079e+01
      vertex -1.727207e+02 1.948001e+01 -5.368095e+01
      vertex -1.776257e+02 2.119559e+01 -4.473472e+01
    endloop
  endfacet
  facet normal -9.196279e-01 3.732212e-01 -1.224354e-01
    outer loop
      vertex -1.751181e+02 2.983299e+01 -3.724006e+01
      vertex -1.743971e+02 2.948679e+01 -4.371079e+01
      vertex -1.776257e+02 2.119559e+01 -4.473472e+01
    endloop
  endfacet
  facet normal -6.618429e-01 4.525260e-01 -5.976489e-01
    outer loop
      vertex -1.641563e+02 2.811318e+01 -5.662842e+01
      vertex -1.678804e+02 2.170213e+01 -5.735858e+01
      vertex -1.727207e+02 1.948001e+01 -5.368095e+01
    endloop
  endfacet
  facet normal -7.824813e-01 3.687886e-01 -5.017151e-01
    outer loop
      vertex -1.697122e+02 2.627092e+01 -5.338128e+01
      vertex -1.727207e+02 1.948001e+01 -5.368095e+01
      vertex -1.743971e+02 2.948679e+01 -4.371079e+01
    endloop
  endfacet
  facet normal -5.518418e-01 2.791502e-01 -7.858408e-01
    outer loop
      vertex -1.641563e+02 2.811318e+01 -5.662842e+01
      vertex -1.727207e+02 1.948001e+01 -5.368095e+01
      vertex -1.697122e+02 2.627092e+01 -5.338128e+01
    endloop
  endfacet
  facet normal -2.373281e-01 2.449250e-01 -9.400463e-01
    outer loop
      vertex -1.572645e+02 3.239659e+01 -5.725233e+01
      vertex -1.678804e+02 2.170213e+01 -5.735858e+01
      vertex -1.641563e+02 2.811318e+01 -5.662842e+01
    endloop
  endfacet
  facet normal -6.313501e-01 5.323619e-02 -7.736685e-01
    outer loop
      vertex -1.632070e+02 1.918989e+01 -6.134513e+01
      vertex -1.631677e+02 8.884133e+00 -6.208636e+01
      vertex -1.678804e+02 2.170213e+01 -5.735858e+01
    endloop
  endfacet
  facet normal -2.065178e-01 7.002460e-01 -6.833783e-01
    outer loop
      vertex -1.598544e+02 2.004384e+01 -6.148326e+01
      vertex -1.632070e+02 1.918989e+01 -6.134513e+01
      vertex -1.678804e+02 2.170213e+01 -5.735858e+01
    endloop
  endfacet
  facet normal -3.633304e-01 3.691614e-01 -8.554010e-01
    outer loop
      vertex -1.572645e+02 3.239659e+01 -5.725233e+01
      vertex -1.598544e+02 2.004384e+01 -6.148326e+01
      vertex -1.678804e+02 2.170213e+01 -5.735858e+01
    endloop
  endfacet
  facet normal 5.644677e-02 -3.104777e-01 9.489033e-01
    outer loop
      vertex -1.609304e+02 3.391055e+01 -3.200428e+01
      vertex -1.679012e+02 3.398482e+01 -3.156532e+01
      vertex -1.697349e+02 2.299660e+01 -3.505154e+01
    endloop
  endfacet
  facet normal -2.654722e-01 -5.459585e-02 9.625714e-01
    outer loop
      vertex -1.609304e+02 3.391055e+01 -3.200428e+01
      vertex -1.697349e+02 2.299660e+01 -3.505154e+01
      vertex -1.560704e+02 2.286081e+01 -3.129065e+01
    endloop
  endfacet
  facet normal -4.901347e-01 7.279015e-01 -4.795074e-01
    outer loop
      vertex -1.658477e+02 3.073307e+01 -5.055786e+01
      vertex -1.697122e+02 2.627092e+01 -5.338128e+01
      vertex -1.743971e+02 2.948679e+01 -4.371079e+01
    endloop
  endfacet
  facet normal -5.628175e-01 5.694928e-01 -5.990947e-01
    outer loop
      vertex -1.649680e+02 3.868994e+01 -4.382055e+01
      vertex -1.658477e+02 3.073307e+01 -5.055786e+01
      vertex -1.743971e+02 2.948679e+01 -4.371079e+01
    endloop
  endfacet
  facet normal -7.640226e-01 6.341097e-01 -1.190560e-01
    outer loop
      vertex -1.704488e+02 3.548037e+01 -3.712569e+01
      vertex -1.743971e+02 2.948679e+01 -4.371079e+01
      vertex -1.751181e+02 2.983299e+01 -3.724006e+01
    endloop
  endfacet
  facet normal -7.992886e-01 5.974692e-01 -6.456206e-02
    outer loop
      vertex -1.700905e+02 3.530466e+01 -4.318754e+01
      vertex -1.743971e+02 2.948679e+01 -4.371079e+01
      vertex -1.704488e+02 3.548037e+01 -3.712569e+01
    endloop
  endfacet
  facet normal -3.198787e-01 3.170853e-01 -8.928239e-01
    outer loop
      vertex -1.649680e+02 3.868994e+01 -4.382055e+01
      vertex -1.743971e+02 2.948679e+01 -4.371079e+01
      vertex -1.700905e+02 3.530466e+01 -4.318754e+01
    endloop
  endfacet
  facet normal -5.088757e-01 7.297036e-01 -4.567037e-01
    outer loop
      vertex -1.641563e+02 2.811318e+01 -5.662842e+01
      vertex -1.697122e+02 2.627092e+01 -5.338128e+01
      vertex -1.658477e+02 3.073307e+01 -5.055786e+01
    endloop
  endfacet
  facet normal -7.999852e-01 4.367816e-01 -4.113945e-01
    outer loop
      vertex -1.649680e+02 3.868994e+01 -4.382055e+01
      vertex -1.641563e+02 2.811318e+01 -5.662842e+01
      vertex -1.658477e+02 3.073307e+01 -5.055786e+01
    endloop
  endfacet
  facet normal -7.116467e-01 5.188976e-01 -4.736077e-01
    outer loop
      vertex -1.620469e+02 3.404317e+01 -5.330096e+01
      vertex -1.641563e+02 2.811318e+01 -5.662842e+01
      vertex -1.649680e+02 3.868994e+01 -4.382055e+01
    endloop
  endfacet
  facet normal -4.639876e-01 6.605637e-01 -5.902297e-01
    outer loop
      vertex -1.552705e+02 3.715016e+01 -5.349978e+01
      vertex -1.572645e+02 3.239659e+01 -5.725233e+01
      vertex -1.641563e+02 2.811318e+01 -5.662842e+01
    endloop
  endfacet
  facet normal -2.721381e-01 5.426872e-01 -7.946266e-01
    outer loop
      vertex -1.552705e+02 3.715016e+01 -5.349978e+01
      vertex -1.641563e+02 2.811318e+01 -5.662842e+01
      vertex -1.620469e+02 3.404317e+01 -5.330096e+01
    endloop
  endfacet
  facet normal -7.730551e-01 6.148197e-01 1.561490e-01
    outer loop
      vertex -1.701148e+02 3.542353e+01 -3.448211e+01
      vertex -1.751181e+02 2.983299e+01 -3.724006e+01
      vertex -1.749698e+02 2.930348e+01 -3.442073e+01
    endloop
  endfacet
  facet normal -7.670674e-01 6.319779e-01 1.105058e-01
    outer loop
      vertex -1.701148e+02 3.542353e+01 -3.448211e+01
      vertex -1.704488e+02 3.548037e+01 -3.712569e+01
      vertex -1.751181e+02 2.983299e+01 -3.724006e+01
    endloop
  endfacet
  facet normal -4.911170e-01 2.289084e-01 8.404790e-01
    outer loop
      vertex -1.665985e+02 3.686572e+01 -3.158874e+01
      vertex -1.749698e+02 2.930348e+01 -3.442073e+01
      vertex -1.679012e+02 3.398482e+01 -3.156532e+01
    endloop
  endfacet
  facet normal -6.582475e-01 5.275641e-01 5.370161e-01
    outer loop
      vertex -1.665985e+02 3.686572e+01 -3.158874e+01
      vertex -1.701148e+02 3.542353e+01 -3.448211e+01
      vertex -1.749698e+02 2.930348e+01 -3.442073e+01
    endloop
  endfacet
  facet normal 3.897264e-01 -1.688713e-01 9.053153e-01
    outer loop
      vertex -1.576078e+02 4.250277e+01 -3.440762e+01
      vertex -1.665985e+02 3.686572e+01 -3.158874e+01
      vertex -1.679012e+02 3.398482e+01 -3.156532e+01
    endloop
  endfacet
  facet normal 6.352720e-02 2.459678e-01 9.671940e-01
    outer loop
      vertex -1.576078e+02 4.250277e+01 -3.440762e+01
      vertex -1.679012e+02 3.398482e+01 -3.156532e+01
      vertex -1.609304e+02 3.391055e+01 -3.200428e+01
    endloop
  endfacet
  facet normal -6.318896e-01 7.727520e-01 -5.974867e-02
    outer loop
      vertex -1.657713e+02 3.930393e+01 -3.714257e+01
      vertex -1.700905e+02 3.530466e+01 -4.318754e+01
      vertex -1.704488e+02 3.548037e+01 -3.712569e+01
    endloop
  endfacet
  facet normal -6.140638e-01 7.522632e-01 2.388004e-01
    outer loop
      vertex -1.665985e+02 3.686572e+01 -3.158874e+01
      vertex -1.657713e+02 3.930393e+01 -3.714257e+01
      vertex -1.704488e+02 3.548037e+01 -3.712569e+01
    endloop
  endfacet
  facet normal -4.297041e-01 8.999617e-01 7.364306e-02
    outer loop
      vertex -1.665985e+02 3.686572e+01 -3.158874e+01
      vertex -1.704488e+02 3.548037e+01 -3.712569e+01
      vertex -1.701148e+02 3.542353e+01 -3.448211e+01
    endloop
  endfacet
  facet normal -5.579104e-01 8.176126e-01 -1.422870e-01
    outer loop
      vertex -1.649680e+02 3.868994e+01 -4.382055e+01
      vertex -1.700905e+02 3.530466e+01 -4.318754e+01
      vertex -1.657713e+02 3.930393e+01 -3.714257e+01
    endloop
  endfacet
  facet normal -4.348430e-01 8.904534e-01 -1.341797e-01
    outer loop
      vertex -1.574786e+02 4.331923e+01 -3.737061e+01
      vertex -1.649680e+02 3.868994e+01 -4.382055e+01
      vertex -1.657713e+02 3.930393e+01 -3.714257e+01
    endloop
  endfacet
  facet normal -4.346123e-01 8.466855e-01 3.069786e-01
    outer loop
      vertex -1.576078e+02 4.250277e+01 -3.440762e+01
      vertex -1.657713e+02 3.930393e+01 -3.714257e+01
      vertex -1.665985e+02 3.686572e+01 -3.158874e+01
    endloop
  endfacet
  facet normal -4.197184e-01 8.795622e-01 2.240687e-01
    outer loop
      vertex -1.576078e+02 4.250277e+01 -3.440762e+01
      vertex -1.574786e+02 4.331923e+01 -3.737061e+01
      vertex -1.657713e+02 3.930393e+01 -3.714257e+01
    endloop
  endfacet
  facet normal -6.131210e-01 6.181556e-01 -4.919006e-01
    outer loop
      vertex -1.571995e+02 4.186650e+01 -4.951155e+01
      vertex -1.620469e+02 3.404317e+01 -5.330096e+01
      vertex -1.649680e+02 3.868994e+01 -4.382055e+01
    endloop
  endfacet
  facet normal -4.477642e-01 8.865465e-01 -1.163721e-01
    outer loop
      vertex -1.574786e+02 4.331923e+01 -3.737061e+01
      vertex -1.571995e+02 4.186650e+01 -4.951155e+01
      vertex -1.649680e+02 3.868994e+01 -4.382055e+01
    endloop
  endfacet
  facet normal -1.174533e-01 -9.799342e-01 -1.610394e-01
    outer loop
      vertex -1.467774e+02 -2.116708e+01 -3.979262e+01
      vertex -1.573426e+02 -1.996454e+01 -3.940445e+01
      vertex -1.569213e+02 -1.862338e+01 -4.787271e+01
    endloop
  endfacet
  facet normal -8.997775e-02 -9.173796e-01 3.877095e-01
    outer loop
      vertex -1.475622e+02 -2.100006e+01 -3.958486e+01
      vertex -1.580892e+02 -1.842407e+01 -3.593274e+01
      vertex -1.573426e+02 -1.996454e+01 -3.940445e+01
    endloop
  endfacet
  facet normal -8.941111e-02 -9.135910e-01 3.966826e-01
    outer loop
      vertex -1.475622e+02 -2.100006e+01 -3.958486e+01
      vertex -1.573426e+02 -1.996454e+01 -3.940445e+01
      vertex -1.467774e+02 -2.116708e+01 -3.979262e+01
    endloop
  endfacet
  facet normal -8.840138e-01 -2.468115e-01 -3.969933e-01
    outer loop
      vertex -1.548065e+02 -1.149187e+01 -5.701565e+01
      vertex -1.569213e+02 -1.862338e+01 -4.787271e+01
      vertex -1.577990e+02 -1.078412e+01 -5.079196e+01
    endloop
  endfacet
  facet normal -1.374060e-01 -7.653588e-01 -6.287651e-01
    outer loop
      vertex -1.468780e+02 -1.984146e+01 -4.858482e+01
      vertex -1.569213e+02 -1.862338e+01 -4.787271e+01
      vertex -1.548065e+02 -1.149187e+01 -5.701565e+01
    endloop
  endfacet
  facet normal -1.293256e-01 -9.807373e-01 -1.463874e-01
    outer loop
      vertex -1.467774e+02 -2.116708e+01 -3.979262e+01
      vertex -1.569213e+02 -1.862338e+01 -4.787271e+01
      vertex -1.468780e+02 -1.984146e+01 -4.858482e+01
    endloop
  endfacet
  facet normal -3.013137e-01 -9.528252e-01 -3.652603e-02
    outer loop
      vertex -1.548065e+02 -1.149187e+01 -5.701565e+01
      vertex -1.577990e+02 -1.078412e+01 -5.079196e+01
      vertex -1.572889e+02 -1.071491e+01 -5.680552e+01
    endloop
  endfacet
  facet normal 3.033217e-01 -5.664012e-02 9.512034e-01
    outer loop
      vertex -1.474971e+02 -1.069324e+01 -3.885005e+01
      vertex -1.584156e+02 -1.152483e+01 -3.541785e+01
      vertex -1.580892e+02 -1.842407e+01 -3.593274e+01
    endloop
  endfacet
  facet normal 3.117415e-01 -6.952860e-02 9.476197e-01
    outer loop
      vertex -1.475622e+02 -2.100006e+01 -3.958486e+01
      vertex -1.474971e+02 -1.069324e+01 -3.885005e+01
      vertex -1.580892e+02 -1.842407e+01 -3.593274e+01
    endloop
  endfacet
  facet normal -2.227478e-02 -1.881256e-01 9.818924e-01
    outer loop
      vertex -1.518231e+02 -1.113307e+00 -3.327350e+01
      vertex -1.593997e+02 4.250937e+00 -3.241762e+01
      vertex -1.584156e+02 -1.152483e+01 -3.541785e+01
    endloop
  endfacet
  facet normal 3.039721e-01 -3.730203e-01 8.766167e-01
    outer loop
      vertex -1.518231e+02 -1.113307e+00 -3.327350e+01
      vertex -1.584156e+02 -1.152483e+01 -3.541785e+01
      vertex -1.474971e+02 -1.069324e+01 -3.885005e+01
    endloop
  endfacet
  facet normal -7.347035e-01 -2.144934e-01 -6.435863e-01
    outer loop
      vertex -1.554676e+02 -6.838000e+00 -6.017671e+01
      vertex -1.572889e+02 -1.071491e+01 -5.680552e+01
      vertex -1.579140e+02 -3.176162e-01 -5.955710e+01
    endloop
  endfacet
  facet normal -2.093341e-01 -4.315167e-01 -8.774808e-01
    outer loop
      vertex -1.471548e+02 -8.502856e+00 -6.031094e+01
      vertex -1.548065e+02 -1.149187e+01 -5.701565e+01
      vertex -1.572889e+02 -1.071491e+01 -5.680552e+01
    endloop
  endfacet
  facet normal -1.353685e-01 -6.131613e-01 -7.782728e-01
    outer loop
      vertex -1.554676e+02 -6.838000e+00 -6.017671e+01
      vertex -1.471548e+02 -8.502856e+00 -6.031094e+01
      vertex -1.572889e+02 -1.071491e+01 -5.680552e+01
    endloop
  endfacet
  facet normal -6.498344e-01 -6.159474e-01 -4.453359e-01
    outer loop
      vertex -1.557857e+02 5.532960e-02 -6.317850e+01
      vertex -1.579140e+02 -3.176162e-01 -5.955710e+01
      vertex -1.626253e+02 6.623126e+00 -6.228219e+01
    endloop
  endfacet
  facet normal -8.206831e-01 -2.595375e-01 -5.090379e-01
    outer loop
      vertex -1.554676e+02 -6.838000e+00 -6.017671e+01
      vertex -1.579140e+02 -3.176162e-01 -5.955710e+01
      vertex -1.557857e+02 5.532960e-02 -6.317850e+01
    endloop
  endfacet
  facet normal 4.952163e-01 -6.134658e-02 8.666011e-01
    outer loop
      vertex -1.503457e+02 1.543059e+01 -3.680010e+01
      vertex -1.594040e+02 6.649323e+00 -3.224543e+01
      vertex -1.593997e+02 4.250937e+00 -3.241762e+01
    endloop
  endfacet
  facet normal 2.368481e-01 1.822732e-01 9.542953e-01
    outer loop
      vertex -1.503457e+02 1.543059e+01 -3.680010e+01
      vertex -1.593997e+02 4.250937e+00 -3.241762e+01
      vertex -1.518231e+02 -1.113307e+00 -3.327350e+01
    endloop
  endfacet
  facet normal -6.193030e-02 7.136617e-02 -9.955257e-01
    outer loop
      vertex -1.557857e+02 5.532960e-02 -6.317850e+01
      vertex -1.626253e+02 6.623126e+00 -6.228219e+01
      vertex -1.631677e+02 8.884133e+00 -6.208636e+01
    endloop
  endfacet
  facet normal -6.193030e-02 7.136617e-02 -9.955257e-01
    outer loop
      vertex -1.593910e+02 9.209791e+00 -6.229796e+01
      vertex -1.557857e+02 5.532960e-02 -6.317850e+01
      vertex -1.631677e+02 8.884133e+00 -6.208636e+01
    endloop
  endfacet
  facet normal -6.193030e-02 7.136617e-02 -9.955257e-01
    outer loop
      vertex -1.632070e+02 1.918989e+01 -6.134513e+01
      vertex -1.593910e+02 9.209791e+00 -6.229796e+01
      vertex -1.631677e+02 8.884133e+00 -6.208636e+01
    endloop
  endfacet
  facet normal -2.545376e-02 8.577596e-02 -9.959893e-01
    outer loop
      vertex -1.461593e+02 1.040660e+01 -6.253305e+01
      vertex -1.557857e+02 5.532960e-02 -6.317850e+01
      vertex -1.593910e+02 9.209791e+00 -6.229796e+01
    endloop
  endfacet
  facet normal -6.872843e-02 -4.009698e-01 -9.135095e-01
    outer loop
      vertex -1.452656e+02 -2.130598e-01 -6.385218e+01
      vertex -1.554676e+02 -6.838000e+00 -6.017671e+01
      vertex -1.557857e+02 5.532960e-02 -6.317850e+01
    endloop
  endfacet
  facet normal -6.046070e-02 1.180310e-01 -9.911676e-01
    outer loop
      vertex -1.461593e+02 1.040660e+01 -6.253305e+01
      vertex -1.452656e+02 -2.130598e-01 -6.385218e+01
      vertex -1.557857e+02 5.532960e-02 -6.317850e+01
    endloop
  endfacet
  facet normal -6.193030e-02 7.136617e-02 -9.955257e-01
    outer loop
      vertex -1.595447e+02 1.971033e+01 -6.153565e+01
      vertex -1.447603e+02 2.411480e+01 -6.213962e+01
      vertex -1.593910e+02 9.209791e+00 -6.229796e+01
    endloop
  endfacet
  facet normal -2.053812e-02 3.077626e-02 -9.993153e-01
    outer loop
      vertex -1.461593e+02 1.040660e+01 -6.253305e+01
      vertex -1.593910e+02 9.209791e+00 -6.229796e+01
      vertex -1.447603e+02 2.411480e+01 -6.213962e+01
    endloop
  endfacet
  facet normal -6.193030e-02 7.136617e-02 -9.955257e-01
    outer loop
      vertex -1.632070e+02 1.918989e+01 -6.134513e+01
      vertex -1.595447e+02 1.971033e+01 -6.153565e+01
      vertex -1.593910e+02 9.209791e+00 -6.229796e+01
    endloop
  endfacet
  facet normal -6.193030e-02 7.136617e-02 -9.955257e-01
    outer loop
      vertex -1.419679e+02 2.714280e+01 -6.209627e+01
      vertex -1.355094e+02 2.059375e+01 -6.296752e+01
      vertex -1.447603e+02 2.411480e+01 -6.213962e+01
    endloop
  endfacet
  facet normal -7.536733e-02 3.629075e-02 -9.964952e-01
    outer loop
      vertex -1.461593e+02 1.040660e+01 -6.253305e+01
      vertex -1.447603e+02 2.411480e+01 -6.213962e+01
      vertex -1.355094e+02 2.059375e+01 -6.296752e+01
    endloop
  endfacet
  facet normal -6.193030e-02 7.136617e-02 -9.955257e-01
    outer loop
      vertex -1.548532e+02 2.771877e+01 -6.125340e+01
      vertex -1.419679e+02 2.714280e+01 -6.209627e+01
      vertex -1.447603e+02 2.411480e+01 -6.213962e+01
    endloop
  endfacet
  facet normal -6.193030e-02 7.136617e-02 -9.955257e-01
    outer loop
      vertex -1.595447e+02 1.971033e+01 -6.153565e+01
      vertex -1.548532e+02 2.771877e+01 -6.125340e+01
      vertex -1.447603e+02 2.411480e+01 -6.213962e+01
    endloop
  endfacet
  facet normal 2.995672e-01 4.100285e-01 -8.614732e-01
    outer loop
      vertex -1.370944e+02 3.110954e+01 -5.851355e+01
      vertex -1.355094e+02 2.059375e+01 -6.296752e+01
      vertex -1.419679e+02 2.714280e+01 -6.209627e+01
    endloop
  endfacet
  facet normal -1.072155e-01 6.978650e-02 -9.917836e-01
    outer loop
      vertex -1.352089e+02 1.016236e+01 -6.373401e+01
      vertex -1.461593e+02 1.040660e+01 -6.253305e+01
      vertex -1.355094e+02 2.059375e+01 -6.296752e+01
    endloop
  endfacet
  facet normal 3.963233e-01 7.863249e-02 -9.147376e-01
    outer loop
      vertex -1.283883e+02 1.971277e+01 -5.995794e+01
      vertex -1.352089e+02 1.016236e+01 -6.373401e+01
      vertex -1.355094e+02 2.059375e+01 -6.296752e+01
    endloop
  endfacet
  facet normal 9.599431e-01 2.654130e-02 2.789351e-01
    outer loop
      vertex -1.359286e+02 2.064803e+01 -6.153026e+01
      vertex -1.355094e+02 2.059375e+01 -6.296752e+01
      vertex -1.370944e+02 3.110954e+01 -5.851355e+01
    endloop
  endfacet
  facet normal -7.049994e-03 9.991832e-01 -3.978984e-02
    outer loop
      vertex -1.282428e+02 2.078758e+01 -5.938770e+01
      vertex -1.355094e+02 2.059375e+01 -6.296752e+01
      vertex -1.359286e+02 2.064803e+01 -6.153026e+01
    endloop
  endfacet
  facet normal 3.991713e-01 3.869465e-01 -8.312248e-01
    outer loop
      vertex -1.283883e+02 1.971277e+01 -5.995794e+01
      vertex -1.355094e+02 2.059375e+01 -6.296752e+01
      vertex -1.282428e+02 2.078758e+01 -5.938770e+01
    endloop
  endfacet
  facet normal -6.193030e-02 7.136617e-02 -9.955257e-01
    outer loop
      vertex -1.548532e+02 2.771877e+01 -6.125340e+01
      vertex -1.443248e+02 2.787947e+01 -6.189684e+01
      vertex -1.419679e+02 2.714280e+01 -6.209627e+01
    endloop
  endfacet
  facet normal 1.147279e-01 5.845155e-01 -8.032304e-01
    outer loop
      vertex -1.370944e+02 3.110954e+01 -5.851355e+01
      vertex -1.419679e+02 2.714280e+01 -6.209627e+01
      vertex -1.443248e+02 2.787947e+01 -6.189684e+01
    endloop
  endfacet
  facet normal -5.885192e-02 5.675457e-01 -8.212359e-01
    outer loop
      vertex -1.465699e+02 3.352122e+01 -5.783700e+01
      vertex -1.443248e+02 2.787947e+01 -6.189684e+01
      vertex -1.548532e+02 2.771877e+01 -6.125340e+01
    endloop
  endfacet
  facet normal 9.809102e-02 6.067000e-01 -7.888557e-01
    outer loop
      vertex -1.370944e+02 3.110954e+01 -5.851355e+01
      vertex -1.443248e+02 2.787947e+01 -6.189684e+01
      vertex -1.465699e+02 3.352122e+01 -5.783700e+01
    endloop
  endfacet
  facet normal -5.586499e-01 3.537052e-01 -7.502019e-01
    outer loop
      vertex -1.572645e+02 3.239659e+01 -5.725233e+01
      vertex -1.548532e+02 2.771877e+01 -6.125340e+01
      vertex -1.595447e+02 1.971033e+01 -6.153565e+01
    endloop
  endfacet
  facet normal -1.073017e-01 6.137237e-01 -7.821953e-01
    outer loop
      vertex -1.465699e+02 3.352122e+01 -5.783700e+01
      vertex -1.548532e+02 2.771877e+01 -6.125340e+01
      vertex -1.572645e+02 3.239659e+01 -5.725233e+01
    endloop
  endfacet
  facet normal -6.523597e-02 9.544500e-02 -9.932948e-01
    outer loop
      vertex -1.598544e+02 2.004384e+01 -6.148326e+01
      vertex -1.595447e+02 1.971033e+01 -6.153565e+01
      vertex -1.632070e+02 1.918989e+01 -6.134513e+01
    endloop
  endfacet
  facet normal 1.537875e-01 2.911637e-01 -9.442315e-01
    outer loop
      vertex -1.572645e+02 3.239659e+01 -5.725233e+01
      vertex -1.595447e+02 1.971033e+01 -6.153565e+01
      vertex -1.598544e+02 2.004384e+01 -6.148326e+01
    endloop
  endfacet
  facet normal 6.193030e-02 -7.136617e-02 9.955257e-01
    outer loop
      vertex -1.461644e+02 2.422618e+01 -3.180901e+01
      vertex -1.560704e+02 2.286081e+01 -3.129065e+01
      vertex -1.594040e+02 6.649323e+00 -3.224543e+01
    endloop
  endfacet
  facet normal 7.354384e-01 -5.633093e-01 3.765808e-01
    outer loop
      vertex -1.461644e+02 2.422618e+01 -3.180901e+01
      vertex -1.594040e+02 6.649323e+00 -3.224543e+01
      vertex -1.503457e+02 1.543059e+01 -3.680010e+01
    endloop
  endfacet
  facet normal 2.481716e-01 1.707371e-01 9.535511e-01
    outer loop
      vertex -1.472969e+02 3.435899e+01 -3.563284e+01
      vertex -1.609304e+02 3.391055e+01 -3.200428e+01
      vertex -1.560704e+02 2.286081e+01 -3.129065e+01
    endloop
  endfacet
  facet normal 2.894325e-04 3.530959e-01 9.355871e-01
    outer loop
      vertex -1.472969e+02 3.435899e+01 -3.563284e+01
      vertex -1.560704e+02 2.286081e+01 -3.129065e+01
      vertex -1.461644e+02 2.422618e+01 -3.180901e+01
    endloop
  endfacet
  facet normal -1.204059e-01 6.457340e-01 -7.540093e-01
    outer loop
      vertex -1.470412e+02 3.817242e+01 -5.393843e+01
      vertex -1.572645e+02 3.239659e+01 -5.725233e+01
      vertex -1.552705e+02 3.715016e+01 -5.349978e+01
    endloop
  endfacet
  facet normal -1.084187e-01 6.321149e-01 -7.672523e-01
    outer loop
      vertex -1.470412e+02 3.817242e+01 -5.393843e+01
      vertex -1.465699e+02 3.352122e+01 -5.783700e+01
      vertex -1.572645e+02 3.239659e+01 -5.725233e+01
    endloop
  endfacet
  facet normal 4.916557e-03 2.676043e-01 9.635163e-01
    outer loop
      vertex -1.472564e+02 4.419447e+01 -3.493029e+01
      vertex -1.576078e+02 4.250277e+01 -3.440762e+01
      vertex -1.609304e+02 3.391055e+01 -3.200428e+01
    endloop
  endfacet
  facet normal 2.587136e-01 -6.988338e-02 9.634229e-01
    outer loop
      vertex -1.472564e+02 4.419447e+01 -3.493029e+01
      vertex -1.609304e+02 3.391055e+01 -3.200428e+01
      vertex -1.472969e+02 3.435899e+01 -3.563284e+01
    endloop
  endfacet
  facet normal -2.762596e-01 5.521887e-01 -7.866183e-01
    outer loop
      vertex -1.552705e+02 3.715016e+01 -5.349978e+01
      vertex -1.620469e+02 3.404317e+01 -5.330096e+01
      vertex -1.571995e+02 4.186650e+01 -4.951155e+01
    endloop
  endfacet
  facet normal 1.966120e-01 6.787456e-01 -7.075649e-01
    outer loop
      vertex -1.465570e+02 4.340853e+01 -4.507508e+01
      vertex -1.552705e+02 3.715016e+01 -5.349978e+01
      vertex -1.571995e+02 4.186650e+01 -4.951155e+01
    endloop
  endfacet
  facet normal -1.233423e-01 9.849971e-01 -1.206952e-01
    outer loop
      vertex -1.467656e+02 4.453830e+01 -3.836964e+01
      vertex -1.571995e+02 4.186650e+01 -4.951155e+01
      vertex -1.574786e+02 4.331923e+01 -3.737061e+01
    endloop
  endfacet
  facet normal -7.245933e-02 9.831377e-01 -1.678987e-01
    outer loop
      vertex -1.467656e+02 4.453830e+01 -3.836964e+01
      vertex -1.465570e+02 4.340853e+01 -4.507508e+01
      vertex -1.571995e+02 4.186650e+01 -4.951155e+01
    endloop
  endfacet
  facet normal -1.329801e-01 8.565005e-01 -4.987215e-01
    outer loop
      vertex -1.470412e+02 3.817242e+01 -5.393843e+01
      vertex -1.552705e+02 3.715016e+01 -5.349978e+01
      vertex -1.465570e+02 4.340853e+01 -4.507508e+01
    endloop
  endfacet
  facet normal -1.432088e-01 9.557131e-01 2.571066e-01
    outer loop
      vertex -1.472564e+02 4.419447e+01 -3.493029e+01
      vertex -1.574786e+02 4.331923e+01 -3.737061e+01
      vertex -1.576078e+02 4.250277e+01 -3.440762e+01
    endloop
  endfacet
  facet normal -1.049191e-01 9.909193e-01 8.408913e-02
    outer loop
      vertex -1.472564e+02 4.419447e+01 -3.493029e+01
      vertex -1.467656e+02 4.453830e+01 -3.836964e+01
      vertex -1.574786e+02 4.331923e+01 -3.737061e+01
    endloop
  endfacet
  facet normal -1.185290e-01 -7.589958e-01 -6.402157e-01
    outer loop
      vertex -1.468274e+02 -1.227207e+01 -5.756794e+01
      vertex -1.468780e+02 -1.984146e+01 -4.858482e+01
      vertex -1.548065e+02 -1.149187e+01 -5.701565e+01
    endloop
  endfacet
  facet normal -1.130751e-01 -5.910477e-01 -7.986718e-01
    outer loop
      vertex -1.471548e+02 -8.502856e+00 -6.031094e+01
      vertex -1.468274e+02 -1.227207e+01 -5.756794e+01
      vertex -1.548065e+02 -1.149187e+01 -5.701565e+01
    endloop
  endfacet
  facet normal 1.122725e-01 -7.601922e-01 -6.399240e-01
    outer loop
      vertex -1.371888e+02 -1.801339e+01 -4.905652e+01
      vertex -1.468780e+02 -1.984146e+01 -4.858482e+01
      vertex -1.468274e+02 -1.227207e+01 -5.756794e+01
    endloop
  endfacet
  facet normal 1.429019e-01 -9.784333e-01 -1.491552e-01
    outer loop
      vertex -1.363775e+02 -1.954243e+01 -4.048620e+01
      vertex -1.467774e+02 -2.116708e+01 -3.979262e+01
      vertex -1.468780e+02 -1.984146e+01 -4.858482e+01
    endloop
  endfacet
  facet normal 1.731785e-01 -9.666157e-01 -1.888475e-01
    outer loop
      vertex -1.363775e+02 -1.954243e+01 -4.048620e+01
      vertex -1.468780e+02 -1.984146e+01 -4.858482e+01
      vertex -1.371888e+02 -1.801339e+01 -4.905652e+01
    endloop
  endfacet
  facet normal 1.294611e-01 -5.760894e-01 -8.070693e-01
    outer loop
      vertex -1.364627e+02 -9.334599e+00 -5.800214e+01
      vertex -1.468274e+02 -1.227207e+01 -5.756794e+01
      vertex -1.471548e+02 -8.502856e+00 -6.031094e+01
    endloop
  endfacet
  facet normal 2.903270e-01 -6.080337e-01 -7.389217e-01
    outer loop
      vertex -1.371127e+02 -1.685180e+01 -4.998248e+01
      vertex -1.371888e+02 -1.801339e+01 -4.905652e+01
      vertex -1.468274e+02 -1.227207e+01 -5.756794e+01
    endloop
  endfacet
  facet normal 1.776404e-01 -7.251319e-01 -6.653027e-01
    outer loop
      vertex -1.364627e+02 -9.334599e+00 -5.800214e+01
      vertex -1.371127e+02 -1.685180e+01 -4.998248e+01
      vertex -1.468274e+02 -1.227207e+01 -5.756794e+01
    endloop
  endfacet
  facet normal -1.251919e-01 -5.590120e-01 -8.196539e-01
    outer loop
      vertex -1.466760e+02 -7.893993e+00 -6.079933e+01
      vertex -1.471548e+02 -8.502856e+00 -6.031094e+01
      vertex -1.554676e+02 -6.838000e+00 -6.017671e+01
    endloop
  endfacet
  facet normal 1.060936e-01 -6.716133e-01 -7.332665e-01
    outer loop
      vertex -1.364627e+02 -9.334599e+00 -5.800214e+01
      vertex -1.471548e+02 -8.502856e+00 -6.031094e+01
      vertex -1.466760e+02 -7.893993e+00 -6.079933e+01
    endloop
  endfacet
  facet normal 4.443696e-02 -8.651309e-02 9.952592e-01
    outer loop
      vertex -1.468006e+02 -1.149585e+01 -3.895091e+01
      vertex -1.474971e+02 -1.069324e+01 -3.885005e+01
      vertex -1.467774e+02 -2.116708e+01 -3.979262e+01
    endloop
  endfacet
  facet normal 2.412249e-01 -7.052929e-02 9.679030e-01
    outer loop
      vertex -1.475622e+02 -2.100006e+01 -3.958486e+01
      vertex -1.467774e+02 -2.116708e+01 -3.979262e+01
      vertex -1.474971e+02 -1.069324e+01 -3.885005e+01
    endloop
  endfacet
  facet normal 6.192327e-02 -8.639071e-02 9.943350e-01
    outer loop
      vertex -1.356066e+02 -1.144619e+01 -3.964371e+01
      vertex -1.468006e+02 -1.149585e+01 -3.895091e+01
      vertex -1.467774e+02 -2.116708e+01 -3.979262e+01
    endloop
  endfacet
  facet normal 8.338385e-02 -1.109906e-01 9.903172e-01
    outer loop
      vertex -1.356066e+02 -1.144619e+01 -3.964371e+01
      vertex -1.467774e+02 -2.116708e+01 -3.979262e+01
      vertex -1.363775e+02 -1.954243e+01 -4.048620e+01
    endloop
  endfacet
  facet normal -1.316368e-01 -2.352502e-01 9.629793e-01
    outer loop
      vertex -1.331042e+02 -1.098435e+01 -3.695369e+01
      vertex -1.474971e+02 -1.069324e+01 -3.885005e+01
      vertex -1.468006e+02 -1.149585e+01 -3.895091e+01
    endloop
  endfacet
  facet normal 1.273379e-01 -4.554091e-01 8.811286e-01
    outer loop
      vertex -1.356755e+02 1.872296e+00 -3.406399e+01
      vertex -1.518231e+02 -1.113307e+00 -3.327350e+01
      vertex -1.474971e+02 -1.069324e+01 -3.885005e+01
    endloop
  endfacet
  facet normal -1.315497e-01 -2.423589e-01 9.612268e-01
    outer loop
      vertex -1.356755e+02 1.872296e+00 -3.406399e+01
      vertex -1.474971e+02 -1.069324e+01 -3.885005e+01
      vertex -1.331042e+02 -1.098435e+01 -3.695369e+01
    endloop
  endfacet
  facet normal 1.406557e-02 -9.875828e-01 1.564683e-01
    outer loop
      vertex -1.331042e+02 -1.098435e+01 -3.695369e+01
      vertex -1.468006e+02 -1.149585e+01 -3.895091e+01
      vertex -1.356066e+02 -1.144619e+01 -3.964371e+01
    endloop
  endfacet
  facet normal -1.079391e-01 -3.500162e-01 -9.305041e-01
    outer loop
      vertex -1.452656e+02 -2.130598e-01 -6.385218e+01
      vertex -1.466760e+02 -7.893993e+00 -6.079933e+01
      vertex -1.554676e+02 -6.838000e+00 -6.017671e+01
    endloop
  endfacet
  facet normal 5.050240e-02 -3.768760e-01 -9.248859e-01
    outer loop
      vertex -1.414993e+02 7.051000e-01 -6.402066e+01
      vertex -1.466760e+02 -7.893993e+00 -6.079933e+01
      vertex -1.452656e+02 -2.130598e-01 -6.385218e+01
    endloop
  endfacet
  facet normal 1.420916e-01 -5.674475e-01 -8.110569e-01
    outer loop
      vertex -1.382264e+02 -5.293349e+00 -6.113854e+01
      vertex -1.364627e+02 -9.334599e+00 -5.800214e+01
      vertex -1.466760e+02 -7.893993e+00 -6.079933e+01
    endloop
  endfacet
  facet normal 8.443748e-02 -3.937291e-01 -9.153402e-01
    outer loop
      vertex -1.414993e+02 7.051000e-01 -6.402066e+01
      vertex -1.382264e+02 -5.293349e+00 -6.113854e+01
      vertex -1.466760e+02 -7.893993e+00 -6.079933e+01
    endloop
  endfacet
  facet normal -1.058028e-01 1.138037e-01 -9.878535e-01
    outer loop
      vertex -1.352089e+02 1.016236e+01 -6.373401e+01
      vertex -1.452656e+02 -2.130598e-01 -6.385218e+01
      vertex -1.461593e+02 1.040660e+01 -6.253305e+01
    endloop
  endfacet
  facet normal -6.193030e-02 7.136617e-02 -9.955257e-01
    outer loop
      vertex -1.352089e+02 1.016236e+01 -6.373401e+01
      vertex -1.414993e+02 7.051000e-01 -6.402066e+01
      vertex -1.452656e+02 -2.130598e-01 -6.385218e+01
    endloop
  endfacet
  facet normal -1.545705e-01 2.191600e-01 9.633675e-01
    outer loop
      vertex -1.340864e+02 1.208671e+01 -3.343061e+01
      vertex -1.503457e+02 1.543059e+01 -3.680010e+01
      vertex -1.518231e+02 -1.113307e+00 -3.327350e+01
    endloop
  endfacet
  facet normal 6.193030e-02 -7.136617e-02 9.955257e-01
    outer loop
      vertex -1.340864e+02 1.208671e+01 -3.343061e+01
      vertex -1.518231e+02 -1.113307e+00 -3.327350e+01
      vertex -1.356755e+02 1.872296e+00 -3.406399e+01
    endloop
  endfacet
  facet normal 3.325942e-01 -5.800587e-01 7.435812e-01
    outer loop
      vertex -1.361530e+02 2.314560e+01 -3.712995e+01
      vertex -1.461644e+02 2.422618e+01 -3.180901e+01
      vertex -1.503457e+02 1.543059e+01 -3.680010e+01
    endloop
  endfacet
  facet normal -1.363238e-01 2.912678e-01 9.468785e-01
    outer loop
      vertex -1.361530e+02 2.314560e+01 -3.712995e+01
      vertex -1.503457e+02 1.543059e+01 -3.680010e+01
      vertex -1.340864e+02 1.208671e+01 -3.343061e+01
    endloop
  endfacet
  facet normal -1.692338e-01 3.313622e-01 9.282020e-01
    outer loop
      vertex -1.359313e+02 3.428130e+01 -3.353287e+01
      vertex -1.472969e+02 3.435899e+01 -3.563284e+01
      vertex -1.461644e+02 2.422618e+01 -3.180901e+01
    endloop
  endfacet
  facet normal 4.255001e-01 -2.858292e-01 8.586334e-01
    outer loop
      vertex -1.359313e+02 3.428130e+01 -3.353287e+01
      vertex -1.461644e+02 2.422618e+01 -3.180901e+01
      vertex -1.361530e+02 2.314560e+01 -3.712995e+01
    endloop
  endfacet
  facet normal 8.892571e-02 6.451089e-01 -7.588983e-01
    outer loop
      vertex -1.385339e+02 3.621180e+01 -5.460821e+01
      vertex -1.465699e+02 3.352122e+01 -5.783700e+01
      vertex -1.470412e+02 3.817242e+01 -5.393843e+01
    endloop
  endfacet
  facet normal 1.031221e-01 6.227476e-01 -7.755973e-01
    outer loop
      vertex -1.385339e+02 3.621180e+01 -5.460821e+01
      vertex -1.370944e+02 3.110954e+01 -5.851355e+01
      vertex -1.465699e+02 3.352122e+01 -5.783700e+01
    endloop
  endfacet
  facet normal -1.730387e-01 -6.946544e-02 9.824623e-01
    outer loop
      vertex -1.359471e+02 4.144053e+01 -3.313312e+01
      vertex -1.472564e+02 4.419447e+01 -3.493029e+01
      vertex -1.472969e+02 3.435899e+01 -3.563284e+01
    endloop
  endfacet
  facet normal -1.817771e-01 -5.522211e-02 9.817880e-01
    outer loop
      vertex -1.359471e+02 4.144053e+01 -3.313312e+01
      vertex -1.472969e+02 3.435899e+01 -3.563284e+01
      vertex -1.359313e+02 3.428130e+01 -3.353287e+01
    endloop
  endfacet
  facet normal 1.330913e-01 8.501223e-01 -5.094887e-01
    outer loop
      vertex -1.364270e+02 4.135681e+01 -4.585234e+01
      vertex -1.470412e+02 3.817242e+01 -5.393843e+01
      vertex -1.465570e+02 4.340853e+01 -4.507508e+01
    endloop
  endfacet
  facet normal 1.300118e-01 9.783868e-01 -1.607987e-01
    outer loop
      vertex -1.361308e+02 4.306807e+01 -3.871663e+01
      vertex -1.465570e+02 4.340853e+01 -4.507508e+01
      vertex -1.467656e+02 4.453830e+01 -3.836964e+01
    endloop
  endfacet
  facet normal 1.754178e-01 9.556731e-01 -2.364687e-01
    outer loop
      vertex -1.361308e+02 4.306807e+01 -3.871663e+01
      vertex -1.364270e+02 4.135681e+01 -4.585234e+01
      vertex -1.465570e+02 4.340853e+01 -4.507508e+01
    endloop
  endfacet
  facet normal 1.511211e-01 8.359574e-01 -5.275771e-01
    outer loop
      vertex -1.385339e+02 3.621180e+01 -5.460821e+01
      vertex -1.470412e+02 3.817242e+01 -5.393843e+01
      vertex -1.364270e+02 4.135681e+01 -4.585234e+01
    endloop
  endfacet
  facet normal 2.154874e-01 9.681429e-01 1.275322e-01
    outer loop
      vertex -1.359471e+02 4.144053e+01 -3.313312e+01
      vertex -1.467656e+02 4.453830e+01 -3.836964e+01
      vertex -1.472564e+02 4.419447e+01 -3.493029e+01
    endloop
  endfacet
  facet normal 1.404780e-01 9.517575e-01 2.728070e-01
    outer loop
      vertex -1.359471e+02 4.144053e+01 -3.313312e+01
      vertex -1.361308e+02 4.306807e+01 -3.871663e+01
      vertex -1.467656e+02 4.453830e+01 -3.836964e+01
    endloop
  endfacet
  facet normal 2.902182e-01 -6.080500e-01 -7.389510e-01
    outer loop
      vertex -1.301159e+02 -1.451881e+01 -4.915425e+01
      vertex -1.371888e+02 -1.801339e+01 -4.905652e+01
      vertex -1.371127e+02 -1.685180e+01 -4.998248e+01
    endloop
  endfacet
  facet normal 4.267441e-01 -8.824683e-01 -1.978363e-01
    outer loop
      vertex -1.287817e+02 -1.578068e+01 -4.088126e+01
      vertex -1.363775e+02 -1.954243e+01 -4.048620e+01
      vertex -1.371888e+02 -1.801339e+01 -4.905652e+01
    endloop
  endfacet
  facet normal 4.314222e-01 -8.788684e-01 -2.036301e-01
    outer loop
      vertex -1.287817e+02 -1.578068e+01 -4.088126e+01
      vertex -1.371888e+02 -1.801339e+01 -4.905652e+01
      vertex -1.301159e+02 -1.451881e+01 -4.915425e+01
    endloop
  endfacet
  facet normal 4.766413e-01 -6.603289e-01 -5.803264e-01
    outer loop
      vertex -1.306862e+02 -5.114971e+00 -5.805900e+01
      vertex -1.371127e+02 -1.685180e+01 -4.998248e+01
      vertex -1.364627e+02 -9.334599e+00 -5.800214e+01
    endloop
  endfacet
  facet normal 2.939345e-01 -6.458277e-01 -7.046340e-01
    outer loop
      vertex -1.306862e+02 -5.114971e+00 -5.805900e+01
      vertex -1.300926e+02 -1.436027e+01 -4.933766e+01
      vertex -1.371127e+02 -1.685180e+01 -4.998248e+01
    endloop
  endfacet
  facet normal 3.164778e-01 -7.372125e-01 -5.969585e-01
    outer loop
      vertex -1.301159e+02 -1.451881e+01 -4.915425e+01
      vertex -1.371127e+02 -1.685180e+01 -4.998248e+01
      vertex -1.300926e+02 -1.436027e+01 -4.933766e+01
    endloop
  endfacet
  facet normal 6.143346e-01 -2.986968e-01 -7.303240e-01
    outer loop
      vertex -1.355260e+02 -2.182865e-01 -6.094271e+01
      vertex -1.364627e+02 -9.334599e+00 -5.800214e+01
      vertex -1.382264e+02 -5.293349e+00 -6.113854e+01
    endloop
  endfacet
  facet normal 3.218793e-01 -3.204440e-01 -8.909037e-01
    outer loop
      vertex -1.262984e+02 6.443558e-01 -5.791909e+01
      vertex -1.364627e+02 -9.334599e+00 -5.800214e+01
      vertex -1.355260e+02 -2.182865e-01 -6.094271e+01
    endloop
  endfacet
  facet normal -6.193030e-02 7.136617e-02 -9.955257e-01
    outer loop
      vertex -1.262984e+02 6.443558e-01 -5.791909e+01
      vertex -1.306862e+02 -5.114971e+00 -5.805900e+01
      vertex -1.364627e+02 -9.334599e+00 -5.800214e+01
    endloop
  endfacet
  facet normal -7.320764e-01 -1.178095e-03 6.812215e-01
    outer loop
      vertex -1.331042e+02 -1.098435e+01 -3.695369e+01
      vertex -1.356066e+02 -1.144619e+01 -3.964371e+01
      vertex -1.363775e+02 -1.954243e+01 -4.048620e+01
    endloop
  endfacet
  facet normal -3.364375e-01 4.663726e-01 -8.181115e-01
    outer loop
      vertex -1.370797e+02 -1.945202e+01 -4.014587e+01
      vertex -1.331042e+02 -1.098435e+01 -3.695369e+01
      vertex -1.363775e+02 -1.954243e+01 -4.048620e+01
    endloop
  endfacet
  facet normal 4.352365e-01 -8.466971e-01 3.060607e-01
    outer loop
      vertex -1.280579e+02 -1.420209e+01 -3.754349e+01
      vertex -1.363775e+02 -1.954243e+01 -4.048620e+01
      vertex -1.287817e+02 -1.578068e+01 -4.088126e+01
    endloop
  endfacet
  facet normal 2.270997e-01 -7.169681e-01 6.590770e-01
    outer loop
      vertex -1.280579e+02 -1.420209e+01 -3.754349e+01
      vertex -1.370797e+02 -1.945202e+01 -4.014587e+01
      vertex -1.363775e+02 -1.954243e+01 -4.048620e+01
    endloop
  endfacet
  facet normal 4.258177e-01 -1.924561e-01 -8.841040e-01
    outer loop
      vertex -1.414993e+02 7.051000e-01 -6.402066e+01
      vertex -1.355260e+02 -2.182865e-01 -6.094271e+01
      vertex -1.382264e+02 -5.293349e+00 -6.113854e+01
    endloop
  endfacet
  facet normal 3.028163e-01 -5.748932e-01 -7.601316e-01
    outer loop
      vertex -1.262984e+02 6.443558e-01 -5.791909e+01
      vertex -1.355260e+02 -2.182865e-01 -6.094271e+01
      vertex -1.414993e+02 7.051000e-01 -6.402066e+01
    endloop
  endfacet
  facet normal 3.751307e-01 -2.222376e-01 -8.999374e-01
    outer loop
      vertex -1.275581e+02 1.063120e+01 -6.066062e+01
      vertex -1.414993e+02 7.051000e-01 -6.402066e+01
      vertex -1.352089e+02 1.016236e+01 -6.373401e+01
    endloop
  endfacet
  facet normal 3.072528e-01 -5.577932e-01 -7.710139e-01
    outer loop
      vertex -1.301249e+02 2.874042e+00 -6.105703e+01
      vertex -1.262984e+02 6.443558e-01 -5.791909e+01
      vertex -1.414993e+02 7.051000e-01 -6.402066e+01
    endloop
  endfacet
  facet normal 2.584239e-01 -3.617899e-02 -9.653539e-01
    outer loop
      vertex -1.275581e+02 1.063120e+01 -6.066062e+01
      vertex -1.301249e+02 2.874042e+00 -6.105703e+01
      vertex -1.414993e+02 7.051000e-01 -6.402066e+01
    endloop
  endfacet
  facet normal 4.380906e-01 -1.128298e-01 8.918218e-01
    outer loop
      vertex -1.250591e+02 6.691460e-01 -3.943135e+01
      vertex -1.356755e+02 1.872296e+00 -3.406399e+01
      vertex -1.331042e+02 -1.098435e+01 -3.695369e+01
    endloop
  endfacet
  facet normal 6.088926e-02 -3.770000e-01 9.242096e-01
    outer loop
      vertex -1.261258e+02 -1.090810e+01 -3.738235e+01
      vertex -1.331042e+02 -1.098435e+01 -3.695369e+01
      vertex -1.370797e+02 -1.945202e+01 -4.014587e+01
    endloop
  endfacet
  facet normal 5.859368e-02 1.687405e-01 9.839174e-01
    outer loop
      vertex -1.250591e+02 6.691460e-01 -3.943135e+01
      vertex -1.331042e+02 -1.098435e+01 -3.695369e+01
      vertex -1.261258e+02 -1.090810e+01 -3.738235e+01
    endloop
  endfacet
  facet normal 2.071230e-01 -9.261537e-02 9.739212e-01
    outer loop
      vertex -1.218384e+02 1.357135e+01 -3.589420e+01
      vertex -1.340864e+02 1.208671e+01 -3.343061e+01
      vertex -1.356755e+02 1.872296e+00 -3.406399e+01
    endloop
  endfacet
  facet normal 3.950311e-01 -3.333018e-01 8.560726e-01
    outer loop
      vertex -1.218384e+02 1.357135e+01 -3.589420e+01
      vertex -1.356755e+02 1.872296e+00 -3.406399e+01
      vertex -1.250591e+02 6.691460e-01 -3.943135e+01
    endloop
  endfacet
  facet normal 3.651533e-01 1.049554e-01 -9.250121e-01
    outer loop
      vertex -1.283883e+02 1.971277e+01 -5.995794e+01
      vertex -1.275581e+02 1.063120e+01 -6.066062e+01
      vertex -1.352089e+02 1.016236e+01 -6.373401e+01
    endloop
  endfacet
  facet normal 2.306729e-02 3.210237e-01 9.467902e-01
    outer loop
      vertex -1.214741e+02 1.828930e+01 -3.584098e+01
      vertex -1.361530e+02 2.314560e+01 -3.712995e+01
      vertex -1.340864e+02 1.208671e+01 -3.343061e+01
    endloop
  endfacet
  facet normal 2.002106e-01 -2.650779e-02 9.793942e-01
    outer loop
      vertex -1.214741e+02 1.828930e+01 -3.584098e+01
      vertex -1.340864e+02 1.208671e+01 -3.343061e+01
      vertex -1.218384e+02 1.357135e+01 -3.589420e+01
    endloop
  endfacet
  facet normal 2.920624e-01 -2.992417e-01 9.083799e-01
    outer loop
      vertex -1.249090e+02 3.445832e+01 -3.701845e+01
      vertex -1.359313e+02 3.428130e+01 -3.353287e+01
      vertex -1.361530e+02 2.314560e+01 -3.712995e+01
    endloop
  endfacet
  facet normal -6.826003e-02 5.802900e-02 9.959785e-01
    outer loop
      vertex -1.249090e+02 3.445832e+01 -3.701845e+01
      vertex -1.361530e+02 2.314560e+01 -3.712995e+01
      vertex -1.214741e+02 1.828930e+01 -3.584098e+01
    endloop
  endfacet
  facet normal 3.727314e-01 2.952166e-01 -8.797264e-01
    outer loop
      vertex -1.290494e+02 2.937012e+01 -5.568869e+01
      vertex -1.359286e+02 2.064803e+01 -6.153026e+01
      vertex -1.370944e+02 3.110954e+01 -5.851355e+01
    endloop
  endfacet
  facet normal 2.903126e-01 6.319311e-01 -7.185970e-01
    outer loop
      vertex -1.329595e+02 3.299429e+01 -5.518564e+01
      vertex -1.370944e+02 3.110954e+01 -5.851355e+01
      vertex -1.385339e+02 3.621180e+01 -5.460821e+01
    endloop
  endfacet
  facet normal 3.809363e-01 5.173590e-01 -7.663075e-01
    outer loop
      vertex -1.329595e+02 3.299429e+01 -5.518564e+01
      vertex -1.290494e+02 2.937012e+01 -5.568869e+01
      vertex -1.370944e+02 3.110954e+01 -5.851355e+01
    endloop
  endfacet
  facet normal 2.389372e-01 4.031843e-01 -8.833750e-01
    outer loop
      vertex -1.290494e+02 2.937012e+01 -5.568869e+01
      vertex -1.282428e+02 2.078758e+01 -5.938770e+01
      vertex -1.359286e+02 2.064803e+01 -6.153026e+01
    endloop
  endfacet
  facet normal 4.087795e-01 -4.997695e-02 9.112637e-01
    outer loop
      vertex -1.284696e+02 3.882656e+01 -3.663076e+01
      vertex -1.359471e+02 4.144053e+01 -3.313312e+01
      vertex -1.359313e+02 3.428130e+01 -3.353287e+01
    endloop
  endfacet
  facet normal 2.954673e-01 1.572120e-01 9.423287e-01
    outer loop
      vertex -1.284696e+02 3.882656e+01 -3.663076e+01
      vertex -1.359313e+02 3.428130e+01 -3.353287e+01
      vertex -1.249090e+02 3.445832e+01 -3.701845e+01
    endloop
  endfacet
  facet normal 3.397423e-01 7.729003e-01 -5.359108e-01
    outer loop
      vertex -1.285435e+02 3.808530e+01 -4.557279e+01
      vertex -1.385339e+02 3.621180e+01 -5.460821e+01
      vertex -1.364270e+02 4.135681e+01 -4.585234e+01
    endloop
  endfacet
  facet normal 4.422298e-01 8.678362e-01 -2.264798e-01
    outer loop
      vertex -1.281482e+02 3.891728e+01 -3.903479e+01
      vertex -1.364270e+02 4.135681e+01 -4.585234e+01
      vertex -1.361308e+02 4.306807e+01 -3.871663e+01
    endloop
  endfacet
  facet normal 3.837597e-01 9.128555e-01 -1.393678e-01
    outer loop
      vertex -1.281482e+02 3.891728e+01 -3.903479e+01
      vertex -1.285435e+02 3.808530e+01 -4.557279e+01
      vertex -1.364270e+02 4.135681e+01 -4.585234e+01
    endloop
  endfacet
  facet normal 3.691718e-01 7.404001e-01 -5.617116e-01
    outer loop
      vertex -1.329595e+02 3.299429e+01 -5.518564e+01
      vertex -1.385339e+02 3.621180e+01 -5.460821e+01
      vertex -1.285435e+02 3.808530e+01 -4.557279e+01
    endloop
  endfacet
  facet normal 4.189126e-01 8.753571e-01 2.413756e-01
    outer loop
      vertex -1.284696e+02 3.882656e+01 -3.663076e+01
      vertex -1.361308e+02 4.306807e+01 -3.871663e+01
      vertex -1.359471e+02 4.144053e+01 -3.313312e+01
    endloop
  endfacet
  facet normal 4.622286e-01 8.816493e-01 9.507533e-02
    outer loop
      vertex -1.284696e+02 3.882656e+01 -3.663076e+01
      vertex -1.281482e+02 3.891728e+01 -3.903479e+01
      vertex -1.361308e+02 4.306807e+01 -3.871663e+01
    endloop
  endfacet
  facet normal 4.713159e-01 -5.889974e-01 -6.564628e-01
    outer loop
      vertex -1.306862e+02 -5.114971e+00 -5.805900e+01
      vertex -1.252177e+02 -1.053988e+01 -4.926547e+01
      vertex -1.300926e+02 -1.436027e+01 -4.933766e+01
    endloop
  endfacet
  facet normal 5.342319e-01 -6.719919e-01 -5.128579e-01
    outer loop
      vertex -1.301159e+02 -1.451881e+01 -4.915425e+01
      vertex -1.300926e+02 -1.436027e+01 -4.933766e+01
      vertex -1.252177e+02 -1.053988e+01 -4.926547e+01
    endloop
  endfacet
  facet normal 5.769603e-01 -4.843967e-01 -6.576296e-01
    outer loop
      vertex -1.215996e+02 -6.217970e+00 -4.927456e+01
      vertex -1.252177e+02 -1.053988e+01 -4.926547e+01
      vertex -1.306862e+02 -5.114971e+00 -5.805900e+01
    endloop
  endfacet
  facet normal 6.540055e-02 -5.265627e-02 9.964688e-01
    outer loop
      vertex -1.215996e+02 -6.217970e+00 -4.927456e+01
      vertex -1.301159e+02 -1.451881e+01 -4.915425e+01
      vertex -1.252177e+02 -1.053988e+01 -4.926547e+01
    endloop
  endfacet
  facet normal 6.193030e-02 -7.136617e-02 9.955257e-01
    outer loop
      vertex -1.248895e+02 3.548578e+00 -5.779854e+01
      vertex -1.306862e+02 -5.114971e+00 -5.805900e+01
      vertex -1.262984e+02 6.443558e-01 -5.791909e+01
    endloop
  endfacet
  facet normal 6.148254e-01 -3.907775e-01 -6.850421e-01
    outer loop
      vertex -1.248895e+02 3.548578e+00 -5.779854e+01
      vertex -1.215996e+02 -6.217970e+00 -4.927456e+01
      vertex -1.306862e+02 -5.114971e+00 -5.805900e+01
    endloop
  endfacet
  facet normal 6.043280e-01 -7.673182e-01 -2.145005e-01
    outer loop
      vertex -1.243226e+02 -1.226173e+01 -4.090639e+01
      vertex -1.287817e+02 -1.578068e+01 -4.088126e+01
      vertex -1.301159e+02 -1.451881e+01 -4.915425e+01
    endloop
  endfacet
  facet normal 6.506140e-01 -6.726160e-01 -3.525466e-01
    outer loop
      vertex -1.215996e+02 -6.217970e+00 -4.927456e+01
      vertex -1.244777e+02 -1.208354e+01 -4.339520e+01
      vertex -1.301159e+02 -1.451881e+01 -4.915425e+01
    endloop
  endfacet
  facet normal 4.726988e-01 -8.763879e-01 -9.219620e-02
    outer loop
      vertex -1.243226e+02 -1.226173e+01 -4.090639e+01
      vertex -1.301159e+02 -1.451881e+01 -4.915425e+01
      vertex -1.244777e+02 -1.208354e+01 -4.339520e+01
    endloop
  endfacet
  facet normal 6.010152e-01 -6.557273e-01 4.569490e-01
    outer loop
      vertex -1.244126e+02 -1.139652e+01 -4.033652e+01
      vertex -1.261258e+02 -1.090810e+01 -3.738235e+01
      vertex -1.287817e+02 -1.578068e+01 -4.088126e+01
    endloop
  endfacet
  facet normal 8.601968e-01 -5.071667e-01 5.332424e-02
    outer loop
      vertex -1.280579e+02 -1.420209e+01 -3.754349e+01
      vertex -1.287817e+02 -1.578068e+01 -4.088126e+01
      vertex -1.261258e+02 -1.090810e+01 -3.738235e+01
    endloop
  endfacet
  facet normal 7.073581e-01 -7.067099e-01 1.433840e-02
    outer loop
      vertex -1.198443e+02 -6.831695e+00 -4.071230e+01
      vertex -1.244126e+02 -1.139652e+01 -4.033652e+01
      vertex -1.287817e+02 -1.578068e+01 -4.088126e+01
    endloop
  endfacet
  facet normal 9.584122e-02 -1.143851e-01 9.888026e-01
    outer loop
      vertex -1.243226e+02 -1.226173e+01 -4.090639e+01
      vertex -1.198443e+02 -6.831695e+00 -4.071230e+01
      vertex -1.287817e+02 -1.578068e+01 -4.088126e+01
    endloop
  endfacet
  facet normal -3.619610e-01 1.674498e-01 9.170304e-01
    outer loop
      vertex -1.280579e+02 -1.420209e+01 -3.754349e+01
      vertex -1.261258e+02 -1.090810e+01 -3.738235e+01
      vertex -1.370797e+02 -1.945202e+01 -4.014587e+01
    endloop
  endfacet
  facet normal 8.656635e-01 8.829410e-03 5.005485e-01
    outer loop
      vertex -1.250591e+02 6.691460e-01 -3.943135e+01
      vertex -1.261258e+02 -1.090810e+01 -3.738235e+01
      vertex -1.244126e+02 -1.139652e+01 -4.033652e+01
    endloop
  endfacet
  facet normal 6.193030e-02 -7.136617e-02 9.955257e-01
    outer loop
      vertex -1.243626e+02 -1.334618e-01 -3.953222e+01
      vertex -1.250591e+02 6.691460e-01 -3.943135e+01
      vertex -1.244126e+02 -1.139652e+01 -4.033652e+01
    endloop
  endfacet
  facet normal 1.094109e-01 -7.128513e-02 9.914372e-01
    outer loop
      vertex -1.159852e+02 8.475094e-01 -4.038618e+01
      vertex -1.243626e+02 -1.334618e-01 -3.953222e+01
      vertex -1.244126e+02 -1.139652e+01 -4.033652e+01
    endloop
  endfacet
  facet normal 2.397968e-01 -1.611665e-01 9.573520e-01
    outer loop
      vertex -1.159852e+02 8.475094e-01 -4.038618e+01
      vertex -1.244126e+02 -1.139652e+01 -4.033652e+01
      vertex -1.198443e+02 -6.831695e+00 -4.071230e+01
    endloop
  endfacet
  facet normal 5.816000e-01 -1.316410e-01 -8.027528e-01
    outer loop
      vertex -1.269651e+02 1.129062e+01 -6.014799e+01
      vertex -1.262984e+02 6.443558e-01 -5.791909e+01
      vertex -1.301249e+02 2.874042e+00 -6.105703e+01
    endloop
  endfacet
  facet normal 5.873108e-01 -1.304515e-01 -7.987793e-01
    outer loop
      vertex -1.231482e+02 1.133468e+01 -5.734870e+01
      vertex -1.262984e+02 6.443558e-01 -5.791909e+01
      vertex -1.269651e+02 1.129062e+01 -6.014799e+01
    endloop
  endfacet
  facet normal -6.193030e-02 7.136617e-02 -9.955257e-01
    outer loop
      vertex -1.231482e+02 1.133468e+01 -5.734870e+01
      vertex -1.248895e+02 3.548578e+00 -5.779854e+01
      vertex -1.262984e+02 6.443558e-01 -5.791909e+01
    endloop
  endfacet
  facet normal 6.193030e-02 -7.136617e-02 9.955257e-01
    outer loop
      vertex -1.243626e+02 -1.334618e-01 -3.953222e+01
      vertex -1.162203e+02 1.526420e+00 -3.991974e+01
      vertex -1.250591e+02 6.691460e-01 -3.943135e+01
    endloop
  endfacet
  facet normal 8.108684e-02 -2.933551e-01 9.525585e-01
    outer loop
      vertex -1.159007e+02 1.346110e+01 -3.627148e+01
      vertex -1.250591e+02 6.691460e-01 -3.943135e+01
      vertex -1.162203e+02 1.526420e+00 -3.991974e+01
    endloop
  endfacet
  facet normal 5.581021e-02 -2.769166e-01 9.592718e-01
    outer loop
      vertex -1.159007e+02 1.346110e+01 -3.627148e+01
      vertex -1.218384e+02 1.357135e+01 -3.589420e+01
      vertex -1.250591e+02 6.691460e-01 -3.943135e+01
    endloop
  endfacet
  facet normal 1.469345e-01 -5.250504e-01 8.382913e-01
    outer loop
      vertex -1.159852e+02 8.475094e-01 -4.038618e+01
      vertex -1.162203e+02 1.526420e+00 -3.991974e+01
      vertex -1.243626e+02 -1.334618e-01 -3.953222e+01
    endloop
  endfacet
  facet normal 6.961938e-01 -2.268384e-01 6.810716e-01
    outer loop
      vertex -1.159007e+02 1.346110e+01 -3.627148e+01
      vertex -1.162203e+02 1.526420e+00 -3.991974e+01
      vertex -1.159852e+02 8.475094e-01 -4.038618e+01
    endloop
  endfacet
  facet normal 7.676756e-01 -2.233238e-01 -6.006668e-01
    outer loop
      vertex -1.275581e+02 1.063120e+01 -6.066062e+01
      vertex -1.269651e+02 1.129062e+01 -6.014799e+01
      vertex -1.301249e+02 2.874042e+00 -6.105703e+01
    endloop
  endfacet
  facet normal 5.537216e-01 1.402038e-01 -8.208138e-01
    outer loop
      vertex -1.282428e+02 2.078758e+01 -5.938770e+01
      vertex -1.269651e+02 1.129062e+01 -6.014799e+01
      vertex -1.275581e+02 1.063120e+01 -6.066062e+01
    endloop
  endfacet
  facet normal 5.515760e-01 1.400331e-01 -8.222862e-01
    outer loop
      vertex -1.239383e+02 1.955461e+01 -5.671029e+01
      vertex -1.269651e+02 1.129062e+01 -6.014799e+01
      vertex -1.282428e+02 2.078758e+01 -5.938770e+01
    endloop
  endfacet
  facet normal 5.863211e-01 1.185979e-01 -8.013502e-01
    outer loop
      vertex -1.239383e+02 1.955461e+01 -5.671029e+01
      vertex -1.231482e+02 1.133468e+01 -5.734870e+01
      vertex -1.269651e+02 1.129062e+01 -6.014799e+01
    endloop
  endfacet
  facet normal 8.882219e-01 1.156066e-01 -4.446312e-01
    outer loop
      vertex -1.283883e+02 1.971277e+01 -5.995794e+01
      vertex -1.282428e+02 2.078758e+01 -5.938770e+01
      vertex -1.275581e+02 1.063120e+01 -6.066062e+01
    endloop
  endfacet
  facet normal 1.535561e-02 -1.246513e-02 9.998044e-01
    outer loop
      vertex -1.168845e+02 1.835963e+01 -3.591059e+01
      vertex -1.214741e+02 1.828930e+01 -3.584098e+01
      vertex -1.218384e+02 1.357135e+01 -3.589420e+01
    endloop
  endfacet
  facet normal 6.216767e-02 -6.090835e-02 9.962055e-01
    outer loop
      vertex -1.168845e+02 1.835963e+01 -3.591059e+01
      vertex -1.218384e+02 1.357135e+01 -3.589420e+01
      vertex -1.159007e+02 1.346110e+01 -3.627148e+01
    endloop
  endfacet
  facet normal 7.805503e-01 3.078364e-01 -5.440386e-01
    outer loop
      vertex -1.290494e+02 2.937012e+01 -5.568869e+01
      vertex -1.246124e+02 3.316701e+01 -4.717441e+01
      vertex -1.282428e+02 2.078758e+01 -5.938770e+01
    endloop
  endfacet
  facet normal 9.154216e-01 1.127449e-01 -3.863830e-01
    outer loop
      vertex -1.246748e+02 2.235575e+01 -5.047688e+01
      vertex -1.282428e+02 2.078758e+01 -5.938770e+01
      vertex -1.246124e+02 3.316701e+01 -4.717441e+01
    endloop
  endfacet
  facet normal 2.461241e-01 9.329487e-01 -2.627349e-01
    outer loop
      vertex -1.168547e+02 2.112663e+01 -4.751565e+01
      vertex -1.282428e+02 2.078758e+01 -5.938770e+01
      vertex -1.246748e+02 2.235575e+01 -5.047688e+01
    endloop
  endfacet
  facet normal 5.162387e-01 6.844977e-01 -5.147432e-01
    outer loop
      vertex -1.239383e+02 1.955461e+01 -5.671029e+01
      vertex -1.282428e+02 2.078758e+01 -5.938770e+01
      vertex -1.168547e+02 2.112663e+01 -4.751565e+01
    endloop
  endfacet
  facet normal 2.358630e-01 1.203290e-01 9.643078e-01
    outer loop
      vertex -1.202268e+02 3.018840e+01 -3.763086e+01
      vertex -1.249090e+02 3.445832e+01 -3.701845e+01
      vertex -1.214741e+02 1.828930e+01 -3.584098e+01
    endloop
  endfacet
  facet normal 1.274138e-02 1.474298e-01 9.889905e-01
    outer loop
      vertex -1.202268e+02 3.018840e+01 -3.763086e+01
      vertex -1.214741e+02 1.828930e+01 -3.584098e+01
      vertex -1.168845e+02 1.835963e+01 -3.591059e+01
    endloop
  endfacet
  facet normal 5.472540e-01 6.203671e-01 -5.618343e-01
    outer loop
      vertex -1.285435e+02 3.808530e+01 -4.557279e+01
      vertex -1.246124e+02 3.316701e+01 -4.717441e+01
      vertex -1.290494e+02 2.937012e+01 -5.568869e+01
    endloop
  endfacet
  facet normal 3.511887e-01 2.716782e-01 -8.960232e-01
    outer loop
      vertex -1.202326e+02 2.891415e+01 -4.674725e+01
      vertex -1.246748e+02 2.235575e+01 -5.047688e+01
      vertex -1.246124e+02 3.316701e+01 -4.717441e+01
    endloop
  endfacet
  facet normal 3.758275e-01 5.445612e-01 -7.498044e-01
    outer loop
      vertex -1.245698e+02 3.466483e+01 -4.606519e+01
      vertex -1.246124e+02 3.316701e+01 -4.717441e+01
      vertex -1.285435e+02 3.808530e+01 -4.557279e+01
    endloop
  endfacet
  facet normal 5.423307e-01 4.899739e-01 -6.824976e-01
    outer loop
      vertex -1.245698e+02 3.466483e+01 -4.606519e+01
      vertex -1.202326e+02 2.891415e+01 -4.674725e+01
      vertex -1.246124e+02 3.316701e+01 -4.717441e+01
    endloop
  endfacet
  facet normal 5.157863e-01 6.361343e-01 -5.738446e-01
    outer loop
      vertex -1.329595e+02 3.299429e+01 -5.518564e+01
      vertex -1.285435e+02 3.808530e+01 -4.557279e+01
      vertex -1.290494e+02 2.937012e+01 -5.568869e+01
    endloop
  endfacet
  facet normal 3.770677e-01 2.515103e-01 -8.913823e-01
    outer loop
      vertex -1.202326e+02 2.891415e+01 -4.674725e+01
      vertex -1.168547e+02 2.112663e+01 -4.751565e+01
      vertex -1.246748e+02 2.235575e+01 -5.047688e+01
    endloop
  endfacet
  facet normal 3.133457e-01 1.725393e-01 9.338333e-01
    outer loop
      vertex -1.241950e+02 3.557094e+01 -3.746360e+01
      vertex -1.284696e+02 3.882656e+01 -3.663076e+01
      vertex -1.249090e+02 3.445832e+01 -3.701845e+01
    endloop
  endfacet
  facet normal 2.931656e-01 1.869948e-01 9.375963e-01
    outer loop
      vertex -1.241950e+02 3.557094e+01 -3.746360e+01
      vertex -1.249090e+02 3.445832e+01 -3.701845e+01
      vertex -1.202268e+02 3.018840e+01 -3.763086e+01
    endloop
  endfacet
  facet normal 6.512405e-01 7.468716e-01 -1.344191e-01
    outer loop
      vertex -1.237515e+02 3.511099e+01 -3.888244e+01
      vertex -1.285435e+02 3.808530e+01 -4.557279e+01
      vertex -1.281482e+02 3.891728e+01 -3.903479e+01
    endloop
  endfacet
  facet normal 6.390763e-01 7.597259e-01 -1.199919e-01
    outer loop
      vertex -1.245698e+02 3.466483e+01 -4.606519e+01
      vertex -1.285435e+02 3.808530e+01 -4.557279e+01
      vertex -1.237515e+02 3.511099e+01 -3.888244e+01
    endloop
  endfacet
  facet normal 6.157867e-01 7.799450e-01 1.117695e-01
    outer loop
      vertex -1.241950e+02 3.557094e+01 -3.746360e+01
      vertex -1.281482e+02 3.891728e+01 -3.903479e+01
      vertex -1.284696e+02 3.882656e+01 -3.663076e+01
    endloop
  endfacet
  facet normal 6.547903e-01 7.547500e-01 -4.002650e-02
    outer loop
      vertex -1.241950e+02 3.557094e+01 -3.746360e+01
      vertex -1.237515e+02 3.511099e+01 -3.888244e+01
      vertex -1.281482e+02 3.891728e+01 -3.903479e+01
    endloop
  endfacet
  facet normal 7.833769e-01 -5.875644e-01 -2.027034e-01
    outer loop
      vertex -1.215996e+02 -6.217970e+00 -4.927456e+01
      vertex -1.198443e+02 -6.831695e+00 -4.071230e+01
      vertex -1.244777e+02 -1.208354e+01 -4.339520e+01
    endloop
  endfacet
  facet normal 7.697561e-01 -6.315019e-01 -9.317179e-02
    outer loop
      vertex -1.243226e+02 -1.226173e+01 -4.090639e+01
      vertex -1.244777e+02 -1.208354e+01 -4.339520e+01
      vertex -1.198443e+02 -6.831695e+00 -4.071230e+01
    endloop
  endfacet
  facet normal 8.770113e-01 -4.317904e-01 -2.107324e-01
    outer loop
      vertex -1.159852e+02 8.475094e-01 -4.038618e+01
      vertex -1.198443e+02 -6.831695e+00 -4.071230e+01
      vertex -1.215996e+02 -6.217970e+00 -4.927456e+01
    endloop
  endfacet
  facet normal 6.861545e-01 -3.332353e-01 -6.466422e-01
    outer loop
      vertex -1.248895e+02 3.548578e+00 -5.779854e+01
      vertex -1.174109e+02 1.637617e+00 -4.887816e+01
      vertex -1.215996e+02 -6.217970e+00 -4.927456e+01
    endloop
  endfacet
  facet normal 8.705042e-01 -4.546536e-01 -1.884479e-01
    outer loop
      vertex -1.159852e+02 8.475094e-01 -4.038618e+01
      vertex -1.215996e+02 -6.217970e+00 -4.927456e+01
      vertex -1.174109e+02 1.637617e+00 -4.887816e+01
    endloop
  endfacet
  facet normal 7.511156e-01 -1.038156e-01 -6.519568e-01
    outer loop
      vertex -1.156319e+02 1.099246e+01 -4.831821e+01
      vertex -1.174109e+02 1.637617e+00 -4.887816e+01
      vertex -1.248895e+02 3.548578e+00 -5.779854e+01
    endloop
  endfacet
  facet normal 9.695792e-01 -1.676255e-01 -1.783758e-01
    outer loop
      vertex -1.140875e+02 1.123094e+01 -3.982888e+01
      vertex -1.159852e+02 8.475094e-01 -4.038618e+01
      vertex -1.174109e+02 1.637617e+00 -4.887816e+01
    endloop
  endfacet
  facet normal 9.696710e-01 -1.741364e-01 -1.715072e-01
    outer loop
      vertex -1.140875e+02 1.123094e+01 -3.982888e+01
      vertex -1.174109e+02 1.637617e+00 -4.887816e+01
      vertex -1.156319e+02 1.099246e+01 -4.831821e+01
    endloop
  endfacet
  facet normal 7.592894e-01 -1.330107e-01 -6.370148e-01
    outer loop
      vertex -1.231482e+02 1.133468e+01 -5.734870e+01
      vertex -1.156319e+02 1.099246e+01 -4.831821e+01
      vertex -1.248895e+02 3.548578e+00 -5.779854e+01
    endloop
  endfacet
  facet normal 8.263110e-01 -1.796651e-01 5.337890e-01
    outer loop
      vertex -1.159007e+02 1.346110e+01 -3.627148e+01
      vertex -1.159852e+02 8.475094e-01 -4.038618e+01
      vertex -1.140875e+02 1.123094e+01 -3.982888e+01
    endloop
  endfacet
  facet normal 7.634522e-01 1.420165e-01 -6.300572e-01
    outer loop
      vertex -1.168547e+02 2.112663e+01 -4.751565e+01
      vertex -1.156319e+02 1.099246e+01 -4.831821e+01
      vertex -1.231482e+02 1.133468e+01 -5.734870e+01
    endloop
  endfacet
  facet normal 9.714768e-01 1.531694e-01 -1.810301e-01
    outer loop
      vertex -1.155700e+02 2.158388e+01 -3.902459e+01
      vertex -1.140875e+02 1.123094e+01 -3.982888e+01
      vertex -1.156319e+02 1.099246e+01 -4.831821e+01
    endloop
  endfacet
  facet normal 9.792348e-01 1.304468e-01 -1.551862e-01
    outer loop
      vertex -1.155700e+02 2.158388e+01 -3.902459e+01
      vertex -1.156319e+02 1.099246e+01 -4.831821e+01
      vertex -1.168547e+02 2.112663e+01 -4.751565e+01
    endloop
  endfacet
  facet normal 7.759456e-01 1.226445e-01 -6.187623e-01
    outer loop
      vertex -1.239383e+02 1.955461e+01 -5.671029e+01
      vertex -1.168547e+02 2.112663e+01 -4.751565e+01
      vertex -1.231482e+02 1.133468e+01 -5.734870e+01
    endloop
  endfacet
  facet normal 9.162373e-01 1.568622e-01 3.686508e-01
    outer loop
      vertex -1.168845e+02 1.835963e+01 -3.591059e+01
      vertex -1.159007e+02 1.346110e+01 -3.627148e+01
      vertex -1.140875e+02 1.123094e+01 -3.982888e+01
    endloop
  endfacet
  facet normal 8.807392e-01 8.999051e-02 4.649734e-01
    outer loop
      vertex -1.168845e+02 1.835963e+01 -3.591059e+01
      vertex -1.140875e+02 1.123094e+01 -3.982888e+01
      vertex -1.155700e+02 2.158388e+01 -3.902459e+01
    endloop
  endfacet
  facet normal 8.948333e-01 4.175504e-01 -1.578768e-01
    outer loop
      vertex -1.191900e+02 2.944163e+01 -3.876076e+01
      vertex -1.155700e+02 2.158388e+01 -3.902459e+01
      vertex -1.168547e+02 2.112663e+01 -4.751565e+01
    endloop
  endfacet
  facet normal 9.024809e-01 4.057293e-01 -1.446097e-01
    outer loop
      vertex -1.202326e+02 2.891415e+01 -4.674725e+01
      vertex -1.191900e+02 2.944163e+01 -3.876076e+01
      vertex -1.168547e+02 2.112663e+01 -4.751565e+01
    endloop
  endfacet
  facet normal 7.308979e-01 2.959572e-01 6.149777e-01
    outer loop
      vertex -1.202268e+02 3.018840e+01 -3.763086e+01
      vertex -1.168845e+02 1.835963e+01 -3.591059e+01
      vertex -1.155700e+02 2.158388e+01 -3.902459e+01
    endloop
  endfacet
  facet normal 7.939390e-01 3.490528e-01 4.978183e-01
    outer loop
      vertex -1.202268e+02 3.018840e+01 -3.763086e+01
      vertex -1.155700e+02 2.158388e+01 -3.902459e+01
      vertex -1.191900e+02 2.944163e+01 -3.876076e+01
    endloop
  endfacet
  facet normal 7.727388e-01 6.186962e-01 -1.417382e-01
    outer loop
      vertex -1.237515e+02 3.511099e+01 -3.888244e+01
      vertex -1.191900e+02 2.944163e+01 -3.876076e+01
      vertex -1.202326e+02 2.891415e+01 -4.674725e+01
    endloop
  endfacet
  facet normal 7.632462e-01 5.522664e-01 3.353462e-01
    outer loop
      vertex -1.241950e+02 3.557094e+01 -3.746360e+01
      vertex -1.202268e+02 3.018840e+01 -3.763086e+01
      vertex -1.191900e+02 2.944163e+01 -3.876076e+01
    endloop
  endfacet
  facet normal 7.780799e-01 6.268934e-01 3.995463e-02
    outer loop
      vertex -1.241950e+02 3.557094e+01 -3.746360e+01
      vertex -1.191900e+02 2.944163e+01 -3.876076e+01
      vertex -1.237515e+02 3.511099e+01 -3.888244e+01
    endloop
  endfacet
  facet normal 7.846110e-01 6.068261e-01 -1.270736e-01
    outer loop
      vertex -1.245698e+02 3.466483e+01 -4.606519e+01
      vertex -1.237515e+02 3.511099e+01 -3.888244e+01
      vertex -1.202326e+02 2.891415e+01 -4.674725e+01
    endloop
  endfacet
endsolid SIM_ICUB3_L_SHOULDER_3
