solid SIM_ICUB3_R_SHOULDER_3
  facet normal -8.796581e-01 -4.220186e-01 -2.193214e-01
    outer loop
      vertex 1.192384e+02 -6.019101e+00 -4.077515e+01
      vertex 1.160553e+02 7.361815e-01 -4.100663e+01
      vertex 1.211817e+02 -5.706795e+00 -4.917008e+01
    endloop
  endfacet
  facet normal -8.733742e-01 -4.455004e-01 -1.968424e-01
    outer loop
      vertex 1.175017e+02 1.383994e+00 -4.889069e+01
      vertex 1.211817e+02 -5.706795e+00 -4.917008e+01
      vertex 1.160553e+02 7.361815e-01 -4.100663e+01
    endloop
  endfacet
  facet normal -7.783684e-01 -5.943260e-01 -2.022852e-01
    outer loop
      vertex 1.229393e+02 -1.069293e+01 -4.128371e+01
      vertex 1.192384e+02 -6.019101e+00 -4.077515e+01
      vertex 1.211817e+02 -5.706795e+00 -4.917008e+01
    endloop
  endfacet
  facet normal -3.238293e-01 -1.311388e-01 -9.369830e-01
    outer loop
      vertex 1.213748e+02 -1.332807e+00 -4.984900e+01
      vertex 1.211817e+02 -5.706795e+00 -4.917008e+01
      vertex 1.175017e+02 1.383994e+00 -4.889069e+01
    endloop
  endfacet
  facet normal -7.692028e-01 -6.034735e-01 -2.101114e-01
    outer loop
      vertex 1.243625e+02 -9.729678e+00 -4.926059e+01
      vertex 1.229393e+02 -1.069293e+01 -4.128371e+01
      vertex 1.211817e+02 -5.706795e+00 -4.917008e+01
    endloop
  endfacet
  facet normal -2.061241e-01 -1.411946e-01 -9.682856e-01
    outer loop
      vertex 1.213748e+02 -1.332807e+00 -4.984900e+01
      vertex 1.243625e+02 -9.729678e+00 -4.926059e+01
      vertex 1.211817e+02 -5.706795e+00 -4.917008e+01
    endloop
  endfacet
  facet normal -8.567623e-01 -3.922414e-01 3.348210e-01
    outer loop
      vertex 1.162757e+02 1.151467e+00 -3.995605e+01
      vertex 1.160553e+02 7.361815e-01 -4.100663e+01
      vertex 1.192384e+02 -6.019101e+00 -4.077515e+01
    endloop
  endfacet
  facet normal -9.619898e-01 -1.937813e-01 -1.924174e-01
    outer loop
      vertex 1.142408e+02 9.971777e+00 -4.123642e+01
      vertex 1.175017e+02 1.383994e+00 -4.889069e+01
      vertex 1.160553e+02 7.361815e-01 -4.100663e+01
    endloop
  endfacet
  facet normal -9.427697e-01 -1.910015e-01 2.733197e-01
    outer loop
      vertex 1.145398e+02 1.053688e+01 -3.938511e+01
      vertex 1.160553e+02 7.361815e-01 -4.100663e+01
      vertex 1.162757e+02 1.151467e+00 -3.995605e+01
    endloop
  endfacet
  facet normal -9.601270e-01 -1.833777e-01 2.110182e-01
    outer loop
      vertex 1.145398e+02 1.053688e+01 -3.938511e+01
      vertex 1.142408e+02 9.971777e+00 -4.123642e+01
      vertex 1.160553e+02 7.361815e-01 -4.100663e+01
    endloop
  endfacet
  facet normal -7.467868e-01 -6.180529e-01 2.456015e-01
    outer loop
      vertex 1.231845e+02 -9.470664e+00 -3.746227e+01
      vertex 1.192384e+02 -6.019101e+00 -4.077515e+01
      vertex 1.229393e+02 -1.069293e+01 -4.128371e+01
    endloop
  endfacet
  facet normal -8.242510e-01 -3.877015e-01 4.126715e-01
    outer loop
      vertex 1.217503e+02 -7.815886e+00 -3.744609e+01
      vertex 1.162757e+02 1.151467e+00 -3.995605e+01
      vertex 1.192384e+02 -6.019101e+00 -4.077515e+01
    endloop
  endfacet
  facet normal -7.377325e-01 -6.414591e-01 2.104305e-01
    outer loop
      vertex 1.231845e+02 -9.470664e+00 -3.746227e+01
      vertex 1.217503e+02 -7.815886e+00 -3.744609e+01
      vertex 1.192384e+02 -6.019101e+00 -4.077515e+01
    endloop
  endfacet
  facet normal -3.356782e-01 -1.505396e-01 -9.298699e-01
    outer loop
      vertex 1.229263e+02 9.836696e+00 -5.221736e+01
      vertex 1.213748e+02 -1.332807e+00 -4.984900e+01
      vertex 1.175017e+02 1.383994e+00 -4.889069e+01
    endloop
  endfacet
  facet normal -9.619988e-01 -1.942148e-01 -1.919348e-01
    outer loop
      vertex 1.156466e+02 1.007170e+01 -4.838330e+01
      vertex 1.175017e+02 1.383994e+00 -4.889069e+01
      vertex 1.142408e+02 9.971777e+00 -4.123642e+01
    endloop
  endfacet
  facet normal -4.666720e-01 -4.807577e-02 -8.831228e-01
    outer loop
      vertex 1.229263e+02 9.836696e+00 -5.221736e+01
      vertex 1.175017e+02 1.383994e+00 -4.889069e+01
      vertex 1.156466e+02 1.007170e+01 -4.838330e+01
    endloop
  endfacet
  facet normal -6.558770e-01 -7.265674e-01 -2.047563e-01
    outer loop
      vertex 1.281705e+02 -1.316452e+01 -4.926994e+01
      vertex 1.229393e+02 -1.069293e+01 -4.128371e+01
      vertex 1.243625e+02 -9.729678e+00 -4.926059e+01
    endloop
  endfacet
  facet normal -6.608430e-01 -7.015093e-01 2.667795e-01
    outer loop
      vertex 1.277949e+02 -1.511931e+01 -4.089523e+01
      vertex 1.231845e+02 -9.470664e+00 -3.746227e+01
      vertex 1.229393e+02 -1.069293e+01 -4.128371e+01
    endloop
  endfacet
  facet normal -6.512789e-01 -7.319899e-01 -2.000663e-01
    outer loop
      vertex 1.277949e+02 -1.511931e+01 -4.089523e+01
      vertex 1.229393e+02 -1.069293e+01 -4.128371e+01
      vertex 1.281705e+02 -1.316452e+01 -4.926994e+01
    endloop
  endfacet
  facet normal -7.163212e-01 -2.990553e-01 -6.304362e-01
    outer loop
      vertex 1.297232e+02 -4.056007e+00 -5.804299e+01
      vertex 1.243625e+02 -9.729678e+00 -4.926059e+01
      vertex 1.213748e+02 -1.332807e+00 -4.984900e+01
    endloop
  endfacet
  facet normal -1.365939e-01 -1.487675e-01 -9.793929e-01
    outer loop
      vertex 1.320735e+02 -1.219245e+01 -4.996194e+01
      vertex 1.281705e+02 -1.316452e+01 -4.926994e+01
      vertex 1.243625e+02 -9.729678e+00 -4.926059e+01
    endloop
  endfacet
  facet normal -2.864812e-01 -7.155412e-01 -6.371259e-01
    outer loop
      vertex 1.297232e+02 -4.056007e+00 -5.804299e+01
      vertex 1.320735e+02 -1.219245e+01 -4.996194e+01
      vertex 1.243625e+02 -9.729678e+00 -4.926059e+01
    endloop
  endfacet
  facet normal -8.657275e-01 1.416940e-02 -5.003151e-01
    outer loop
      vertex 1.260668e+02 1.142078e+00 -5.789781e+01
      vertex 1.213748e+02 -1.332807e+00 -4.984900e+01
      vertex 1.229263e+02 9.836696e+00 -5.221736e+01
    endloop
  endfacet
  facet normal -6.913672e-01 -4.710201e-01 -5.478608e-01
    outer loop
      vertex 1.260668e+02 1.142078e+00 -5.789781e+01
      vertex 1.297232e+02 -4.056007e+00 -5.804299e+01
      vertex 1.213748e+02 -1.332807e+00 -4.984900e+01
    endloop
  endfacet
  facet normal -3.619537e-01 3.971020e-02 9.313499e-01
    outer loop
      vertex 1.233282e+02 -3.426295e+00 -3.702003e+01
      vertex 1.162757e+02 1.151467e+00 -3.995605e+01
      vertex 1.217503e+02 -7.815886e+00 -3.744609e+01
    endloop
  endfacet
  facet normal -3.263395e-01 1.000861e-01 9.399390e-01
    outer loop
      vertex 1.220449e+02 1.030713e+01 -3.892794e+01
      vertex 1.162757e+02 1.151467e+00 -3.995605e+01
      vertex 1.233282e+02 -3.426295e+00 -3.702003e+01
    endloop
  endfacet
  facet normal -6.284447e-02 -7.217670e-02 9.954100e-01
    outer loop
      vertex 1.220449e+02 1.030713e+01 -3.892794e+01
      vertex 1.145398e+02 1.053688e+01 -3.938511e+01
      vertex 1.162757e+02 1.151467e+00 -3.995605e+01
    endloop
  endfacet
  facet normal -7.082487e-02 -7.111267e-02 9.949507e-01
    outer loop
      vertex 1.233282e+02 -3.426295e+00 -3.702003e+01
      vertex 1.217503e+02 -7.815886e+00 -3.744609e+01
      vertex 1.231845e+02 -9.470664e+00 -3.746227e+01
    endloop
  endfacet
  facet normal -2.167300e-01 -6.611095e-02 9.739905e-01
    outer loop
      vertex 1.347386e+02 2.111468e+00 -3.410513e+01
      vertex 1.233282e+02 -3.426295e+00 -3.702003e+01
      vertex 1.231845e+02 -9.470664e+00 -3.746227e+01
    endloop
  endfacet
  facet normal -6.166758e-01 -7.099867e-01 3.400439e-01
    outer loop
      vertex 1.283133e+02 -1.539336e+01 -4.052735e+01
      vertex 1.231845e+02 -9.470664e+00 -3.746227e+01
      vertex 1.277949e+02 -1.511931e+01 -4.089523e+01
    endloop
  endfacet
  facet normal 3.653782e-02 -4.341695e-01 9.000899e-01
    outer loop
      vertex 1.280613e+02 -8.375213e+00 -3.713183e+01
      vertex 1.231845e+02 -9.470664e+00 -3.746227e+01
      vertex 1.283133e+02 -1.539336e+01 -4.052735e+01
    endloop
  endfacet
  facet normal -3.281318e-03 -2.753736e-01 9.613317e-01
    outer loop
      vertex 1.347386e+02 2.111468e+00 -3.410513e+01
      vertex 1.231845e+02 -9.470664e+00 -3.746227e+01
      vertex 1.280613e+02 -8.375213e+00 -3.713183e+01
    endloop
  endfacet
  facet normal -4.537181e-01 8.089349e-02 8.874661e-01
    outer loop
      vertex 1.326415e+02 1.115254e+01 -3.358746e+01
      vertex 1.220449e+02 1.030713e+01 -3.892794e+01
      vertex 1.233282e+02 -3.426295e+00 -3.702003e+01
    endloop
  endfacet
  facet normal -1.994335e-01 -1.020611e-01 9.745819e-01
    outer loop
      vertex 1.326415e+02 1.115254e+01 -3.358746e+01
      vertex 1.233282e+02 -3.426295e+00 -3.702003e+01
      vertex 1.347386e+02 2.111468e+00 -3.410513e+01
    endloop
  endfacet
  facet normal -9.775033e-01 8.943855e-02 -1.910185e-01
    outer loop
      vertex 1.151384e+02 1.973126e+01 -4.126002e+01
      vertex 1.156466e+02 1.007170e+01 -4.838330e+01
      vertex 1.142408e+02 9.971777e+00 -4.123642e+01
    endloop
  endfacet
  facet normal -9.807287e-01 1.622477e-01 1.088437e-01
    outer loop
      vertex 1.167817e+02 2.162886e+01 -3.571837e+01
      vertex 1.142408e+02 9.971777e+00 -4.123642e+01
      vertex 1.145398e+02 1.053688e+01 -3.938511e+01
    endloop
  endfacet
  facet normal -9.628249e-01 8.916714e-02 2.549853e-01
    outer loop
      vertex 1.167817e+02 2.162886e+01 -3.571837e+01
      vertex 1.151384e+02 1.973126e+01 -4.126002e+01
      vertex 1.142408e+02 9.971777e+00 -4.123642e+01
    endloop
  endfacet
  facet normal -4.645502e-01 4.140144e-02 -8.845785e-01
    outer loop
      vertex 1.238299e+02 1.981684e+01 -5.222478e+01
      vertex 1.229263e+02 9.836696e+00 -5.221736e+01
      vertex 1.156466e+02 1.007170e+01 -4.838330e+01
    endloop
  endfacet
  facet normal -9.811274e-01 7.864844e-02 -1.766451e-01
    outer loop
      vertex 1.162354e+02 1.892485e+01 -4.771201e+01
      vertex 1.156466e+02 1.007170e+01 -4.838330e+01
      vertex 1.151384e+02 1.973126e+01 -4.126002e+01
    endloop
  endfacet
  facet normal -5.168883e-01 9.885352e-02 -8.503261e-01
    outer loop
      vertex 1.238299e+02 1.981684e+01 -5.222478e+01
      vertex 1.156466e+02 1.007170e+01 -4.838330e+01
      vertex 1.162354e+02 1.892485e+01 -4.771201e+01
    endloop
  endfacet
  facet normal -9.927867e-01 8.982493e-02 -7.941010e-02
    outer loop
      vertex 1.233164e+02 9.505030e+00 -5.746940e+01
      vertex 1.229263e+02 9.836696e+00 -5.221736e+01
      vertex 1.238299e+02 1.981684e+01 -5.222478e+01
    endloop
  endfacet
  facet normal -9.494818e-01 -3.096557e-01 -5.096656e-02
    outer loop
      vertex 1.233164e+02 9.505030e+00 -5.746940e+01
      vertex 1.260668e+02 1.142078e+00 -5.789781e+01
      vertex 1.229263e+02 9.836696e+00 -5.221736e+01
    endloop
  endfacet
  facet normal -6.734715e-02 -3.185426e-01 9.455131e-01
    outer loop
      vertex 1.218234e+02 2.091969e+01 -3.536835e+01
      vertex 1.145398e+02 1.053688e+01 -3.938511e+01
      vertex 1.220449e+02 1.030713e+01 -3.892794e+01
    endloop
  endfacet
  facet normal -1.071128e-01 -2.924805e-01 9.502537e-01
    outer loop
      vertex 1.218234e+02 2.091969e+01 -3.536835e+01
      vertex 1.167817e+02 2.162886e+01 -3.571837e+01
      vertex 1.145398e+02 1.053688e+01 -3.938511e+01
    endloop
  endfacet
  facet normal 1.876893e-01 -3.088279e-01 9.324152e-01
    outer loop
      vertex 1.326476e+02 2.107226e+01 -3.749664e+01
      vertex 1.218234e+02 2.091969e+01 -3.536835e+01
      vertex 1.220449e+02 1.030713e+01 -3.892794e+01
    endloop
  endfacet
  facet normal -4.458548e-01 3.284162e-01 8.326802e-01
    outer loop
      vertex 1.326476e+02 2.107226e+01 -3.749664e+01
      vertex 1.220449e+02 1.030713e+01 -3.892794e+01
      vertex 1.326415e+02 1.115254e+01 -3.358746e+01
    endloop
  endfacet
  facet normal -9.101985e-01 3.626383e-01 -2.000803e-01
    outer loop
      vertex 1.182401e+02 2.769766e+01 -4.093144e+01
      vertex 1.162354e+02 1.892485e+01 -4.771201e+01
      vertex 1.151384e+02 1.973126e+01 -4.126002e+01
    endloop
  endfacet
  facet normal -8.859615e-01 4.509327e-01 1.083139e-01
    outer loop
      vertex 1.181877e+02 2.430629e+01 -3.536472e+01
      vertex 1.151384e+02 1.973126e+01 -4.126002e+01
      vertex 1.167817e+02 2.162886e+01 -3.571837e+01
    endloop
  endfacet
  facet normal -9.151942e-01 3.479435e-01 2.033589e-01
    outer loop
      vertex 1.181877e+02 2.430629e+01 -3.536472e+01
      vertex 1.182401e+02 2.769766e+01 -4.093144e+01
      vertex 1.151384e+02 1.973126e+01 -4.126002e+01
    endloop
  endfacet
  facet normal -5.139260e-01 2.885684e-01 -8.078418e-01
    outer loop
      vertex 1.223602e+02 3.038793e+01 -4.751374e+01
      vertex 1.238299e+02 1.981684e+01 -5.222478e+01
      vertex 1.162354e+02 1.892485e+01 -4.771201e+01
    endloop
  endfacet
  facet normal -9.215891e-01 3.462334e-01 -1.754877e-01
    outer loop
      vertex 1.192112e+02 2.724160e+01 -4.693069e+01
      vertex 1.162354e+02 1.892485e+01 -4.771201e+01
      vertex 1.182401e+02 2.769766e+01 -4.093144e+01
    endloop
  endfacet
  facet normal -3.882937e-01 2.229350e-01 -8.941633e-01
    outer loop
      vertex 1.223602e+02 3.038793e+01 -4.751374e+01
      vertex 1.162354e+02 1.892485e+01 -4.771201e+01
      vertex 1.192112e+02 2.724160e+01 -4.693069e+01
    endloop
  endfacet
  facet normal -9.887900e-01 -1.475790e-01 2.269073e-02
    outer loop
      vertex 1.238124e+02 1.923970e+01 -5.674070e+01
      vertex 1.238299e+02 1.981684e+01 -5.222478e+01
      vertex 1.223602e+02 3.038793e+01 -4.751374e+01
    endloop
  endfacet
  facet normal -9.986908e-01 5.108369e-02 -2.660269e-03
    outer loop
      vertex 1.238124e+02 1.923970e+01 -5.674070e+01
      vertex 1.233164e+02 9.505030e+00 -5.746940e+01
      vertex 1.238299e+02 1.981684e+01 -5.222478e+01
    endloop
  endfacet
  facet normal -4.285729e-02 1.803276e-01 9.826725e-01
    outer loop
      vertex 1.219488e+02 3.193190e+01 -3.738371e+01
      vertex 1.167817e+02 2.162886e+01 -3.571837e+01
      vertex 1.218234e+02 2.091969e+01 -3.536835e+01
    endloop
  endfacet
  facet normal 8.869451e-01 -4.563378e-01 -7.130355e-02
    outer loop
      vertex 1.219488e+02 3.193190e+01 -3.738371e+01
      vertex 1.181877e+02 2.430629e+01 -3.536472e+01
      vertex 1.167817e+02 2.162886e+01 -3.571837e+01
    endloop
  endfacet
  facet normal -5.996223e-02 1.803575e-01 9.817717e-01
    outer loop
      vertex 1.325995e+02 3.188464e+01 -3.672453e+01
      vertex 1.219488e+02 3.193190e+01 -3.738371e+01
      vertex 1.218234e+02 2.091969e+01 -3.536835e+01
    endloop
  endfacet
  facet normal 1.934074e-01 -6.902941e-02 9.786871e-01
    outer loop
      vertex 1.325995e+02 3.188464e+01 -3.672453e+01
      vertex 1.218234e+02 2.091969e+01 -3.536835e+01
      vertex 1.326476e+02 2.107226e+01 -3.749664e+01
    endloop
  endfacet
  facet normal -7.335268e-01 6.583715e-01 -1.687764e-01
    outer loop
      vertex 1.216171e+02 3.135736e+01 -4.133228e+01
      vertex 1.192112e+02 2.724160e+01 -4.693069e+01
      vertex 1.182401e+02 2.769766e+01 -4.093144e+01
    endloop
  endfacet
  facet normal -7.093698e-01 6.173068e-01 -3.401863e-01
    outer loop
      vertex 1.257920e+02 3.700231e+01 -3.979462e+01
      vertex 1.216171e+02 3.135736e+01 -4.133228e+01
      vertex 1.182401e+02 2.769766e+01 -4.093144e+01
    endloop
  endfacet
  facet normal -8.777309e-01 4.128239e-01 2.432382e-01
    outer loop
      vertex 1.213425e+02 3.238902e+01 -3.769870e+01
      vertex 1.182401e+02 2.769766e+01 -4.093144e+01
      vertex 1.181877e+02 2.430629e+01 -3.536472e+01
    endloop
  endfacet
  facet normal -8.375181e-01 5.462999e-01 1.094649e-02
    outer loop
      vertex 1.214375e+02 3.258851e+01 -4.038192e+01
      vertex 1.182401e+02 2.769766e+01 -4.093144e+01
      vertex 1.213425e+02 3.238902e+01 -3.769870e+01
    endloop
  endfacet
  facet normal 6.193030e-02 7.136617e-02 -9.955257e-01
    outer loop
      vertex 1.257920e+02 3.700231e+01 -3.979462e+01
      vertex 1.182401e+02 2.769766e+01 -4.093144e+01
      vertex 1.214375e+02 3.258851e+01 -4.038192e+01
    endloop
  endfacet
  facet normal -7.112308e-01 6.763502e-01 -1.915754e-01
    outer loop
      vertex 1.223602e+02 3.038793e+01 -4.751374e+01
      vertex 1.192112e+02 2.724160e+01 -4.693069e+01
      vertex 1.216171e+02 3.135736e+01 -4.133228e+01
    endloop
  endfacet
  facet normal -7.643135e-01 6.166499e-01 -1.885944e-01
    outer loop
      vertex 1.257920e+02 3.700231e+01 -3.979462e+01
      vertex 1.223602e+02 3.038793e+01 -4.751374e+01
      vertex 1.216171e+02 3.135736e+01 -4.133228e+01
    endloop
  endfacet
  facet normal -8.015977e-01 5.809047e-01 -1.413888e-01
    outer loop
      vertex 1.262842e+02 3.620811e+01 -4.584791e+01
      vertex 1.223602e+02 3.038793e+01 -4.751374e+01
      vertex 1.257920e+02 3.700231e+01 -3.979462e+01
    endloop
  endfacet
  facet normal -7.237200e-01 3.816155e-01 -5.749774e-01
    outer loop
      vertex 1.272104e+02 2.682121e+01 -5.598582e+01
      vertex 1.238124e+02 1.923970e+01 -5.674070e+01
      vertex 1.223602e+02 3.038793e+01 -4.751374e+01
    endloop
  endfacet
  facet normal -5.917326e-01 5.638450e-01 -5.761348e-01
    outer loop
      vertex 1.262842e+02 3.620811e+01 -4.584791e+01
      vertex 1.272104e+02 2.682121e+01 -5.598582e+01
      vertex 1.223602e+02 3.038793e+01 -4.751374e+01
    endloop
  endfacet
  facet normal 6.196128e-01 -4.717063e-01 -6.273540e-01
    outer loop
      vertex 1.265795e+02 3.757852e+01 -3.705585e+01
      vertex 1.181877e+02 2.430629e+01 -3.536472e+01
      vertex 1.219488e+02 3.193190e+01 -3.738371e+01
    endloop
  endfacet
  facet normal -5.046143e-01 4.154877e-01 7.567921e-01
    outer loop
      vertex 1.265795e+02 3.757852e+01 -3.705585e+01
      vertex 1.213425e+02 3.238902e+01 -3.769870e+01
      vertex 1.181877e+02 2.430629e+01 -3.536472e+01
    endloop
  endfacet
  facet normal -2.138392e-01 1.190687e-01 9.695852e-01
    outer loop
      vertex 1.332570e+02 4.122231e+01 -3.603061e+01
      vertex 1.265795e+02 3.757852e+01 -3.705585e+01
      vertex 1.219488e+02 3.193190e+01 -3.738371e+01
    endloop
  endfacet
  facet normal -6.193021e-02 -6.962970e-02 9.956487e-01
    outer loop
      vertex 1.332570e+02 4.122231e+01 -3.603061e+01
      vertex 1.219488e+02 3.193190e+01 -3.738371e+01
      vertex 1.325995e+02 3.188464e+01 -3.672453e+01
    endloop
  endfacet
  facet normal -7.053187e-01 7.083498e-01 2.767695e-02
    outer loop
      vertex 1.265795e+02 3.757852e+01 -3.705585e+01
      vertex 1.214375e+02 3.258851e+01 -4.038192e+01
      vertex 1.213425e+02 3.238902e+01 -3.769870e+01
    endloop
  endfacet
  facet normal -7.145412e-01 6.971193e-01 5.878332e-02
    outer loop
      vertex 1.257920e+02 3.700231e+01 -3.979462e+01
      vertex 1.214375e+02 3.258851e+01 -4.038192e+01
      vertex 1.265795e+02 3.757852e+01 -3.705585e+01
    endloop
  endfacet
  facet normal -4.725867e-01 8.799075e-01 -4.924067e-02
    outer loop
      vertex 1.332570e+02 4.122231e+01 -3.603061e+01
      vertex 1.257920e+02 3.700231e+01 -3.979462e+01
      vertex 1.265795e+02 3.757852e+01 -3.705585e+01
    endloop
  endfacet
  facet normal -4.773652e-01 8.653964e-01 -1.523532e-01
    outer loop
      vertex 1.330403e+02 4.069430e+01 -4.153430e+01
      vertex 1.262842e+02 3.620811e+01 -4.584791e+01
      vertex 1.257920e+02 3.700231e+01 -3.979462e+01
    endloop
  endfacet
  facet normal -4.654707e-01 8.825734e-01 -6.634218e-02
    outer loop
      vertex 1.332570e+02 4.122231e+01 -3.603061e+01
      vertex 1.330403e+02 4.069430e+01 -4.153430e+01
      vertex 1.257920e+02 3.700231e+01 -3.979462e+01
    endloop
  endfacet
  facet normal -4.817066e-01 -8.483653e-01 -2.196251e-01
    outer loop
      vertex 1.340513e+02 -1.863226e+01 -4.104767e+01
      vertex 1.277949e+02 -1.511931e+01 -4.089523e+01
      vertex 1.281705e+02 -1.316452e+01 -4.926994e+01
    endloop
  endfacet
  facet normal -4.946750e-01 -8.439626e-01 -2.074220e-01
    outer loop
      vertex 1.349881e+02 -1.719382e+01 -4.913467e+01
      vertex 1.340513e+02 -1.863226e+01 -4.104767e+01
      vertex 1.281705e+02 -1.316452e+01 -4.926994e+01
    endloop
  endfacet
  facet normal -1.149422e-01 -2.269510e-01 -9.670995e-01
    outer loop
      vertex 1.320735e+02 -1.219245e+01 -4.996194e+01
      vertex 1.349881e+02 -1.719382e+01 -4.913467e+01
      vertex 1.281705e+02 -1.316452e+01 -4.926994e+01
    endloop
  endfacet
  facet normal -4.407945e-01 -8.024842e-01 4.021434e-01
    outer loop
      vertex 1.345245e+02 -1.848580e+01 -4.023677e+01
      vertex 1.277949e+02 -1.511931e+01 -4.089523e+01
      vertex 1.340513e+02 -1.863226e+01 -4.104767e+01
    endloop
  endfacet
  facet normal -4.437523e-01 -8.951845e-01 -4.157605e-02
    outer loop
      vertex 1.345245e+02 -1.848580e+01 -4.023677e+01
      vertex 1.283133e+02 -1.539336e+01 -4.052735e+01
      vertex 1.277949e+02 -1.511931e+01 -4.089523e+01
    endloop
  endfacet
  facet normal -2.627852e-01 -9.442370e-01 -1.983944e-01
    outer loop
      vertex 1.431523e+02 -2.110705e+01 -4.132400e+01
      vertex 1.340513e+02 -1.863226e+01 -4.104767e+01
      vertex 1.349881e+02 -1.719382e+01 -4.913467e+01
    endloop
  endfacet
  facet normal -1.014089e-01 -9.669776e-01 2.338172e-01
    outer loop
      vertex 1.486944e+02 -1.913379e+01 -3.677096e+01
      vertex 1.345245e+02 -1.848580e+01 -4.023677e+01
      vertex 1.340513e+02 -1.863226e+01 -4.104767e+01
    endloop
  endfacet
  facet normal -1.969338e-01 -7.891764e-01 5.817368e-01
    outer loop
      vertex 1.486944e+02 -1.913379e+01 -3.677096e+01
      vertex 1.340513e+02 -1.863226e+01 -4.104767e+01
      vertex 1.431523e+02 -2.110705e+01 -4.132400e+01
    endloop
  endfacet
  facet normal -6.589095e-01 -4.798117e-01 -5.793263e-01
    outer loop
      vertex 1.373925e+02 -9.817144e+00 -5.797889e+01
      vertex 1.349881e+02 -1.719382e+01 -4.913467e+01
      vertex 1.320735e+02 -1.219245e+01 -4.996194e+01
    endloop
  endfacet
  facet normal -1.789345e-01 -7.310777e-01 -6.584131e-01
    outer loop
      vertex 1.433739e+02 -1.956312e+01 -4.878285e+01
      vertex 1.349881e+02 -1.719382e+01 -4.913467e+01
      vertex 1.373925e+02 -9.817144e+00 -5.797889e+01
    endloop
  endfacet
  facet normal -2.583209e-01 -9.444536e-01 -2.031693e-01
    outer loop
      vertex 1.431523e+02 -2.110705e+01 -4.132400e+01
      vertex 1.349881e+02 -1.719382e+01 -4.913467e+01
      vertex 1.433739e+02 -1.956312e+01 -4.878285e+01
    endloop
  endfacet
  facet normal -5.693094e-01 -6.562626e-01 -4.951830e-01
    outer loop
      vertex 1.343824e+02 -8.097899e+00 -5.804290e+01
      vertex 1.320735e+02 -1.219245e+01 -4.996194e+01
      vertex 1.297232e+02 -4.056007e+00 -5.804299e+01
    endloop
  endfacet
  facet normal -4.206188e-01 -7.551576e-01 -5.028090e-01
    outer loop
      vertex 1.373925e+02 -9.817144e+00 -5.797889e+01
      vertex 1.320735e+02 -1.219245e+01 -4.996194e+01
      vertex 1.343824e+02 -8.097899e+00 -5.804290e+01
    endloop
  endfacet
  facet normal -2.539642e-01 -4.286169e-01 8.670581e-01
    outer loop
      vertex 1.280613e+02 -8.375213e+00 -3.713183e+01
      vertex 1.283133e+02 -1.539336e+01 -4.052735e+01
      vertex 1.345245e+02 -1.848580e+01 -4.023677e+01
    endloop
  endfacet
  facet normal -1.582863e-01 -3.809351e-01 9.109522e-01
    outer loop
      vertex 1.482819e+02 -1.506712e+01 -3.641668e+01
      vertex 1.280613e+02 -8.375213e+00 -3.713183e+01
      vertex 1.345245e+02 -1.848580e+01 -4.023677e+01
    endloop
  endfacet
  facet normal -2.408614e-01 -1.084507e-01 9.644813e-01
    outer loop
      vertex 1.482819e+02 -1.506712e+01 -3.641668e+01
      vertex 1.345245e+02 -1.848580e+01 -4.023677e+01
      vertex 1.486944e+02 -1.913379e+01 -3.677096e+01
    endloop
  endfacet
  facet normal 2.879313e-01 -4.302692e-01 8.555489e-01
    outer loop
      vertex 1.433943e+02 -5.997692e-01 -3.838170e+01
      vertex 1.347386e+02 2.111468e+00 -3.410513e+01
      vertex 1.280613e+02 -8.375213e+00 -3.713183e+01
    endloop
  endfacet
  facet normal 1.068521e-02 1.381247e-01 9.903572e-01
    outer loop
      vertex 1.433943e+02 -5.997692e-01 -3.838170e+01
      vertex 1.280613e+02 -8.375213e+00 -3.713183e+01
      vertex 1.482819e+02 -1.506712e+01 -3.641668e+01
    endloop
  endfacet
  facet normal -4.909288e-01 -3.227286e-01 -8.092188e-01
    outer loop
      vertex 1.326804e+02 -7.450390e-01 -6.115749e+01
      vertex 1.297232e+02 -4.056007e+00 -5.804299e+01
      vertex 1.260668e+02 1.142078e+00 -5.789781e+01
    endloop
  endfacet
  facet normal -3.763720e-01 -4.338678e-01 -8.185981e-01
    outer loop
      vertex 1.326804e+02 -7.450390e-01 -6.115749e+01
      vertex 1.343824e+02 -8.097899e+00 -5.804290e+01
      vertex 1.297232e+02 -4.056007e+00 -5.804299e+01
    endloop
  endfacet
  facet normal -4.648192e-01 -1.118844e-01 -8.783080e-01
    outer loop
      vertex 1.335721e+02 1.028518e+01 -6.303448e+01
      vertex 1.326804e+02 -7.450390e-01 -6.115749e+01
      vertex 1.260668e+02 1.142078e+00 -5.789781e+01
    endloop
  endfacet
  facet normal -4.676926e-01 -1.088804e-01 -8.771594e-01
    outer loop
      vertex 1.335721e+02 1.028518e+01 -6.303448e+01
      vertex 1.260668e+02 1.142078e+00 -5.789781e+01
      vertex 1.233164e+02 9.505030e+00 -5.746940e+01
    endloop
  endfacet
  facet normal -1.249512e-01 -4.113662e-01 -9.028649e-01
    outer loop
      vertex 1.419469e+02 6.779291e-01 -6.308826e+01
      vertex 1.343824e+02 -8.097899e+00 -5.804290e+01
      vertex 1.326804e+02 -7.450390e-01 -6.115749e+01
    endloop
  endfacet
  facet normal -2.229508e-01 -4.230498e-01 -8.782493e-01
    outer loop
      vertex 1.436860e+02 -7.929831e+00 -6.048566e+01
      vertex 1.373925e+02 -9.817144e+00 -5.797889e+01
      vertex 1.343824e+02 -8.097899e+00 -5.804290e+01
    endloop
  endfacet
  facet normal -2.347244e-01 -3.244736e-01 -9.163085e-01
    outer loop
      vertex 1.419469e+02 6.779291e-01 -6.308826e+01
      vertex 1.436860e+02 -7.929831e+00 -6.048566e+01
      vertex 1.343824e+02 -8.097899e+00 -5.804290e+01
    endloop
  endfacet
  facet normal -7.104177e-01 -6.186762e-02 -7.010557e-01
    outer loop
      vertex 1.393002e+02 1.842102e+00 -6.809393e+01
      vertex 1.326804e+02 -7.450390e-01 -6.115749e+01
      vertex 1.335721e+02 1.028518e+01 -6.303448e+01
    endloop
  endfacet
  facet normal 9.072764e-02 -9.583355e-01 -2.708533e-01
    outer loop
      vertex 1.393002e+02 1.842102e+00 -6.809393e+01
      vertex 1.419469e+02 6.779291e-01 -6.308826e+01
      vertex 1.326804e+02 -7.450390e-01 -6.115749e+01
    endloop
  endfacet
  facet normal 3.863575e-01 3.684714e-02 9.216128e-01
    outer loop
      vertex 1.425285e+02 9.906088e+00 -3.768243e+01
      vertex 1.326415e+02 1.115254e+01 -3.358746e+01
      vertex 1.347386e+02 2.111468e+00 -3.410513e+01
    endloop
  endfacet
  facet normal 4.368171e-01 -2.385243e-02 8.992340e-01
    outer loop
      vertex 1.425285e+02 9.906088e+00 -3.768243e+01
      vertex 1.347386e+02 2.111468e+00 -3.410513e+01
      vertex 1.433943e+02 -5.997692e-01 -3.838170e+01
    endloop
  endfacet
  facet normal -4.786283e-01 2.092869e-01 -8.527097e-01
    outer loop
      vertex 1.320039e+02 2.033050e+01 -5.968874e+01
      vertex 1.335721e+02 1.028518e+01 -6.303448e+01
      vertex 1.233164e+02 9.505030e+00 -5.746940e+01
    endloop
  endfacet
  facet normal -3.476327e-01 8.759316e-02 -9.335304e-01
    outer loop
      vertex 1.320039e+02 2.033050e+01 -5.968874e+01
      vertex 1.233164e+02 9.505030e+00 -5.746940e+01
      vertex 1.238124e+02 1.923970e+01 -5.674070e+01
    endloop
  endfacet
  facet normal -9.888712e-01 -1.307161e-01 -7.104197e-02
    outer loop
      vertex 1.338696e+02 1.062555e+01 -6.780210e+01
      vertex 1.335721e+02 1.028518e+01 -6.303448e+01
      vertex 1.320039e+02 2.033050e+01 -5.968874e+01
    endloop
  endfacet
  facet normal -8.484334e-01 -5.215631e-01 -9.018148e-02
    outer loop
      vertex 1.338696e+02 1.062555e+01 -6.780210e+01
      vertex 1.393002e+02 1.842102e+00 -6.809393e+01
      vertex 1.335721e+02 1.028518e+01 -6.303448e+01
    endloop
  endfacet
  facet normal -4.590624e-01 3.259662e-01 8.264428e-01
    outer loop
      vertex 1.449332e+02 2.416025e+01 -3.189033e+01
      vertex 1.326476e+02 2.107226e+01 -3.749664e+01
      vertex 1.326415e+02 1.115254e+01 -3.358746e+01
    endloop
  endfacet
  facet normal 3.065844e-01 -4.022614e-01 8.626655e-01
    outer loop
      vertex 1.449332e+02 2.416025e+01 -3.189033e+01
      vertex 1.326415e+02 1.115254e+01 -3.358746e+01
      vertex 1.425285e+02 9.906088e+00 -3.768243e+01
    endloop
  endfacet
  facet normal -3.533315e-01 1.644339e-01 -9.209334e-01
    outer loop
      vertex 1.339958e+02 2.864141e+01 -5.896904e+01
      vertex 1.320039e+02 2.033050e+01 -5.968874e+01
      vertex 1.238124e+02 1.923970e+01 -5.674070e+01
    endloop
  endfacet
  facet normal -4.488657e-01 2.854896e-01 -8.467675e-01
    outer loop
      vertex 1.339958e+02 2.864141e+01 -5.896904e+01
      vertex 1.238124e+02 1.923970e+01 -5.674070e+01
      vertex 1.272104e+02 2.682121e+01 -5.598582e+01
    endloop
  endfacet
  facet normal -8.556898e-01 2.445779e-01 -4.560445e-01
    outer loop
      vertex 1.360642e+02 2.105679e+01 -6.691779e+01
      vertex 1.320039e+02 2.033050e+01 -5.968874e+01
      vertex 1.339958e+02 2.864141e+01 -5.896904e+01
    endloop
  endfacet
  facet normal -8.598005e-01 2.199584e-01 -4.608268e-01
    outer loop
      vertex 1.360642e+02 2.105679e+01 -6.691779e+01
      vertex 1.338696e+02 1.062555e+01 -6.780210e+01
      vertex 1.320039e+02 2.033050e+01 -5.968874e+01
    endloop
  endfacet
  facet normal -2.874603e-01 -6.949324e-02 9.552682e-01
    outer loop
      vertex 1.433148e+02 3.567103e+01 -3.322462e+01
      vertex 1.325995e+02 3.188464e+01 -3.672453e+01
      vertex 1.326476e+02 2.107226e+01 -3.749664e+01
    endloop
  endfacet
  facet normal -4.241077e-01 4.521571e-02 9.044823e-01
    outer loop
      vertex 1.433148e+02 3.567103e+01 -3.322462e+01
      vertex 1.326476e+02 2.107226e+01 -3.749664e+01
      vertex 1.449332e+02 2.416025e+01 -3.189033e+01
    endloop
  endfacet
  facet normal -4.533421e-01 5.782101e-01 -6.783465e-01
    outer loop
      vertex 1.359780e+02 3.502524e+01 -5.485228e+01
      vertex 1.339958e+02 2.864141e+01 -5.896904e+01
      vertex 1.272104e+02 2.682121e+01 -5.598582e+01
    endloop
  endfacet
  facet normal -6.043811e-01 5.563032e-01 -5.703072e-01
    outer loop
      vertex 1.306045e+02 3.103486e+01 -5.547261e+01
      vertex 1.272104e+02 2.682121e+01 -5.598582e+01
      vertex 1.262842e+02 3.620811e+01 -4.584791e+01
    endloop
  endfacet
  facet normal 6.193030e-02 7.136617e-02 -9.955257e-01
    outer loop
      vertex 1.359780e+02 3.502524e+01 -5.485228e+01
      vertex 1.272104e+02 2.682121e+01 -5.598582e+01
      vertex 1.306045e+02 3.103486e+01 -5.547261e+01
    endloop
  endfacet
  facet normal -2.001521e-01 5.741282e-01 -7.939244e-01
    outer loop
      vertex 1.443303e+02 3.439849e+01 -5.741119e+01
      vertex 1.339958e+02 2.864141e+01 -5.896904e+01
      vertex 1.359780e+02 3.502524e+01 -5.485228e+01
    endloop
  endfacet
  facet normal -7.807173e-01 3.379403e-01 -5.256204e-01
    outer loop
      vertex 1.360642e+02 2.105679e+01 -6.691779e+01
      vertex 1.339958e+02 2.864141e+01 -5.896904e+01
      vertex 1.369158e+02 2.336367e+01 -6.669944e+01
    endloop
  endfacet
  facet normal -2.132855e-01 7.674850e-01 -6.045461e-01
    outer loop
      vertex 1.453910e+02 2.846001e+01 -6.321961e+01
      vertex 1.369158e+02 2.336367e+01 -6.669944e+01
      vertex 1.339958e+02 2.864141e+01 -5.896904e+01
    endloop
  endfacet
  facet normal -2.557813e-01 6.522402e-01 -7.135535e-01
    outer loop
      vertex 1.443303e+02 3.439849e+01 -5.741119e+01
      vertex 1.453910e+02 2.846001e+01 -6.321961e+01
      vertex 1.339958e+02 2.864141e+01 -5.896904e+01
    endloop
  endfacet
  facet normal -3.337802e-01 -4.646405e-02 9.415051e-01
    outer loop
      vertex 1.430288e+02 4.244995e+01 -3.250576e+01
      vertex 1.332570e+02 4.122231e+01 -3.603061e+01
      vertex 1.325995e+02 3.188464e+01 -3.672453e+01
    endloop
  endfacet
  facet normal -2.722543e-01 -1.128213e-01 9.555883e-01
    outer loop
      vertex 1.430288e+02 4.244995e+01 -3.250576e+01
      vertex 1.325995e+02 3.188464e+01 -3.672453e+01
      vertex 1.433148e+02 3.567103e+01 -3.322462e+01
    endloop
  endfacet
  facet normal -4.082954e-01 7.149582e-01 -5.675647e-01
    outer loop
      vertex 1.328832e+02 3.970410e+01 -4.619127e+01
      vertex 1.306045e+02 3.103486e+01 -5.547261e+01
      vertex 1.262842e+02 3.620811e+01 -4.584791e+01
    endloop
  endfacet
  facet normal -4.682686e-01 8.673460e-01 -1.686281e-01
    outer loop
      vertex 1.330403e+02 4.069430e+01 -4.153430e+01
      vertex 1.328832e+02 3.970410e+01 -4.619127e+01
      vertex 1.262842e+02 3.620811e+01 -4.584791e+01
    endloop
  endfacet
  facet normal -4.590543e-01 7.026684e-01 -5.436233e-01
    outer loop
      vertex 1.359780e+02 3.502524e+01 -5.485228e+01
      vertex 1.306045e+02 3.103486e+01 -5.547261e+01
      vertex 1.328832e+02 3.970410e+01 -4.619127e+01
    endloop
  endfacet
  facet normal -1.401205e-01 8.493445e-01 -5.089009e-01
    outer loop
      vertex 1.436748e+02 3.764412e+01 -5.260065e+01
      vertex 1.359780e+02 3.502524e+01 -5.485228e+01
      vertex 1.328832e+02 3.970410e+01 -4.619127e+01
    endloop
  endfacet
  facet normal -5.360077e-01 8.292496e-01 -1.582430e-01
    outer loop
      vertex 1.355883e+02 4.286978e+01 -3.876459e+01
      vertex 1.328832e+02 3.970410e+01 -4.619127e+01
      vertex 1.330403e+02 4.069430e+01 -4.153430e+01
    endloop
  endfacet
  facet normal -2.071432e-01 7.745026e-01 -5.976934e-01
    outer loop
      vertex 1.438702e+02 4.419082e+01 -4.418504e+01
      vertex 1.436748e+02 3.764412e+01 -5.260065e+01
      vertex 1.328832e+02 3.970410e+01 -4.619127e+01
    endloop
  endfacet
  facet normal -6.520552e-01 7.535370e-01 -8.370166e-02
    outer loop
      vertex 1.353399e+02 4.197652e+01 -4.487105e+01
      vertex 1.328832e+02 3.970410e+01 -4.619127e+01
      vertex 1.355883e+02 4.286978e+01 -3.876459e+01
    endloop
  endfacet
  facet normal -8.039761e-02 5.642782e-01 -8.216607e-01
    outer loop
      vertex 1.438702e+02 4.419082e+01 -4.418504e+01
      vertex 1.328832e+02 3.970410e+01 -4.619127e+01
      vertex 1.353399e+02 4.197652e+01 -4.487105e+01
    endloop
  endfacet
  facet normal -1.122001e-01 8.165759e-01 -5.662286e-01
    outer loop
      vertex 1.443303e+02 3.439849e+01 -5.741119e+01
      vertex 1.359780e+02 3.502524e+01 -5.485228e+01
      vertex 1.436748e+02 3.764412e+01 -5.260065e+01
    endloop
  endfacet
  facet normal -5.462730e-01 8.355514e-01 -5.864929e-02
    outer loop
      vertex 1.354345e+02 4.264193e+01 -3.608706e+01
      vertex 1.330403e+02 4.069430e+01 -4.153430e+01
      vertex 1.332570e+02 4.122231e+01 -3.603061e+01
    endloop
  endfacet
  facet normal -6.649048e-01 7.464985e-01 2.533183e-02
    outer loop
      vertex 1.354345e+02 4.264193e+01 -3.608706e+01
      vertex 1.355883e+02 4.286978e+01 -3.876459e+01
      vertex 1.330403e+02 4.069430e+01 -4.153430e+01
    endloop
  endfacet
  facet normal -2.837434e-01 8.169493e-01 5.020793e-01
    outer loop
      vertex 1.441661e+02 4.462475e+01 -3.540173e+01
      vertex 1.332570e+02 4.122231e+01 -3.603061e+01
      vertex 1.430288e+02 4.244995e+01 -3.250576e+01
    endloop
  endfacet
  facet normal -1.293173e-01 2.366390e-01 9.629533e-01
    outer loop
      vertex 1.441661e+02 4.462475e+01 -3.540173e+01
      vertex 1.354345e+02 4.264193e+01 -3.608706e+01
      vertex 1.332570e+02 4.122231e+01 -3.603061e+01
    endloop
  endfacet
  facet normal -2.166658e-01 -7.370344e-01 -6.401845e-01
    outer loop
      vertex 1.438887e+02 -1.194534e+01 -5.772733e+01
      vertex 1.433739e+02 -1.956312e+01 -4.878285e+01
      vertex 1.373925e+02 -9.817144e+00 -5.797889e+01
    endloop
  endfacet
  facet normal -1.536128e-01 -5.647403e-01 -8.108462e-01
    outer loop
      vertex 1.436860e+02 -7.929831e+00 -6.048566e+01
      vertex 1.438887e+02 -1.194534e+01 -5.772733e+01
      vertex 1.373925e+02 -9.817144e+00 -5.797889e+01
    endloop
  endfacet
  facet normal 4.599946e-02 -7.618096e-01 -6.461658e-01
    outer loop
      vertex 1.529309e+02 -1.939925e+01 -4.829570e+01
      vertex 1.433739e+02 -1.956312e+01 -4.878285e+01
      vertex 1.438887e+02 -1.194534e+01 -5.772733e+01
    endloop
  endfacet
  facet normal 2.462318e-02 -9.790898e-01 -2.019328e-01
    outer loop
      vertex 1.533210e+02 -2.084843e+01 -4.133800e+01
      vertex 1.431523e+02 -2.110705e+01 -4.132400e+01
      vertex 1.433739e+02 -1.956312e+01 -4.878285e+01
    endloop
  endfacet
  facet normal 2.723935e-02 -9.783209e-01 -2.052955e-01
    outer loop
      vertex 1.533210e+02 -2.084843e+01 -4.133800e+01
      vertex 1.433739e+02 -1.956312e+01 -4.878285e+01
      vertex 1.529309e+02 -1.939925e+01 -4.829570e+01
    endloop
  endfacet
  facet normal 3.272400e-02 -5.647768e-01 -8.245946e-01
    outer loop
      vertex 1.524424e+02 -8.190505e+00 -5.995962e+01
      vertex 1.438887e+02 -1.194534e+01 -5.772733e+01
      vertex 1.436860e+02 -7.929831e+00 -6.048566e+01
    endloop
  endfacet
  facet normal 1.776450e-02 -7.760846e-01 -6.303785e-01
    outer loop
      vertex 1.514620e+02 -1.214314e+01 -5.727039e+01
      vertex 1.529309e+02 -1.939925e+01 -4.829570e+01
      vertex 1.438887e+02 -1.194534e+01 -5.772733e+01
    endloop
  endfacet
  facet normal 3.477492e-02 -5.680573e-01 -8.222540e-01
    outer loop
      vertex 1.524424e+02 -8.190505e+00 -5.995962e+01
      vertex 1.514620e+02 -1.214314e+01 -5.727039e+01
      vertex 1.438887e+02 -1.194534e+01 -5.772733e+01
    endloop
  endfacet
  facet normal -7.989532e-01 2.031186e-02 6.010501e-01
    outer loop
      vertex 1.433418e+02 -7.303072e+00 -6.096439e+01
      vertex 1.436860e+02 -7.929831e+00 -6.048566e+01
      vertex 1.419469e+02 6.779291e-01 -6.308826e+01
    endloop
  endfacet
  facet normal 3.045361e-02 -5.961070e-01 -8.023273e-01
    outer loop
      vertex 1.433418e+02 -7.303072e+00 -6.096439e+01
      vertex 1.524424e+02 -8.190505e+00 -5.995962e+01
      vertex 1.436860e+02 -7.929831e+00 -6.048566e+01
    endloop
  endfacet
  facet normal -2.107196e-01 -7.769683e-01 5.932263e-01
    outer loop
      vertex 1.528270e+02 -1.994794e+01 -3.636934e+01
      vertex 1.486944e+02 -1.913379e+01 -3.677096e+01
      vertex 1.431523e+02 -2.110705e+01 -4.132400e+01
    endloop
  endfacet
  facet normal 2.525480e-02 -9.832135e-01 1.807025e-01
    outer loop
      vertex 1.528270e+02 -1.994794e+01 -3.636934e+01
      vertex 1.431523e+02 -2.110705e+01 -4.132400e+01
      vertex 1.533210e+02 -2.084843e+01 -4.133800e+01
    endloop
  endfacet
  facet normal -7.802175e-02 -9.437442e-02 9.924747e-01
    outer loop
      vertex 1.529891e+02 -1.347439e+01 -3.589518e+01
      vertex 1.482819e+02 -1.506712e+01 -3.641668e+01
      vertex 1.486944e+02 -1.913379e+01 -3.677096e+01
    endloop
  endfacet
  facet normal -1.101168e-01 -6.986143e-02 9.914604e-01
    outer loop
      vertex 1.529891e+02 -1.347439e+01 -3.589518e+01
      vertex 1.486944e+02 -1.913379e+01 -3.677096e+01
      vertex 1.528270e+02 -1.994794e+01 -3.636934e+01
    endloop
  endfacet
  facet normal -4.517299e-01 -3.151006e-02 8.915981e-01
    outer loop
      vertex 1.537602e+02 -9.753080e-01 -3.314311e+01
      vertex 1.433943e+02 -5.997692e-01 -3.838170e+01
      vertex 1.482819e+02 -1.506712e+01 -3.641668e+01
    endloop
  endfacet
  facet normal -3.618733e-02 -2.127611e-01 9.764339e-01
    outer loop
      vertex 1.537602e+02 -9.753080e-01 -3.314311e+01
      vertex 1.482819e+02 -1.506712e+01 -3.641668e+01
      vertex 1.529891e+02 -1.347439e+01 -3.589518e+01
    endloop
  endfacet
  facet normal -3.625334e-01 -9.316359e-01 -2.498058e-02
    outer loop
      vertex 1.418631e+02 8.424173e-01 -6.800616e+01
      vertex 1.419469e+02 6.779291e-01 -6.308826e+01
      vertex 1.393002e+02 1.842102e+00 -6.809393e+01
    endloop
  endfacet
  facet normal -9.855054e-01 -1.692780e-01 1.113695e-02
    outer loop
      vertex 1.433418e+02 -7.303072e+00 -6.096439e+01
      vertex 1.419469e+02 6.779291e-01 -6.308826e+01
      vertex 1.418631e+02 8.424173e-01 -6.800616e+01
    endloop
  endfacet
  facet normal -6.193030e-02 -7.136617e-02 9.955257e-01
    outer loop
      vertex 1.539970e+02 1.016536e+01 -3.695041e+01
      vertex 1.425285e+02 9.906088e+00 -3.768243e+01
      vertex 1.433943e+02 -5.997692e-01 -3.838170e+01
    endloop
  endfacet
  facet normal -4.213700e-01 3.012827e-01 8.553807e-01
    outer loop
      vertex 1.539970e+02 1.016536e+01 -3.695041e+01
      vertex 1.433943e+02 -5.997692e-01 -3.838170e+01
      vertex 1.537602e+02 -9.753080e-01 -3.314311e+01
    endloop
  endfacet
  facet normal 6.193030e-02 7.136617e-02 -9.955257e-01
    outer loop
      vertex 1.369158e+02 2.336367e+01 -6.669944e+01
      vertex 1.393002e+02 1.842102e+00 -6.809393e+01
      vertex 1.338696e+02 1.062555e+01 -6.780210e+01
    endloop
  endfacet
  facet normal 6.193030e-02 7.136617e-02 -9.955257e-01
    outer loop
      vertex 1.416693e+02 4.838355e+00 -6.773175e+01
      vertex 1.418631e+02 8.424173e-01 -6.800616e+01
      vertex 1.393002e+02 1.842102e+00 -6.809393e+01
    endloop
  endfacet
  facet normal 6.193030e-02 7.136617e-02 -9.955257e-01
    outer loop
      vertex 1.400480e+02 2.088489e+01 -6.668229e+01
      vertex 1.393002e+02 1.842102e+00 -6.809393e+01
      vertex 1.369158e+02 2.336367e+01 -6.669944e+01
    endloop
  endfacet
  facet normal 6.193030e-02 7.136617e-02 -9.955257e-01
    outer loop
      vertex 1.400480e+02 2.088489e+01 -6.668229e+01
      vertex 1.416693e+02 4.838355e+00 -6.773175e+01
      vertex 1.393002e+02 1.842102e+00 -6.809393e+01
    endloop
  endfacet
  facet normal 6.193030e-02 7.136617e-02 -9.955257e-01
    outer loop
      vertex 1.360642e+02 2.105679e+01 -6.691779e+01
      vertex 1.369158e+02 2.336367e+01 -6.669944e+01
      vertex 1.338696e+02 1.062555e+01 -6.780210e+01
    endloop
  endfacet
  facet normal 6.193030e-02 7.136617e-02 -9.955257e-01
    outer loop
      vertex 1.580934e+02 6.733008e+00 -6.657422e+01
      vertex 1.526961e+02 -1.058437e+00 -6.746852e+01
      vertex 1.418631e+02 8.424173e-01 -6.800616e+01
    endloop
  endfacet
  facet normal -7.875326e-02 -6.601061e-01 -7.470327e-01
    outer loop
      vertex 1.433418e+02 -7.303072e+00 -6.096439e+01
      vertex 1.418631e+02 8.424173e-01 -6.800616e+01
      vertex 1.526961e+02 -1.058437e+00 -6.746852e+01
    endloop
  endfacet
  facet normal 6.193030e-02 7.136617e-02 -9.955257e-01
    outer loop
      vertex 1.416693e+02 4.838355e+00 -6.773175e+01
      vertex 1.580934e+02 6.733008e+00 -6.657422e+01
      vertex 1.418631e+02 8.424173e-01 -6.800616e+01
    endloop
  endfacet
  facet normal 6.193030e-02 7.136617e-02 -9.955257e-01
    outer loop
      vertex 1.580934e+02 6.733008e+00 -6.657422e+01
      vertex 1.608998e+02 3.934001e+00 -6.660029e+01
      vertex 1.526961e+02 -1.058437e+00 -6.746852e+01
    endloop
  endfacet
  facet normal 4.481172e-01 -6.252369e-01 -6.389599e-01
    outer loop
      vertex 1.639764e+02 -1.367226e+00 -5.925521e+01
      vertex 1.526961e+02 -1.058437e+00 -6.746852e+01
      vertex 1.608998e+02 3.934001e+00 -6.660029e+01
    endloop
  endfacet
  facet normal -4.692998e-01 8.686057e-01 1.590023e-01
    outer loop
      vertex 1.515500e+02 -1.656742e+00 -6.758271e+01
      vertex 1.433418e+02 -7.303072e+00 -6.096439e+01
      vertex 1.526961e+02 -1.058437e+00 -6.746852e+01
    endloop
  endfacet
  facet normal 4.587313e-01 -8.874054e-01 4.557791e-02
    outer loop
      vertex 1.528268e+02 -7.705944e-01 -6.318039e+01
      vertex 1.515500e+02 -1.656742e+00 -6.758271e+01
      vertex 1.526961e+02 -1.058437e+00 -6.746852e+01
    endloop
  endfacet
  facet normal -7.755824e-02 -9.945884e-01 6.912730e-02
    outer loop
      vertex 1.639764e+02 -1.367226e+00 -5.925521e+01
      vertex 1.528268e+02 -7.705944e-01 -6.318039e+01
      vertex 1.526961e+02 -1.058437e+00 -6.746852e+01
    endloop
  endfacet
  facet normal 6.193030e-02 7.136617e-02 -9.955257e-01
    outer loop
      vertex 1.629578e+02 1.780237e+01 -6.547808e+01
      vertex 1.615710e+02 7.131221e+00 -6.632933e+01
      vertex 1.608998e+02 3.934001e+00 -6.660029e+01
    endloop
  endfacet
  facet normal 9.768499e-01 -2.089681e-01 4.578823e-02
    outer loop
      vertex 1.613975e+02 6.931212e+00 -6.353930e+01
      vertex 1.608998e+02 3.934001e+00 -6.660029e+01
      vertex 1.615710e+02 7.131221e+00 -6.632933e+01
    endloop
  endfacet
  facet normal 6.193030e-02 7.136617e-02 -9.955257e-01
    outer loop
      vertex 1.584977e+02 2.593856e+01 -6.517228e+01
      vertex 1.629578e+02 1.780237e+01 -6.547808e+01
      vertex 1.608998e+02 3.934001e+00 -6.660029e+01
    endloop
  endfacet
  facet normal 6.193030e-02 7.136617e-02 -9.955257e-01
    outer loop
      vertex 1.580934e+02 6.733008e+00 -6.657422e+01
      vertex 1.584977e+02 2.593856e+01 -6.517228e+01
      vertex 1.608998e+02 3.934001e+00 -6.660029e+01
    endloop
  endfacet
  facet normal 9.453850e-01 1.424428e-01 -2.931848e-01
    outer loop
      vertex 1.613975e+02 6.931212e+00 -6.353930e+01
      vertex 1.639764e+02 -1.367226e+00 -5.925521e+01
      vertex 1.608998e+02 3.934001e+00 -6.660029e+01
    endloop
  endfacet
  facet normal 6.193030e-02 7.136617e-02 -9.955257e-01
    outer loop
      vertex 1.629578e+02 1.780237e+01 -6.547808e+01
      vertex 1.640917e+02 1.469597e+01 -6.563023e+01
      vertex 1.615710e+02 7.131221e+00 -6.632933e+01
    endloop
  endfacet
  facet normal 7.405751e-01 -1.871219e-01 -6.453943e-01
    outer loop
      vertex 1.694903e+02 1.006466e+01 -5.809269e+01
      vertex 1.615710e+02 7.131221e+00 -6.632933e+01
      vertex 1.640917e+02 1.469597e+01 -6.563023e+01
    endloop
  endfacet
  facet normal 3.852722e-01 -9.218414e-01 -4.211670e-02
    outer loop
      vertex 1.694903e+02 1.006466e+01 -5.809269e+01
      vertex 1.613975e+02 6.931212e+00 -6.353930e+01
      vertex 1.615710e+02 7.131221e+00 -6.632933e+01
    endloop
  endfacet
  facet normal 6.193030e-02 7.136617e-02 -9.955257e-01
    outer loop
      vertex 1.629578e+02 1.780237e+01 -6.547808e+01
      vertex 1.643354e+02 1.638131e+01 -6.549425e+01
      vertex 1.640917e+02 1.469597e+01 -6.563023e+01
    endloop
  endfacet
  facet normal 8.660313e-01 -8.549651e-02 -4.926257e-01
    outer loop
      vertex 1.690675e+02 1.838309e+01 -5.752266e+01
      vertex 1.640917e+02 1.469597e+01 -6.563023e+01
      vertex 1.643354e+02 1.638131e+01 -6.549425e+01
    endloop
  endfacet
  facet normal 8.329671e-01 7.985283e-02 -5.475302e-01
    outer loop
      vertex 1.690675e+02 1.838309e+01 -5.752266e+01
      vertex 1.694903e+02 1.006466e+01 -5.809269e+01
      vertex 1.640917e+02 1.469597e+01 -6.563023e+01
    endloop
  endfacet
  facet normal 6.127825e-01 5.999036e-01 -5.144058e-01
    outer loop
      vertex 1.690675e+02 1.838309e+01 -5.752266e+01
      vertex 1.643354e+02 1.638131e+01 -6.549425e+01
      vertex 1.629578e+02 1.780237e+01 -6.547808e+01
    endloop
  endfacet
  facet normal 7.357737e-01 4.232064e-01 -5.287092e-01
    outer loop
      vertex 1.624284e+02 2.910564e+01 -5.716701e+01
      vertex 1.629578e+02 1.780237e+01 -6.547808e+01
      vertex 1.584977e+02 2.593856e+01 -6.517228e+01
    endloop
  endfacet
  facet normal 9.931428e-01 9.578919e-02 -6.702132e-02
    outer loop
      vertex 1.631189e+02 1.755094e+01 -6.344999e+01
      vertex 1.629578e+02 1.780237e+01 -6.547808e+01
      vertex 1.624284e+02 2.910564e+01 -5.716701e+01
    endloop
  endfacet
  facet normal -2.723382e-01 9.520120e-01 1.396606e-01
    outer loop
      vertex 1.690675e+02 1.838309e+01 -5.752266e+01
      vertex 1.629578e+02 1.780237e+01 -6.547808e+01
      vertex 1.631189e+02 1.755094e+01 -6.344999e+01
    endloop
  endfacet
  facet normal 6.193030e-02 7.136617e-02 -9.955257e-01
    outer loop
      vertex 1.580934e+02 6.733008e+00 -6.657422e+01
      vertex 1.557215e+02 2.635158e+01 -6.531537e+01
      vertex 1.584977e+02 2.593856e+01 -6.517228e+01
    endloop
  endfacet
  facet normal 1.545380e-01 8.903987e-01 -4.281450e-01
    outer loop
      vertex 1.624284e+02 2.910564e+01 -5.716701e+01
      vertex 1.584977e+02 2.593856e+01 -6.517228e+01
      vertex 1.557215e+02 2.635158e+01 -6.531537e+01
    endloop
  endfacet
  facet normal 6.193030e-02 7.136617e-02 -9.955257e-01
    outer loop
      vertex 1.555903e+02 2.296553e+01 -6.556627e+01
      vertex 1.453454e+02 2.847405e+01 -6.580870e+01
      vertex 1.557215e+02 2.635158e+01 -6.531537e+01
    endloop
  endfacet
  facet normal 2.028196e-01 9.773027e-01 -6.118513e-02
    outer loop
      vertex 1.559907e+02 2.641740e+01 -6.337177e+01
      vertex 1.557215e+02 2.635158e+01 -6.531537e+01
      vertex 1.453454e+02 2.847405e+01 -6.580870e+01
    endloop
  endfacet
  facet normal 6.193030e-02 7.136617e-02 -9.955257e-01
    outer loop
      vertex 1.580934e+02 6.733008e+00 -6.657422e+01
      vertex 1.555903e+02 2.296553e+01 -6.556627e+01
      vertex 1.557215e+02 2.635158e+01 -6.531537e+01
    endloop
  endfacet
  facet normal -4.058452e-01 9.135926e-01 2.526446e-02
    outer loop
      vertex 1.624284e+02 2.910564e+01 -5.716701e+01
      vertex 1.557215e+02 2.635158e+01 -6.531537e+01
      vertex 1.559907e+02 2.641740e+01 -6.337177e+01
    endloop
  endfacet
  facet normal 6.193030e-02 7.136617e-02 -9.955257e-01
    outer loop
      vertex 1.400480e+02 2.088489e+01 -6.668229e+01
      vertex 1.369158e+02 2.336367e+01 -6.669944e+01
      vertex 1.453454e+02 2.847405e+01 -6.580870e+01
    endloop
  endfacet
  facet normal -5.194296e-01 8.544021e-01 1.378557e-02
    outer loop
      vertex 1.453910e+02 2.846001e+01 -6.321961e+01
      vertex 1.453454e+02 2.847405e+01 -6.580870e+01
      vertex 1.369158e+02 2.336367e+01 -6.669944e+01
    endloop
  endfacet
  facet normal 6.193030e-02 7.136617e-02 -9.955257e-01
    outer loop
      vertex 1.400480e+02 2.088489e+01 -6.668229e+01
      vertex 1.453454e+02 2.847405e+01 -6.580870e+01
      vertex 1.555903e+02 2.296553e+01 -6.556627e+01
    endloop
  endfacet
  facet normal 1.892503e-01 9.819269e-01 1.992074e-03
    outer loop
      vertex 1.559907e+02 2.641740e+01 -6.337177e+01
      vertex 1.453454e+02 2.847405e+01 -6.580870e+01
      vertex 1.453910e+02 2.846001e+01 -6.321961e+01
    endloop
  endfacet
  facet normal -7.486503e-01 -7.453867e-02 -6.587615e-01
    outer loop
      vertex 1.524150e+02 1.895969e+01 -6.150453e+01
      vertex 1.555903e+02 2.296553e+01 -6.556627e+01
      vertex 1.580934e+02 6.733008e+00 -6.657422e+01
    endloop
  endfacet
  facet normal 1.471654e-01 -7.593349e-01 -6.338398e-01
    outer loop
      vertex 1.524150e+02 1.895969e+01 -6.150453e+01
      vertex 1.400480e+02 2.088489e+01 -6.668229e+01
      vertex 1.555903e+02 2.296553e+01 -6.556627e+01
    endloop
  endfacet
  facet normal -5.239103e-02 8.105438e-01 -5.833301e-01
    outer loop
      vertex 1.535391e+02 9.637703e+00 -6.212908e+01
      vertex 1.580934e+02 6.733008e+00 -6.657422e+01
      vertex 1.416693e+02 4.838355e+00 -6.773175e+01
    endloop
  endfacet
  facet normal -7.104605e-01 -3.859295e-02 -7.026780e-01
    outer loop
      vertex 1.524150e+02 1.895969e+01 -6.150453e+01
      vertex 1.580934e+02 6.733008e+00 -6.657422e+01
      vertex 1.535391e+02 9.637703e+00 -6.212908e+01
    endloop
  endfacet
  facet normal 7.766621e-01 1.189294e-01 -6.185885e-01
    outer loop
      vertex 1.443002e+02 1.878941e+01 -6.174641e+01
      vertex 1.416693e+02 4.838355e+00 -6.773175e+01
      vertex 1.400480e+02 2.088489e+01 -6.668229e+01
    endloop
  endfacet
  facet normal 9.785035e-01 -1.095641e-01 -1.747187e-01
    outer loop
      vertex 1.431165e+02 9.839334e+00 -6.276300e+01
      vertex 1.416693e+02 4.838355e+00 -6.773175e+01
      vertex 1.443002e+02 1.878941e+01 -6.174641e+01
    endloop
  endfacet
  facet normal 5.702623e-02 6.953180e-01 -7.164363e-01
    outer loop
      vertex 1.535391e+02 9.637703e+00 -6.212908e+01
      vertex 1.416693e+02 4.838355e+00 -6.773175e+01
      vertex 1.431165e+02 9.839334e+00 -6.276300e+01
    endloop
  endfacet
  facet normal 3.141798e-02 -9.100070e-01 -4.134008e-01
    outer loop
      vertex 1.524150e+02 1.895969e+01 -6.150453e+01
      vertex 1.443002e+02 1.878941e+01 -6.174641e+01
      vertex 1.400480e+02 2.088489e+01 -6.668229e+01
    endloop
  endfacet
  facet normal -1.317136e-01 -3.540208e-01 9.259162e-01
    outer loop
      vertex 1.542648e+02 2.175591e+01 -3.148218e+01
      vertex 1.449332e+02 2.416025e+01 -3.189033e+01
      vertex 1.425285e+02 9.906088e+00 -3.768243e+01
    endloop
  endfacet
  facet normal -4.807345e-02 -4.252795e-01 9.037844e-01
    outer loop
      vertex 1.542648e+02 2.175591e+01 -3.148218e+01
      vertex 1.425285e+02 9.906088e+00 -3.768243e+01
      vertex 1.539970e+02 1.016536e+01 -3.695041e+01
    endloop
  endfacet
  facet normal 2.732491e-02 1.092478e-01 -9.936389e-01
    outer loop
      vertex 1.524150e+02 1.895969e+01 -6.150453e+01
      vertex 1.431165e+02 9.839334e+00 -6.276300e+01
      vertex 1.443002e+02 1.878941e+01 -6.174641e+01
    endloop
  endfacet
  facet normal 6.197171e-02 7.415594e-02 -9.953192e-01
    outer loop
      vertex 1.524150e+02 1.895969e+01 -6.150453e+01
      vertex 1.535391e+02 9.637703e+00 -6.212908e+01
      vertex 1.431165e+02 9.839334e+00 -6.276300e+01
    endloop
  endfacet
  facet normal 2.507940e-01 1.461867e-01 9.569388e-01
    outer loop
      vertex 1.539010e+02 3.179013e+01 -3.540617e+01
      vertex 1.433148e+02 3.567103e+01 -3.322462e+01
      vertex 1.449332e+02 2.416025e+01 -3.189033e+01
    endloop
  endfacet
  facet normal 5.349115e-02 3.653621e-01 9.293273e-01
    outer loop
      vertex 1.539010e+02 3.179013e+01 -3.540617e+01
      vertex 1.449332e+02 2.416025e+01 -3.189033e+01
      vertex 1.542648e+02 2.175591e+01 -3.148218e+01
    endloop
  endfacet
  facet normal 2.747633e-02 7.014752e-01 -7.121641e-01
    outer loop
      vertex 1.516180e+02 3.458702e+01 -5.694432e+01
      vertex 1.453910e+02 2.846001e+01 -6.321961e+01
      vertex 1.443303e+02 3.439849e+01 -5.741119e+01
    endloop
  endfacet
  facet normal 1.147736e-01 6.514580e-01 -7.499530e-01
    outer loop
      vertex 1.516180e+02 3.458702e+01 -5.694432e+01
      vertex 1.559907e+02 2.641740e+01 -6.337177e+01
      vertex 1.453910e+02 2.846001e+01 -6.321961e+01
    endloop
  endfacet
  facet normal 1.933455e-01 -9.539314e-02 9.764823e-01
    outer loop
      vertex 1.538529e+02 4.260252e+01 -3.463405e+01
      vertex 1.430288e+02 4.244995e+01 -3.250576e+01
      vertex 1.433148e+02 3.567103e+01 -3.322462e+01
    endloop
  endfacet
  facet normal 1.769073e-01 -6.932380e-02 9.817831e-01
    outer loop
      vertex 1.538529e+02 4.260252e+01 -3.463405e+01
      vertex 1.433148e+02 3.567103e+01 -3.322462e+01
      vertex 1.539010e+02 3.179013e+01 -3.540617e+01
    endloop
  endfacet
  facet normal -1.209991e-02 8.281406e-01 -5.603897e-01
    outer loop
      vertex 1.527985e+02 3.771486e+01 -5.269312e+01
      vertex 1.443303e+02 3.439849e+01 -5.741119e+01
      vertex 1.436748e+02 3.764412e+01 -5.260065e+01
    endloop
  endfacet
  facet normal 5.260921e-02 7.876110e-01 -6.139227e-01
    outer loop
      vertex 1.521269e+02 4.381488e+01 -4.395980e+01
      vertex 1.436748e+02 3.764412e+01 -5.260065e+01
      vertex 1.438702e+02 4.419082e+01 -4.418504e+01
    endloop
  endfacet
  facet normal -1.216144e-02 8.193184e-01 -5.732099e-01
    outer loop
      vertex 1.521269e+02 4.381488e+01 -4.395980e+01
      vertex 1.527985e+02 3.771486e+01 -5.269312e+01
      vertex 1.436748e+02 3.764412e+01 -5.260065e+01
    endloop
  endfacet
  facet normal 1.738580e-02 8.030414e-01 -5.956696e-01
    outer loop
      vertex 1.516180e+02 3.458702e+01 -5.694432e+01
      vertex 1.443303e+02 3.439849e+01 -5.741119e+01
      vertex 1.527985e+02 3.771486e+01 -5.269312e+01
    endloop
  endfacet
  facet normal 1.839880e-03 7.992780e-01 6.009586e-01
    outer loop
      vertex 1.528674e+02 4.422736e+01 -3.489985e+01
      vertex 1.441661e+02 4.462475e+01 -3.540173e+01
      vertex 1.430288e+02 4.244995e+01 -3.250576e+01
    endloop
  endfacet
  facet normal 1.824025e-01 2.654996e-01 9.466992e-01
    outer loop
      vertex 1.528674e+02 4.422736e+01 -3.489985e+01
      vertex 1.430288e+02 4.244995e+01 -3.250576e+01
      vertex 1.538529e+02 4.260252e+01 -3.463405e+01
    endloop
  endfacet
  facet normal -2.122216e-01 9.681306e-01 -1.329855e-01
    outer loop
      vertex 1.439779e+02 4.479954e+01 -3.810435e+01
      vertex 1.353399e+02 4.197652e+01 -4.487105e+01
      vertex 1.355883e+02 4.286978e+01 -3.876459e+01
    endloop
  endfacet
  facet normal -2.293479e-01 9.701564e-01 7.871480e-02
    outer loop
      vertex 1.441661e+02 4.462475e+01 -3.540173e+01
      vertex 1.439779e+02 4.479954e+01 -3.810435e+01
      vertex 1.355883e+02 4.286978e+01 -3.876459e+01
    endloop
  endfacet
  facet normal -2.261078e-01 9.716059e-01 6.969354e-02
    outer loop
      vertex 1.441661e+02 4.462475e+01 -3.540173e+01
      vertex 1.355883e+02 4.286978e+01 -3.876459e+01
      vertex 1.354345e+02 4.264193e+01 -3.608706e+01
    endloop
  endfacet
  facet normal -2.432144e-01 9.655661e-01 -9.235177e-02
    outer loop
      vertex 1.438702e+02 4.419082e+01 -4.418504e+01
      vertex 1.353399e+02 4.197652e+01 -4.487105e+01
      vertex 1.439779e+02 4.479954e+01 -3.810435e+01
    endloop
  endfacet
  facet normal 5.618232e-02 9.933559e-01 -1.004367e-01
    outer loop
      vertex 1.526541e+02 4.389616e+01 -4.218583e+01
      vertex 1.438702e+02 4.419082e+01 -4.418504e+01
      vertex 1.439779e+02 4.479954e+01 -3.810435e+01
    endloop
  endfacet
  facet normal 4.199083e-02 9.972189e-01 6.157265e-02
    outer loop
      vertex 1.528674e+02 4.422736e+01 -3.489985e+01
      vertex 1.439779e+02 4.479954e+01 -3.810435e+01
      vertex 1.441661e+02 4.462475e+01 -3.540173e+01
    endloop
  endfacet
  facet normal 8.125077e-02 9.955548e-01 -4.763447e-02
    outer loop
      vertex 1.528674e+02 4.422736e+01 -3.489985e+01
      vertex 1.526541e+02 4.389616e+01 -4.218583e+01
      vertex 1.439779e+02 4.479954e+01 -3.810435e+01
    endloop
  endfacet
  facet normal 4.702802e-02 9.971102e-01 -5.966249e-02
    outer loop
      vertex 1.521269e+02 4.381488e+01 -4.395980e+01
      vertex 1.438702e+02 4.419082e+01 -4.418504e+01
      vertex 1.526541e+02 4.389616e+01 -4.218583e+01
    endloop
  endfacet
  facet normal 2.642292e-01 -7.283947e-01 -6.321582e-01
    outer loop
      vertex 1.608566e+02 -1.719272e+01 -4.752534e+01
      vertex 1.529309e+02 -1.939925e+01 -4.829570e+01
      vertex 1.514620e+02 -1.214314e+01 -5.727039e+01
    endloop
  endfacet
  facet normal 3.092666e-01 -9.273857e-01 -2.104991e-01
    outer loop
      vertex 1.621484e+02 -1.792590e+01 -4.124438e+01
      vertex 1.533210e+02 -2.084843e+01 -4.133800e+01
      vertex 1.529309e+02 -1.939925e+01 -4.829570e+01
    endloop
  endfacet
  facet normal 2.795026e-01 -9.453621e-01 -1.678353e-01
    outer loop
      vertex 1.621484e+02 -1.792590e+01 -4.124438e+01
      vertex 1.529309e+02 -1.939925e+01 -4.829570e+01
      vertex 1.608566e+02 -1.719272e+01 -4.752534e+01
    endloop
  endfacet
  facet normal 2.683603e-01 -5.864966e-01 -7.642019e-01
    outer loop
      vertex 1.614459e+02 -8.705256e+00 -5.640285e+01
      vertex 1.514620e+02 -1.214314e+01 -5.727039e+01
      vertex 1.524424e+02 -8.190505e+00 -5.995962e+01
    endloop
  endfacet
  facet normal 6.193030e-02 7.136617e-02 -9.955257e-01
    outer loop
      vertex 1.614459e+02 -8.705256e+00 -5.640285e+01
      vertex 1.579669e+02 -1.046690e+01 -5.674556e+01
      vertex 1.514620e+02 -1.214314e+01 -5.727039e+01
    endloop
  endfacet
  facet normal 2.422998e-01 -7.460943e-01 -6.201888e-01
    outer loop
      vertex 1.608566e+02 -1.719272e+01 -4.752534e+01
      vertex 1.514620e+02 -1.214314e+01 -5.727039e+01
      vertex 1.579669e+02 -1.046690e+01 -5.674556e+01
    endloop
  endfacet
  facet normal -2.218729e-03 -7.593983e-01 -6.506222e-01
    outer loop
      vertex 1.515500e+02 -1.656742e+00 -6.758271e+01
      vertex 1.524424e+02 -8.190505e+00 -5.995962e+01
      vertex 1.433418e+02 -7.303072e+00 -6.096439e+01
    endloop
  endfacet
  facet normal 9.565855e-01 -1.563310e-01 -2.459771e-01
    outer loop
      vertex 1.528268e+02 -7.705944e-01 -6.318039e+01
      vertex 1.524424e+02 -8.190505e+00 -5.995962e+01
      vertex 1.515500e+02 -1.656742e+00 -6.758271e+01
    endloop
  endfacet
  facet normal 2.863898e-01 -3.939454e-01 -8.733773e-01
    outer loop
      vertex 1.639764e+02 -1.367226e+00 -5.925521e+01
      vertex 1.524424e+02 -8.190505e+00 -5.995962e+01
      vertex 1.528268e+02 -7.705944e-01 -6.318039e+01
    endloop
  endfacet
  facet normal 3.091432e-01 -4.352797e-01 -8.455543e-01
    outer loop
      vertex 1.639764e+02 -1.367226e+00 -5.925521e+01
      vertex 1.614459e+02 -8.705256e+00 -5.640285e+01
      vertex 1.524424e+02 -8.190505e+00 -5.995962e+01
    endloop
  endfacet
  facet normal 2.719288e-01 -9.417865e-01 1.977194e-01
    outer loop
      vertex 1.622669e+02 -1.766307e+01 -3.846896e+01
      vertex 1.528270e+02 -1.994794e+01 -3.636934e+01
      vertex 1.533210e+02 -2.084843e+01 -4.133800e+01
    endloop
  endfacet
  facet normal 3.126517e-01 -9.467980e-01 7.630526e-02
    outer loop
      vertex 1.622669e+02 -1.766307e+01 -3.846896e+01
      vertex 1.533210e+02 -2.084843e+01 -4.133800e+01
      vertex 1.621484e+02 -1.792590e+01 -4.124438e+01
    endloop
  endfacet
  facet normal 1.748040e-01 -7.627910e-02 9.816441e-01
    outer loop
      vertex 1.647438e+02 -1.150666e+01 -3.783546e+01
      vertex 1.529891e+02 -1.347439e+01 -3.589518e+01
      vertex 1.528270e+02 -1.994794e+01 -3.636934e+01
    endloop
  endfacet
  facet normal 2.588544e-01 -2.013528e-01 9.446965e-01
    outer loop
      vertex 1.647438e+02 -1.150666e+01 -3.783546e+01
      vertex 1.528270e+02 -1.994794e+01 -3.636934e+01
      vertex 1.622669e+02 -1.766307e+01 -3.846896e+01
    endloop
  endfacet
  facet normal 3.340704e-01 -2.222865e-01 9.159616e-01
    outer loop
      vertex 1.646958e+02 -6.942782e-01 -3.706335e+01
      vertex 1.537602e+02 -9.753080e-01 -3.314311e+01
      vertex 1.529891e+02 -1.347439e+01 -3.589518e+01
    endloop
  endfacet
  facet normal 1.737637e-01 -6.937757e-02 9.823405e-01
    outer loop
      vertex 1.646958e+02 -6.942782e-01 -3.706335e+01
      vertex 1.529891e+02 -1.347439e+01 -3.589518e+01
      vertex 1.647438e+02 -1.150666e+01 -3.783546e+01
    endloop
  endfacet
  facet normal -4.320730e-01 2.998525e-01 8.505300e-01
    outer loop
      vertex 1.606667e+02 6.282258e+00 -3.219319e+01
      vertex 1.539970e+02 1.016536e+01 -3.695041e+01
      vertex 1.537602e+02 -9.753080e-01 -3.314311e+01
    endloop
  endfacet
  facet normal 3.167003e-01 -4.131375e-01 8.538257e-01
    outer loop
      vertex 1.606667e+02 6.282258e+00 -3.219319e+01
      vertex 1.537602e+02 -9.753080e-01 -3.314311e+01
      vertex 1.646958e+02 -6.942782e-01 -3.706335e+01
    endloop
  endfacet
  facet normal 3.026987e-01 -4.123748e-01 8.592558e-01
    outer loop
      vertex 1.645997e+02 2.093049e+01 -3.551911e+01
      vertex 1.542648e+02 2.175591e+01 -3.148218e+01
      vertex 1.539970e+02 1.016536e+01 -3.695041e+01
    endloop
  endfacet
  facet normal -4.272208e-01 3.077387e-01 8.501643e-01
    outer loop
      vertex 1.645997e+02 2.093049e+01 -3.551911e+01
      vertex 1.539970e+02 1.016536e+01 -3.695041e+01
      vertex 1.606667e+02 6.282258e+00 -3.219319e+01
    endloop
  endfacet
  facet normal -2.288506e-01 3.473285e-01 9.093901e-01
    outer loop
      vertex 1.656089e+02 3.080322e+01 -3.208290e+01
      vertex 1.539010e+02 3.179013e+01 -3.540617e+01
      vertex 1.542648e+02 2.175591e+01 -3.148218e+01
    endloop
  endfacet
  facet normal 3.183843e-01 -3.404693e-01 8.847102e-01
    outer loop
      vertex 1.656089e+02 3.080322e+01 -3.208290e+01
      vertex 1.542648e+02 2.175591e+01 -3.148218e+01
      vertex 1.645997e+02 2.093049e+01 -3.551911e+01
    endloop
  endfacet
  facet normal 2.439492e-01 6.769289e-01 -6.944466e-01
    outer loop
      vertex 1.600131e+02 3.525884e+01 -5.334033e+01
      vertex 1.559907e+02 2.641740e+01 -6.337177e+01
      vertex 1.516180e+02 3.458702e+01 -5.694432e+01
    endloop
  endfacet
  facet normal 4.170199e-01 5.923842e-01 -6.893296e-01
    outer loop
      vertex 1.600131e+02 3.525884e+01 -5.334033e+01
      vertex 1.624284e+02 2.910564e+01 -5.716701e+01
      vertex 1.559907e+02 2.641740e+01 -6.337177e+01
    endloop
  endfacet
  facet normal -5.947392e-02 -7.136595e-02 9.956755e-01
    outer loop
      vertex 1.630276e+02 4.015905e+01 -3.426116e+01
      vertex 1.538529e+02 4.260252e+01 -3.463405e+01
      vertex 1.539010e+02 3.179013e+01 -3.540617e+01
    endloop
  endfacet
  facet normal -2.581354e-01 1.509515e-01 9.542430e-01
    outer loop
      vertex 1.630276e+02 4.015905e+01 -3.426116e+01
      vertex 1.539010e+02 3.179013e+01 -3.540617e+01
      vertex 1.656089e+02 3.080322e+01 -3.208290e+01
    endloop
  endfacet
  facet normal 2.298332e-01 7.523497e-01 -6.173708e-01
    outer loop
      vertex 1.601663e+02 3.514313e+01 -5.308426e+01
      vertex 1.516180e+02 3.458702e+01 -5.694432e+01
      vertex 1.527985e+02 3.771486e+01 -5.269312e+01
    endloop
  endfacet
  facet normal 2.378086e-01 8.047897e-01 -5.438387e-01
    outer loop
      vertex 1.596764e+02 4.199210e+01 -4.335599e+01
      vertex 1.527985e+02 3.771486e+01 -5.269312e+01
      vertex 1.521269e+02 4.381488e+01 -4.395980e+01
    endloop
  endfacet
  facet normal 2.492992e-01 7.977300e-01 -5.490689e-01
    outer loop
      vertex 1.596764e+02 4.199210e+01 -4.335599e+01
      vertex 1.601663e+02 3.514313e+01 -5.308426e+01
      vertex 1.527985e+02 3.771486e+01 -5.269312e+01
    endloop
  endfacet
  facet normal -2.925700e-01 7.935222e-01 5.335966e-01
    outer loop
      vertex 1.600131e+02 3.525884e+01 -5.334033e+01
      vertex 1.516180e+02 3.458702e+01 -5.694432e+01
      vertex 1.601663e+02 3.514313e+01 -5.308426e+01
    endloop
  endfacet
  facet normal 2.183310e-02 1.742851e-01 9.844532e-01
    outer loop
      vertex 1.599475e+02 4.209756e+01 -3.467982e+01
      vertex 1.528674e+02 4.422736e+01 -3.489985e+01
      vertex 1.538529e+02 4.260252e+01 -3.463405e+01
    endloop
  endfacet
  facet normal 2.828496e-02 2.537509e-01 9.668560e-01
    outer loop
      vertex 1.599475e+02 4.209756e+01 -3.467982e+01
      vertex 1.538529e+02 4.260252e+01 -3.463405e+01
      vertex 1.630276e+02 4.015905e+01 -3.426116e+01
    endloop
  endfacet
  facet normal 2.671612e-01 9.557467e-01 -1.231793e-01
    outer loop
      vertex 1.599534e+02 4.180948e+01 -4.254497e+01
      vertex 1.521269e+02 4.381488e+01 -4.395980e+01
      vertex 1.526541e+02 4.389616e+01 -4.218583e+01
    endloop
  endfacet
  facet normal 2.891558e-01 9.558731e-01 -5.191841e-02
    outer loop
      vertex 1.599475e+02 4.209756e+01 -3.467982e+01
      vertex 1.526541e+02 4.389616e+01 -4.218583e+01
      vertex 1.528674e+02 4.422736e+01 -3.489985e+01
    endloop
  endfacet
  facet normal 2.731008e-01 9.613483e-01 -3.500624e-02
    outer loop
      vertex 1.599475e+02 4.209756e+01 -3.467982e+01
      vertex 1.599534e+02 4.180948e+01 -4.254497e+01
      vertex 1.526541e+02 4.389616e+01 -4.218583e+01
    endloop
  endfacet
  facet normal 2.216248e-01 9.648032e-01 1.415532e-01
    outer loop
      vertex 1.596764e+02 4.199210e+01 -4.335599e+01
      vertex 1.521269e+02 4.381488e+01 -4.395980e+01
      vertex 1.599534e+02 4.180948e+01 -4.254497e+01
    endloop
  endfacet
  facet normal 4.526591e-01 -8.916019e-01 -1.207639e-02
    outer loop
      vertex 1.614459e+02 -8.705256e+00 -5.640285e+01
      vertex 1.620152e+02 -8.473158e+00 -5.220059e+01
      vertex 1.579669e+02 -1.046690e+01 -5.674556e+01
    endloop
  endfacet
  facet normal 7.673195e-01 -3.792227e-01 -5.171179e-01
    outer loop
      vertex 1.608566e+02 -1.719272e+01 -4.752534e+01
      vertex 1.579669e+02 -1.046690e+01 -5.674556e+01
      vertex 1.620152e+02 -8.473158e+00 -5.220059e+01
    endloop
  endfacet
  facet normal 6.295161e-02 -9.969311e-01 4.653433e-02
    outer loop
      vertex 1.711207e+02 -7.870747e+00 -5.161270e+01
      vertex 1.620152e+02 -8.473158e+00 -5.220059e+01
      vertex 1.614459e+02 -8.705256e+00 -5.640285e+01
    endloop
  endfacet
  facet normal 8.810269e-02 -4.797690e-01 -8.729602e-01
    outer loop
      vertex 1.711207e+02 -7.870747e+00 -5.161270e+01
      vertex 1.608566e+02 -1.719272e+01 -4.752534e+01
      vertex 1.620152e+02 -8.473158e+00 -5.220059e+01
    endloop
  endfacet
  facet normal 5.610887e-01 -4.607807e-01 -6.876486e-01
    outer loop
      vertex 1.703174e+02 3.094444e-01 -5.520473e+01
      vertex 1.614459e+02 -8.705256e+00 -5.640285e+01
      vertex 1.639764e+02 -1.367226e+00 -5.925521e+01
    endloop
  endfacet
  facet normal 1.521043e-01 -9.788687e-01 -1.366761e-01
    outer loop
      vertex 1.709279e+02 -7.811266e+00 -5.225326e+01
      vertex 1.711207e+02 -7.870747e+00 -5.161270e+01
      vertex 1.614459e+02 -8.705256e+00 -5.640285e+01
    endloop
  endfacet
  facet normal 4.067203e-01 -2.848958e-01 -8.679937e-01
    outer loop
      vertex 1.703174e+02 3.094444e-01 -5.520473e+01
      vertex 1.709279e+02 -7.811266e+00 -5.225326e+01
      vertex 1.614459e+02 -8.705256e+00 -5.640285e+01
    endloop
  endfacet
  facet normal 5.382227e-01 -8.172179e-01 -2.060857e-01
    outer loop
      vertex 1.679405e+02 -1.421214e+01 -4.084403e+01
      vertex 1.621484e+02 -1.792590e+01 -4.124438e+01
      vertex 1.608566e+02 -1.719272e+01 -4.752534e+01
    endloop
  endfacet
  facet normal 4.935719e-01 -7.422185e-01 -4.533194e-01
    outer loop
      vertex 1.711207e+02 -7.870747e+00 -5.161270e+01
      vertex 1.675871e+02 -1.314973e+01 -4.681682e+01
      vertex 1.608566e+02 -1.719272e+01 -4.752534e+01
    endloop
  endfacet
  facet normal 5.203937e-01 -8.348907e-01 -1.792985e-01
    outer loop
      vertex 1.679405e+02 -1.421214e+01 -4.084403e+01
      vertex 1.608566e+02 -1.719272e+01 -4.752534e+01
      vertex 1.675871e+02 -1.314973e+01 -4.681682e+01
    endloop
  endfacet
  facet normal 5.288847e-01 -8.467372e-01 5.759402e-02
    outer loop
      vertex 1.687261e+02 -1.360379e+01 -3.810485e+01
      vertex 1.622669e+02 -1.766307e+01 -3.846896e+01
      vertex 1.621484e+02 -1.792590e+01 -4.124438e+01
    endloop
  endfacet
  facet normal 5.378542e-01 -8.423984e-01 3.282862e-02
    outer loop
      vertex 1.687261e+02 -1.360379e+01 -3.810485e+01
      vertex 1.621484e+02 -1.792590e+01 -4.124438e+01
      vertex 1.679405e+02 -1.421214e+01 -4.084403e+01
    endloop
  endfacet
  facet normal -5.985465e-02 -7.831835e-02 9.951300e-01
    outer loop
      vertex 1.724544e+02 -9.241118e+00 -3.719339e+01
      vertex 1.647438e+02 -1.150666e+01 -3.783546e+01
      vertex 1.622669e+02 -1.766307e+01 -3.846896e+01
    endloop
  endfacet
  facet normal 1.511407e-01 -3.242595e-01 9.338160e-01
    outer loop
      vertex 1.687261e+02 -1.360379e+01 -3.810485e+01
      vertex 1.724544e+02 -9.241118e+00 -3.719339e+01
      vertex 1.622669e+02 -1.766307e+01 -3.846896e+01
    endloop
  endfacet
  facet normal -3.132125e-01 -6.902941e-02 9.471710e-01
    outer loop
      vertex 1.751731e+02 -9.413579e-01 -3.361669e+01
      vertex 1.646958e+02 -6.942782e-01 -3.706335e+01
      vertex 1.647438e+02 -1.150666e+01 -3.783546e+01
    endloop
  endfacet
  facet normal 4.375149e-02 -4.074287e-01 9.121884e-01
    outer loop
      vertex 1.751731e+02 -9.413579e-01 -3.361669e+01
      vertex 1.647438e+02 -1.150666e+01 -3.783546e+01
      vertex 1.724544e+02 -9.241118e+00 -3.719339e+01
    endloop
  endfacet
  facet normal 6.007328e-01 -2.113429e-01 -7.710086e-01
    outer loop
      vertex 1.694903e+02 1.006466e+01 -5.809269e+01
      vertex 1.639764e+02 -1.367226e+00 -5.925521e+01
      vertex 1.613975e+02 6.931212e+00 -6.353930e+01
    endloop
  endfacet
  facet normal 5.637145e-01 -1.901552e-01 -8.037829e-01
    outer loop
      vertex 1.694903e+02 1.006466e+01 -5.809269e+01
      vertex 1.703174e+02 3.094444e-01 -5.520473e+01
      vertex 1.639764e+02 -1.367226e+00 -5.925521e+01
    endloop
  endfacet
  facet normal 3.090017e-01 -4.179259e-01 8.543161e-01
    outer loop
      vertex 1.752984e+02 1.007085e+01 -3.563205e+01
      vertex 1.606667e+02 6.282258e+00 -3.219319e+01
      vertex 1.646958e+02 -6.942782e-01 -3.706335e+01
    endloop
  endfacet
  facet normal -3.039522e-01 1.748508e-01 9.365043e-01
    outer loop
      vertex 1.752984e+02 1.007085e+01 -3.563205e+01
      vertex 1.646958e+02 -6.942782e-01 -3.706335e+01
      vertex 1.751731e+02 -9.413579e-01 -3.361669e+01
    endloop
  endfacet
  facet normal -5.898313e-02 2.360655e-01 9.699454e-01
    outer loop
      vertex 1.752504e+02 2.088324e+01 -3.485993e+01
      vertex 1.645997e+02 2.093049e+01 -3.551911e+01
      vertex 1.606667e+02 6.282258e+00 -3.219319e+01
    endloop
  endfacet
  facet normal 2.449109e-01 -6.797743e-02 9.671596e-01
    outer loop
      vertex 1.752504e+02 2.088324e+01 -3.485993e+01
      vertex 1.606667e+02 6.282258e+00 -3.219319e+01
      vertex 1.752984e+02 1.007085e+01 -3.563205e+01
    endloop
  endfacet
  facet normal -8.239533e-02 -3.200694e-01 9.438043e-01
    outer loop
      vertex 1.722814e+02 3.066222e+01 -3.154820e+01
      vertex 1.656089e+02 3.080322e+01 -3.208290e+01
      vertex 1.645997e+02 2.093049e+01 -3.551911e+01
    endloop
  endfacet
  facet normal -5.965910e-02 -3.363943e-01 9.398296e-01
    outer loop
      vertex 1.722814e+02 3.066222e+01 -3.154820e+01
      vertex 1.645997e+02 2.093049e+01 -3.551911e+01
      vertex 1.752504e+02 2.088324e+01 -3.485993e+01
    endloop
  endfacet
  facet normal 5.377464e-01 4.273301e-01 -7.267859e-01
    outer loop
      vertex 1.692807e+02 2.695973e+01 -5.335875e+01
      vertex 1.631189e+02 1.755094e+01 -6.344999e+01
      vertex 1.624284e+02 2.910564e+01 -5.716701e+01
    endloop
  endfacet
  facet normal 4.141358e-01 5.923502e-01 -6.910954e-01
    outer loop
      vertex 1.651327e+02 3.175834e+01 -5.327279e+01
      vertex 1.624284e+02 2.910564e+01 -5.716701e+01
      vertex 1.600131e+02 3.525884e+01 -5.334033e+01
    endloop
  endfacet
  facet normal 5.363866e-01 4.761443e-01 -6.968329e-01
    outer loop
      vertex 1.651327e+02 3.175834e+01 -5.327279e+01
      vertex 1.692807e+02 2.695973e+01 -5.335875e+01
      vertex 1.624284e+02 2.910564e+01 -5.716701e+01
    endloop
  endfacet
  facet normal 6.457545e-01 3.204221e-01 -6.930590e-01
    outer loop
      vertex 1.692807e+02 2.695973e+01 -5.335875e+01
      vertex 1.690675e+02 1.838309e+01 -5.752266e+01
      vertex 1.631189e+02 1.755094e+01 -6.344999e+01
    endloop
  endfacet
  facet normal 1.967950e-01 2.735058e-01 9.415234e-01
    outer loop
      vertex 1.691104e+02 3.639724e+01 -3.443979e+01
      vertex 1.630276e+02 4.015905e+01 -3.426116e+01
      vertex 1.656089e+02 3.080322e+01 -3.208290e+01
    endloop
  endfacet
  facet normal -6.361001e-02 4.210340e-01 9.048117e-01
    outer loop
      vertex 1.691104e+02 3.639724e+01 -3.443979e+01
      vertex 1.656089e+02 3.080322e+01 -3.208290e+01
      vertex 1.722814e+02 3.066222e+01 -3.154820e+01
    endloop
  endfacet
  facet normal -6.422997e-01 4.771258e-01 5.998351e-01
    outer loop
      vertex 1.686191e+02 3.544532e+01 -4.427349e+01
      vertex 1.600131e+02 3.525884e+01 -5.334033e+01
      vertex 1.601663e+02 3.514313e+01 -5.308426e+01
    endloop
  endfacet
  facet normal 8.985069e-01 3.789514e-01 -2.215428e-01
    outer loop
      vertex 1.596764e+02 4.199210e+01 -4.335599e+01
      vertex 1.599534e+02 4.180948e+01 -4.254497e+01
      vertex 1.601663e+02 3.514313e+01 -5.308426e+01
    endloop
  endfacet
  facet normal 4.999577e-01 7.364508e-01 -4.557219e-01
    outer loop
      vertex 1.631224e+02 4.018648e+01 -4.169118e+01
      vertex 1.601663e+02 3.514313e+01 -5.308426e+01
      vertex 1.599534e+02 4.180948e+01 -4.254497e+01
    endloop
  endfacet
  facet normal 4.692083e-01 7.560046e-01 -4.563996e-01
    outer loop
      vertex 1.689440e+02 3.621577e+01 -4.228348e+01
      vertex 1.601663e+02 3.514313e+01 -5.308426e+01
      vertex 1.631224e+02 4.018648e+01 -4.169118e+01
    endloop
  endfacet
  facet normal 3.735919e-01 8.428600e-01 -3.873190e-01
    outer loop
      vertex 1.689440e+02 3.621577e+01 -4.228348e+01
      vertex 1.686191e+02 3.544532e+01 -4.427349e+01
      vertex 1.601663e+02 3.514313e+01 -5.308426e+01
    endloop
  endfacet
  facet normal 4.973798e-01 7.180376e-01 -4.868628e-01
    outer loop
      vertex 1.651327e+02 3.175834e+01 -5.327279e+01
      vertex 1.600131e+02 3.525884e+01 -5.334033e+01
      vertex 1.686191e+02 3.544532e+01 -4.427349e+01
    endloop
  endfacet
  facet normal 5.316584e-01 8.469009e-01 9.907362e-03
    outer loop
      vertex 1.599475e+02 4.209756e+01 -3.467982e+01
      vertex 1.630276e+02 4.015905e+01 -3.426116e+01
      vertex 1.631224e+02 4.018648e+01 -4.169118e+01
    endloop
  endfacet
  facet normal 5.261636e-01 8.503263e-01 9.849930e-03
    outer loop
      vertex 1.691104e+02 3.639724e+01 -3.443979e+01
      vertex 1.631224e+02 4.018648e+01 -4.169118e+01
      vertex 1.630276e+02 4.015905e+01 -3.426116e+01
    endloop
  endfacet
  facet normal 4.624510e-01 8.860634e-01 -3.210580e-02
    outer loop
      vertex 1.599475e+02 4.209756e+01 -3.467982e+01
      vertex 1.631224e+02 4.018648e+01 -4.169118e+01
      vertex 1.599534e+02 4.180948e+01 -4.254497e+01
    endloop
  endfacet
  facet normal 5.610463e-01 8.272023e-01 -3.103876e-02
    outer loop
      vertex 1.691104e+02 3.639724e+01 -3.443979e+01
      vertex 1.689440e+02 3.621577e+01 -4.228348e+01
      vertex 1.631224e+02 4.018648e+01 -4.169118e+01
    endloop
  endfacet
  facet normal 7.163006e-01 -6.666736e-01 -2.060577e-01
    outer loop
      vertex 1.711207e+02 -7.870747e+00 -5.161270e+01
      vertex 1.725357e+02 -9.863533e+00 -4.024643e+01
      vertex 1.675871e+02 -1.314973e+01 -4.681682e+01
    endloop
  endfacet
  facet normal 6.891046e-01 -7.053369e-01 -1.662369e-01
    outer loop
      vertex 1.679405e+02 -1.421214e+01 -4.084403e+01
      vertex 1.675871e+02 -1.314973e+01 -4.681682e+01
      vertex 1.725357e+02 -9.863533e+00 -4.024643e+01
    endloop
  endfacet
  facet normal 7.970011e-01 -5.701873e-01 -1.991879e-01
    outer loop
      vertex 1.756358e+02 -5.701864e+00 -3.975524e+01
      vertex 1.725357e+02 -9.863533e+00 -4.024643e+01
      vertex 1.711207e+02 -7.870747e+00 -5.161270e+01
    endloop
  endfacet
  facet normal 6.663495e-01 -7.269403e-01 1.659401e-01
    outer loop
      vertex 1.724544e+02 -9.241118e+00 -3.719339e+01
      vertex 1.679405e+02 -1.421214e+01 -4.084403e+01
      vertex 1.725357e+02 -9.863533e+00 -4.024643e+01
    endloop
  endfacet
  facet normal 7.370223e-01 -6.581376e-01 1.537952e-01
    outer loop
      vertex 1.754365e+02 -5.874276e+00 -3.707656e+01
      vertex 1.724544e+02 -9.241118e+00 -3.719339e+01
      vertex 1.725357e+02 -9.863533e+00 -4.024643e+01
    endloop
  endfacet
  facet normal 8.005872e-01 -5.988479e-01 2.100986e-02
    outer loop
      vertex 1.754365e+02 -5.874276e+00 -3.707656e+01
      vertex 1.725357e+02 -9.863533e+00 -4.024643e+01
      vertex 1.756358e+02 -5.701864e+00 -3.975524e+01
    endloop
  endfacet
  facet normal 9.578944e-01 3.168670e-02 -2.853669e-01
    outer loop
      vertex 1.705829e+02 1.003718e+00 -5.243242e+01
      vertex 1.711207e+02 -7.870747e+00 -5.161270e+01
      vertex 1.709279e+02 -7.811266e+00 -5.225326e+01
    endloop
  endfacet
  facet normal 7.065856e-01 -2.251245e-02 -7.072693e-01
    outer loop
      vertex 1.778330e+02 7.665630e-01 -4.518182e+01
      vertex 1.711207e+02 -7.870747e+00 -5.161270e+01
      vertex 1.705829e+02 1.003718e+00 -5.243242e+01
    endloop
  endfacet
  facet normal 8.480938e-01 -4.027046e-01 -3.443340e-01
    outer loop
      vertex 1.778330e+02 7.665630e-01 -4.518182e+01
      vertex 1.745711e+02 -5.542730e+00 -4.583703e+01
      vertex 1.711207e+02 -7.870747e+00 -5.161270e+01
    endloop
  endfacet
  facet normal 7.056194e-01 -6.942796e-01 -1.416934e-01
    outer loop
      vertex 1.756358e+02 -5.701864e+00 -3.975524e+01
      vertex 1.711207e+02 -7.870747e+00 -5.161270e+01
      vertex 1.745711e+02 -5.542730e+00 -4.583703e+01
    endloop
  endfacet
  facet normal 7.658845e-01 -6.382400e-01 -7.791367e-02
    outer loop
      vertex 1.687261e+02 -1.360379e+01 -3.810485e+01
      vertex 1.679405e+02 -1.421214e+01 -4.084403e+01
      vertex 1.724544e+02 -9.241118e+00 -3.719339e+01
    endloop
  endfacet
  facet normal 2.535095e-01 -4.516687e-01 8.554112e-01
    outer loop
      vertex 1.775556e+02 2.426388e-01 -3.369762e+01
      vertex 1.751731e+02 -9.413579e-01 -3.361669e+01
      vertex 1.724544e+02 -9.241118e+00 -3.719339e+01
    endloop
  endfacet
  facet normal 5.837021e-01 -5.381002e-01 6.080625e-01
    outer loop
      vertex 1.754365e+02 -5.874276e+00 -3.707656e+01
      vertex 1.775556e+02 2.426388e-01 -3.369762e+01
      vertex 1.724544e+02 -9.241118e+00 -3.719339e+01
    endloop
  endfacet
  facet normal 9.938555e-01 3.677213e-02 -1.043986e-01
    outer loop
      vertex 1.703174e+02 3.094444e-01 -5.520473e+01
      vertex 1.705829e+02 1.003718e+00 -5.243242e+01
      vertex 1.709279e+02 -7.811266e+00 -5.225326e+01
    endloop
  endfacet
  facet normal 9.540067e-01 -2.993359e-01 -1.640998e-02
    outer loop
      vertex 1.733646e+02 9.867392e+00 -5.240305e+01
      vertex 1.705829e+02 1.003718e+00 -5.243242e+01
      vertex 1.703174e+02 3.094444e-01 -5.520473e+01
    endloop
  endfacet
  facet normal 7.546844e-01 -2.348077e-01 -6.126311e-01
    outer loop
      vertex 1.788522e+02 9.488337e+00 -4.549767e+01
      vertex 1.705829e+02 1.003718e+00 -5.243242e+01
      vertex 1.733646e+02 9.867392e+00 -5.240305e+01
    endloop
  endfacet
  facet normal 7.012776e-01 -1.074724e-01 -7.047406e-01
    outer loop
      vertex 1.788522e+02 9.488337e+00 -4.549767e+01
      vertex 1.778330e+02 7.665630e-01 -4.518182e+01
      vertex 1.705829e+02 1.003718e+00 -5.243242e+01
    endloop
  endfacet
  facet normal 8.211079e-01 -9.689673e-02 -5.624880e-01
    outer loop
      vertex 1.694903e+02 1.006466e+01 -5.809269e+01
      vertex 1.733646e+02 9.867392e+00 -5.240305e+01
      vertex 1.703174e+02 3.094444e-01 -5.520473e+01
    endloop
  endfacet
  facet normal -7.404128e-02 1.803424e-01 9.808132e-01
    outer loop
      vertex 1.802053e+02 1.090093e+01 -3.541426e+01
      vertex 1.752984e+02 1.007085e+01 -3.563205e+01
      vertex 1.751731e+02 -9.413579e-01 -3.361669e+01
    endloop
  endfacet
  facet normal -5.172113e-02 1.713198e-01 9.838569e-01
    outer loop
      vertex 1.802053e+02 1.090093e+01 -3.541426e+01
      vertex 1.751731e+02 -9.413579e-01 -3.361669e+01
      vertex 1.775556e+02 2.426388e-01 -3.369762e+01
    endloop
  endfacet
  facet normal 8.258438e-01 6.549254e-02 -5.600827e-01
    outer loop
      vertex 1.724882e+02 2.000502e+01 -5.250991e+01
      vertex 1.733646e+02 9.867392e+00 -5.240305e+01
      vertex 1.694903e+02 1.006466e+01 -5.809269e+01
    endloop
  endfacet
  facet normal 7.996028e-01 6.283233e-02 -5.972332e-01
    outer loop
      vertex 1.783297e+02 1.852730e+01 -4.484445e+01
      vertex 1.733646e+02 9.867392e+00 -5.240305e+01
      vertex 1.724882e+02 2.000502e+01 -5.250991e+01
    endloop
  endfacet
  facet normal 7.821249e-01 8.977503e-02 -6.166206e-01
    outer loop
      vertex 1.783297e+02 1.852730e+01 -4.484445e+01
      vertex 1.788522e+02 9.488337e+00 -4.549767e+01
      vertex 1.733646e+02 9.867392e+00 -5.240305e+01
    endloop
  endfacet
  facet normal 8.109127e-01 8.092576e-02 -5.795443e-01
    outer loop
      vertex 1.724882e+02 2.000502e+01 -5.250991e+01
      vertex 1.694903e+02 1.006466e+01 -5.809269e+01
      vertex 1.690675e+02 1.838309e+01 -5.752266e+01
    endloop
  endfacet
  facet normal 1.862182e-02 -7.113452e-02 9.972929e-01
    outer loop
      vertex 1.793037e+02 1.969426e+01 -3.502042e+01
      vertex 1.752504e+02 2.088324e+01 -3.485993e+01
      vertex 1.752984e+02 1.007085e+01 -3.563205e+01
    endloop
  endfacet
  facet normal -3.611425e-02 -4.840968e-02 9.981745e-01
    outer loop
      vertex 1.793037e+02 1.969426e+01 -3.502042e+01
      vertex 1.752984e+02 1.007085e+01 -3.563205e+01
      vertex 1.802053e+02 1.090093e+01 -3.541426e+01
    endloop
  endfacet
  facet normal 7.365433e-01 3.079146e-01 -6.022396e-01
    outer loop
      vertex 1.691257e+02 2.711164e+01 -5.298870e+01
      vertex 1.724882e+02 2.000502e+01 -5.250991e+01
      vertex 1.690675e+02 1.838309e+01 -5.752266e+01
    endloop
  endfacet
  facet normal 8.548469e-01 -2.436633e-01 4.581103e-01
    outer loop
      vertex 1.692807e+02 2.695973e+01 -5.335875e+01
      vertex 1.691257e+02 2.711164e+01 -5.298870e+01
      vertex 1.690675e+02 1.838309e+01 -5.752266e+01
    endloop
  endfacet
  facet normal 7.582701e-01 3.205210e-01 -5.677083e-01
    outer loop
      vertex 1.766330e+02 2.616115e+01 -4.349813e+01
      vertex 1.724882e+02 2.000502e+01 -5.250991e+01
      vertex 1.691257e+02 2.711164e+01 -5.298870e+01
    endloop
  endfacet
  facet normal 7.898807e-01 2.724573e-01 -5.494137e-01
    outer loop
      vertex 1.766330e+02 2.616115e+01 -4.349813e+01
      vertex 1.783297e+02 1.852730e+01 -4.484445e+01
      vertex 1.724882e+02 2.000502e+01 -5.250991e+01
    endloop
  endfacet
  facet normal 5.132109e-01 -1.314130e-01 8.481422e-01
    outer loop
      vertex 1.767161e+02 2.659814e+01 -3.486132e+01
      vertex 1.722814e+02 3.066222e+01 -3.154820e+01
      vertex 1.752504e+02 2.088324e+01 -3.485993e+01
    endloop
  endfacet
  facet normal 3.686481e-02 -9.211879e-03 9.992778e-01
    outer loop
      vertex 1.767161e+02 2.659814e+01 -3.486132e+01
      vertex 1.752504e+02 2.088324e+01 -3.485993e+01
      vertex 1.793037e+02 1.969426e+01 -3.502042e+01
    endloop
  endfacet
  facet normal 7.229205e-01 -4.778958e-01 4.990006e-01
    outer loop
      vertex 1.686191e+02 3.544532e+01 -4.427349e+01
      vertex 1.691257e+02 2.711164e+01 -5.298870e+01
      vertex 1.692807e+02 2.695973e+01 -5.335875e+01
    endloop
  endfacet
  facet normal 8.944563e-01 3.480112e-01 -2.807779e-01
    outer loop
      vertex 1.689440e+02 3.621577e+01 -4.228348e+01
      vertex 1.691257e+02 2.711164e+01 -5.298870e+01
      vertex 1.686191e+02 3.544532e+01 -4.427349e+01
    endloop
  endfacet
  facet normal 6.967248e-01 5.522441e-01 -4.578220e-01
    outer loop
      vertex 1.738557e+02 3.058680e+01 -4.159862e+01
      vertex 1.691257e+02 2.711164e+01 -5.298870e+01
      vertex 1.689440e+02 3.621577e+01 -4.228348e+01
    endloop
  endfacet
  facet normal 7.144845e-01 5.288583e-01 -4.580620e-01
    outer loop
      vertex 1.765101e+02 2.630235e+01 -4.240496e+01
      vertex 1.691257e+02 2.711164e+01 -5.298870e+01
      vertex 1.738557e+02 3.058680e+01 -4.159862e+01
    endloop
  endfacet
  facet normal 2.448633e-01 9.646854e-01 -9.707801e-02
    outer loop
      vertex 1.766330e+02 2.616115e+01 -4.349813e+01
      vertex 1.691257e+02 2.711164e+01 -5.298870e+01
      vertex 1.765101e+02 2.630235e+01 -4.240496e+01
    endloop
  endfacet
  facet normal 6.553202e-01 5.752396e-01 -4.895455e-01
    outer loop
      vertex 1.651327e+02 3.175834e+01 -5.327279e+01
      vertex 1.686191e+02 3.544532e+01 -4.427349e+01
      vertex 1.692807e+02 2.695973e+01 -5.335875e+01
    endloop
  endfacet
  facet normal 8.393664e-01 5.283980e-01 1.275135e-01
    outer loop
      vertex 1.691104e+02 3.639724e+01 -3.443979e+01
      vertex 1.722814e+02 3.066222e+01 -3.154820e+01
      vertex 1.738557e+02 3.058680e+01 -4.159862e+01
    endloop
  endfacet
  facet normal 7.139052e-01 6.920757e-01 1.066329e-01
    outer loop
      vertex 1.767161e+02 2.659814e+01 -3.486132e+01
      vertex 1.738557e+02 3.058680e+01 -4.159862e+01
      vertex 1.722814e+02 3.066222e+01 -3.154820e+01
    endloop
  endfacet
  facet normal 7.549902e-01 6.549949e-01 -3.116832e-02
    outer loop
      vertex 1.691104e+02 3.639724e+01 -3.443979e+01
      vertex 1.738557e+02 3.058680e+01 -4.159862e+01
      vertex 1.689440e+02 3.621577e+01 -4.228348e+01
    endloop
  endfacet
  facet normal 8.455326e-01 5.321116e-01 -4.395338e-02
    outer loop
      vertex 1.767161e+02 2.659814e+01 -3.486132e+01
      vertex 1.765101e+02 2.630235e+01 -4.240496e+01
      vertex 1.738557e+02 3.058680e+01 -4.159862e+01
    endloop
  endfacet
  facet normal 8.875414e-01 -4.474564e-01 -1.097864e-01
    outer loop
      vertex 1.778330e+02 7.665630e-01 -4.518182e+01
      vertex 1.787738e+02 1.133142e+00 -3.907005e+01
      vertex 1.745711e+02 -5.542730e+00 -4.583703e+01
    endloop
  endfacet
  facet normal 9.021202e-01 -3.972993e-01 -1.683225e-01
    outer loop
      vertex 1.756358e+02 -5.701864e+00 -3.975524e+01
      vertex 1.745711e+02 -5.542730e+00 -4.583703e+01
      vertex 1.787738e+02 1.133142e+00 -3.907005e+01
    endloop
  endfacet
  facet normal 9.796320e-01 -1.416723e-01 -1.423031e-01
    outer loop
      vertex 1.796779e+02 1.009640e+01 -4.176993e+01
      vertex 1.787738e+02 1.133142e+00 -3.907005e+01
      vertex 1.778330e+02 7.665630e-01 -4.518182e+01
    endloop
  endfacet
  facet normal 8.956441e-01 -4.245056e-01 1.327275e-01
    outer loop
      vertex 1.775556e+02 2.426388e-01 -3.369762e+01
      vertex 1.756358e+02 -5.701864e+00 -3.975524e+01
      vertex 1.787738e+02 1.133142e+00 -3.907005e+01
    endloop
  endfacet
  facet normal 9.605524e-01 -2.093024e-01 1.831166e-01
    outer loop
      vertex 1.802053e+02 1.090093e+01 -3.541426e+01
      vertex 1.775556e+02 2.426388e-01 -3.369762e+01
      vertex 1.787738e+02 1.133142e+00 -3.907005e+01
    endloop
  endfacet
  facet normal 9.905009e-01 -1.200834e-01 -6.699143e-02
    outer loop
      vertex 1.802053e+02 1.090093e+01 -3.541426e+01
      vertex 1.787738e+02 1.133142e+00 -3.907005e+01
      vertex 1.796779e+02 1.009640e+01 -4.176993e+01
    endloop
  endfacet
  facet normal 9.731652e-01 -1.208154e-01 -1.958397e-01
    outer loop
      vertex 1.788522e+02 9.488337e+00 -4.549767e+01
      vertex 1.796779e+02 1.009640e+01 -4.176993e+01
      vertex 1.778330e+02 7.665630e-01 -4.518182e+01
    endloop
  endfacet
  facet normal 9.355333e-01 -3.500897e-01 4.705944e-02
    outer loop
      vertex 1.754365e+02 -5.874276e+00 -3.707656e+01
      vertex 1.756358e+02 -5.701864e+00 -3.975524e+01
      vertex 1.775556e+02 2.426388e-01 -3.369762e+01
    endloop
  endfacet
  facet normal 9.710461e-01 7.398705e-02 -2.271463e-01
    outer loop
      vertex 1.789278e+02 1.930040e+01 -4.197851e+01
      vertex 1.796779e+02 1.009640e+01 -4.176993e+01
      vertex 1.788522e+02 9.488337e+00 -4.549767e+01
    endloop
  endfacet
  facet normal 9.897924e-01 1.057668e-01 -9.552186e-02
    outer loop
      vertex 1.793037e+02 1.969426e+01 -3.502042e+01
      vertex 1.802053e+02 1.090093e+01 -3.541426e+01
      vertex 1.796779e+02 1.009640e+01 -4.176993e+01
    endloop
  endfacet
  facet normal 9.951085e-01 7.977508e-02 -5.826670e-02
    outer loop
      vertex 1.793037e+02 1.969426e+01 -3.502042e+01
      vertex 1.796779e+02 1.009640e+01 -4.176993e+01
      vertex 1.789278e+02 1.930040e+01 -4.197851e+01
    endloop
  endfacet
  facet normal 9.722710e-01 7.227797e-02 -2.224074e-01
    outer loop
      vertex 1.783297e+02 1.852730e+01 -4.484445e+01
      vertex 1.789278e+02 1.930040e+01 -4.197851e+01
      vertex 1.788522e+02 9.488337e+00 -4.549767e+01
    endloop
  endfacet
  facet normal 9.146818e-01 2.992922e-01 -2.716272e-01
    outer loop
      vertex 1.765101e+02 2.630235e+01 -4.240496e+01
      vertex 1.789278e+02 1.930040e+01 -4.197851e+01
      vertex 1.783297e+02 1.852730e+01 -4.484445e+01
    endloop
  endfacet
  facet normal 9.335381e-01 3.515129e-01 -7.032240e-02
    outer loop
      vertex 1.767161e+02 2.659814e+01 -3.486132e+01
      vertex 1.793037e+02 1.969426e+01 -3.502042e+01
      vertex 1.789278e+02 1.930040e+01 -4.197851e+01
    endloop
  endfacet
  facet normal 9.452565e-01 3.240470e-01 -3.851813e-02
    outer loop
      vertex 1.767161e+02 2.659814e+01 -3.486132e+01
      vertex 1.789278e+02 1.930040e+01 -4.197851e+01
      vertex 1.765101e+02 2.630235e+01 -4.240496e+01
    endloop
  endfacet
  facet normal 9.757828e-01 2.021391e-01 8.359204e-02
    outer loop
      vertex 1.766330e+02 2.616115e+01 -4.349813e+01
      vertex 1.765101e+02 2.630235e+01 -4.240496e+01
      vertex 1.783297e+02 1.852730e+01 -4.484445e+01
    endloop
  endfacet
endsolid SIM_ICUB3_R_SHOULDER_3
